<svg xmlns="http://www.w3.org/2000/svg" xmlns:xlink="http://www.w3.org/1999/xlink" width="404" height="535.158" viewBox="0 0 404 535.158"><defs><style>.a{fill:#fff;stroke:#707070;}.b{fill:#d9e4ff;}.c,.e,.g{fill:#003472;}.d{clip-path:url(#a);}.e{font-size:50px;}.e,.g{font-family:HelveticaNeue-Bold, Helvetica Neue;font-weight:700;letter-spacing:-0.08em;}.f{clip-path:url(#b);}.g{font-size:180px;}</style><clipPath id="a"><rect class="a" width="404" height="39" transform="translate(158 2720)"/></clipPath><clipPath id="b"><rect class="a" width="404" height="134" transform="translate(163 2626)"/></clipPath></defs><g transform="translate(-158 -2553)"><g transform="translate(140.259 2725.006)"><g transform="translate(67.371 222.749)"><path class="b" d="M98.233,215.5h0a4.015,4.015,0,0,0-1.8-.4H85.989a1.279,1.279,0,0,0-1.264,1.492.212.212,0,0,1-.06.142.209.209,0,0,1-.142.067c-1.137.077-2.12.161-3.077.267s-2.041.2-3.094.253a18.13,18.13,0,0,1-3.205-.074c-.349-.043-.71-.109-.994-.163-.2-.037-.379-.071-.551-.1a11.6,11.6,0,0,0-1.45-.151c-.477-.028-.945-.02-1.5-.011l-1.546.036-3.1.115c-.345.013-.726.014-1.1.017a7.005,7.005,0,0,0-1.847.122,4.83,4.83,0,0,0-1.137.484,4.288,4.288,0,0,0-.483.342,1.306,1.306,0,0,0-.142.132l-.055.041c-.034.026-.071.057-.107.088-.067.063-.129.125-.224.22a5.433,5.433,0,0,0-.769,1.083,5.207,5.207,0,0,0-.435,1.185,11.643,11.643,0,0,0-.082,2.57l.009.347c.016.426.045.842.08,1.294l.017.237c.036.482.074,1.04.087,1.583.011.511.02,1.057.009,1.584l-.026,1.527c0,.492,0,.966.014,1.456h0l.01.384c.01.4.02.82.024,1.249,0,.976-.017,2-.063,3.125s-.132,2.175-.23,3.117c-.094,1-.172,2-.237,3.059a.224.224,0,0,1-.2.212,1.279,1.279,0,0,0-1.137,1.279V251.3a5.163,5.163,0,0,0,.034.6,1.279,1.279,0,0,0,2.131.793l.074-.068c.71-.678,1.512-1.443,2.363-2.172A24.9,24.9,0,0,1,65.2,248.49a17.84,17.84,0,0,1,2.6-1.412,1.279,1.279,0,0,0,.678-.693c.348-.852.69-1.618,1.048-2.321.2-.392.386-.747.568-1.083.1-.17.2-.345.305-.52a1.305,1.305,0,0,0,.153-.388l.017-.078c.009-.041.018-.09.033-.142a1.48,1.48,0,0,1,.162-.372,1.2,1.2,0,0,1,.126-.172l.448-.507c.26-.293.531-.594.813-.892.568-.605,1.158-1.179,1.742-1.7.325-.294.68-.587.916-.78l.929-.749c.56-.438,1.23-.953,1.952-1.451.313-.217.642-.435.994-.661l.551-.33c.176-.1.359-.2.568-.3a11.267,11.267,0,0,1,1.2-.476,1.288,1.288,0,0,0,.264-.125,11.389,11.389,0,0,0,2.211-1.7,13.522,13.522,0,0,0,1.98-2.823,18.254,18.254,0,0,1,1.058-1.676,1.334,1.334,0,0,0,.088-.142l.1-.182c.1-.176.2-.352.3-.534.3-.514.607-1.026.915-1.527l.359-.588c.04-.064.078-.128.121-.189a7.455,7.455,0,0,1,.655-.807,5.763,5.763,0,0,1,.756-.683c.315-.236.558-.4.79-.553.582-.375,1.162-.688,1.6-.916l1.585-.806c.267-.142.519-.266.78-.411l.719-.416c.868-.52,1.826-1.038,2.929-1.585a1.279,1.279,0,0,0,0-2.294Z" transform="translate(-57.978 -215.104)"/><path class="b" d="M229.157,228.412a19.178,19.178,0,0,0-.109-2.85c-.028-.207-.065-.435-.108-.683s-.088-.521-.132-.827a15.151,15.151,0,0,1-.142-1.681c-.009-.2-.011-.391-.014-.618v-.4a2.035,2.035,0,0,0-.027-.362,3.9,3.9,0,0,0-.294-1.1,3.538,3.538,0,0,0-.587-.976,3.267,3.267,0,0,0-.845-.754,3.173,3.173,0,0,0-.915-.411,1.465,1.465,0,0,0-.293-.061l-.061-.01a1.411,1.411,0,0,0-.267-.03.485.485,0,0,1-.118-.01.844.844,0,0,0-.112-.007h-.389c-1.155,0-2.333-.057-3.125-.1-.5-.026-.994-.044-1.5-.053l-1.477-.009a13.422,13.422,0,0,0-1.4.078c-.359.041-.71.1-1.114.178l-.321.057a14.848,14.848,0,0,1-1.668.209c-.466.031-.994.045-1.629.037-.52,0-1.044-.013-1.578-.033-.489-.018-.982-.05-1.449-.078h-.112c-.877-.057-1.8-.082-2.983-.082-.975,0-1.938.011-3.032.047-1.057.031-2.107.041-3.125.034-.577,0-1.105-.023-1.612-.058-.448-.03-.915-.085-1.335-.134l-.244-.028a22.611,22.611,0,0,0-2.918-.156l-6.126-.026c-.477,0-.939.021-1.412.064s-.852.109-1.421.21a15.57,15.57,0,0,1-1.655.21c-.546.044-1.063.044-1.631.04-.54,0-1.083-.026-1.615-.065-.578-.043-1.182-.134-1.59-.2-.513-.075-.953-.134-1.433-.169-.452-.034-.911-.048-1.466-.058-1.179-.014-2.11-.009-3.018.017-.935.027-1.982.028-3.113,0-.5-.009-.995-.011-1.479,0-.465.013-.922.037-1.482.08-.48.036-1.037.074-1.581.082s-1.077,0-1.576-.02c-.523-.017-1.039-.045-1.576-.087-.448-.038-.959-.1-1.563-.185-.492-.075-.963-.134-1.482-.185-.467-.047-.96-.081-1.507-.109a.639.639,0,0,1-.523-.321.852.852,0,0,0-.742-.426h-8.548a3.368,3.368,0,0,0-2.929,1.531.852.852,0,0,0,.253,1.182c.729.47,1.354.852,1.965,1.182,1.162.642,2.5,1.245,3.8,1.827l.582.263q.328.147.661.3c.547.251,1.1.536,1.652.818l.229.118a23.938,23.938,0,0,0,3.157,1.456,2.959,2.959,0,0,1,1.847,1.752,1.97,1.97,0,0,1-.045,1.354.852.852,0,0,0-.064.325v.142a.852.852,0,0,0-.442.3,14.548,14.548,0,0,1-4.546,3.574,17.751,17.751,0,0,1-5.755,1.941,18.469,18.469,0,0,1-3.1.232c-.835,0-1.678-.04-2.513-.078l-.3-.014c-.169,0-.335-.016-.5-.024l-.227-.013a.823.823,0,0,0-.247.021,6.878,6.878,0,0,0-3.836,2.713.853.853,0,0,0-.142.253l-.1.085a.853.853,0,0,0-.158.173.528.528,0,0,1-.142.142.854.854,0,0,0-.172.142,7.855,7.855,0,0,1-.689.639,13.662,13.662,0,0,1-5.8,2.5c-.268.063-.538.129-.806.195l-.436.107a18.557,18.557,0,0,1-4.351.726c-.186,0-.372-.009-.568-.024l-.493-.034a.888.888,0,0,0-.182,0l-.966.124c-2.509.328-3.617,1.642-4.594,3.655a.914.914,0,0,0-.038.092l-.276.786c-.229.645-.443,1.253-.635,1.872-.22.732-.369,1.308-.483,1.864l-.426,2.027c-.232,1.1-.516,2.54-.671,3.937a18.786,18.786,0,0,0,.055,3.218l.047.688c.058.872.075,1.544.058,2.175l-.081,2.084a39.691,39.691,0,0,0-.007,4,28.754,28.754,0,0,0,.527,3.911c.119.594.257,1.219.436,1.961l.466,2.027a17.9,17.9,0,0,0,1.162,3.668,27.535,27.535,0,0,0,1.939,3.422c.334.5.71,1.027,1.159,1.6a9.551,9.551,0,0,0,1.254,1.279c.531.46,1.137.9,1.782,1.362.477.345.97.7,1.478,1.1.386.305.757.611,1.122.909.71.584,1.384,1.137,2.064,1.608a12.027,12.027,0,0,0,1.575.939,18.4,18.4,0,0,0,1.78.737,34.121,34.121,0,0,0,3.8,1.053,13.139,13.139,0,0,0,1.922.284,6.278,6.278,0,0,0,3.147-.662,5.824,5.824,0,0,0,2.151-2.83l.038-.084A22.69,22.69,0,0,1,144,288.957a.831.831,0,0,0,.055-.111,68.716,68.716,0,0,1,3.242-6.819c.192-.426.416-.877.71-1.431a8.814,8.814,0,0,0,.923-6.677.826.826,0,0,0-.054-.158c-.2-.435-.391-.852-.584-1.267l-.3-.621c-.1-.217-.2-.435-.315-.686-.179-.4-.358-.84-.568-1.375-.337-.9-.641-1.847-.906-2.8l-.364-1.341c-.027-.111-.06-.215-.1-.324a.722.722,0,0,1-.094-.317c-.07-.227-.142-.465-.22-.69l-.117-.362a19.843,19.843,0,0,1-.689-2.539,8.335,8.335,0,0,1-.142-1.665l.054-.827c.021-.254.053-.51.085-.754a17.618,17.618,0,0,1,.676-2.993,15.617,15.617,0,0,1,1.217-2.841,17.774,17.774,0,0,1,1.73-2.534,27.348,27.348,0,0,1,2.029-2.208,18.8,18.8,0,0,1,2.353-1.935c.83-.587,1.664-1.117,2.442-1.6l.591-.369a3.552,3.552,0,0,1,1.137-.45,3.2,3.2,0,0,1,1.279.014,3.447,3.447,0,0,1,1.137.5,3.991,3.991,0,0,1,1.375,1.749c.014.031.026.064.041.105l1.86,5.643c.109.34.223.69.342.994.317.84.7,1.7,1.066,2.549.386.882.764,1.749,1.122,2.65.321.815.683,1.58,1.137,2.476l.27.544c.327.658.666,1.338.985,2.039l2.973,6.426c.21.457.4.906.59,1.345l1.084,2.61q.276.635.568,1.245l.311.644a8.14,8.14,0,0,1,.321.79,8.251,8.251,0,0,1,.395,1.659.863.863,0,0,0,.048.192,1.3,1.3,0,0,1,.047.777.842.842,0,0,0-.026.186v.529a9.19,9.19,0,0,1-.242,1.629l-.19.719c-.05.2-.1.412-.142.631-.08.382-.156.79-.241,1.242-.094.5-.192,1.021-.3,1.546a24.816,24.816,0,0,1-.79,2.905,18.946,18.946,0,0,1-1.2,2.617l-.081.153c-.456.852-.886,1.656-1.264,2.486-.061.135-.124.276-.18.418a.852.852,0,0,0,.44,1.09,3.664,3.664,0,0,0,1.526.315h7.27a.852.852,0,0,0,.84-1,.669.669,0,0,1-.01-.165.645.645,0,0,1,.6-.6c.882-.062,1.929-.142,3.018-.259.921-.1,1.959-.183,3.087-.234,1.159-.054,2.184-.064,3.125-.034l.284.01c.966.034,1.8.064,2.728.041,1.2-.021,2.117-.062,2.968-.142l1.5-.153c.54-.051,1.077-.087,1.6-.108.734-.028,1.436-.031,2.131-.036h.973l3.066-.017c2.024-.009,4.12,0,6.136,0h1.351c.568,0,1.146,0,1.746.009.529.013,1.068.033,1.588.063l1.512.085c.845.034,1.818.043,2.976.023.852-.016,1.624-.078,2.509-.151l.49-.04c.467-.037.975-.06,1.6-.074l1.169-.024h.082a.991.991,0,0,0,.182-.011,3.918,3.918,0,0,0,2.032-.82,3.2,3.2,0,0,0,.733-.807,2.863,2.863,0,0,0,.415-.936,1.754,1.754,0,0,0,.074-.371,1.286,1.286,0,0,0,.03-.269c0-.045,0-.091,0-.118a1.5,1.5,0,0,0,0-.195V288.1c0-.5-.013-.994-.03-1.486-.013-.347-.033-.692-.055-1.053l-.027-.453c-.026-.467-.054-1.024-.064-1.648-.009-.513-.016-.987-.011-1.517.009-.636.036-1.165.082-1.661.043-.463.115-.945.172-1.333l.037-.251c.074-.53.115-.948.142-1.4.023-.587.028-1.051.018-1.421a9.535,9.535,0,0,0-.116-1.313c-.048-.338-.131-.672-.226-1.058l-.088-.358a11.219,11.219,0,0,1-.268-1.719c-.043-.555-.057-1.122-.044-1.688a15.333,15.333,0,0,1,.112-1.686c.053-.426.132-.841.2-1.21.027-.142.051-.267.071-.378a10.519,10.519,0,0,0,.166-1.357c.051-.9.026-2.029,0-2.922l-.081-1.5c-.03-.536-.05-1.085-.058-1.587,0-.323,0-.629-.009-.959,0-.71-.009-1.384-.053-2.049-.017-.314-.044-.635-.072-.979l-.044-.536c-.041-.482-.068-1.02-.081-1.6,0-.229-.009-.455-.01-.676v-.334a.861.861,0,0,0-.027-.2c0-.142.016-.3.024-.449v-1.436l-.023-3.236a20.026,20.026,0,0,1,.158-3.125c.055-.381.129-.746.189-1.04.037-.185.071-.355.1-.509a11.293,11.293,0,0,0,.152-1.338c.024-.4.023-.817.023-1.262v-.189c0-.507-.009-1-.021-1.5-.007-.273-.017-.557-.027-.852v-.116c-.023-.7-.048-1.429-.051-2.131,0-.994,0-2.056.047-3.138l.038-.769-.426-.021.426.016C229.115,229.9,229.146,229.178,229.157,228.412ZM193.345,279.68c-.026-.152-.061-.31-.1-.476a1.871,1.871,0,0,0-1.124-1.306,2.111,2.111,0,0,0-1.885.232.4.4,0,0,1-.176.067.861.861,0,0,0-.185.038,6.022,6.022,0,0,1-3.755-.209,9.1,9.1,0,0,1-4.955-4.19.77.77,0,0,0-.047-.07c-.01-.023-.023-.044-.034-.065a22.484,22.484,0,0,1-2.645-11.1A19.231,19.231,0,0,1,197.644,243.4a19.738,19.738,0,0,1,4.022.442.622.622,0,0,0,.2.018h.53a.813.813,0,0,0,.477-.142,1.492,1.492,0,0,0,.659-1.421v-.051a.618.618,0,0,0-.007-.115.853.853,0,0,0-.111-.348,5.572,5.572,0,0,1-.267-5.616,8.025,8.025,0,0,1,3.593-3.552,3.616,3.616,0,0,0,1.685-1.421c1.036-1.871-.4-4.4-.415-4.425a.852.852,0,0,1,1.009-1.243,11.421,11.421,0,0,1,6.819,5.825,11.022,11.022,0,0,1,.584,8.24,8.233,8.233,0,0,1-5.035,4.944.828.828,0,0,0-.142.071,1.986,1.986,0,0,0-1.085,1.563,2.019,2.019,0,0,0,.341,1.215.852.852,0,0,0,.259.269c5.154,3.388,9.494,8.984,6.215,14.523-1.891,3.187-5.022,3.125-8.328,3.056h-.111l-.695.072c-2.983.3-4.431,1.827-5.941,4.393a88.163,88.163,0,0,1-7.118,12.6.852.852,0,0,1-1.551-.536c.028-.6.071-1.226.126-1.864A.852.852,0,0,0,193.345,279.68Z" transform="translate(-55.155 -215.039)"/></g><g transform="translate(37.804 60.538)"><g transform="translate(20 16.173)"><path class="c" d="M340.032,146.684c0,.256,0,.507-.017.754a13.257,13.257,0,0,1-.162,1.421c-.153.9-.358,1.736-.511,2.5-.081.379-.149.742-.2,1.084-.047.315-.085.71-.124,1.118a38.545,38.545,0,0,1-.686,5.136,32.193,32.193,0,0,1-1.7,4.982l-.473,1.137c-.149.362-.324.79-.494,1.178-.345.794-.71,1.563-1.105,2.337s-.8,1.527-1.22,2.273-.884,1.493-1.352,2.213-.96,1.433-1.463,2.131l-1.48,1.989a34.585,34.585,0,0,1-3.323,4.087,33.077,33.077,0,0,1-4.138,3.268c-1.229.879-2.471,1.962-3.9,3-.354.26-.725.516-1.105.767l-.584.371-.568.332c-.7.409-1.421.833-2.167,1.25s-1.523.837-2.341,1.216a16.177,16.177,0,0,1-2.662.994c-1.809.49-3.4.7-4.782,1.114-1.468.409-3.08,1.02-4.957,1.37a26.9,26.9,0,0,1-5.387.284l-1.212-.026-1.216-.013c-.841-.009-1.693-.03-2.557-.072s-1.736-.111-2.611-.213a26.022,26.022,0,0,1-2.641-.439c-.862-.183-1.7-.4-2.509-.614l-1.2-.324c-.4-.111-.742-.2-1.127-.294A36.738,36.738,0,0,1,273,191.63l-2.307-.939c-.776-.315-1.578-.652-2.39-1.046-.4-.2-.815-.409-1.22-.635-.2-.107-.426-.251-.644-.388s-.418-.284-.614-.426a23.981,23.981,0,0,1-2.069-1.774c-.605-.568-1.161-1.1-1.7-1.519s-1.19-.867-1.868-1.327-1.421-.952-2.154-1.544a13.409,13.409,0,0,1-1.1-.969c-.324-.324-.618-.631-.918-.956-1.186-1.279-2.256-2.624-3.268-3.955a35.479,35.479,0,0,1-2.756-4.45l-1.216-2.154c-.409-.737-.811-1.5-1.19-2.273s-.75-1.6-1.063-2.368l-.956-2.252c-.324-.784-.656-1.6-.935-2.475-.068-.217-.132-.439-.2-.661l-.162-.635-.3-1.186c-.2-.8-.418-1.621-.592-2.479a24.708,24.708,0,0,1-.4-2.637,42.781,42.781,0,0,1-.179-5.114l.021-.635.013-.328c.009-.142.013-.273.03-.4a10.088,10.088,0,0,1,.256-1.429c.209-.875.452-1.6.554-2.235l.009-.051a1.495,1.495,0,0,1,2.969.3,23.4,23.4,0,0,1-.337,2.611,6.915,6.915,0,0,0-.085,1.007,1.84,1.84,0,0,0,.009.217l.013.284.038.592c.1,1.583.264,3.157.5,4.714a32.7,32.7,0,0,0,1.105,4.5l.349,1.191.166.554c.055.17.111.341.17.511.239.686.533,1.391.852,2.115l1.012,2.273c.315.746.622,1.421.973,2.12s.72,1.387,1.114,2.081l1.22,2.131a31.261,31.261,0,0,0,2.445,3.911c.986,1.271,1.979,2.5,3.033,3.617.26.284.537.568.794.815a8.992,8.992,0,0,0,.754.661c.546.426,1.182.852,1.86,1.306s1.412.931,2.158,1.514,1.4,1.195,1.989,1.745a19.831,19.831,0,0,0,1.676,1.429c.132.1.264.183.392.268s.251.153.418.243c.311.175.631.341.969.5.669.32,1.382.614,2.131.913l2.265.9a35.552,35.552,0,0,0,4.467,1.148c.413.094.875.213,1.259.315l1.182.311c.78.2,1.54.388,2.286.546a21.615,21.615,0,0,0,2.218.349c.759.081,1.523.142,2.3.17s1.563.047,2.368.051h1.246l1.254.026a22.008,22.008,0,0,0,4.441-.192c1.361-.243,2.841-.78,4.535-1.263,1.766-.507,3.451-.733,4.816-1.114a11.189,11.189,0,0,0,1.945-.729c.673-.307,1.348-.665,2.034-1.05s1.382-.79,2.1-1.208l.49-.284.46-.284c.3-.2.609-.409.918-.631,1.233-.888,2.483-1.953,3.928-2.983a30.267,30.267,0,0,0,3.617-2.786,30.335,30.335,0,0,0,2.9-3.552l1.48-1.953q.71-.948,1.348-1.919c.426-.652.837-1.31,1.229-1.989s.771-1.37,1.137-2.064.695-1.4,1.016-2.107c.162-.362.3-.695.469-1.088l.477-1.137a30.081,30.081,0,0,0,1.563-4.3,43.042,43.042,0,0,0,.75-4.607c.06-.413.111-.828.2-1.323.085-.469.2-.909.311-1.327.222-.841.452-1.6.609-2.3.081-.354.142-.69.192-1.016.021-.162.038-.32.047-.477s.017-.371.021-.554c.017-.776.009-1.563-.017-2.346-.055-1.574-.192-3.17-.349-4.782h0a1.5,1.5,0,0,1,2.944-.49,46.162,46.162,0,0,1,.931,4.987c.111.852.188,1.7.23,2.577C340.008,146.237,340.032,146.424,340.032,146.684Z" transform="translate(-39.269 -72.913)"/><path class="c" d="M339.689,258.318c.013.55,0,1.122-.038,1.7-.013.142-.021.294-.043.443l-.047.418-.1.754c-.142,1.007-.284,2.034-.473,3.08-.1.52-.2,1.046-.328,1.574-.064.268-.128.52-.2.8s-.175.588-.273.875a24.471,24.471,0,0,1-1.361,2.995c-.226.448-.443.871-.631,1.279-.094.2-.183.4-.264.6l-.294.71c-.4.948-.824,1.9-1.289,2.85-.234.477-.477.948-.733,1.421l-.392.71c-.111.2-.2.362-.3.568-.392.767-.759,1.681-1.233,2.671a12.694,12.694,0,0,1-1.949,3.063,18.991,18.991,0,0,1-2.534,2.256c-.4.311-.763.6-1.1.888a10.109,10.109,0,0,0-.9.852c-.588.627-1.186,1.4-1.885,2.213-.349.409-.729.828-1.156,1.246-.217.209-.439.413-.678.618l-.366.294-.294.23c-.78.605-1.583,1.237-2.436,1.864a26.055,26.055,0,0,1-2.756,1.8,22.446,22.446,0,0,1-3.059,1.348c-.977.362-1.872.673-2.722,1.033-.926.384-1.872.78-2.858,1.152s-2,.71-3.072,1a30.6,30.6,0,0,1-3.157.665c-1.037.17-2.051.307-3.046.439-1.058.142-2.115.234-3.165.294s-2.09.081-3.125.085a28.791,28.791,0,0,1-3.246-.192c-1.05-.111-2.06-.256-3.037-.388l-2.995-.392a29.362,29.362,0,0,1-3.2-.614c-1.05-.273-2.026-.568-3.033-.9s-1.989-.695-2.961-1.092l-.678-.284-.661-.256-1.4-.529a25.173,25.173,0,0,1-3.02-1.331l-.388-.217-.4-.247c-.268-.17-.52-.349-.763-.528-.477-.362-.909-.737-1.31-1.105-.8-.733-1.48-1.421-2.131-1.97l-1.148-.922c-.409-.332-.815-.673-1.208-1.024a59.213,59.213,0,0,1-4.454-4.386q-1.065-1.164-2.043-2.407l-.473-.605c-.132-.175-.273-.345-.426-.524-.294-.354-.614-.71-.948-1.092a24.251,24.251,0,0,1-2.051-2.581,11.688,11.688,0,0,1-.9-1.6,17.074,17.074,0,0,1-.635-1.617c-.349-1.041-.6-2-.9-2.833a12.819,12.819,0,0,0-.486-1.191c-.188-.406-.4-.815-.631-1.254a25,25,0,0,1-1.391-2.973,16.889,16.889,0,0,1-.794-3.349c-.158-1.067-.251-2.09-.358-3.059-.051-.494-.115-.922-.175-1.536-.051-.568-.077-1.118-.085-1.659-.013-1.084.03-2.107.051-3.084.009-.482.017-.977,0-1.391-.009-.439-.043-.9-.081-1.382-.077-.965-.2-2-.2-3.148a13.579,13.579,0,0,1,.107-1.783l.03-.226.03-.188.06-.375.124-.759c.179-1.007.379-2.03.626-3.054.128-.507.264-1.02.418-1.531l.239-.767a8.6,8.6,0,0,1,.32-.852,16.794,16.794,0,0,1,1.651-2.88c.575-.845,1.137-1.6,1.587-2.358l.021-.038a1.5,1.5,0,0,1,2.7,1.279,25.369,25.369,0,0,1-1.331,2.888,16.52,16.52,0,0,0-1.08,2.453c-.064.2-.107.367-.158.575l-.158.682c-.1.456-.188.918-.268,1.387q-.256,1.4-.439,2.854l-.1.729-.047.362-.026.183-.017.149a10.059,10.059,0,0,0-.043,1.212c.026.852.128,1.809.222,2.841.047.516.09,1.054.107,1.617.017.584.008,1.092,0,1.608-.017,1.024-.051,2-.03,2.922.009.456.03.9.072,1.335l.175,1.446c.119,1.02.217,1.989.354,2.9a12.843,12.843,0,0,0,.588,2.488A24.122,24.122,0,0,0,249.776,269c.234.443.482.918.72,1.421a16.579,16.579,0,0,1,.656,1.587c.375,1.054.639,2.03.935,2.884.149.426.3.82.469,1.178a7,7,0,0,0,.568,1,20,20,0,0,0,1.7,2.1c.328.371.673.759,1.02,1.173q.263.307.524.639l.456.575q.882,1.106,1.855,2.158a55.344,55.344,0,0,0,4.12,4.015q.537.467,1.088.909l.55.439c.162.124.439.337.648.511.884.737,1.608,1.476,2.29,2.09.341.307.669.584.986.824.162.119.32.226.473.324l.234.142.268.149a20.274,20.274,0,0,0,2.483,1.067l1.408.524.733.284.71.284q1.311.531,2.671.973c.9.284,1.838.568,2.731.794a25.644,25.644,0,0,0,2.7.5l2.956.371c1.007.128,1.975.264,2.918.358a24.287,24.287,0,0,0,2.748.149c.969,0,1.928-.017,2.88-.068s1.881-.128,2.812-.247c.994-.128,1.958-.256,2.9-.4a25.661,25.661,0,0,0,5.353-1.421c.892-.328,1.792-.7,2.718-1.08.995-.418,2-.759,2.893-1.088a17.964,17.964,0,0,0,2.436-1.054,22.218,22.218,0,0,0,2.273-1.476c.767-.558,1.54-1.161,2.341-1.779l.3-.23.217-.175c.142-.124.284-.251.435-.392q.426-.426.884-.952c.605-.695,1.242-1.514,2.022-2.346a14.768,14.768,0,0,1,1.279-1.208c.426-.367.852-.69,1.242-.994a15.227,15.227,0,0,0,1.962-1.7,8.334,8.334,0,0,0,1.25-1.989c.4-.82.776-1.762,1.293-2.773.128-.247.284-.52.413-.754l.341-.609q.339-.614.652-1.246c.418-.852.811-1.723,1.195-2.615l.284-.678c.111-.264.226-.524.345-.776.234-.5.473-.965.71-1.412a22.036,22.036,0,0,0,1.137-2.458c.064-.187.124-.375.175-.554.06-.2.115-.435.17-.652.107-.448.2-.9.284-1.361.17-.926.311-1.877.448-2.854l.1-.737.038-.324c.013-.1.021-.2.03-.3.03-.4.038-.841.034-1.289-.013-.909-.094-1.894-.132-2.956-.043-1.092,0-2.158.026-3.148s.051-1.941.021-2.833c-.017-.443-.051-.875-.107-1.293s-.142-.875-.226-1.318c-.371-1.779-.994-3.672-1.485-5.717-.234-.994-.439-1.953-.682-2.858-.119-.452-.243-.892-.384-1.318s-.284-.807-.486-1.31a56.007,56.007,0,0,0-2.2-5.34l-.013-.021a1.5,1.5,0,0,1,2.539-1.563,36.318,36.318,0,0,1,3.054,5.443c.2.409.465.943.678,1.455s.409,1.02.575,1.527c.337,1.012.614,2,.9,2.931.52,1.83,1.254,3.711,1.745,5.849.119.533.23,1.075.311,1.634s.142,1.137.17,1.7c.064,1.11.034,2.162.009,3.17s-.055,1.945-.017,2.854C339.582,256.211,339.667,257.221,339.689,258.318Z" transform="translate(-39.265 -68.42)"/><path class="c" d="M336.312,114.43a13.03,13.03,0,0,1-3.7,9.747,1.137,1.137,0,0,1-.409.618c-.673.55-1.715,1.254-1.787,2.222a2.89,2.89,0,0,0,.142.939,12.118,12.118,0,0,1,1.387,10.286,10.968,10.968,0,0,1-3.951,5.4c-.7.592-1.5,1.058-2.273,1.591a5.1,5.1,0,0,0-2.167,3.323,1.267,1.267,0,0,1-.142.371,10.9,10.9,0,0,1-5.977,6.437,11.9,11.9,0,0,1-4.837,1.063,9.687,9.687,0,0,1-3.54-.644,4.33,4.33,0,0,0-1.122-.17c-1.118.009-1.7,1.02-2.162,1.945-.142.443-.284.879-.413,1.323a38.523,38.523,0,0,0-1.459,8.514c-.043.71-.047,1.429-.043,2.145.013.337.021.771.038.969a4.884,4.884,0,0,0,.142.729,4.015,4.015,0,0,0,.669,1.335,4.921,4.921,0,0,0,.511.568,5.989,5.989,0,0,0,.71.55c2.517,1.757,5,3.562,7.432,5.447a1.5,1.5,0,0,1-1.63,2.5c-2.709-1.455-5.366-2.995-7.99-4.582a10.434,10.434,0,0,1-1.161-.78,7.646,7.646,0,0,1-1.1-1.071,8.115,8.115,0,0,1-1.51-2.679,8.382,8.382,0,0,1-.349-1.514c-.064-.568-.068-.9-.094-1.327-.034-.815-.051-1.634-.026-2.454a37.833,37.833,0,0,1,1.553-9.585q.511-1.792,1.169-3.523c.072-.294.142-.592.217-.9a4.954,4.954,0,0,0-1.323-5.242c-.034-.026-.068-.047-.1-.072a1.486,1.486,0,0,1,1.506-2.547l.188.09a12.145,12.145,0,0,0,1.728.78c.142.051.284.111.426.153l.439.1.426.111c.142.03.284.034.426.055a6,6,0,0,0,3.221-.473,6.561,6.561,0,0,0,1.344-.852c.183-.192.392-.358.558-.568a5.413,5.413,0,0,0,.469-.622l.213-.324.162-.345a4.2,4.2,0,0,0,.26-.686,3.35,3.35,0,0,0,.077-.345,2.082,2.082,0,0,0,.068-.354,4.224,4.224,0,0,0,.038-.771,5.928,5.928,0,0,0-.811-2.983,5.053,5.053,0,0,0-2.239-2.034,7.186,7.186,0,0,0-3.349-.58,15.373,15.373,0,0,0-3.809.742l-.038.013a1.512,1.512,0,0,1-1.152-.107c-2.026-.043-5.042-.852-8.322-4.3a12.212,12.212,0,0,0-1.148-.986,3.341,3.341,0,0,0-4.39.337,1.256,1.256,0,0,1-.71.358,22.877,22.877,0,0,1-11.979,5.576c-.511.072-1.02.128-1.523.162-.367.047-.733.089-1.11.142a3.605,3.605,0,0,0-2.841,1.31,3.818,3.818,0,0,0-.568,1.455,54.877,54.877,0,0,0,1.4,8.763,30.7,30.7,0,0,0,1.966,5.492,22.407,22.407,0,0,0,1.34,2.513,24.2,24.2,0,0,0,1.676,2.324,28.3,28.3,0,0,0,1.906,2.184,10.438,10.438,0,0,0,1.989,1.659,3.9,3.9,0,0,0,1.9.644,5.437,5.437,0,0,0,2.184-.448,17.417,17.417,0,0,0,2.492-1.272c.841-.494,1.715-1.058,2.513-1.6s1.587-1.152,2.346-1.774c.371-.315.742-.635,1.1-.973l.516-.5c.162-.162.349-.358.465-.477l.094-.1a1.49,1.49,0,0,1,2.316,1.86c-.2.294-.35.5-.524.737s-.349.448-.529.661c-.358.426-.729.845-1.114,1.25a27.09,27.09,0,0,1-2.432,2.26c-.268.222-.537.426-.8.635a14.678,14.678,0,0,0-3.6,4.761,23.341,23.341,0,0,0-1.391,7.034,1.612,1.612,0,0,1-.064.3c-.009.1-.017.209-.03.311-.1,1.05-.217,2.077-.358,3.148a1.483,1.483,0,0,1-.142.435,1.315,1.315,0,0,1-1.493.852.061.061,0,0,1-.03-.009h-.021a1.466,1.466,0,0,1-.746-.324,6.42,6.42,0,0,0-1.531-.956,3.722,3.722,0,0,0-2.29.234l-6.143,2.547a1.495,1.495,0,0,1-1.289-2.692l7.794-4.236a8.4,8.4,0,0,0,2.039-1.715,3.948,3.948,0,0,0,.8-1.838q-.058-1.421-.142-2.824a2.848,2.848,0,0,0-.175-.384c-.324-.554-.935-.673-1.514-.875-.179-.043-.354-.09-.529-.142a8.71,8.71,0,0,1-1.872-.841,15.133,15.133,0,0,1-2.871-2.265,30.467,30.467,0,0,1-2.256-2.488,28.965,28.965,0,0,1-2.013-2.73,27.186,27.186,0,0,1-1.638-2.983,35.452,35.452,0,0,1-2.209-6.3c-.142-.55-.264-1.105-.384-1.659-.142-.256-.284-.507-.426-.75-.841-1.348-2.252-1.553-3.685-1.493a12.892,12.892,0,0,1-1.335.107c-.06.009-.119.013-.179.021a1.384,1.384,0,0,1-.3,0,11.955,11.955,0,0,1-8.694-3.634,13.757,13.757,0,0,1-3.212-12.874c.017-.077.034-.153.055-.23a17.167,17.167,0,0,1,.631-1.945c.528-1.766-.2-2.765-1.442-4.032a1.47,1.47,0,0,1-.2-.273,12.464,12.464,0,0,1-2.769-6.194c-.71-5.008,1.83-10.733,8.8-13.549a3.127,3.127,0,0,0,1.451-2.385c.03-.384.055-.75.094-1.105A14.955,14.955,0,0,1,257.9,90.084a15.154,15.154,0,0,1,11.066-4.546,6.408,6.408,0,0,0,3.37-1.4c.226-.188.443-.375.661-.554a18.593,18.593,0,0,1,18.356-7.312,16.43,16.43,0,0,1,11.507,8.267c.009.013.017.03.026.043.128.234.247.477.367.71.977,1.638,2.688,1.421,4.432,1.037a15.067,15.067,0,0,1,14.107,1,12.833,12.833,0,0,1,5.8,10.686,1.355,1.355,0,0,1,.026.328c-.072,1.578-.2,3.344,1.05,4.513.132.124.269.239.4.349A13.685,13.685,0,0,1,336.312,114.43Z" transform="translate(-39.229 -75.949)"/><path class="c" d="M304.633,203.667a1.5,1.5,0,0,1,2.328-1.877c.1.119.124.162.179.234a2.177,2.177,0,0,1,.132.188c.085.124.154.239.226.362a6.964,6.964,0,0,1,.371.733,7.933,7.933,0,0,1,.494,1.523,9.233,9.233,0,0,1,.217,2.131c.124.852,1.137,1.033,1.979,1.007.124-.021.247-.043.367-.06a11.146,11.146,0,0,1,1.19-.081c.2,0,.4,0,.6.013s.384.021.665.055a1.466,1.466,0,0,1,.132,2.888l-.409.085c-.055.013-.217.017-.341.034s-.264.038-.4.06-.243.051-.367.077a.419.419,0,0,1-.077.034c-.58.188-.776.568-.4,1.05.064.081.132.158.2.23a18.925,18.925,0,0,1,11.04,13.322c1.962,8.4-1.137,17.993-5.747,23.637a13.454,13.454,0,0,0-1.374,4.991.3.3,0,0,1-.013.06c-.009.119-.017.239-.03.358a8.239,8.239,0,0,1-.294,1.421,8.831,8.831,0,0,1-1.246,2.526,9.263,9.263,0,0,1-4.279,3.357,8.5,8.5,0,0,1-1.936.52,5.166,5.166,0,0,0-3.063,3.6c-.183.9-.341,1.8-.452,2.713a42.012,42.012,0,0,0-.183,7.564l.047,1,.021.426a2.928,2.928,0,0,0,.034.332,4.529,4.529,0,0,0,1.122,2.39,3.905,3.905,0,0,0,.494.456l.75.575c2.12,1.621,4.219,3.28,6.232,5.05a1.5,1.5,0,0,1-1.719,2.441c-2.337-1.3-4.6-2.709-6.833-4.151l-.418-.273c-.142-.089-.268-.17-.46-.307a7.935,7.935,0,0,1-1.02-.845,8.229,8.229,0,0,1-1.587-2.131,8.816,8.816,0,0,1-.852-2.5c-.034-.217-.073-.435-.09-.656l-.047-.568-.077-.994c-.1-1.34-.166-2.743-.158-4.151a36.233,36.233,0,0,1,.284-4.241c.107-.815.247-1.621.413-2.424.264-1.989.588-3.941-.558-5.73a1.394,1.394,0,0,1-.234-.341s-.008-.009-.008-.013a.99.99,0,0,1-.021-1.3,1.281,1.281,0,0,1,.158-.264,1.5,1.5,0,0,1,1.894-.426l.047.026a11.43,11.43,0,0,0,2.29.931,2.084,2.084,0,0,1,.918.142.883.883,0,0,1,.142.073c.043,0,.085.013.128.017a6.032,6.032,0,0,0,3.238-.52,5.825,5.825,0,0,0,2.385-2.094,5.078,5.078,0,0,0,.622-1.4,3.667,3.667,0,0,0,.132-.71,4.871,4.871,0,0,0,.021-.79,5.7,5.7,0,0,0-.969-2.969,4.83,4.83,0,0,0-2.346-1.847,6.743,6.743,0,0,0-3.259-.273,13.52,13.52,0,0,0-3.562,1.084,2.175,2.175,0,0,1-3.025-2.407l.017-.089.06-.324.064-.384c.038-.26.068-.524.094-.794.047-.533.068-1.071.064-1.6a12.865,12.865,0,0,0-.307-2.743,9.184,9.184,0,0,1-.337-1.178,8.256,8.256,0,0,0-.729-1.527,1.29,1.29,0,0,0-.115-.1c-.977-.75-2.328-.511-3.515-.17a49.028,49.028,0,0,1-8.412,2.927,31.4,31.4,0,0,1-6.677.9,20.521,20.521,0,0,1-6.94-.995c-.213-.072-.426-.153-.639-.23-.1-.021-.2-.043-.307-.068-1.9-.388-2.4.746-2.658,2.247.055,2.1.2,4.194.465,6.275a52.057,52.057,0,0,0,1.318,6.859,33.106,33.106,0,0,0,2.337,6.365,15.5,15.5,0,0,0,.794,1.361c.26.384.631.871.973,1.279a14.941,14.941,0,0,0,2.218,2.273,7.771,7.771,0,0,0,2.466,1.387,6.215,6.215,0,0,0,2.684.234,14.427,14.427,0,0,0,5.794-2.454,19.607,19.607,0,0,0,2.6-2.026,15.047,15.047,0,0,0,1.137-1.178c.179-.2.345-.418.511-.626.081-.1.162-.209.234-.311l.192-.269.128-.179a1.486,1.486,0,0,1,2.557,1.493l-.142.284-.119.243c-.081.158-.162.307-.247.456-.17.3-.354.584-.546.862a18.62,18.62,0,0,1-1.22,1.6,19.4,19.4,0,0,1-2.91,2.735l-.175.128c-1.31,1.54-3.268,2.372-4.4,4.134A13.09,13.09,0,0,0,282.8,279.6q-.089,1.492-.2,2.983c0,.06-.013.115-.017.17,0,.081-.008.166-.013.247a.789.789,0,0,1-.021.149c-.077.918-.162,1.83-.264,2.769a1.495,1.495,0,0,1-2.458.969c-.047-.038-.1-.068-.142-.111a3.454,3.454,0,0,0-3.165-.58l-6.591,2.786a1.5,1.5,0,0,1-1.306-2.688l8.062-4.45a10.813,10.813,0,0,0,1.476-1.216,3.681,3.681,0,0,0,.977-2.637c-.03-.58-.055-1.165-.094-1.745a3.363,3.363,0,0,0-1.689-2.948,13.543,13.543,0,0,1-2.239-1.378,13.245,13.245,0,0,1-1.774-1.161,19.178,19.178,0,0,1-2.939-2.875c-.213-.256-.426-.511-.622-.771s-.409-.546-.618-.841q-.588-.889-1.063-1.779a35.191,35.191,0,0,1-2.73-7.287,55.977,55.977,0,0,1-1.331-6.819,14.4,14.4,0,0,0-2.748-5.541c-.546-.58-1.084-1.173-1.6-1.8a24.4,24.4,0,0,1-3.268-5.144,15.954,15.954,0,0,1-1.5-6.224,13.478,13.478,0,0,1,1.45-6.4,15.935,15.935,0,0,1,4.028-4.972c.349-.284.71-.568,1.084-.828a19.564,19.564,0,0,0,1.621-1.745,28.109,28.109,0,0,1,22.072-15.343c6.7-.794,12.844.824,17.388,4.39.021.013.047.021.068.034.494.284,1.306.909,1.911.609a1.162,1.162,0,0,0,.528-.767,6.138,6.138,0,0,0,.03-1.279,4.824,4.824,0,0,0-.175-.96,3.306,3.306,0,0,0-.149-.439c-.03-.068-.06-.142-.09-.2l-.038-.085C304.65,203.7,304.633,203.671,304.633,203.667Z" transform="translate(-38.669 -69.75)"/><path class="c" d="M230.97,275.9c.017.6,0,1.118-.021,1.7a16.411,16.411,0,0,1-.17,1.74c-.081.558-.153.986-.2,1.421s-.064.875-.072,1.34,0,.982,0,1.459.026.96.051,1.451.055,1.037.072,1.578.026,1.075.026,1.6v.422l-.031.554a5.1,5.1,0,0,1-.077.568,4.275,4.275,0,0,1-.115.554A6.974,6.974,0,0,1,228,294.039a7.609,7.609,0,0,1-4.006,1.608c-.179.021-.354.021-.533.03l-.268.013h-.912c-.482.009-.948.026-1.421.055-.922.068-2.107.175-3.178.183s-2.115,0-3.212-.047c-.541-.021-1.08-.064-1.563-.094s-.965-.055-1.45-.064c-.956-.026-2-.017-3.029-.03-2.073-.021-4.066-.038-6.13-.043l-3.071-.034-3.012-.021c-.965,0-1.838.077-2.969.142-1.11.064-2.184.043-3.238,0s-2.2-.128-3.165-.239-1.928-.149-2.935-.183-1.962-.06-2.983-.055-2.12-.038-3.152-.107a1.5,1.5,0,0,1,0-2.983c1.012-.072,1.989-.149,2.983-.256s2.107-.192,3.144-.239,2.12-.068,3.2-.034,1.97.077,2.969.051,1.962-.051,2.9-.132l1.51-.153c.541-.051,1.1-.089,1.642-.111,1.1-.043,2.094-.03,3.125-.043l3.067-.017c2.026-.008,4.13,0,6.147,0,1.016.009,2.022-.013,3.11.009.537.013,1.088.034,1.617.064l1.5.085c.952.038,1.958.038,2.927.021s1.83-.1,2.948-.187c.55-.043,1.105-.064,1.647-.077l.8-.013h.2l.119-.009c.077-.009.153,0,.23-.013a3.079,3.079,0,0,0,1.608-.648,2.365,2.365,0,0,0,.537-.6,2.108,2.108,0,0,0,.311-.71.7.7,0,0,0,.038-.192c0-.068.03-.128.03-.2a1.564,1.564,0,0,1,.009-.2v-.345c0-.494-.013-.982-.03-1.463s-.051-.96-.081-1.489-.055-1.08-.064-1.612-.017-1.046-.013-1.612.03-1.137.085-1.728.149-1.178.213-1.621.107-.862.128-1.314.03-.939.017-1.361a8.833,8.833,0,0,0-.107-1.216c-.055-.379-.158-.754-.3-1.344a12.041,12.041,0,0,1-.284-1.847c-.047-.614-.06-1.2-.047-1.766a16.175,16.175,0,0,1,.119-1.779c.077-.614.2-1.208.284-1.638a9.607,9.607,0,0,0,.153-1.25c.047-.833.026-1.885,0-2.829l-.081-1.5c-.03-.533-.051-1.088-.06-1.621-.017-1.105,0-2.043-.06-2.973-.026-.46-.072-.939-.115-1.489s-.072-1.11-.085-1.655c-.021-1.11-.009-2.086-.017-3.11l-.021-3.076a22.156,22.156,0,0,1,.166-3.41c.09-.618.217-1.161.284-1.574a10.508,10.508,0,0,0,.142-1.242c.026-.426.021-.888.021-1.4s-.009-.994-.021-1.48c-.026-.96-.077-2.064-.081-3.114s0-2.1.047-3.182.111-2.009.119-3a18.327,18.327,0,0,0-.1-2.726c-.055-.413-.153-.9-.239-1.5a15.826,15.826,0,0,1-.149-1.766c-.013-.284-.013-.568-.017-.852a3.944,3.944,0,0,0-.03-.469,3.091,3.091,0,0,0-.239-.875,2.765,2.765,0,0,0-.456-.754,2.442,2.442,0,0,0-.627-.568,2.4,2.4,0,0,0-.725-.324,1.061,1.061,0,0,0-.2-.038,1.075,1.075,0,0,0-.2-.026,1.438,1.438,0,0,1-.2-.017h-.392c-1.037,0-2.162-.047-3.161-.1-.494-.026-.973-.043-1.468-.051l-.742-.009h-.75a12.685,12.685,0,0,0-1.306.072c-.413.047-.824.128-1.378.226a15.716,15.716,0,0,1-1.766.222c-.584.038-1.173.043-1.693.038s-1.063-.013-1.6-.034-1.088-.055-1.583-.085c-.977-.064-1.924-.081-2.935-.081s-1.975.013-3,.047q-1.574.045-3.152.034c-.541,0-1.1-.021-1.664-.06s-1.137-.111-1.629-.166a21.622,21.622,0,0,0-2.816-.149l-6.122-.026c-.469,0-.909.021-1.335.06s-.824.107-1.352.2a16.331,16.331,0,0,1-1.736.222c-.588.047-1.152.047-1.7.043s-1.1-.026-1.672-.068-1.165-.128-1.651-.2-.918-.128-1.374-.162-.926-.047-1.412-.055c-1.012-.013-1.962-.013-2.983.017s-2.131.026-3.152,0c-.49-.009-.969-.013-1.442,0s-.926.038-1.442.077-1.08.077-1.63.085-1.084,0-1.617-.021-1.071-.047-1.621-.09-1.11-.119-1.612-.192-.96-.132-1.438-.179-.96-.081-1.455-.107h-.017a1.495,1.495,0,0,1,.017-2.983c.528-.021,1.067-.034,1.612-.03s1.11.038,1.625.077.969.06,1.442.068.96,0,1.446-.021.982-.043,1.451-.085.931-.085,1.433-.149,1.067-.132,1.617-.175,1.092-.064,1.625-.077c1.02-.017,1.979-.055,2.983-.124,1.029-.077,2.12-.119,3.157-.128.533-.009,1.088-.009,1.655.017s1.161.089,1.681.153.948.111,1.4.142.913.038,1.391.034.935-.013,1.361-.051a11.922,11.922,0,0,0,1.306-.192c.477-.094,1.088-.209,1.681-.268s1.173-.089,1.728-.094l6.16-.013a27.292,27.292,0,0,1,3.306.158c.528.06.973.111,1.429.142s.922.038,1.4.038c.994,0,1.989-.009,2.983-.047,1.016-.038,2.1-.064,3.135-.068s2.131.009,3.2.072c1.037.064,1.941.1,2.948.094.5,0,.939-.009,1.374-.038a11.366,11.366,0,0,0,1.279-.166c.452-.085,1.05-.209,1.651-.284a17.2,17.2,0,0,1,1.753-.115h1.61c.533.009,1.075.026,1.6.047,1.046.051,1.966.081,2.983.081h.375l.568.026a4.864,4.864,0,0,1,.558.068,4.986,4.986,0,0,1,.558.115,6.841,6.841,0,0,1,2.073.892,6.994,6.994,0,0,1,1.659,1.463,7.357,7.357,0,0,1,1.137,1.847,7.6,7.6,0,0,1,.575,2.073,9.077,9.077,0,0,1,.077,1.058c0,.23,0,.465.017.686a11.3,11.3,0,0,0,.115,1.289c.06.413.166.926.251,1.527a22.073,22.073,0,0,1,.162,3.4c0,1.054-.064,2.184-.107,3.125s-.034,1.958-.021,2.956.055,1.936.1,3.02c.017.533.026,1.067.03,1.591s.013,1.075-.017,1.668a15.516,15.516,0,0,1-.2,1.809c-.107.592-.209,1.05-.264,1.446a18.356,18.356,0,0,0-.1,2.718l.017,3.059c.008,1.024,0,2.094.017,3.029.009.477.03.935.068,1.412s.09,1.012.119,1.563c.068,1.114.047,2.222.064,3.165.009.486.026.96.051,1.446l.081,1.563c.034,1.1.06,2.094,0,3.3a13.86,13.86,0,0,1-.217,1.8c-.111.58-.2.986-.247,1.391a11.925,11.925,0,0,0-.085,1.279,12.88,12.88,0,0,0,.03,1.3,7.655,7.655,0,0,0,.183,1.178c.094.409.26,1.02.362,1.651A13.332,13.332,0,0,1,230.97,275.9Z" transform="translate(-43.66 -69.12)"/><path class="c" d="M235.772,162.633c0,.315.009.622,0,.973a12.178,12.178,0,0,1-.217,2.131c-.142.746-.354,1.357-.439,1.77a6.924,6.924,0,0,0-.17,1.344c-.013.473-.009,1.054.017,1.563a14.783,14.783,0,0,0,.162,1.553c.081.568.175,1.279.209,1.936s.047,1.306.038,1.915-.021,1.246-.064,1.885l-.142,1.757c-.034.537-.051,1.08-.055,1.638v.439l-.03.609a7.423,7.423,0,0,1-.217,1.242,6.711,6.711,0,0,1-1.137,2.346,6.607,6.607,0,0,1-1.97,1.736,7.332,7.332,0,0,1-2.381.852l-.605.077c-.2.017-.4.021-.605.03l-.871.017c-.546.009-1.05.038-1.583.094s-1.178.142-1.834.183-1.289.055-1.911.055l-1.779-.009-3.519-.034a31.038,31.038,0,0,0-3.319.1c-.558.051-1.216.111-1.855.142s-1.254.038-1.877.034-1.263-.021-1.915-.072-1.279-.142-1.791-.183c-1.037-.107-2.094-.081-3.349-.1-.605-.013-1.229-.034-1.821-.06s-1.137-.051-1.7-.06c-1.137-.021-2.294-.034-3.374.021l-1.766.094c-.627.026-1.25.034-1.86.03a32.383,32.383,0,0,0-3.361.094,34.925,34.925,0,0,1-3.7.068l-3.532-.077-1.753-.047c-.58-.017-1.148-.026-1.7-.021s-1.11.021-1.715.038-1.233.021-1.838.009a14.6,14.6,0,0,1-3.924-.452c-.652-.188-1.1-.337-1.563-.435a10.282,10.282,0,0,0-1.514-.183H167.4a1.495,1.495,0,0,1,.026-2.983,13.222,13.222,0,0,1,2,.064,18.477,18.477,0,0,1,1.868.362,11.289,11.289,0,0,0,3.084.119c.568-.03,1.118-.068,1.685-.119s1.191-.107,1.808-.142,1.225-.055,1.821-.068l1.77-.043,3.519-.047c1.2-.017,2.23-.055,3.349-.171.568-.055,1.233-.115,1.855-.142s1.271-.038,1.83-.047,1.118-.03,1.664-.064l1.757-.128c1.267-.072,2.471-.072,3.677-.06.605,0,1.229.026,1.813.047s1.137.034,1.7.038c1.1.013,2.394-.021,3.694.111.656.06,1.2.142,1.715.17s1.054.055,1.608.06,1.118,0,1.651-.03,1.05-.072,1.664-.132a37.134,37.134,0,0,1,3.724-.124l3.54.03h1.745c.554,0,1.1-.013,1.617-.051s1.033-.1,1.672-.17,1.306-.107,1.936-.119l.892-.017.284-.013.269-.034a2.875,2.875,0,0,0,.922-.328,2.223,2.223,0,0,0,1.041-1.391,3.515,3.515,0,0,0,.085-.494,1.82,1.82,0,0,1,.013-.264v-.448c0-.614.021-1.246.06-1.885l.142-1.757q.045-.8.051-1.638c0-.568,0-1.1-.034-1.612s-.089-.973-.179-1.563a19.652,19.652,0,0,1-.2-1.958c-.03-.652-.043-1.263-.021-1.962a11.262,11.262,0,0,1,.268-2.149c.166-.733.341-1.242.413-1.655a7.889,7.889,0,0,0,.132-1.37c.008-.239,0-.52,0-.79s-.017-.533-.034-.79c-.03-.52-.09-.982-.175-1.591s-.153-1.31-.179-1.953-.03-1.293-.03-1.855l-.013-1.74c-.021-1.161-.038-2.377-.034-3.552,0-.575-.009-1.11-.043-1.634s-.089-1.024-.158-1.647-.119-1.3-.142-1.932-.017-1.25,0-1.881.043-1.279.1-1.911.119-1.156.142-1.685c.055-1.046.051-2.218.008-3.3-.026-.546-.072-1.084-.115-1.7s-.068-1.263-.077-1.881v-.931c0-.328.009-.661.03-1.007a13.491,13.491,0,0,1,.284-2.086,13.962,13.962,0,0,0,.3-1.517,13.527,13.527,0,0,0,.068-1.485,14.467,14.467,0,0,0-.077-1.527c-.026-.243-.064-.486-.107-.75l-.149-.909a26.18,26.18,0,0,1-.192-3.822c0-.575-.021-1.137-.043-1.7s-.043-1.2-.051-1.8l-.009-.909c0-.284,0-.652-.013-.771a2.736,2.736,0,0,0-.2-.926,2.057,2.057,0,0,0-1.225-1.127,3.268,3.268,0,0,0-1.02-.188l-.142-.009h-1.54l-3.523-.013a19.2,19.2,0,0,1-3.955-.264l-.9-.192c-.251-.055-.477-.1-.71-.128a10.316,10.316,0,0,0-1.455-.09c-2.316.009-4.795-.055-6.948-.013a11.625,11.625,0,0,0-1.5.142c-.5.077-1.2.2-1.885.264s-1.34.077-1.97.081c-.605,0-1.225-.009-1.847-.03s-1.25-.068-1.8-.1-1.1-.047-1.664-.055h-.862c-.311,0-.627,0-.943-.013-.635-.017-1.314-.068-1.928-.132s-1.11-.119-1.634-.142-1.063-.03-1.651-.03c-1.182,0-2.428-.026-3.57-.055s-2.3-.017-3.464-.013l-3.528.043-1.745.009c-.541.009-1.054.034-1.563.085-.251.026-.516.06-.811.1s-.618.081-.948.115c-.669.064-1.331.094-1.962.1-1.237,0-2.273.013-3.455.077-.592.026-1.22.047-1.826.055s-1.195.013-1.847,0a18.172,18.172,0,0,1-1.989-.142c-.662-.087-1.2-.179-1.689-.222s-1.007-.068-1.553-.072-1.195,0-1.8-.017-1.242-.043-1.813-.068-1.118-.043-1.685-.051c-1.148-.013-2.273-.009-3.361.06-.55.034-1.182.081-1.809.107s-1.242.03-1.847.03c-.537,0-1.054.021-1.536.068s-.952.132-1.621.234a17.049,17.049,0,0,1-2.017.183c-.665.021-1.279.021-1.932,0s-1.344-.085-1.979-.17-1.11-.158-1.612-.192-1.037-.047-1.591-.047-1.114.013-1.647.038-1.084.077-1.723.119-1.272.068-1.889.072c-1.25.009-2.29,0-3.447.064-.575.03-1.212.055-1.821.068l-.918.009h-.939a15.251,15.251,0,0,1-2.064-.162c-.345-.055-.695-.124-.986-.183s-.55-.115-.776-.153a10.109,10.109,0,0,0-1.433-.128,12.742,12.742,0,0,0-1.48.038,7.836,7.836,0,0,0-1.382.26,13.173,13.173,0,0,1-2.064.392c-.358.038-.71.055-1.05.068l-.507.009h-.46c-.614,0-1.242-.021-1.877-.055l-1.753-.124c-.541-.03-1.088-.043-1.651-.047l-3.532-.021-3.566-.026a16.47,16.47,0,0,1-2.017-.162c-.682-.1-1.2-.2-1.676-.251a16.072,16.072,0,0,0-3.037-.026,12.757,12.757,0,0,0-1.523.249,14.673,14.673,0,0,1-2.064.273c-.337.017-.673.026-.994.03H82.3c-.614,0-1.246-.013-1.894-.051s-1.31-.115-1.847-.166-1.05-.085-1.6-.1-1.11-.013-1.647,0-1.046.047-1.587.107-1.212.132-1.86.166a33.39,33.39,0,0,1-3.809-.017c-.656-.043-1.289-.124-1.809-.175s-1.046-.072-1.6-.085h-.622l-.119.009a2.821,2.821,0,0,0-.473.055,2.2,2.2,0,0,0-.824.362,2.79,2.79,0,0,0-1.071,1.574c-.017.085-.038.17-.06.256l-.034.264c-.013.2-.026.284-.026.669-.009.635-.038,1.3-.111,1.975s-.183,1.3-.243,1.783a14.707,14.707,0,0,0-.107,1.531c-.009.529,0,1.114.009,1.659s.047,1.075.09,1.651.089,1.237.1,1.864.021,1.242.017,1.838c0,1.195-.055,2.479-.1,3.583s-.051,2.316,0,3.336c.03.524.085.994.162,1.591s.149,1.3.175,1.941.034,1.271.021,1.915a18.828,18.828,0,0,1-.149,1.989c-.085.678-.188,1.208-.234,1.693s-.077,1.012-.081,1.553,0,1.075.043,1.578.107.965.2,1.583a18.675,18.675,0,0,1,.2,1.989c.013.324.017.648.021.965v.888c0,1.156.034,2.286.051,3.506l.009,1.791a14.508,14.508,0,0,1-.128,2.06,16.82,16.82,0,0,1-.409,1.928,7.529,7.529,0,0,0-.2,1.374c-.017.239-.021.494-.026.75v.852c0,.575.013,1.137.03,1.715.043,1.156.064,2.415.06,3.587a14.58,14.58,0,0,0,.072,1.531c.047.482.142.969.256,1.634a22.542,22.542,0,0,1,.2,3.89c-.009.609-.03,1.237-.064,1.838s-.06,1.148-.072,1.7l-.013.845v.639l.009.142a2.894,2.894,0,0,0,.2,1,2.823,2.823,0,0,0,1.293,1.446,2.663,2.663,0,0,0,.952.294,1.269,1.269,0,0,0,.256.017l.132.013h1.114l3.528.043,1.774.009c.627.009,1.279.034,1.941.1s1.271.162,1.774.213,1.024.081,1.563.089a13.234,13.234,0,0,0,1.519-.043,7.939,7.939,0,0,0,1.4-.264,13.368,13.368,0,0,1,2.034-.392,16.611,16.611,0,0,1,2.026-.072,19.066,19.066,0,0,1,1.989.142c.337.047.665.1.956.149s.546.089.794.124a13.217,13.217,0,0,0,1.519.1l.871.009.939.026c.631.026,1.3.085,1.877.142s1.084.1,1.634.119,1.118.026,1.638.021a11.969,11.969,0,0,0,1.493-.115c.473-.064,1.088-.2,1.783-.284a16.2,16.2,0,0,1,2-.117c1.233.009,2.328.017,3.515,0,2.39-.013,4.769.055,7.1.115l1.749.043c.58.013,1.137.021,1.7.013s1.1-.034,1.7-.055,1.242-.03,1.847-.021a15.668,15.668,0,0,1,3.894.409c.648.17,1.1.311,1.587.4a11.282,11.282,0,0,0,1.536.166h.021a1.495,1.495,0,0,1-.021,2.983,14.138,14.138,0,0,1-1.979-.055c-.686-.068-1.37-.243-1.864-.337a12.343,12.343,0,0,0-3.118-.115c-.568.026-1.11.068-1.672.124s-1.191.111-1.813.142-1.229.055-1.83.068l-1.774.034c-2.363.026-4.688.043-7,.119-1.161.038-2.415.06-3.536.077a12.067,12.067,0,0,0-1.514.115c-.473.06-1.007.2-1.7.3a15.811,15.811,0,0,1-2.017.179c-.656.013-1.25.013-1.889-.009s-1.293-.06-1.885-.119-1.1-.094-1.638-.111l-.824-.013-.9-.009a17.958,17.958,0,0,1-2-.132c-.337-.047-.661-.1-.952-.149s-.541-.085-.79-.119a14.341,14.341,0,0,0-1.523-.1,12.8,12.8,0,0,0-1.5.051,8.849,8.849,0,0,0-1.421.284,12.466,12.466,0,0,1-2.06.384,19.265,19.265,0,0,1-2,.064c-.631-.013-1.293-.043-1.949-.111s-1.229-.162-1.728-.2-1.033-.068-1.583-.072H68.636l-3.523-.038H64.02l-.307-.013a6.124,6.124,0,0,1-.622-.047,6.988,6.988,0,0,1-2.4-.742,7.15,7.15,0,0,1-3.327-3.694,7.265,7.265,0,0,1-.507-2.432l-.013-.3V180.8l.013-.913c.013-.614.047-1.242.072-1.817s.047-1.118.055-1.685a17.432,17.432,0,0,0-.153-3.144c-.077-.494-.213-1.165-.284-1.855s-.1-1.348-.1-1.989c0-1.186-.021-2.273-.064-3.468-.017-.6-.03-1.212-.034-1.813v-.9c0-.332.009-.665.03-1.012a12.479,12.479,0,0,1,.311-2.111,14.033,14.033,0,0,0,.332-1.519,11.093,11.093,0,0,0,.081-1.459l-.013-1.732c-.017-1.137-.055-2.354-.06-3.552a18.406,18.406,0,0,0-.175-3.2c-.09-.541-.2-1.246-.243-1.911s-.064-1.314-.06-1.949.03-1.3.1-1.97.188-1.31.247-1.8A14.541,14.541,0,0,0,57,139.471c.009-.528,0-1.093-.017-1.612a14.774,14.774,0,0,0-.149-1.563c-.077-.56-.162-1.263-.2-1.915-.068-1.331-.038-2.483-.013-3.719s.094-2.307.09-3.464c0-.58,0-1.137-.017-1.689s-.051-1.071-.1-1.659-.09-1.246-.1-1.868-.021-1.22-.013-1.868a18.721,18.721,0,0,1,.132-1.989c.081-.671.188-1.225.234-1.7s.072-1.007.077-1.544c0-.209.009-.71.047-1.092l.085-.605.142-.605a7.281,7.281,0,0,1,2.85-4.113,6.741,6.741,0,0,1,2.381-1.054,7.256,7.256,0,0,1,1.279-.166l.32-.013h.706c.627.013,1.279.043,1.928.1s1.182.128,1.7.158a28.275,28.275,0,0,0,3.238.009c.524-.026,1.029-.085,1.655-.153s1.3-.115,1.928-.132,1.25-.017,1.881,0,1.3.051,1.924.115,1.148.119,1.672.142,1.067.043,1.63.043h6.156c.264,0,.516-.009.763-.021a10.022,10.022,0,0,0,1.433-.192,18.093,18.093,0,0,1,1.953-.332,19.368,19.368,0,0,1,2.013-.085,19.044,19.044,0,0,1,1.989.107c.695.072,1.331.2,1.809.264a12.164,12.164,0,0,0,1.5.119l3.485.013,3.523.013c.614,0,1.242.017,1.877.051l1.762.119a25.046,25.046,0,0,0,3.152,0,8.534,8.534,0,0,0,1.4-.284,12.553,12.553,0,0,1,2.081-.388,17.663,17.663,0,0,1,2.043-.064,14.738,14.738,0,0,1,2.077.188c.349.06.673.128.956.183s.511.1.746.142a10.962,10.962,0,0,0,1.446.107h.828l.852-.009c.568-.013,1.105-.038,1.7-.068,1.195-.068,2.5-.068,3.6-.077.558,0,1.093-.026,1.634-.064s1.156-.1,1.8-.128,1.267-.047,1.877-.047,1.271,0,1.936.055,1.357.142,1.889.213a14.821,14.821,0,0,0,1.536.128c.528.017,1.084.017,1.6,0a12.3,12.3,0,0,0,1.489-.142c.494-.077,1.186-.2,1.872-.264s1.348-.085,1.989-.085q.852,0,1.676-.026c.546-.021,1.088-.06,1.7-.1,1.254-.072,2.492-.077,3.694-.06.605,0,1.233.026,1.838.055s1.152.055,1.7.068,1.11.017,1.723.021a19.576,19.576,0,0,1,1.97.094c.673.068,1.318.179,1.809.239a14.624,14.624,0,0,0,1.527.107c.516.013,1.114.009,1.676,0s1.114-.021,1.693-.047c1.169-.06,2.488-.077,3.6-.077a15.432,15.432,0,0,0,1.563-.077l1.745-.209c.665-.068,1.327-.094,1.962-.1l1.779-.009,3.532-.038c1.186,0,2.377,0,3.587.021s2.311.06,3.481.06c.588,0,1.237,0,1.877.043s1.323.1,1.881.162a30.12,30.12,0,0,0,3.306.142c.614,0,1.246.026,1.864.06s1.173.077,1.719.1,1.11.03,1.681.03c.541,0,1.058-.017,1.549-.06s.952-.128,1.608-.23a16.819,16.819,0,0,1,2.013-.188c2.547-.047,4.773.026,7.159.021a14.525,14.525,0,0,1,2.06.142c.358.051.71.119,1.033.188l.824.179a14.86,14.86,0,0,0,3.076.179l3.527.021h1.549l.3.009a7.934,7.934,0,0,1,2.432.477,6.79,6.79,0,0,1,2.239,1.378,6.591,6.591,0,0,1,1.544,2.188,7.206,7.206,0,0,1,.568,2.5c.026.469.013.686.017.994l.008.852c.009.568.026,1.122.047,1.719s.034,1.216.043,1.817a20,20,0,0,0,.142,3.216l.142.833c.047.315.1.652.142.994.072.686.1,1.353.1,1.989a14.607,14.607,0,0,1-.473,3.989,8.846,8.846,0,0,0-.2,1.4c-.013.243-.021.494-.021.754v.837c.009.558.026,1.092.064,1.647s.089,1.178.115,1.813c.047,1.267.055,2.449-.013,3.749-.034.648-.111,1.3-.158,1.834s-.081,1.054-.09,1.6-.017,1.114,0,1.651.051,1.041.111,1.583.142,1.216.17,1.864.047,1.293.047,1.894c0,1.173.009,2.307.026,3.5l.013,1.787c0,.614,0,1.148.021,1.672a14.388,14.388,0,0,0,.142,1.563c.077.554.166,1.259.2,1.915Q235.766,162.153,235.772,162.633Z" transform="translate(-48.492 -74.424)"/><path class="c" d="M208.285,246.546a1.219,1.219,0,0,1-.217-.71,1.2,1.2,0,0,1,.678-.9,9.068,9.068,0,0,0,5.541-5.464,11.9,11.9,0,0,0-.622-8.891,12.268,12.268,0,0,0-7.312-6.251,1.7,1.7,0,0,0-2.026,2.475c.013.021,1.2,2.162.409,3.587-.256.465-.6.669-1.352,1.088a8.734,8.734,0,0,0-3.932,3.894,6.382,6.382,0,0,0,.284,6.441.8.8,0,0,0,.009.142.642.642,0,0,1-.443.733,21.111,21.111,0,0,0-4.594-.541,20.059,20.059,0,0,0-20.063,20.067c0,6.673,2.372,14.316,8.271,16.227a6.837,6.837,0,0,0,4.283.209,1.246,1.246,0,0,0,.554-.2,1.076,1.076,0,0,1,1.728.575c.034.132.064.264.085.392q-.084.973-.128,1.894a1.7,1.7,0,0,0,1.152,1.7,1.665,1.665,0,0,0,.554.094,1.7,1.7,0,0,0,1.4-.733,89.34,89.34,0,0,0,7.189-12.716c1.323-2.239,2.557-3.634,5.256-3.907.234-.026.469-.047.7-.072,3.626.072,7,.043,9.082-3.472C218.13,256.532,214.285,250.491,208.285,246.546Zm-23.6,19.516a3.164,3.164,0,1,1,3.165-3.161A3.164,3.164,0,0,1,184.682,266.062Zm6.156-10.126A3.165,3.165,0,1,1,194,252.77a3.165,3.165,0,0,1-3.165,3.165Zm6.393,11.04c-.614,1.352-1.254,2.675-1.9,3.958-.2.251-.49.678-.78.742-.243.051-.375-.09-.443-.324.119-.644.247-1.3.379-1.949,1.779-8.7,4.846-18.129,8.716-24.7l.456.158h0l.456.153c-.854,6.673-3.562,14.705-6.88,21.965Z" transform="translate(-42.64 -68.614)"/><path class="c" d="M215.229,152.93c0-1.029.038-1.527.077-2.056.043-.584.09-1.191.09-2.377,0-1.137-.017-1.723-.038-2.286s-.034-1.071-.034-2.145c0-1.137-.013-1.715-.03-2.273s-.026-1.08-.026-2.158a9.935,9.935,0,0,0-5.178-8.736,13,13,0,0,0-3.4-1.506,3.552,3.552,0,0,1-.9-.448,2.777,2.777,0,0,1-.575-.737,3.928,3.928,0,0,0-3.451-1.813h-2.557a3.945,3.945,0,0,0-3.383,1.7c-.09.064-.175.128-.26.2a4.528,4.528,0,0,1-2.765,1.216h-.324c-.465,0-.833,0-1.137.013a2.535,2.535,0,0,1-1.216-.554,6.785,6.785,0,0,1-1.216-2.35l-.128-.482c-.776-2.9-3.033-4.846-5.61-4.846h-5.148c-2.581,0-4.83,1.949-5.614,4.846l-.142.533c-.209.413-.4.841-.635,1.263a3.623,3.623,0,0,1-2.2,1.668,8.2,8.2,0,0,0-3.118.977,10.6,10.6,0,0,0-3.736,3.873,10.1,10.1,0,0,0-1.114,5.183,14.61,14.61,0,0,1-.115,1.966,17.461,17.461,0,0,0-.149,2.466c0,1.118,0,1.676.009,2.235s.009,1.1.009,2.2-.013,1.621-.026,2.162c-.013.568-.026,1.137-.026,2.265,0,1.088-.013,1.63-.026,2.171-.013.568-.021,1.137-.021,2.26a10.326,10.326,0,0,0,5.315,8.851,10.1,10.1,0,0,0,5.114,1.314c.965,0,1.438.034,1.932.072.554.043,1.127.085,2.256.085s1.693-.043,2.243-.081c.5-.034.973-.068,1.945-.068a13.315,13.315,0,0,1,1.855.107,18.657,18.657,0,0,0,2.328.128c1.075,0,1.612-.013,2.145-.026.511-.013,1.024-.026,2.043-.026,1.137,0,1.74-.047,2.273-.094a18.964,18.964,0,0,1,1.915-.081c1.088,0,1.638-.021,2.175-.043.516-.021,1-.038,2.009-.038,1.08,0,1.625-.017,2.154-.034s1.016-.03,2.03-.03a8.049,8.049,0,0,1,1.7.158,11.976,11.976,0,0,0,2.479.226,10.925,10.925,0,0,0,10.34-10.421c0-1.182-.043-1.783-.081-2.363C215.263,154.466,215.229,153.967,215.229,152.93Zm-4.185,2.364c.038.533.072,1.037.072,2.069a6.006,6.006,0,0,1-.952,2.961,5.767,5.767,0,0,1-2.2,2.1,6.4,6.4,0,0,1-2.918,1.092,7.743,7.743,0,0,1-1.7-.158,12.289,12.289,0,0,0-2.479-.226c-1.08,0-1.625.017-2.154.034s-1.016.03-2.03.03c-1.088,0-1.642.021-2.175.043s-1.007.038-2.009.038c-1.137,0-1.74.051-2.273.094a19.041,19.041,0,0,1-1.915.081c-1.071,0-1.608.013-2.145.026-.507.013-1.02.026-2.043.026a14.188,14.188,0,0,1-1.855-.1,17.629,17.629,0,0,0-2.329-.132c-1.122,0-1.693.043-2.243.081-.5.034-.973.068-1.945.068s-1.438-.034-1.936-.072c-.554-.043-1.127-.085-2.252-.085a5.825,5.825,0,0,1-2.983-.742,6.067,6.067,0,0,1-2.273-2.131,6.277,6.277,0,0,1-.913-3.029c0-1.084.009-1.625.021-2.167.013-.568.026-1.137.026-2.265,0-1.08.013-1.621.026-2.158.013-.568.026-1.137.026-2.273s0-1.676-.009-2.235-.009-1.1-.009-2.2a13.711,13.711,0,0,1,.119-1.962,18.4,18.4,0,0,0,.142-2.471,5.473,5.473,0,0,1,2.721-5.362,6.615,6.615,0,0,1,3.1-.52,16.687,16.687,0,0,0,2.341-.142,13.794,13.794,0,0,1,1.847-.107,12.789,12.789,0,0,1,1.83.111,16.568,16.568,0,0,0,2.354.149c1.037,0,1.553,0,2.068.008s1.058.013,2.115.013c1.007,0,1.493.017,2.013.038s1.088.043,2.175.043,1.647-.021,2.184-.047c.516-.021,1-.043,2-.043,1.127,0,1.7-.043,2.247-.081.5-.038.969-.072,1.936-.072,1.114,0,1.676-.034,2.222-.068.507-.03.986-.055,1.966-.055,1.075,0,1.608-.013,2.145-.026.511-.013,1.024-.026,2.047-.026a6.566,6.566,0,0,1,2.91,1.137,5.694,5.694,0,0,1,3.05,5.046c0,1.137.013,1.715.03,2.273s.026,1.08.026,2.158c0,1.137.021,1.723.038,2.282s.034,1.075.034,2.149c0,1.029-.038,1.527-.077,2.056-.043.584-.09,1.191-.09,2.375s.044,1.791.082,2.371Z" transform="translate(-43.309 -73.706)"/><path class="c" d="M205.319,139.806a1.318,1.318,0,0,1-1,.994,17.377,17.377,0,0,1-2.5.337c-.833.064-1.664.1-2.5.09s-1.668-.034-2.5-.1a19.36,19.36,0,0,1-2.5-.328,1.307,1.307,0,0,1,0-2.557,19.333,19.333,0,0,1,2.5-.324c.833-.064,1.668-.1,2.5-.1s1.668.03,2.5.09a18.654,18.654,0,0,1,2.5.337,1.311,1.311,0,0,1,1,1.563Z" transform="translate(-41.718 -72.889)"/><path class="c" d="M201.739,145.878a2.59,2.59,0,1,1-2.59-2.586A2.59,2.59,0,0,1,201.739,145.878Z" transform="translate(-41.556 -72.618)"/><path class="c" d="M201.739,152.211a2.587,2.587,0,1,1-.758-1.832A2.59,2.59,0,0,1,201.739,152.211Z" transform="translate(-41.556 -72.305)"/><path class="c" d="M180.494,136.936a10.8,10.8,0,1,0,10.789,10.789A10.8,10.8,0,0,0,180.494,136.936Zm.96,6.961a1.3,1.3,0,0,1-.71.871l-.247.115a6.844,6.844,0,0,0-.96.516,4.579,4.579,0,0,0-.746.614,5.213,5.213,0,0,0-.6.75,9.965,9.965,0,0,0-.533.956l-.124.251a1.3,1.3,0,0,1-1.749.592,1.326,1.326,0,0,1-.686-.845,3.978,3.978,0,0,1,.1-2.2,4.765,4.765,0,0,1,1.186-1.919,4.848,4.848,0,0,1,1.924-1.169,4.093,4.093,0,0,1,2.192-.111,1.3,1.3,0,0,1,.955,1.581Z" transform="translate(-42.885 -72.932)"/><path class="c" d="M177.764,279.421a9.235,9.235,0,0,0-.79-2.7l-.315-.652c-.188-.392-.371-.8-.55-1.212l-1.08-2.6c-.192-.452-.388-.909-.6-1.374l-.6-1.279-1.178-2.543-.592-1.271-.294-.639-.311-.69c-.413-.909-.852-1.779-1.267-2.607s-.786-1.608-1.1-2.415c-.367-.922-.754-1.813-1.137-2.679s-.746-1.7-1.05-2.509c-.149-.379-.284-.841-.435-1.279l-.435-1.323-.867-2.645-.217-.661-.111-.332-.089-.264c-.038-.1-.068-.2-.111-.284a4.8,4.8,0,0,0-1.659-2.09,4.334,4.334,0,0,0-1.433-.635,4.075,4.075,0,0,0-1.638-.021,4.385,4.385,0,0,0-1.4.55l-.614.384c-.815.507-1.647,1.037-2.483,1.63a19.709,19.709,0,0,0-2.458,2.022,28.089,28.089,0,0,0-2.09,2.273,18.72,18.72,0,0,0-1.817,2.662,16.479,16.479,0,0,0-1.279,3,18.413,18.413,0,0,0-.71,3.135c-.034.264-.068.533-.089.8l-.034.4-.013.2-.009.247a9.211,9.211,0,0,0,.153,1.855,23.3,23.3,0,0,0,.833,3.012c.142.443.284.871.4,1.279l.367,1.357c.264.956.568,1.915.931,2.875.183.477.375.956.584,1.421.107.234.213.469.324.71l.3.627c.188.4.379.82.575,1.25a7.951,7.951,0,0,1-.852,6.088c-.26.5-.5.986-.725,1.472a68.931,68.931,0,0,0-3.255,6.855,23.389,23.389,0,0,0-1.071,2.145,5.153,5.153,0,0,1-1.847,2.53,5.406,5.406,0,0,1-2.718.546,12.539,12.539,0,0,1-1.732-.264,33.717,33.717,0,0,1-3.715-1.029,17.718,17.718,0,0,1-1.689-.7,11.2,11.2,0,0,1-1.468-.879c-.994-.69-2-1.583-3.144-2.488-1.2-.943-2.337-1.664-3.229-2.436a8.694,8.694,0,0,1-1.148-1.173c-.388-.5-.763-1.012-1.114-1.54a26.682,26.682,0,0,1-1.881-3.319,17.365,17.365,0,0,1-1.1-3.493l-.465-2.026c-.158-.656-.3-1.3-.426-1.936a28.12,28.12,0,0,1-.511-3.8,38.744,38.744,0,0,1,.009-3.915l.081-2.086c.021-.784-.013-1.553-.06-2.265a23.684,23.684,0,0,1-.107-3.753c.142-1.242.379-2.539.656-3.856l.426-2.026c.124-.605.284-1.186.465-1.8.26-.841.58-1.7.9-2.624.892-1.838,1.787-2.9,3.937-3.182.328-.043.648-.081.969-.124.158.013.324.021.5.034q.314.026.627.026a19.244,19.244,0,0,0,4.573-.754c.4-.1.807-.2,1.212-.294a14.381,14.381,0,0,0,6.151-2.671,8.612,8.612,0,0,0,.763-.71,1.371,1.371,0,0,0,.388-.354c1.088-1.442,2.115-2.526,3.741-2.905.247.013.494.03.75.038h.081c.909.043,1.83.09,2.765.09a19.348,19.348,0,0,0,3.238-.243,18.53,18.53,0,0,0,6.032-2.039,14.624,14.624,0,0,0,5.136-4.245,2.787,2.787,0,0,0,.354-2.462,3.83,3.83,0,0,0-2.381-2.294,23.282,23.282,0,0,1-3.046-1.408c-.622-.32-1.267-.656-1.919-.956-.418-.192-.833-.375-1.246-.568-1.357-.609-2.641-1.191-3.736-1.8-1.374-.759-2.53-1.549-3.552-2.247-.392-.269-.759-.516-1.092-.733a19.409,19.409,0,0,0-2.226-1.263c-.2-.153-.4-.307-.618-.448-.554-.358-1.118-.568-1.314-1.254a3.533,3.533,0,0,1,.568-2.294q.263-.416.524-.82l.268-.4c.094-.142.183-.264.26-.371.158-.226.337-.452.528-.682.384-.465.833-.943,1.306-1.459a22.74,22.74,0,0,0,1.485-1.749,11,11,0,0,0,.71-1.067c.222-.367.4-.733.58-1.093.669-1.421,1.092-2.735,1.6-3.608.111-.192.284-.469.456-.71s.358-.5.554-.763l1.25-1.634a18.233,18.233,0,0,0,1.323-1.949c.371-.652.71-1.3,1.033-1.953.639-1.3,1.191-2.6,1.745-3.8s1.2-2.436,1.779-3.877c.142-.358.284-.737.4-1.137.064-.2.119-.4.175-.609s.1-.4.142-.6a14.57,14.57,0,0,0,.3-2.432,15.244,15.244,0,0,0-.1-2.424,16.122,16.122,0,0,0-.469-2.377,10.576,10.576,0,0,0-2.557-4.526,10.123,10.123,0,0,0-.982-.888,12.363,12.363,0,0,0-1.037-.737,13.323,13.323,0,0,0-2.243-1.137,13.811,13.811,0,0,0-2.39-.669,11.9,11.9,0,0,0-1.242-.171h-.081l-.119-.009-.234-.009c-.153,0-.3.009-.456.017a5.19,5.19,0,0,0-.862.142,5.86,5.86,0,0,0-2.888,1.672,5.077,5.077,0,0,0-.568.72l-.064.1-.034.06-.072.119-.142.239c-.188.32-.367.635-.541.952-.695,1.254-1.3,2.453-1.958,3.5s-1.455,2.081-2.3,3.187-1.728,2.333-2.479,3.5c-.771,1.169-1.493,2.307-2.243,3.344a31.736,31.736,0,0,1-2.539,2.931c-.482.524-.982,1.088-1.468,1.715A21.532,21.532,0,0,0,127.38,194a34.58,34.58,0,0,1-2.131,3.229c-.746.931-1.685,1.83-2.692,2.854-.5.511-1.033,1.075-1.523,1.685s-.918,1.19-1.327,1.774a32.976,32.976,0,0,1-2.3,3.1c-.807.9-1.77,1.719-2.85,2.7-.269.243-.546.5-.828.786-.142.142-.284.284-.426.443l-.371.426c-.234.268-.469.546-.71.845a25.855,25.855,0,0,1-3.407,2.37l-.673.294c-1.012.452-2,.776-3.221,1.259-1.152.465-2.252.96-3.336,1.463s-2.131,1-3.229,1.54-2.179,1.11-3.255,1.753l-.367.217-.332.188c-.23.128-.469.251-.72.379l-1.587.806a18.632,18.632,0,0,0-1.7.982c-.284.183-.575.388-.862.6a7.061,7.061,0,0,0-.931.841,8.656,8.656,0,0,0-.763.943c-.06.085-.115.175-.17.264l-.124.2-.23.379c-.311.507-.627,1.029-.931,1.553-.142.239-.284.486-.413.729-1.037,1.4-1.715,3.126-2.927,4.369a10.257,10.257,0,0,1-1.966,1.506,12.662,12.662,0,0,0-1.331.528c-.226.107-.452.222-.678.354l-.568.337c-.367.23-.725.465-1.075.71-.7.482-1.365.994-2.009,1.493l-.943.759c-.324.264-.656.541-.973.828-.631.568-1.237,1.169-1.813,1.779-.284.307-.568.618-.841.922l-.379.426-.068.077a2.472,2.472,0,0,0-.284.388,2.68,2.68,0,0,0-.284.656c-.034.124-.051.217-.068.294-.111.183-.217.367-.32.546-.213.379-.413.759-.605,1.137-.4.8-.763,1.608-1.092,2.415a19.177,19.177,0,0,0-2.786,1.51A26.313,26.313,0,0,0,62.2,251.7c-.852.733-1.664,1.5-2.415,2.222l-.284.26-.1.1-.142.142c-.09.1-.179.2-.26.307a5.31,5.31,0,0,0-.665,1.169l-.307.767-.3.71c-.418.977-.837,1.97-1.229,3-.2.516-.392,1.041-.568,1.583s-.345,1.1-.49,1.634c-.294,1.092-.541,2.2-.725,3.31-.09.55-.17,1.105-.239,1.655l-.179,1.6c-.119,1.054-.239,2.145-.3,3.285-.03.568-.043,1.152-.034,1.745,0,.284.017.605.034.871l.026.733.043,3.157a31.72,31.72,0,0,0,.243,3.391l.439,3.125a21.1,21.1,0,0,1,.2,2.85c-.009.931-.1,1.953-.17,3.029a31.44,31.44,0,0,0-.085,3.4c.047,1.152.149,2.188.188,3.161.021.49.026.96.013,1.421,0,.115-.009.226-.017.341l-.021.367-.051.805-.188,3.152c-.034.511-.072,1.024-.115,1.527l-.072.742c-.026.217-.055.435-.09.656-.149.9-.409,1.864-.673,2.922-.132.528-.26,1.084-.371,1.664-.055.284-.107.588-.142.892l-.107.793-.82,6.343c-.234,2.428.026,4.518-.337,6.092a23.013,23.013,0,0,1-.852,2.743c-.175.5-.362,1.024-.533,1.591-.085.284-.17.58-.243.888s-.132.644-.175.926a24.742,24.742,0,0,0-.247,3.125c0,.09-.009.175-.009.264v.166c-.009.473-.021.931-.038,1.357-.013.239-.03.473-.051.695l-.034.324c-.013.107-.021.192-.047.337-.166,1.054-.328,2.149-.426,3.246-.047.541-.081,1-.142,1.5l-.2,1.519-.009.03a1.5,1.5,0,0,0,2.914.652c.162-.516.328-1.037.469-1.578s.269-1.122.367-1.625c.209-.994.448-1.97.71-2.983l.1-.435c.038-.158.06-.307.085-.46.051-.3.094-.592.128-.879.068-.568.111-1.118.162-1.638v-.055l.038-.426a21.263,21.263,0,0,1,.315-2.424c.047-.234.094-.413.142-.622s.119-.413.192-.635c.142-.439.32-.9.507-1.4a22.659,22.659,0,0,0,1.058-3.293,13.121,13.121,0,0,0,.269-1.86c.047-.6.06-1.169.072-1.7.013-1.088.017-2.077.119-2.961l.852-6.215.107-.771c.034-.217.072-.443.119-.669.09-.456.2-.931.328-1.421.251-.994.558-2.056.767-3.242.051-.3.1-.6.132-.913l.09-.833q.077-.818.142-1.625l.213-3.17.055-.771.03-.426c.009-.153.017-.3.021-.452.026-.592.021-1.178,0-1.745-.038-1.137-.142-2.2-.166-3.161a29.116,29.116,0,0,1,.1-2.927c.064-1.033.162-2.115.175-3.3a25.479,25.479,0,0,0-.239-3.459c-.142-1.105-.315-2.158-.443-3.144a53.593,53.593,0,0,1-.256-6.1l-.038-.852c-.013-.264-.021-.469-.026-.71-.009-.465,0-.939.026-1.421.051-.969.162-1.975.284-3.02l.175-1.544c.06-.5.128-.994.209-1.48.162-.973.358-1.932.605-2.884a27.1,27.1,0,0,1,.824-2.611,13.47,13.47,0,0,1,.939-1.306c.448-.533.841-.867,1.352-.673a4.363,4.363,0,0,1,.5,2.65,1.137,1.137,0,0,0,.064.568c-.03.324-.06.644-.085.965a1.707,1.707,0,0,0,3.387.426h0v-.03a1.279,1.279,0,0,0,.188-1.114c.192-1.161.384-2.316.609-3.442.142-.742.3-1.489.482-2.188a12.98,12.98,0,0,1,.69-1.9c.294-.644.622-1.293.994-2,.179-.349.371-.72.558-1.11.094-.2.188-.4.284-.609s.192-.465.256-.631a42.071,42.071,0,0,1,1.821-4.079c.166-.32.341-.639.52-.943l.269-.439.158-.251a2.687,2.687,0,0,0,.294-.656c.017-.051.026-.094.038-.142l.142-.149c.256-.284.507-.55.763-.815.507-.529,1.033-1.029,1.578-1.506.273-.239.541-.469.828-.71l.124-.1c1.08-.533,2.273-.763,2.141.867a7.972,7.972,0,0,1-.132.875c-.077.226-.149.452-.226.682-.371,1.137-.71,2.3-1.02,3.472a48.4,48.4,0,0,0-1.3,7.129,1.706,1.706,0,1,0,3.353.631h0c.605-2.247,1.2-4.445,1.9-6.612.349-1.092.71-2.179,1.092-3.268l.575-1.6a11.375,11.375,0,0,1,.622-1.348c.49-.931,1.137-1.907,1.753-3.1A20.083,20.083,0,0,0,87.5,236c.166-.58.32-1.127.477-1.612.081-.247.166-.469.247-.682.047-.1.085-.2.132-.284l.068-.142.094-.183q.793-1.51,1.668-2.973c.284-.49.588-.973.9-1.468.142-.23.251-.4.345-.546.026-.021.06-.038.085-.06l.043-.038a4.042,4.042,0,0,1,.888-.635,3.372,3.372,0,0,1,.494-.209,3.806,3.806,0,0,1,.55-.107,3.968,3.968,0,0,1,1.22.051,4.913,4.913,0,0,1,.639.175,3.261,3.261,0,0,1,.307.115c.094.034.217.1.247.1l.815.06a1.385,1.385,0,0,0,1.191-.533,1.369,1.369,0,0,0,.284-.852v-.107a1.082,1.082,0,0,0-.017-.124.828.828,0,0,0-.03-.132c-.013-.043-.021-.068-.034-.1a1.715,1.715,0,0,0-.284-.5c-.4-.516-.038-1,.452-1.387q.9-.5,1.834-.969c.4-.142.852-.294,1.3-.418,1.041-.17,2.022-.111,1.958,1.024-.03.17-.068.354-.119.546l-.332.55-.528.914c-.192.341-.384.7-.55,1.041-.669,1.378-1.148,2.667-1.685,3.843-.273.6-.524,1.11-.845,1.668l-1.033,1.762c-.362.627-.729,1.279-1.058,2a17.42,17.42,0,0,0-.845,2.175c-.46,1.421-.78,2.76-1.165,3.978l-.32.986c-.111.354-.213.7-.311,1.05-.192.695-.362,1.382-.528,2.06s-.307,1.352-.46,2.009-.294,1.391-.426,2.081a41.344,41.344,0,0,0-.533,4.2v.017a1.715,1.715,0,0,0,3.361.584l2.2-7.836c.175-.656.349-1.306.533-1.932q.135-.473.284-.935l.32-.977c.443-1.408.773-2.752,1.165-3.951a14.5,14.5,0,0,1,.648-1.672c.251-.537.558-1.084.888-1.651l1.058-1.8c.367-.635.733-1.365,1.029-2.013.605-1.331,1.1-2.624,1.638-3.724.142-.284.269-.524.418-.786l.507-.875c.345-.58.69-1.156,1.046-1.728.516-.833,1.05-1.664,1.591-2.462a6.231,6.231,0,0,1,4.7-1.493c.337.081.678.175,1.016.284.3.1.6.2.892.32s.605.251.833.354l.115.051a1.492,1.492,0,0,0,1.446-2.6c-.371-.247-.665-.435-1-.631s-.656-.367-.994-.541c-.064-.034-.132-.06-.2-.094a4.209,4.209,0,0,1-1.054-1.161,1.886,1.886,0,0,1,.026-1.655l.1-.166a12.01,12.01,0,0,1,1.058-1.361l.315-.354c.09-.1.183-.2.284-.3.2-.2.426-.418.669-.635a41.908,41.908,0,0,0,3.152-2.983,35.159,35.159,0,0,0,2.65-3.515c.384-.541.759-1.054,1.148-1.527s.79-.9,1.254-1.378c.733-.75,1.563-1.544,2.368-2.453a7.246,7.246,0,0,1,4.837-1.472l.213.038c.239.047.477.1.71.162s.486.132.661.183l.2.06a1.487,1.487,0,0,0,1.137-2.73c-.328-.183-.568-.3-.845-.439s-.537-.251-.815-.367c-.234-.1-.477-.2-.72-.284a1.511,1.511,0,0,1-.541-1.127,2.644,2.644,0,0,1,.456-1.293.214.214,0,0,1,.03-.034c.49-.537,1.033-1.109,1.574-1.723a4.994,4.994,0,0,1,4.13-1.344,7.37,7.37,0,0,0,2.641.209,8.93,8.93,0,0,0,2.483-.648,12.2,12.2,0,0,0,3.813-2.59,15.777,15.777,0,0,0,1.476-1.6c.23-.284.448-.568.661-.852s.4-.568.622-.931a1.493,1.493,0,0,0-2.358-1.809l-.077.085c-.166.179-.4.418-.605.622s-.426.426-.656.626a17.535,17.535,0,0,1-1.378,1.137,10.151,10.151,0,0,1-2.9,1.544c-.068.021-.132.034-.2.051-.064,0-.128-.013-.2-.017-.5-.017-1.229.175-1.689-.068-.725-.392-.465-1.382-.209-2.23.132-.175.264-.349.4-.533.833-1.084,1.719-2.222,2.539-3.515s1.446-2.557,2.09-3.7l.486-.845.119-.2.064-.1.03-.051c.009-.009,0,0,.009-.013a.865.865,0,0,1,.072-.085,1.359,1.359,0,0,1,.644-.362c.055-.013.107-.017.153-.026h.145a7.8,7.8,0,0,1,.806.115,8.915,8.915,0,0,1,1.583.448,8.4,8.4,0,0,1,1.438.725,7.313,7.313,0,0,1,.644.46,6.167,6.167,0,0,1,.55.5,5.967,5.967,0,0,1,1.442,2.607,11.67,11.67,0,0,1,.324,1.676,10.333,10.333,0,0,1,.068,1.7,9.54,9.54,0,0,1-.209,1.664c-.026.142-.064.273-.094.409a3.95,3.95,0,0,1-.111.384c-.085.26-.179.529-.294.811-.443,1.114-1.075,2.328-1.681,3.626s-1.137,2.539-1.7,3.711c-.284.58-.584,1.156-.892,1.7a14.293,14.293,0,0,1-.994,1.472l-1.259,1.647c-.217.294-.439.6-.652.918s-.426.618-.656,1.024c-.852,1.531-1.242,2.875-1.757,3.934-.128.26-.251.511-.388.737a6.6,6.6,0,0,1-.426.652c-.324.439-.737.9-1.191,1.4s-.948,1.029-1.442,1.625c-.247.3-.494.609-.733.948-.124.175-.23.332-.328.482l-.3.452c-.79,1.216-1.485,2.394-2.2,3.489l-.546.815c-.217.315-.418.626-.614.935-.392.618-.754,1.225-1.105,1.809s-.695,1.148-1.046,1.681c-.332.507-.742,1.092-1.137,1.659l-2.341,3.41-.284.4c-.072.107-.153.213-.243.324-.17.222-.362.448-.568.678-.413.465-.892.956-1.382,1.489a18.451,18.451,0,0,0-1.5,1.809c-.243.337-.418.609-.622.913l-.58.888c-.763,1.186-1.472,2.316-2.226,3.429-.388.58-.75,1.092-1.182,1.757a10.661,10.661,0,0,0-.626,1.1c-.188.371-.337.71-.482,1.041l-.828,1.949a15.981,15.981,0,0,0-.71,2.294c-.337,1.421-.584,2.7-.952,3.881s-.888,2.5-1.318,3.915c-.217.71-.418,1.463-.568,2.2l-.426,2.017c-.284,1.378-.55,2.794-.71,4.292a26.69,26.69,0,0,0,.1,4.5c.043.661.072,1.271.055,1.864l-.072,2.043c-.051,1.391-.085,2.85.009,4.347a32.011,32.011,0,0,0,.6,4.386c.142.71.307,1.421.469,2.094l.469,2a21.327,21.327,0,0,0,1.421,4.36,30.31,30.31,0,0,0,2.2,3.86q.621.922,1.314,1.8a12.93,12.93,0,0,0,1.736,1.774c1.2,1.02,2.407,1.774,3.37,2.534,1.02.8,2.077,1.74,3.349,2.628a13.228,13.228,0,0,0,2.09,1.216,19.812,19.812,0,0,0,2.131.845,29.935,29.935,0,0,0,4.279,1.054,17.592,17.592,0,0,0,4.594.179c.725-.047,1.421-.142,2.1-.2.375-.038.754-.081,1.137-.124.064,0,.128.013.192.013a2.155,2.155,0,0,0,.72-.128h.047a15.1,15.1,0,0,0,4.42-1.191,1.494,1.494,0,0,0,.852-1.485,1.192,1.192,0,0,0-.6-1.092,1.788,1.788,0,0,0-.388-.183.337.337,0,0,0-.06-.021c-.71-.239-1.438-.179-1.514-1.169a3.082,3.082,0,0,1,0-.4,55.409,55.409,0,0,1,7.184-13.434,2.122,2.122,0,0,0-.234-2.854,46.956,46.956,0,0,1-2.131-4.369l-.307-.652-.264-.584c-.17-.4-.328-.8-.477-1.2-.294-.815-.55-1.655-.79-2.526l-.367-1.378c-.142-.5-.284-.977-.435-1.433a21.02,21.02,0,0,1-.673-2.445,4.663,4.663,0,0,1-.077-.965v-.107l.013-.149.026-.3c.017-.2.043-.4.072-.609a14.6,14.6,0,0,1,.55-2.381,12.276,12.276,0,0,1,2.341-4.2,23.436,23.436,0,0,1,1.757-1.889,15.217,15.217,0,0,1,1.791-1.463c1.225-.682,2.522-1.208,3.255.418.064.142.128.284.192.413l.4,1.212.448,1.37c.153.46.284.9.482,1.4.367.965.759,1.855,1.137,2.722.094.209.179.413.269.622-.142,1.007-1.165.554-1.889.021-.251-.239-.5-.49-.733-.75a14.4,14.4,0,0,1-1.774-2.466l-.017-.034a1.495,1.495,0,0,0-2.658,1.361,17.411,17.411,0,0,0,1.868,3.2,15.821,15.821,0,0,0,2.581,2.773,12.226,12.226,0,0,0,4.637,2.517,4.137,4.137,0,0,1,1.634,1.421c.03.047.055.094.085.142l.1.217.6,1.3,1.208,2.6.6,1.293c.183.392.358.8.537,1.22l.094.226c.188.725.435,1.433.665,2.175.5,1.6.418,2.841-.965,3.451-.222.013-.443.021-.665.021-.3,0-.6-.017-.892-.043-.149-.013-.3-.03-.443-.047l-.392-.06-.17-.021a1.489,1.489,0,0,0-.71,2.88c.239.081.4.132.592.192s.371.107.558.153c.367.094.742.17,1.122.234.068.013.142.021.213.034,1.122.32,2.358.665,2.415,1.949a6.959,6.959,0,0,1-.142,1.489,20.227,20.227,0,0,1-.558,2.009c-.473,1.361-1.54,2.995-2.407,4.9-.452.994-.776,1.924-1.1,2.828s-.614,1.779-.935,2.611c-.158.418-.32.828-.49,1.225-.158.358-.4.9-.58,1.348-.379.935-.7,1.834-1.029,2.679a22.909,22.909,0,0,1-1.033,2.36c-.409.776-.862,1.549-1.335,2.333l-2.983,4.773q-.742,1.178-1.506,2.3c-.511.746-1.058,1.51-1.549,2.09a23.647,23.647,0,0,1-3.851,3.442c-.729.541-1.506,1.11-2.239,1.63s-1.472,1-2.2,1.421a14.041,14.041,0,0,1-2.2,1.037c-.71.251-1.612.465-2.557.71a24.8,24.8,0,0,0-2.956.943c-1,.409-1.877.852-2.752,1.3l-2.513,1.323-.614.315c-.23.124-.465.247-.69.371q-.678.378-1.306.767c-.845.52-1.638,1.046-2.415,1.536s-1.48.914-2.307,1.348-1.689.884-2.581,1.421c-.128.077-.256.158-.384.239l-.656.426c-.1.068-.2.142-.294.209-.435.315-.845.639-1.237.969-.786.661-1.5,1.335-2.188,1.979l-2.069,1.9c-.71.665-1.421,1.348-2.107,2.06s-1.344,1.468-1.966,2.218a38.316,38.316,0,0,0-3.425,4.812,30.948,30.948,0,0,0-2.739,5.256,1.5,1.5,0,0,0,2.7,1.263l.013-.021a45.522,45.522,0,0,1,3.076-4.454c.55-.763,1.088-1.446,1.659-2.149s1.173-1.374,1.779-2.047,1.229-1.314,1.881-1.945,1.3-1.254,1.989-1.864c.656-.584,1.442-1.263,2.131-1.911s1.357-1.263,2.022-1.813c.332-.284.665-.537.994-.776s.669-.452,1.033-.669c.733-.435,1.54-.852,2.4-1.3s1.791-.994,2.59-1.5c.119-.077.239-.149.354-.226l.678-.426c.456-.284.9-.575,1.344-.845.384-.23.763-.456,1.137-.661.188-.1.371-.2.558-.294l.648-.332,2.509-1.306c.807-.413,1.625-.811,2.381-1.114a20.834,20.834,0,0,1,2.441-.763c.884-.23,1.834-.439,2.905-.806a18.752,18.752,0,0,0,2.927-1.352c.909-.516,1.753-1.076,2.557-1.638s1.563-1.114,2.35-1.693a27.912,27.912,0,0,0,4.586-4.1c.729-.852,1.271-1.634,1.847-2.449s1.1-1.621,1.612-2.432l3.042-4.83c.511-.828,1.016-1.685,1.489-2.581a27.284,27.284,0,0,0,1.263-2.82c.358-.913.678-1.8,1.012-2.607.175-.426.32-.746.546-1.254.2-.469.392-.939.568-1.4.362-.931.673-1.847.994-2.722s.614-1.732.948-2.453c.35-.767.767-1.549,1.225-2.4a20.879,20.879,0,0,0,1.335-2.888,25.926,25.926,0,0,0,.82-3.008c.209-.982.371-1.949.546-2.794.043-.209.085-.409.132-.6l.188-.71a10.07,10.07,0,0,0,.268-1.8c.013-.183,0-.371.009-.558a2.148,2.148,0,0,0-.06-1.276Zm-43.106-54.092.888-1.279c1.3-1.459,2.922-3.2,5-3.025a3.085,3.085,0,0,1,.682.142,10.606,10.606,0,0,1,1.212.575c.375.222.75.46,1.137.673v.009c.315.2.652.435,1.024.686,1.046.71,2.341,1.6,3.89,2.453,1.137.627,2.363,1.195,3.66,1.779a10,10,0,0,0,1.885,1.195,7.918,7.918,0,0,1,1.169.631c.994.75.55,1.676-.183,2.462a5.092,5.092,0,0,1-1.25.926,16.022,16.022,0,0,1-3.125.833,24.135,24.135,0,0,1-5.089.1h-.077c-1.279-.064-2.424-.153-3.464-.284a2.05,2.05,0,0,0-.678-.09c-.149-.021-.294-.047-.443-.068a23.114,23.114,0,0,1-4.513-1.979C133.976,229.523,133.817,227.553,134.658,225.329Zm-8.335,11.27c1.757-1.847,4.12-1.97,6.492-1.51l.994.284.055.017c.948.614,2.557,1.165,2.863,2,.192.524-.3,1.152-1,1.749a14.3,14.3,0,0,1-3.191,1.046c-.426.1-.862.2-1.289.311-.149.034-.294.072-.439.107-.78.055-1.578.192-2.462.2-1.233,0-2.577-.273-2.8-1.693a3.822,3.822,0,0,1,.777-2.5Z" transform="translate(-48.862 -71.3)"/><path class="c" d="M143.73,157.909a1.495,1.495,0,0,1-.009,2.983c-.763.026-1.553.043-2.35-.009s-1.476-.115-2.149-.124-1.374.021-2.131.043-1.506.026-2.243.026-1.455.013-2.184.03a16.271,16.271,0,0,0-2,.115c-.3.043-.575.1-.9.179s-.7.179-1.137.264a13.8,13.8,0,0,1-2.557.256,12.406,12.406,0,0,1-2.615-.2c-.443-.081-.845-.188-1.161-.26a6.86,6.86,0,0,0-.862-.142,12.4,12.4,0,0,0-1.889-.03c-.332.013-.656.038-.973.072s-.622.081-.982.142a19.737,19.737,0,0,1-2.436.256c-.815.03-1.574.034-2.39,0s-1.659-.128-2.3-.188-1.314-.072-2.013-.072c-1.459,0-2.833.051-4.39.072-1.523.017-2.983,0-4.479-.034l-2.2-.034c-.75-.013-1.438-.021-2.107,0s-1.3.085-2.131.149-1.621.064-2.394.051c-1.493-.017-3.042-.1-4.454-.149s-2.956-.085-4.445-.166c-.733-.038-1.451-.072-2.184-.094s-1.433-.06-2.107-.047-1.331.072-2.145.128a21.926,21.926,0,0,1-2.368,0,1.495,1.495,0,0,1-.013-2.983h.013c.71-.038,1.391-.1,2.056-.188s1.459-.243,2.265-.315,1.583-.1,2.316-.115,1.506-.03,2.243-.038c1.463,0,2.892-.068,4.415-.085s2.939.017,4.4-.021c.71-.017,1.374-.051,2.03-.124s1.472-.2,2.282-.243,1.6-.055,2.324-.064l2.226-.013L104,156.9c1.4-.034,2.973-.107,4.467-.081.776,0,1.6.03,2.415.111s1.45.171,2.107.209,1.378.051,2.039.038a15.456,15.456,0,0,0,1.97-.162c.371-.051.8-.1,1.216-.132s.837-.047,1.237-.047a16.5,16.5,0,0,1,2.534.142,11.425,11.425,0,0,1,1.31.273c.4.107.71.2.994.26a8.6,8.6,0,0,0,1.791.2,10.279,10.279,0,0,0,1.847-.115c.294-.047.627-.124,1.033-.2a12.167,12.167,0,0,1,1.289-.183,19.535,19.535,0,0,1,2.432-.026c.742.021,1.5.051,2.243.085,1.472.085,2.854.081,4.475.2.8.06,1.6.2,2.256.284s1.361.142,2.073.166Z" transform="translate(-47.735 -71.949)"/><path class="c" d="M141.17,126.309c0,1.549-.2,1.549-.2,3.093A5,5,0,0,1,136,134.517c-3.336,0-3.336.1-6.667.1a5.256,5.256,0,0,1-5.161-5.217c0-1.544.043-1.544.043-3.093a4.975,4.975,0,0,1,5.114-4.931c3.331,0,3.331-.392,6.667-.392A5.354,5.354,0,0,1,141.17,126.309Z" transform="translate(-45.137 -73.721)"/><path class="c" d="M138.165,265.95a1.362,1.362,0,0,1,0,2.688c-1.3.209-2.59.349-3.881.452s-2.586.183-3.877.2c-.648.013-1.293,0-1.941-.034s-1.293-.068-1.936-.115a34.658,34.658,0,0,1-3.881-.5,1.371,1.371,0,0,1,0-2.688,34.659,34.659,0,0,1,3.881-.5c.644-.047,1.293-.089,1.936-.115s1.293-.047,1.941-.034c1.293.017,2.586.1,3.877.2S136.868,265.741,138.165,265.95Z" transform="translate(-45.266 -66.583)"/><path class="c" d="M136.555,256.451a1.367,1.367,0,0,1,0,2.688c-1.161.209-2.32.35-3.476.452s-2.32.179-3.481.2-2.316-.06-3.476-.153a27.187,27.187,0,0,1-3.476-.5,1.377,1.377,0,0,1,0-2.688,27.981,27.981,0,0,1,3.476-.5c1.161-.089,2.32-.17,3.476-.149s2.32.1,3.481.2S135.4,256.242,136.555,256.451Z" transform="translate(-45.265 -67.053)"/><path class="c" d="M127.092,147.064a1.495,1.495,0,0,1,.03,2.983h-.03a14.677,14.677,0,0,0-1.506.162c-.477.077-.926.2-1.527.354a14.053,14.053,0,0,1-1.9.32c-.315.026-.626.043-.935.055l-.852.03-3.391.107-1.689.051c-.568.013-1.208.021-1.847-.017s-1.323-.128-1.847-.2a11.963,11.963,0,0,0-1.468-.142c-.494-.017-1.012-.009-1.54.009s-1.02.06-1.51.115-1.054.153-1.693.222-1.263.1-1.864.119-1.195.013-1.817-.009-1.267-.077-1.834-.142-1.033-.1-1.549-.124-1.041-.038-1.563-.034-1.024.021-1.506.064-1.012.115-1.655.175a30.8,30.8,0,0,1-3.6.077c-.554-.009-1.1-.009-1.651,0H86.623c-1.156-.017-2.294-.043-3.5-.124-.6-.043-1.191-.111-1.719-.166s-1.063-.09-1.608-.119l-.824-.038c-.3-.013-.6-.026-.9-.047-.6-.038-1.233-.115-1.821-.213s-1.088-.2-1.6-.256-1.041-.111-1.583-.149h-.013a1.5,1.5,0,0,1,.013-2.983c.588-.034,1.186-.06,1.8-.043s1.242.064,1.766.094,1.029.038,1.553.034c.264,0,.528-.009.8-.017l.867-.03c.584-.013,1.186-.017,1.779,0l1.659.034c1.054.013,2.171-.034,3.276-.072l1.659-.077c.568-.03,1.161-.055,1.736-.072a30.521,30.521,0,0,0,3.161-.158c.477-.06,1.067-.166,1.7-.234s1.267-.09,1.872-.1,1.2,0,1.821.021,1.267.089,1.83.158,1.024.111,1.536.142,1.05.034,1.563.034,1.029-.009,1.519-.047,1.029-.111,1.668-.17,1.267-.072,1.868-.072,1.212.017,1.847.064a17.344,17.344,0,0,1,1.894.251c.584.115,1.016.2,1.506.247s.982.077,1.531.089l1.7.055,3.383.124a15.458,15.458,0,0,0,3.05-.081c.5-.072,1.156-.2,1.8-.243a15.291,15.291,0,0,1,1.871-.007Z" transform="translate(-47.733 -72.459)"/><path class="c" d="M124.612,321.115l-.132.081c-.426.247-.948.5-1.421.767l-1.446.78q-1.441.786-2.824,1.621c-.922.558-1.791,1.156-2.654,1.766s-1.63,1.289-2.424,1.966l-.1.081a1.713,1.713,0,0,1-2.557-2.222,14.534,14.534,0,0,1,2.488-2.948,20.707,20.707,0,0,1,3.012-2.273,23.182,23.182,0,0,1,3.3-1.693c.568-.239,1.137-.448,1.732-.635a15.629,15.629,0,0,1,1.838-.465,1.718,1.718,0,0,1,1.182,3.169Z" transform="translate(-45.798 -63.98)"/><path class="c" d="M119.283,126.319c0,1.549-.341,1.549-.341,3.093,0,2.816-1.9,5.327-4.718,5.327-3.008,0-3.008-.443-6.015-.443s-3.008-.142-6.015-.142-3.008.354-6.015.354-3.008-.23-6.015-.23-3.012.605-6.019.605-3.008-.077-6.019-.077a5.676,5.676,0,0,1-5.455-5.4c0-1.544.448-1.544.448-3.093,0-2.816,2.192-5.519,5.008-5.519,3.008,0,3.008.284,6.015.284s3.008-.23,6.015-.23,3.008-.068,6.015-.068,3.008.367,6.015.367,3.012-.081,6.019-.081,3.012.166,6.019.166a5.05,5.05,0,0,1,5.059,5.086Z" transform="translate(-47.684 -73.731)"/><path class="c" d="M115.876,289.87a1.534,1.534,0,0,1-1.357.03c-.284-.132-.49-.243-.72-.375s-.426-.273-.639-.413a11.553,11.553,0,0,1-1.178-.948,12.667,12.667,0,0,1-1.975-2.313,11.445,11.445,0,0,1-1.374-2.786,8.578,8.578,0,0,1-.452-3.135,1.526,1.526,0,0,1,2.829-.72l.107.183c.426.72.75,1.412,1.173,2.086s.8,1.344,1.263,2,.913,1.327,1.4,2l.725,1.024c.222.35.5.71.678,1.037l.149.284a1.514,1.514,0,0,1-.624,2.042Z" transform="translate(-45.928 -65.931)"/><path class="c" d="M105.141,167.44a1.5,1.5,0,0,1,.021,2.983h-.021c-.644.064-1.272.128-1.872.226s-1.216.239-1.949.349-1.459.179-2.162.226-1.374.068-2.077.081-1.4.009-2.056,0-1.279,0-1.932.013l-3.955.1c-.669.026-1.357.026-2.034.026l-1.958-.021a16.521,16.521,0,0,0-1.779.094c-.605.06-1.391.153-2.131.175a34.9,34.9,0,0,1-4.232-.2l-1.989-.239-1.953-.213a1.5,1.5,0,0,1,0-2.983h0c.682-.077,1.365-.124,2.064-.162s1.387-.038,2.026-.064,1.289-.043,1.941-.077,1.267-.068,1.855-.142,1.137-.17,1.847-.3a18.7,18.7,0,0,1,2.226-.239c.358-.021.737-.03,1.067-.038l.994-.013,1.979-.03c.669,0,1.361-.017,2.039,0l2.043.051c.686.021,1.391.068,2.081.119l1.953.159,1.936.107c.635.03,1.242.047,1.847.021s1.306-.089,2.043-.094A20.664,20.664,0,0,1,105.141,167.44Z" transform="translate(-47.73 -71.446)"/><path class="c" d="M91.836,262.889q-.038,1.235-.153,2.458c-.077.815-.183,1.629-.328,2.445a15.089,15.089,0,0,1-.609,2.428l-.03.081a1.554,1.554,0,0,1-2.956-.107,11.4,11.4,0,0,1-.4-2.649,16.824,16.824,0,0,1,.085-2.624,18.1,18.1,0,0,1,.456-2.59,12.307,12.307,0,0,1,.913-2.509,1.556,1.556,0,0,1,2.927.5l.009.06A18.4,18.4,0,0,1,91.836,262.889Z" transform="translate(-46.958 -66.895)"/><path class="c" d="M84.671,215.14a1.5,1.5,0,0,1,1.4,1.591,1.485,1.485,0,0,1-.439.965,1.5,1.5,0,0,1-.956.426c-1.024.068-2.009.149-3.012.26s-2.131.209-3.187.26a19.386,19.386,0,0,1-3.417-.081c-.6-.072-1.137-.2-1.6-.268a10.782,10.782,0,0,0-1.323-.142c-.448-.026-.9-.017-1.4-.009l-1.527.034-3.1.115a24.764,24.764,0,0,0-2.658.094,3.462,3.462,0,0,0-.815.345,3.635,3.635,0,0,0-1.3,1.4,3.939,3.939,0,0,0-.328.9,16.03,16.03,0,0,0-.038,2.569c.017.482.055.956.094,1.485s.077,1.092.09,1.647.021,1.1.009,1.634l-.026,1.523c-.013.994.038,1.975.047,3.067s-.021,2.141-.064,3.2-.128,2.154-.234,3.174-.17,2-.234,3.029a1.5,1.5,0,0,1-2.983,0c-.068-1.046-.111-2.12-.107-3.182s0-2.022-.043-3.046-.068-2.03-.142-3.02-.166-2.069-.209-3.144l-.047-1.583c-.017-.5-.03-.995-.06-1.472s-.068-.952-.119-1.459-.111-1.063-.149-1.617-.055-1.105-.064-1.647a9.534,9.534,0,0,1,.132-1.989,8.129,8.129,0,0,1,.71-2.022,8.314,8.314,0,0,1,1.212-1.74,7.957,7.957,0,0,1,1.672-1.357,7.517,7.517,0,0,1,2.051-.824,8.765,8.765,0,0,1,2.013-.166h1.527l3.114-.026,1.578.013c.541.013,1.122.034,1.7.094a15.08,15.08,0,0,1,1.757.284c.568.124,1.029.239,1.455.324a15.826,15.826,0,0,0,2.782.247c1.02.038,1.97.038,3.029.021S83.621,215.072,84.671,215.14Z" transform="translate(-48.473 -69.117)"/><path class="c" d="M78.464,262.992c0,1.152-.072,2.294-.171,3.442s-.226,2.286-.4,3.43a30.888,30.888,0,0,1-.71,3.41v.009A1.527,1.527,0,0,1,74.2,273.1a26.5,26.5,0,0,1-.26-3.515c-.017-1.165.021-2.328.107-3.489a34.08,34.08,0,0,1,.409-3.472,20.586,20.586,0,0,1,.862-3.438,1.537,1.537,0,0,1,2.969.315v.013a25.052,25.052,0,0,1,.178,3.475Z" transform="translate(-47.621 -66.935)"/><path class="c" d="M77.259,280.874a8.827,8.827,0,0,1-.17,1.374,5.745,5.745,0,0,1-.456,1.352,1.847,1.847,0,0,1-3.41-.247,5.667,5.667,0,0,1-.256-1.4,8.8,8.8,0,0,1,.026-1.382,7.224,7.224,0,0,1,.251-1.37,4.919,4.919,0,0,1,.588-1.34,1.7,1.7,0,0,1,2.983.213,4.972,4.972,0,0,1,.392,1.412,7.6,7.6,0,0,1,.051,1.391Z" transform="translate(-47.67 -66)"/><path class="c" d="M75.454,91.243a1.523,1.523,0,0,1,0,1.574,22.123,22.123,0,0,1-1.945,2.7,1.5,1.5,0,0,0-.166,1.779l.128.142A20.291,20.291,0,0,1,75.46,100.2a1.541,1.541,0,0,1-2.107,2.107,20.291,20.291,0,0,1-2.765-1.989.2.2,0,0,1-.03-.03,1.783,1.783,0,0,0-1.941.171,1.339,1.339,0,0,1-.349.23,19.257,19.257,0,0,1-2.3,1.612,1.54,1.54,0,0,1-2.107-2.107,20.926,20.926,0,0,1,1.989-2.76c.043-.051.09-.1.142-.158a1.572,1.572,0,0,0,.269-1.137,1.463,1.463,0,0,0-.068-.192c-.107-.128-.222-.251-.328-.379a22.655,22.655,0,0,1-2-2.752,1.536,1.536,0,0,1,2.093-2.11,20.119,20.119,0,0,1,2.29,1.625,1.308,1.308,0,0,1,.307.217,1.666,1.666,0,0,0,1.989.188.386.386,0,0,0,.043-.038,22.344,22.344,0,0,1,2.756-1.989A1.537,1.537,0,0,1,75.454,91.243Z" transform="translate(-48.13 -75.229)"/><path class="c" d="M75.455,198.874a1.523,1.523,0,0,1,0,1.574,21.808,21.808,0,0,1-1.915,2.658,1.491,1.491,0,0,0-.188,1.361c.072.243.142.486.222.733a19.573,19.573,0,0,1,1.881,2.632,1.541,1.541,0,0,1-2.107,2.107,20.293,20.293,0,0,1-2.765-1.989c-.026-.026-.055-.051-.081-.072-.077-.034-.153-.064-.23-.094a2.055,2.055,0,0,0-1.838.4,19.808,19.808,0,0,1-2.471,1.753,1.54,1.54,0,0,1-2.107-2.107,20.351,20.351,0,0,1,1.847-2.594,2.785,2.785,0,0,0,.341-.828,2.022,2.022,0,0,0-.315-1.357,21.886,21.886,0,0,1-1.877-2.607,1.536,1.536,0,0,1,2.107-2.107,22.649,22.649,0,0,1,2.752,2c.107.089.213.183.32.284a2.359,2.359,0,0,0,.939.089,1.238,1.238,0,0,0,.32-.111c.1-.085.2-.175.3-.26a22.344,22.344,0,0,1,2.756-1.989,1.533,1.533,0,0,1,2.111.53Z" transform="translate(-48.131 -69.906)"/><path class="c" d="M66.585,272.24a11.686,11.686,0,0,1-.158,1.485,7.124,7.124,0,0,1-.413,1.467A1.628,1.628,0,0,1,62.946,275a7.188,7.188,0,0,1-.226-1.51A10.89,10.89,0,0,1,62.75,272a8.822,8.822,0,0,1,.23-1.48,5.94,5.94,0,0,1,.533-1.463,1.479,1.479,0,0,1,2.684.17,5.966,5.966,0,0,1,.345,1.514A9.313,9.313,0,0,1,66.585,272.24Z" transform="translate(-48.177 -66.435)"/><path class="c" d="M64.555,314.022c-.1,1.745-.269,3.481-.533,5.2s-.558,3.451-.96,5.153a40.233,40.233,0,0,1-1.37,4.735c-.034.107-.072.209-.111.315a.681.681,0,0,1-.051.115,1.506,1.506,0,0,1-2.731,0,1.481,1.481,0,0,1-.128-.426,1.36,1.36,0,0,1-.009-.294v-.03c.107-1.715.315-3.4.5-5.093s.426-3.374.644-5.059.482-3.37.75-5.055.588-3.374.994-5.025v-.03a1.51,1.51,0,0,1,2.973.23,36.78,36.78,0,0,1,.027,5.259Z" transform="translate(-48.377 -64.501)"/></g><path class="c" d="M392.26,257.194l.04-4.477c.011-.71.05-1.408.107-2.1s.142-1.382.24-2.152.168-1.585.21-2.38.057-1.58.06-2.357c0-1.529-.034-3.107-.161-4.665s-.243-2.885-.26-4.343-.013-2.925.04-4.356c.027-.719.071-1.435.119-2.189s.088-1.536.111-2.309c.05-1.553.033-3.071.043-4.546l.055-4.468c.02-1.512.024-3.015.023-4.521s-.02-3.033-.057-4.532-.054-2.951-.055-4.438,0-2.969.027-4.445.06-3,.067-4.508v-2.273c0-.773-.024-1.563-.065-2.351s-.115-1.6-.2-2.351-.155-1.445-.2-2.142c-.091-1.392-.091-2.833-.074-4.3s.088-2.86.176-4.394.105-3.094.105-4.6.017-2.946.062-4.423.082-3.032.087-4.539,0-3.047-.07-4.6c-.035-.777-.091-1.55-.142-2.273s-.081-1.436-.1-2.158c-.034-1.441-.041-2.925.01-4.337.027-.71.071-1.4.142-2.121s.142-1.486.2-2.273c.114-1.584.121-3.145.111-4.661s-.071-3.11-.163-4.592-.119-2.885-.121-4.361-.011-3.032-.062-4.555-.108-2.954-.117-4.43-.011-2.948.04-4.384c.026-.72.065-1.433.111-2.184s.087-1.531.111-2.3c.05-1.551.043-3.069.035-4.575s-.05-3.05-.084-4.518c-.06-2.931-.03-5.93-.024-8.913l.011-4.494c0-1.5,0-2.954.053-4.413s.128-3,.142-4.526.023-3.033-.026-4.593c-.024-.776-.07-1.563-.122-2.321s-.1-1.47-.135-2.185-.048-1.433-.055-2.161v-.547c0-.195,0-.328-.011-.608-.013-.249-.021-.5-.043-.746l-.112-.746a8.649,8.649,0,0,0-3.094-5.134,9.335,9.335,0,0,0-5.506-1.989l-.364-.014h-.8c-.35-.011-.71-.016-1.046-.037-.693-.034-1.354-.1-2.042-.189s-1.448-.222-2.259-.317-1.627-.152-2.424-.182c-1.61-.048-3.087-.027-4.643.014-.771.024-1.547.064-2.289.1s-1.456.071-2.182.09c-1.443.036-2.929.037-4.384.016s-2.865-.108-4.423-.18-3.09-.075-4.583-.074l-4.481-.009-4.491-.007a41.6,41.6,0,0,0-4.729.2c-1.608.19-2.871.362-4.293.4s-2.888.03-4.293-.036c-.71-.034-1.4-.088-2.151-.155s-1.543-.128-2.328-.163c-1.577-.077-3.114-.057-4.6-.06l-8.964.013c-1.485,0-2.932-.026-4.418-.074s-3.044-.077-4.546-.078-3.1.014-4.678.142-2.919.3-4.352.327c-1.406.038-2.925.018-4.427.03l-4.486.028c-1.486,0-2.992.013-4.448,0s-2.88-.08-4.418-.142-3.079-.075-4.577-.072h-4.479c-2.995-.017-6,.009-8.95-.028-1.475-.02-3-.051-4.5-.055H240.235c-1.486,0-2.946-.031-4.458-.058s-3.022-.031-4.528-.03-3.047.024-4.557.078-2.935.087-4.418.092-2.968,0-4.441-.021-2.995-.061-4.5-.067-3.01-.009-4.526.009l-4.494.087c-1.477.024-2.942.018-4.467.026s-3.057.048-4.531.092-2.939.053-4.423.051-2.919-.024-4.388-.092-3.056-.121-4.569-.126-2.972,0-4.444-.038-2.983-.1-4.512-.115-3.025-.018-4.57.017c-.77.02-1.551.054-2.309.1s-1.479.085-2.2.112c-1.439.055-2.9.058-4.384.05s-2.91-.05-4.427-.1-3.054-.065-4.559-.065-2.966-.007-4.451-.031-3.015-.044-4.516-.047l-8.984.034h-2.239c-.774,0-1.553.013-2.344.051s-1.6.1-2.37.183-1.47.165-2.167.217c-1.389.107-2.81.116-4.288.1s-2.863-.074-4.381-.165-3.091-.116-4.607-.115c-1.48,0-2.922-.021-4.381-.091s-3.052-.142-4.566-.142-3.012,0-4.525.009l-4.478.047H90c-.763,0-1.534,0-2.314.034s-1.571.07-2.34.129-1.49.126-2.2.168c-1.421.087-2.853.094-4.337.087s-2.917-.064-4.418-.121-3.059-.081-4.567-.081-3.06.023-4.594.1-2.925.151-4.4.159-2.935.01-4.367-.048c-.717-.028-1.435-.077-2.194-.124s-1.543-.088-2.314-.109-1.541-.031-2.3-.031-1.472,0-2.2-.02c-1.45-.02-2.864-.126-4.431-.2-.773-.034-1.546-.053-2.311-.061l-1.145-.007h-.3l-.376.018a5.826,5.826,0,0,0-.75.07,8.782,8.782,0,0,0-2.821.889,9.376,9.376,0,0,0-2.363,1.676,10.071,10.071,0,0,0-1.769,2.273,9.815,9.815,0,0,0-1.02,2.745l-.118.736c-.027.247-.034.5-.048.747-.016.284-.011.433-.013.622v.554l-.028,2.2c-.031,1.449-.107,2.966-.126,4.5S29.8,80.8,29.8,82.3v7.851l.011,1.169c.018.791.06,1.6.142,2.415s.206,1.617.313,2.33.188,1.37.234,2.057.068,1.385.07,2.1c.017,2.958-.045,5.936-.05,8.95-.017,2.991.034,6.041.063,8.99.007,1.485.011,2.983,0,4.454s-.054,2.939-.082,4.465l-.024,2.273-.009,2.225c-.01.722-.033,1.433-.074,2.138s-.108,1.409-.178,2.171-.126,1.563-.158,2.344-.044,1.563-.045,2.328c0,1.51.007,3.015.031,4.525s.051,2.971.054,4.459c0,1.466,0,3.023.065,4.57.033.776.084,1.55.131,2.283s.082,1.443.1,2.167c.034,1.443.047,2.929,0,4.344-.026.71-.07,1.406-.134,2.122s-.142,1.482-.2,2.273c-.114,1.583-.121,3.14-.109,4.661s.091,3.125.2,4.6.142,2.87.142,4.343-.017,2.929-.081,4.387-.142,3.043-.142,4.557l-.013,8.99v2.245c0,.757,0,1.52.023,2.289.024,1.541.142,3.1.2,4.523.03.722.047,1.446.054,2.178l.011,2.235c0,1.513.061,3.083.134,4.563s.091,2.911.092,4.391.01,3.019.043,4.528.063,2.964.067,4.451v4.465l-.028,4.491v2.25c0,.722-.01,1.431-.051,2.131s-.1,1.367-.193,2.071-.212,1.482-.284,2.289a40.817,40.817,0,0,0-.152,4.735c.013.779.047,1.57.107,2.364s.152,1.581.232,2.3.142,1.4.17,2.107.045,1.421.048,2.142c0,1.473-.02,2.919-.1,4.373s-.156,3.053-.163,4.567,0,3.032.037,4.569.134,3.006.155,4.461l.054,8.95.009,2.233v2.206c-.01.723-.036,1.432-.08,2.131s-.114,1.412-.183,2.179c-.142,1.548-.2,3.145-.2,4.671,0,1.493-.01,2.966-.033,4.45s-.043,3.015-.04,4.516,0,3.013.05,4.532.115,3,.142,4.469l.068,4.45.017,4.477c.017,1.512.044,3.01.087,4.518s.115,3.032.206,4.516.155,2.956.219,4.447a1.495,1.495,0,0,0,2.983,0c.064-1.5.111-3.016.122-4.525s.018-2.966.06-4.454c.048-2.983.188-5.911.263-8.95.034-1.507.064-3.006.058-4.523s-.04-3.04-.053-4.5-.013-2.952,0-4.44.038-2.949.074-4.455.038-3.025.041-4.522c0-1.465.045-2.86.183-4.289.067-.723.142-1.5.195-2.29s.08-1.573.09-2.346l.009-2.273v-2.252l-.048-9c-.021-1.536-.111-3.067-.152-4.506s-.047-2.938-.033-4.4.077-2.873.162-4.4.107-3.079.105-4.6c0-.773-.014-1.551-.051-2.343s-.105-1.6-.189-2.364-.166-1.465-.216-2.162-.081-1.4-.092-2.117a36.653,36.653,0,0,1,.134-4.227c.067-.682.173-1.378.284-2.161s.183-1.6.226-2.394.054-1.585.058-2.36v-2.236l.033-4.481.007-4.508c0-1.5-.031-3.039-.064-4.521s-.04-2.951-.038-4.444-.023-3.056-.094-4.577-.119-2.927-.126-4.4l-.01-2.252c0-.763-.024-1.534-.055-2.307-.067-1.563-.172-2.983-.195-4.44-.017-.726-.018-1.458-.02-2.2v-2.242l.018-8.95c.009-1.477.07-2.887.142-4.4s.091-3.069.09-4.582-.037-3.091-.142-4.623c-.109-1.509-.176-2.89-.186-4.36s0-2.905.1-4.306c.048-.7.128-1.421.2-2.195s.122-1.573.151-2.354c.055-1.576.043-3.08.007-4.627-.021-.771-.06-1.563-.108-2.314s-.1-1.477-.125-2.195c-.063-1.442-.057-2.877-.058-4.4,0-1.5-.026-3.029-.051-4.512s-.031-2.965-.028-4.447q0-1.09.043-2.157c.028-.71.078-1.4.142-2.131s.142-1.512.189-2.3.072-1.571.084-2.344l.011-2.262.024-2.215c.028-1.465.075-2.991.085-4.5s.01-3.012,0-4.518c-.027-3.032-.074-5.967-.055-8.95,0-2.961.07-5.967.055-8.987,0-.781-.027-1.578-.08-2.385s-.153-1.637-.27-2.4-.22-1.439-.284-2.115-.1-1.364-.118-2.069V82.309c0-1.5,0-2.983.018-4.451s.094-2.928.129-4.469l.031-2.282v-.568c0-.185,0-.4.01-.5.01-.124.009-.247.021-.371l.061-.371a5.4,5.4,0,0,1,.54-1.441,5.633,5.633,0,0,1,.975-1.249,4.939,4.939,0,0,1,1.279-.908,4.343,4.343,0,0,1,1.435-.455,2.113,2.113,0,0,1,.367-.033l.183-.013h.259l1.1.009c.73.01,1.452.027,2.174.058,1.421.067,2.992.182,4.532.206.767.017,1.54.02,2.284.023s1.46.011,2.182.031,1.431.057,2.165.1,1.509.1,2.286.131c1.563.065,3.081.07,4.6.055s3.108-.084,4.566-.161,2.9-.094,4.376-.091,2.932.021,4.4.081,3.044.108,4.555.114,3.063,0,4.631-.091c.786-.045,1.563-.115,2.273-.17s1.421-.1,2.138-.118,1.439-.028,2.171-.03h2.255l4.494-.043c1.478-.01,2.983-.017,4.447,0s2.881.068,4.4.142,3.077.1,4.587.1c1.475,0,2.908.028,4.361.112s3.064.166,4.583.175,3.086.01,4.678-.112c.8-.058,1.583-.152,2.3-.227s1.4-.129,2.1-.162,1.421-.041,2.14-.044h2.247l8.96-.027c1.489,0,2.955.023,4.455.05s3.02.036,4.522.036,2.944.016,4.413.065,3.033.1,4.546.109,3.037.009,4.587-.05c.774-.028,1.546-.074,2.28-.115s1.448-.072,2.172-.09c1.443-.033,2.928-.03,4.4-.013s2.918.077,4.457.116,3.066.037,4.528.043,2.9.053,4.4.125,3.07.1,4.58.1,3.029-.009,4.546-.05,2.958-.082,4.44-.087,2.992,0,4.5-.023l4.477-.084c1.473-.014,2.965-.014,4.445,0s2.946.044,4.467.07,3.018.028,4.531.024,3.06-.037,4.546-.091,2.929-.072,4.413-.072,2.966,0,4.444.031,3.009.057,4.513.063H253.7c1.483,0,2.952.037,4.467.058,3.033.04,6.008.016,8.994.036l4.494.01c1.492,0,2.939.011,4.393.072s3.027.142,4.546.155,3.019.009,4.523,0l4.485-.026c1.489-.011,2.961.013,4.546-.028,1.563-.03,3.218-.216,4.594-.337,1.4-.118,2.806-.142,4.286-.131s2.931.028,4.42.078,3.046.078,4.546.08h8.98c1.509,0,2.965-.013,4.374.057.71.031,1.4.085,2.147.149s1.539.128,2.324.165c1.583.072,3.09.078,4.675.036.791-.028,1.6-.078,2.4-.162l2.239-.263a36.979,36.979,0,0,1,4.229-.18h8.972c1.5,0,2.941,0,4.387.067s3.009.165,4.546.18,3.04.02,4.586-.018c.77-.02,1.549-.055,2.3-.1s1.47-.078,2.193-.1c1.432-.04,2.948-.06,4.327-.017.7.026,1.372.071,2.049.152s1.387.2,2.184.307,1.622.185,2.424.223c.4.026.8.03,1.2.041h.882l.2.011a4.705,4.705,0,0,1,2.792.983,4,4,0,0,1,1.408,2.394q.024.182.057.362l.018.374c.011.094.007.334.01.513v.568c.009.769.027,1.544.063,2.324s.091,1.563.142,2.293.092,1.439.115,2.158c.045,1.429.043,2.91.026,4.377s-.085,2.9-.142,4.442-.054,3.066-.053,4.558l-.009,4.478c0,3-.031,5.981.031,9.03.036,1.523.078,2.972.085,4.452s.016,2.958-.031,4.4c-.021.722-.06,1.433-.1,2.176s-.089,1.523-.115,2.3c-.053,1.551-.051,3.073-.038,4.587s.067,3.076.121,4.539.061,2.917.063,4.415.038,3.084.131,4.606.149,2.9.159,4.373,0,2.905-.1,4.306c-.047.7-.122,1.421-.192,2.191s-.121,1.573-.149,2.355c-.055,1.577-.045,3.086-.009,4.634.021.773.06,1.563.109,2.323s.1,1.485.142,2.2c.07,1.432.074,2.878.068,4.366s-.036,2.928-.082,4.431-.061,3.043-.061,4.546-.02,2.919-.1,4.37-.168,3.047-.179,4.57-.017,3.07.087,4.663c.051.8.142,1.593.216,2.324s.142,1.421.179,2.118.058,1.411.06,2.131v2.215c0,1.483-.038,2.946-.062,4.464s-.028,3.022-.026,4.526.021,3.033.058,4.532.057,2.951.058,4.438,0,2.972-.02,4.452l-.053,4.5c-.009,1.519.007,2.991-.038,4.428-.021.722-.057,1.432-.1,2.172s-.094,1.516-.122,2.29c-.055,1.563-.065,3.064-.038,4.614s.149,3.182.276,4.611.152,2.841.142,4.3c0,.719-.017,1.431-.053,2.131s-.1,1.374-.183,2.088-.189,1.5-.254,2.306-.107,1.6-.119,2.381l-.037,4.495c-.024,1.462-.075,2.983-.088,4.5l-.01,2.266c0,.773.011,1.563.057,2.363s.118,1.62.222,2.4.215,1.493.284,2.172a36.539,36.539,0,0,1,.151,4.215c-.011.72-.031,1.432-.072,2.131s-.108,1.4-.18,2.158-.142,1.563-.173,2.341-.055,1.563-.055,2.337c0,1.516,0,2.971-.038,4.451s-.071,3.009-.077,4.518-.018,3.036.065,4.613c.04.786.107,1.581.176,2.326s.126,1.438.162,2.147c.071,1.406.074,2.884.043,4.31s-.172,2.753-.328,4.334a45.538,45.538,0,0,0-.169,4.688c.007,1.523.04,3.079.125,4.593s.135,2.907.142,4.383,0,3.022.063,4.546c.06,1.553.142,2.983.166,4.442l.014,1.1v.827a1.8,1.8,0,0,1,0,.227,4.069,4.069,0,0,1-.284,1.441,4.772,4.772,0,0,1-1.925,2.307,4.945,4.945,0,0,1-1.421.611,5.653,5.653,0,0,1-.76.142l-.386.018h-.527c-1.507,0-3.054.03-4.56.091s-2.929.094-4.413.1-2.9,0-4.307-.114l-2.212-.2c-.779-.068-1.576-.114-2.355-.142-1.571-.047-3.074-.034-4.626.007-.773.023-1.563.065-2.313.114s-1.472.1-2.189.125c-1.438.061-2.885.058-4.393.057h-8.972c-1.485,0-2.945-.016-4.423-.061s-3.033-.082-4.546-.087-3.074,0-4.657.118c-.793.057-1.571.142-2.283.216s-1.405.121-2.114.149c-1.421.054-2.891.058-4.28-.009-.7-.035-1.375-.1-2.086-.182s-1.492-.193-2.293-.263c-1.6-.142-3.206-.142-4.688-.142-1.5,0-3.019.018-4.509.041s-2.968.028-4.458.03-2.951-.011-4.421-.054-3.025-.091-4.533-.1-3.026,0-4.563.038c-.767.021-1.536.058-2.273.091s-1.46.061-2.191.075-1.462.023-2.2.024l-2.273.014c-1.523.014-3.071.088-4.521.135s-2.911.047-4.432.051-3.084.054-4.575.134-2.907.108-4.387.111-2.959,0-4.431-.037-3.01-.077-4.519-.082-3.015-.007-4.538.018l-4.482.111c-1.468.023-2.959.026-4.425.011s-2.9-.078-4.432-.142-3.073-.062-4.553-.064-2.9-.04-4.383-.119-3.07-.128-4.582-.131-3.013,0-4.529.026-2.983.06-4.465.065h-4.461l-4.484-.04h-4.516c-1.51.009-3.059.053-4.529.105s-2.939.064-4.421.065-2.914-.021-4.383-.1-3.062-.115-4.575-.109-2.983.023-4.471.011-2.992-.023-4.5-.011l-4.5.054c-2.983.053-5.977.084-8.983.169-1.5.037-3.032.107-4.515.189s-2.958.142-4.448.19a1.495,1.495,0,0,0,0,2.983c1.5.05,3.015.094,4.523.1s2.968.013,4.455.043l8.962.19,4.474.071,4.471.126c1.5.037,3.037.046,4.5.064s2.891.084,4.391.176,3.074.124,4.586.129,3.029,0,4.546-.038,2.959-.088,4.44-.094h4.455l4.488.043h4.511c1.507,0,3.032-.04,4.5-.062s2.968-.027,4.442-.021,2.9.047,4.386.128,3.073.126,4.585.128,2.954.008,4.417.064,3.015.131,4.535.142,3.023.014,4.546-.009l4.486-.108c1.468-.024,2.955-.023,4.434-.016s2.934.047,4.451.085,3.03.044,4.546.041,3.07-.036,4.582-.112,2.914-.119,4.393-.125,3.016,0,4.538-.05,2.983-.118,4.448-.131l2.218-.011q1.137,0,2.286-.023c.764-.016,1.539-.044,2.292-.077l2.208-.087c1.452-.041,2.927-.043,4.4-.034s2.921.048,4.437.1,3.044.06,4.546.06,3.01,0,4.513-.027,2.972-.036,4.462-.037h1.137c.358,0,.72,0,1.073.014.71.014,1.405.051,2.094.114s1.384.156,2.164.251,1.588.168,2.382.209c1.6.077,3.114.071,4.688.014.786-.031,1.588-.09,2.36-.165s1.483-.156,2.182-.206c1.4-.107,2.816-.111,4.31-.1s2.928.038,4.431.088,3.043.065,4.546.065h4.484l4.489.009c1.482,0,3.027.007,4.577-.057.776-.031,1.553-.082,2.289-.129s1.446-.085,2.168-.107c1.438-.038,2.927-.048,4.346,0,.71.021,1.411.063,2.122.124s1.468.142,2.256.2c1.577.122,3.15.142,4.658.129s3.063-.037,4.557-.1,2.925-.084,4.4-.084h.594l.734-.037a10.069,10.069,0,0,0,1.443-.261,9.389,9.389,0,0,0,2.679-1.151,9.213,9.213,0,0,0,3.709-4.472,8.514,8.514,0,0,0,.582-2.935c.007-.132.01-.249.009-.332v-.852l-.014-1.145c-.018-1.533-.112-3.089-.166-4.523-.054-1.46-.053-2.891-.057-4.421s-.06-3.1-.142-4.585-.115-2.9-.117-4.374.026-2.875.155-4.276.318-3.056.347-4.61.034-3.079-.044-4.66c-.038-.786-.1-1.581-.173-2.327s-.126-1.439-.162-2.148c-.074-1.409-.062-2.864-.057-4.357s.044-2.936.08-4.452.038-3.046.043-4.521a42.306,42.306,0,0,1,.212-4.279c.071-.732.142-1.523.195-2.313s.07-1.573.081-2.348a40.866,40.866,0,0,0-.173-4.745c-.085-.808-.206-1.58-.3-2.273s-.153-1.367-.189-2.063-.045-1.4-.048-2.121l.011-2.221C392.182,260.193,392.233,258.722,392.26,257.194Z" transform="translate(-29.804 -60.538)"/><path class="c" d="M357.4,172.825c.016-1.084.018-2.148,0-3.252s-.087-2.23-.2-3.323-.219-2.054-.266-3.05-.058-1.989-.062-3.066-.023-2.147-.061-3.226l-.118-3.148c-.03-1.029-.038-2.067-.043-3.11,0-1.014.021-2.009.107-2.973s.243-1.949.368-3.094a32.415,32.415,0,0,0,.183-3.366l-.02-3.192c-.021-4.217-.081-8.449-.074-12.644,0-1.056,0-2.12-.017-3.178s-.023-2.105-.068-3.223a31.548,31.548,0,0,0-.31-3.337c-.163-1.093-.317-2.037-.393-3.026l-.513-12.539v-.023a1.493,1.493,0,0,0-2.983.023c-.031,1.06-.064,2.124-.072,3.191v3.172c0,1.043-.021,2.087-.044,3.134s-.041,2.167.018,3.277.2,2.265.312,3.268a27.679,27.679,0,0,1,.176,2.971c.009.994-.018,2.054-.037,3.106l-.06,3.152c-.077,4.246-.087,8.454-.134,12.678l-.033,3.138c-.021,1.01-.062,1.989-.178,2.951s-.294,2.046-.392,3.189-.132,2.253-.142,3.349c0,1.067,0,2.14.028,3.219l.1,3.178c.031,1.03.041,2.061.044,3.1s0,2.159.053,3.268.166,2.252.264,3.256.142,1.979.165,2.995.01,2.053-.011,3.077-.067,2.027-.132,3.077c-.142,2.131-.166,4.369-.163,6.456v6.332l-.01,3.14c-.013,1.02-.047,2.013-.132,3s-.217,2.066-.284,3.191-.089,2.222-.089,3.307.028,2.2.112,3.323.232,2.222.318,3.189.129,1.968.142,2.983l.021,3.16c.023,2.147.082,4.228.088,6.319,0,1.061.014,2.076-.028,3.06s-.131,1.919-.271,2.958-.263,2.229-.3,3.343-.045,2.206-.013,3.327a29.064,29.064,0,0,0,.3,3.391c.166,1.11.315,2.024.384,2.992s.087,1.948.085,3-.007,2.083-.031,3.125c-.058,2.067-.111,4.262-.1,6.38-.008,4.253.155,8.474.117,12.623-.009,1.034-.043,2.057-.074,3.125s-.045,2.154-.045,3.222c.014,2.164.017,4.146-.082,6.238-.044,1.057-.074,2.158-.075,3.233s.009,2.141.044,3.236.109,2.208.232,3.292.24,2.06.3,3.069l.446,12.573v.017a1.493,1.493,0,0,0,2.983-.017c.028-1.06.055-2.121.068-3.187l.01-3.171c0-1.046.021-2.091.041-3.14s.048-2.151,0-3.246-.134-2.225-.217-3.239-.118-2-.122-3.026.017-2.063.05-3.093.089-2.042.165-3.091c.163-2.121.176-4.36.2-6.417.016-1.041.044-2.067.091-3.106s.1-2.131.124-3.2c.051-2.157.053-4.262.051-6.393l-.021-6.308c0-2.105.057-4.12.126-6.276.03-1.073.041-2.145.047-3.211s0-2.195-.082-3.327-.259-2.309-.4-3.287a24.561,24.561,0,0,1-.239-2.912c-.024-.994-.018-2.017.026-3s.142-1.919.284-2.956.274-2.226.32-3.341.047-2.22.047-3.268c0-2.131-.047-4.262-.057-6.34V210.7c-.01-1.092-.044-2.216-.142-3.337s-.236-2.131-.3-3.111-.087-1.989-.087-3,.027-2.033.087-3.019.179-1.989.267-3.114.124-2.233.132-3.322v-3.189l-.028-6.328c-.011-2.131,0-4.12.125-6.2C357.34,175.016,357.387,173.906,357.4,172.825Z" transform="translate(-13.857 -58.653)"/><path class="c" d="M348.017,302.618l5.07,12.961a2.093,2.093,0,0,0,3.9,0l5.07-12.961a1.495,1.495,0,0,0-2.728-1.215l-3.249,6.48c-.124.142-.243.276-.369.409-.426.446-.537.54-1.03.19a7.292,7.292,0,0,1-.827-.885l-3.107-6.194a1.495,1.495,0,0,0-2.728,1.215Z" transform="translate(-14.069 -48.664)"/><path class="c" d="M361.206,92.3a1.494,1.494,0,0,0,.852-1.936l-5.07-12.961a2.093,2.093,0,0,0-3.9,0l-5.07,12.961a1.495,1.495,0,0,0,2.728,1.215l3.2-6.384c.51-.651,1.173-1.171,1.854-.436q.14.153.264.32l3.268,6.5a1.5,1.5,0,0,0,1.87.722Z" transform="translate(-14.068 -59.769)"/></g></g><g class="d" transform="translate(0 -23)"><text class="e" transform="translate(143 2708)"><tspan x="123.8" y="49">ADULTS</tspan></text></g><g class="f" transform="translate(-5 -73)"><text class="g" transform="translate(360 2757)"><tspan x="-207.36" y="0">1 IN 8</tspan></text></g></g></svg>
