<svg xmlns="http://www.w3.org/2000/svg" width="53.646" height="57.369" viewBox="0 0 53.646 57.369"><defs><style>.a{fill:none;stroke:#fefefe;stroke-width:2px;}.a,.b{fill-rule:evenodd;}.b,.d{fill:#051f3e;}.c{fill:#fefefe;font-size:47px;}.c,.d{font-family:HelveticaNeue-Bold, Helvetica Neue;font-weight:700;}.d{font-size:45px;}</style></defs><g transform="translate(-4.156 -1.531)"><path class="a" d="M46.794,34.714c-5.872-2.462-10.323.189-13.164,1.894-4.262,2.652-10.228,11.081-3.6,17.236,4.072,3.788,11.649,2.746,15.816-.474C52,48.636,54.276,37.839,46.794,34.714Zm-14.3-6.44c3.788-5.777,12.406-7.766,17.8-3.6,4.451,3.409,5.114,10.039,2.936,14.679-3.22,7.008-14.206,8.9-19.7,4.072C28.611,39.071,29.084,33.483,32.494,28.274ZM38.176,7.628c-4.167-4.735-12.217-5.588-16.763-.947-4.735,4.83-3.22,12.975,1.421,17.047,3.315,2.841,10.891,1.894,12.88.852C41.491,21.455,42.817,13.027,38.176,7.628ZM48.309,11.7c-7.766-1.326-14.963,2.746-13.732,12.785.474,3.978,2.936,8.334,8.05,8.9,7.387.758,13.259-4.167,13.069-10.607C55.507,17.667,54.465,12.742,48.309,11.7ZM6.829,24.107c-3.5,3.6-4.546,12.5,2.084,15.626,8.618,4.072,16.195,1.515,19.509-2.746,3.409-4.546.379-9-3.6-11.554C20.371,22.5,11.469,19.372,6.829,24.107Zm7.482-14.4c-4.546.947-8.523,4.925-8.334,9.944C6.355,28.085,23.591,35.945,30.5,30.263a11.412,11.412,0,0,0-1.136-17.9C25.77,9.807,19.614,8.575,14.31,9.712ZM11.374,35.851c-5.493,5.777-3.5,15.342,2.936,18.278,4.83,2.178,11.27,2.084,15.342-2.084,3.978-4.167,2.084-14.206-3.031-17.994C21.792,30.452,14.973,32.157,11.374,35.851Z" transform="translate(1.099 1.571)"/><path class="b" d="M13.6,12.036V37.512H34.722V12.036Z" transform="translate(8.995 5.876)"/><text class="c" transform="translate(17.141 48.9)"><tspan x="0" y="0">D</tspan></text><text class="d" transform="translate(14.747 45.531)"><tspan x="0" y="0">D</tspan></text></g></svg>
