<svg xmlns="http://www.w3.org/2000/svg" width="53.544" height="53.544" viewBox="0 0 53.544 53.544">
  <defs>
    <style>.a{fill:#051f3e;}</style>
  </defs>
  <g transform="translate(-225.249 -646.449)">
    <path class="a" d="M280.542,662H254.6a13.81,13.81,0,0,0-13.8,13.8v25.941a13.81,13.81,0,0,0,13.8,13.8h25.941a13.81,13.81,0,0,0,13.8-13.8V675.8A13.832,13.832,0,0,0,280.542,662Zm9.112,39.742a9.091,9.091,0,0,1-9.079,9.079H254.635a9.091,9.091,0,0,1-9.079-9.079V675.8a9.091,9.091,0,0,1,9.079-9.079h25.941a9.091,9.091,0,0,1,9.079,9.079Z" transform="translate(-15.551 -15.551)"/>
    <path class="a" d="M293.869,701.4a13.669,13.669,0,1,0,13.669,13.669A13.69,13.69,0,0,0,293.869,701.4Zm0,22.648a8.979,8.979,0,1,1,8.979-8.979A8.984,8.984,0,0,1,293.869,724.048Z" transform="translate(-41.847 -41.848)"/>
    <circle class="a" cx="2.661" cy="2.661" r="2.661" transform="translate(264.127 656.526)"/>
  </g>
</svg>
