<svg xmlns="http://www.w3.org/2000/svg" xmlns:xlink="http://www.w3.org/1999/xlink" width="572" height="605.117" viewBox="0 0 572 605.117"><defs><style>.a{fill:#fff;stroke:#707070;}.b{clip-path:url(#a);}.c,.f,.i{fill:#003472;}.c{font-size:29px;font-family:HelveticaNeue-Medium, Helvetica Neue;font-weight:500;}.c,.f{letter-spacing:-0.08em;}.d{fill:none;stroke:#003472;stroke-width:1.5px;}.e{clip-path:url(#b);}.f{font-size:81px;font-family:HelveticaNeue-Bold, Helvetica Neue;font-weight:700;}.g{letter-spacing:-0.057em;}.h{fill:#087bef;}</style><clipPath id="a"><rect class="a" width="572" height="104" transform="translate(75 1896)"/></clipPath><clipPath id="b"><rect class="a" width="572" height="62" transform="translate(1.235 8.235)"/></clipPath></defs><g transform="translate(-75 -1393.883)"><g class="b" transform="translate(0 -1)"><g transform="translate(70.765 1808.765)"><g transform="translate(-4 -6)"><text class="c" transform="translate(68.235 195.235)"><tspan x="-61.698" y="0">DYSLEXIA</tspan></text><path class="d" d="M-4166.5,1716.517s.605-36.393,43.3-36.393h145.858s34.543-2.353,34.543-25.217" transform="translate(4234.339 -1560.545)"/></g><g transform="translate(-9 -6)"><text class="c" transform="translate(221.235 195.235)"><tspan x="-49.257" y="0">AUTISM</tspan></text><path class="d" d="M-3229.447,1892.406s-6.253-36.021,42.854-36.021" transform="translate(3451.095 -1736.434)"/></g><g transform="translate(0 -6)"><text class="c" transform="translate(513.235 195.235)"><tspan x="-64.133" y="0">&amp; OTHERS</tspan></text><path class="d" d="M-3980.729,1713.391s-.605-36.394-43.3-36.394h-145.858s-36.507-2.808-36.507-25.672" transform="translate(4493.876 -1557.418)"/></g><g transform="translate(-10 -6)"><text class="c" transform="translate(377.235 195.235)"><tspan x="-37.598" y="0">ADHD</tspan></text><path class="d" d="M-3186.85,1892.406s6.253-36.021-42.855-36.021" transform="translate(3563.945 -1736.434)"/></g></g></g><g class="e" transform="translate(73.765 1807.765)"><text class="f" transform="translate(286.235 68.235)"><tspan x="-288.724" y="0">NEUROD</tspan><tspan class="g" y="0">IV</tspan><tspan y="0">ERSE</tspan></text></g><g transform="translate(-202.141 1147.815)"><g transform="translate(404.287 242.092)"><path class="h" d="M1446.014,1720.743a16.116,16.116,0,0,0-.756-2.8,19.95,19.95,0,0,1-.911-3.42c-.156-1.021-.359-2.005-.611-3.186-.2-.937-.43-2.015-.6-3.083a18.251,18.251,0,0,1-.1-3.651,13.621,13.621,0,0,0-.05-2.811c-.189-1.079-.417-2.138-.672-3.308l-.076-.362c-.181-.847-.366-1.718-.53-2.594a18.991,18.991,0,0,0-.854-2.811,22.445,22.445,0,0,1-1.012-3.331c-.22-1.112-.351-2.24-.469-3.234-.111-.964-.227-1.962-.417-2.908v-.094l-.07-.125-.017-.03c-.033-.223-.062-.45-.094-.689v-.025l-.026-.124c-.119-.692-.2-1.384-.286-2.052l-.053-.439c-.127-1.028-.245-2-.453-2.932-.22-1-.408-1.993-.591-2.956l-.092-.478c-.187-.979-.365-1.9-.586-2.832a26.325,26.325,0,0,0-.937-2.917,31.353,31.353,0,0,1-1.02-3.188c-.245-.979-.453-1.963-.651-2.914l-.025-.12c-.233-1.107-.453-2.154-.726-3.191-.247-.959-.572-1.906-.915-2.908l-.108-.312c-.312-.926-.645-1.884-.915-2.869l-.125-.469c-.147-.539-.292-1.074-.434-1.618-.367-1.362-.734-2.722-1.123-4.076-.328-1.153-.687-2.322-1.036-3.455l-.1-.312c-.242-.781-.478-1.562-.715-2.343-.294-.987-.675-1.954-1.078-2.978-.362-.915-.773-1.954-1.109-3.025-.312-1.017-.564-2.031-.8-3.014l-.078-.322c-.241-.99-.469-1.926-.767-2.833a26.127,26.127,0,0,1-.79-3.342,21.685,21.685,0,0,0-.678-2.9,13.852,13.852,0,0,0-1.31-2.5l-.031-.053a17.984,17.984,0,0,1-1.625-3.173,29.634,29.634,0,0,1-.888-3.272l-.013-.058a23.19,23.19,0,0,0-.773-2.852,26.613,26.613,0,0,0-1.212-2.635l-.069-.139a32.019,32.019,0,0,1-1.406-3.027c-.394-1.025-.679-2.055-.954-3.053l-.052-.184a27.355,27.355,0,0,0-.9-2.866c-.6-1.512-1.209-3.008-1.824-4.5l-.081-.136a9.041,9.041,0,0,0-6.035-3.333,14.357,14.357,0,0,0-5.174.673c-.781.2-1.6.412-2.4.545l-.067.016c-.715.217-1.376.364-1.926.478l-.247.05a20.147,20.147,0,0,0-3.328.86,19.058,19.058,0,0,0-2.691,1.493l-.545.337a17.405,17.405,0,0,1-2.013,1.093,12.156,12.156,0,0,1-2.311.781c-.731.172-1.413.284-1.927.364l-.083.019a9.268,9.268,0,0,0-3.914,2.019c-2.085,2.085-2.118,5.229-1.874,8.029l.017.1c.061.222.131.469.208.742l.2.7a4.572,4.572,0,0,1-.326,3.528,3.758,3.758,0,0,1-2.343,1.766l-3.672.954c-.606.156-1.321.341-2.452.642l-.743.194-.1.036a8.928,8.928,0,0,0-2.417,1.6,8.828,8.828,0,0,0-1.855,2.889l-.03.088a10.483,10.483,0,0,1-1.576,3.592,11,11,0,0,1-1.73,1.94c-.283.25-.6.511-.937.781-.292.226-.614.459-.954.692a16.671,16.671,0,0,1-1.562.925l-.086.045-.064.073a7.872,7.872,0,0,0-1.932,6.138,1.01,1.01,0,0,1-.031.384l-.036.13.045.217c.009.049.017.1.025.13a9.565,9.565,0,0,0,.394,1.287l.156.434a12.222,12.222,0,0,1,.529,2.36,16.164,16.164,0,0,1,.136,2.35,12.833,12.833,0,0,1-.3,2.343,7.569,7.569,0,0,0-.184,1.587,13.279,13.279,0,0,0,.123,1.718,10.067,10.067,0,0,0,.347,1.662,18.244,18.244,0,0,1,.534,2.187c.106.646.183,1.368.237,2.213.053.683.084,1.406.1,2.129v.543c0,.5.011.962.031,1.406.023.675.079,1.377.126,1.915.064.74.133,1.306.22,1.83.042.261.1.545.156.85.069.354.144.739.209,1.146.1.637.176,1.3.248,2.163.053.686.106,1.374.139,2.08.014.392.025.761.036,1.115.031,1.01.058,1.882.137,2.855.055.653.109,1.289.18,1.91.061.528.142,1.035.236,1.626l.049.312c.175,1.109.266,2.213.354,3.28.025.291.049.575.073.853l.383,4.015.086,1.01c.027.384.047.773.053,1.178a12.3,12.3,0,0,1-.233,2.4,8.728,8.728,0,0,0-.22,1.659,14.6,14.6,0,0,0,.088,1.782l.5,5.977a9.967,9.967,0,0,0,.273,1.662c.047.177.1.365.169.581l.09.3c.106.353.217.732.3,1.118a16.317,16.317,0,0,1,.339,2.291,18.235,18.235,0,0,1,.053,2.291c-.019.5-.072.965-.119,1.376-.03.264-.056.5-.069.692a12.453,12.453,0,0,0,0,1.718l.145,2.01c.036.586.061,1.179.084,1.732l.013.312c.027.653.07,1.295.119,1.952.05.7.1,1.276.183,1.835a13.718,13.718,0,0,0,.4,1.729,15.893,15.893,0,0,1,.459,2.257c.052.372.083.733.116,1.1l.075,1.061c.011.156.016.312.022.468l.009.242.017.114a4.689,4.689,0,0,0,1.063,2.077,4.8,4.8,0,0,0,3.22,1.262h9.357a4.507,4.507,0,0,0,2.743-1.159,3.814,3.814,0,0,0,.828-1.476l.1-1.306c.033-.646.059-1.315.076-1.958a10.118,10.118,0,0,0-.069-1.657c-.034-.251-.086-.5-.156-.806l-.044-.191c-.058-.248-.125-.543-.186-.864a12.53,12.53,0,0,1-.226-2.4c0-.781.03-1.448.1-2.24a20.494,20.494,0,0,1,.331-2.187,15.386,15.386,0,0,0,.251-1.766c.022-.292.039-.6.05-.9l.038-1.014c.036-.773.081-1.482.133-2.107l.033-.358c.052-.568.1-1.076.129-1.6.038-.635.059-1.265.081-1.948.036-1.275.111-2.655.178-3.873l.011-.189c.041-.759.066-1.526.091-2.31.017-.556.036-1.121.059-1.694l.108-2.046c.037-.662.07-1.309.092-1.966a33.952,33.952,0,0,0,0-3.809c-.044-.656-.09-1.42-.1-2.119,0-.362,0-.717.011-1.078l.022-1c.012-.726,0-1.29-.039-1.82-.014-.209-.034-.442-.058-.69-.038-.412-.078-.873-.1-1.362-.036-.646-.041-1.342-.016-2.187.022-.736.056-1.427.1-2.112.039-.52.091-1.035.139-1.512l.055-.542c.053-.55.092-1.116.131-1.9v-.148c.047-1.223.1-2.61.178-3.9l.1-1.977c.027-.662.054-1.346.066-1.941a17.828,17.828,0,0,0-.056-1.813l-.041-.455c-.047-.506-.1-1.079-.12-1.645-.019-.679-.014-1.377.016-2.187a16.676,16.676,0,0,1,.245-2.305c.089-.494.2-.937.313-1.334.067-.262.126-.494.166-.683a10.871,10.871,0,0,0,.211-1.676l.092-3.9c.011-1.406.066-2.8.123-4.1l.3-6.04c.044-.826.1-1.5.156-2.11l.22-1.988c.058-.55.094-1.1.133-1.674l.016-.242a16.269,16.269,0,0,0,.028-1.8,14.335,14.335,0,0,0-.156-1.507l-.05-.372a15.748,15.748,0,0,1-.12-2.26c.014-.675.048-1.315.116-2.14.054-.657.147-1.406.259-2.11l.038-.236c.1-.587.176-1.093.229-1.657.069-.653.122-1.326.148-1.9a12.924,12.924,0,0,0-.034-1.815l-.108-.964q-.075-.625-.094-1.093a18.672,18.672,0,0,1,.037-2.173,1.349,1.349,0,0,1,2.7.089,15.586,15.586,0,0,0,.119,1.741l.014.111.058.1a.975.975,0,0,1,.125.312c.52,2.272,1.156,4.563,1.943,7l.03.072c.214.439.415.9.651,1.451.136.322.278.643.425.971l.053.119.1.081a1.3,1.3,0,0,0,.156.109c.187.458.4.978.642,1.506v.108l.128.122.6.937c.847,1.326,1.806,2.828,2.777,4.493.625,1.064,1.184,2.138,1.859,3.436.379.725.768,1.466,1.179,2.222.364.675.829,1.363,1.323,2.093l.1.145a29.847,29.847,0,0,1,1.979,3.228l.645,1.267c.728,1.429,1.481,2.908,2.227,4.478.469.981.885,2.018,1.293,3.019l.259.64c.3.742.611,1.507.937,2.249.479,1.073.89,2.187,1.285,3.258.312.879.665,1.816,1.04,2.713.342.8.764,1.623,1.2,2.461l.048.1c.523,1.02,1.065,2.074,1.526,3.22a25.081,25.081,0,0,1,1,3.373l.016.064a22.733,22.733,0,0,0,.781,2.732c.265.7.556,1.405.862,2.136l.25.6c.433,1.025.88,2.085,1.272,3.194.29.812.625,1.613,1.016,2.572l.042.1c.429,1.052.875,2.141,1.265,3.28.238.715.487,1.431.74,2.149.4,1.157.878,2.527,1.323,3.914.275.846.6,1.695.964,2.635.392,1.023.839,2.186,1.206,3.387.358,1.174.692,2.421.987,3.52l.075.273c.214.781.428,1.576.656,2.365.348,1.218.673,2.477.937,3.547.222.878.45,1.756.693,2.635s.5,1.73.8,2.683c.38,1.207.717,2.3,1.017,3.452.278,1.073.533,2.172.781,3.238l.084.365c.2.872.4,1.741.617,2.616.283,1.159.486,2.351.656,3.383l.053.312c.156.9.3,1.746.5,2.593.259,1.112.447,2.237.625,3.385.07.445.14.885.217,1.313l.094.53,16.016-2.811-.011-.469c-.016-.686,0-1.364.017-1.993A15.033,15.033,0,0,0,1446.014,1720.743Z" transform="translate(-1223.668 -1398.207)"/><path class="h" d="M1422.313,2490.46h-10.134a.539.539,0,0,0-.17.028c-.372.125-.836.28-1.276.459a1.523,1.523,0,0,0-1.031,1.218.533.533,0,0,0,0,.215c.03.122.053.244.08.37.065.378.119.753.156,1.15l.037.33a.532.532,0,0,0,.036.144c.6,1.468,1.814,1.531,3,1.59a3.952,3.952,0,0,1,.5.039h.117c.1-.009.212-.02.35-.026,1.36-.132,2.871-.142,4.179-.142.8,0,1.579-.02,2.385-.041.526-.012,1.062-.027,1.623-.036l.761-.011a.54.54,0,0,0,.119-.014,2.662,2.662,0,0,0,1.142-.546,2.515,2.515,0,0,0,.654-.92.534.534,0,0,0,.045-.193c.01-.23.03-.469.05-.7v-.084a3.179,3.179,0,0,0-.539-1.98A2.731,2.731,0,0,0,1422.313,2490.46Z" transform="translate(-1270.263 -2158.434)"/><path class="h" d="M1861.734,2486.023c-.08-.272-.156-.547-.234-.823a.542.542,0,0,0-.614-.392l-14.437,2.533a.539.539,0,0,0-.4.75,16.726,16.726,0,0,1,1.187,3.364,1.95,1.95,0,0,0,.227.637.538.538,0,0,0,.469.267,1.165,1.165,0,0,0,.184-.019,22.682,22.682,0,0,1,3.531-.375,18.109,18.109,0,0,0,2.948-.312,20.389,20.389,0,0,0,2.905-.7,24.469,24.469,0,0,1,3.436-.82,2.056,2.056,0,0,0,1.445-1.035.539.539,0,0,0,.031-.253A18.82,18.82,0,0,0,1861.734,2486.023Z" transform="translate(-1638.433 -2153.657)"/></g><g transform="translate(383.434 219.433)"><path class="i" d="M1229.165,756.8h-.011c-1.132-.016-2.254-.049-3.353-.123s-2.186-.194-3.353-.334-2.41-.237-3.612-.3-2.394-.075-3.592-.07-2.41.033-3.628.112-2.415.226-3.516.323a61.075,61.075,0,0,1-6.7.156l-10.825-.211c-.055-.011-.1-.026-.156-.033-1.482-.167-2.975-.378-3.791-1.763a18.081,18.081,0,0,0-1.874-3.067c-.141-.27-.3-.587-.5-.97a10.383,10.383,0,0,0-6.075-4.971c-.625-.237-1.342-.512-2.129-.82-1.126-.442-2.4-.937-3.8-1.445a15.3,15.3,0,0,1-2.227-1.137,22.122,22.122,0,0,0-3.5-1.718,20.549,20.549,0,0,0-3.592-.82,17.381,17.381,0,0,1-2.555-.545c-2.254-1.273-4.415-2.911-5.095-5.369l-.733-4.3a10.405,10.405,0,0,1,1.174-4.061,5.559,5.559,0,0,0,1.795-4.7,22.16,22.16,0,0,0-.831-3.644,18.157,18.157,0,0,1-.642-2.663,19.229,19.229,0,0,1-.055-2.771,22.3,22.3,0,0,0-.112-3.709,20.056,20.056,0,0,0-.959-3.661,15.711,15.711,0,0,1-.717-2.61c-.178-1.2-.426-2.355-.664-3.477-.211-.987-.409-1.919-.561-2.847a13.83,13.83,0,0,1-.037-2.655,17.694,17.694,0,0,0-.119-3.85c-.2-1.2-.469-2.372-.706-3.509-.211-.97-.409-1.887-.576-2.811a22.892,22.892,0,0,0-1.067-3.58,18.782,18.782,0,0,1-.814-2.621c-.178-.911-.29-1.86-.409-2.867-.13-1.137-.27-2.318-.517-3.516-.194-.9-.312-1.849-.426-2.852a35.31,35.31,0,0,0-.55-3.525c-.2-.921-.378-1.838-.561-2.811-.216-1.148-.442-2.335-.717-3.516a30.989,30.989,0,0,0-1.093-3.461,27.886,27.886,0,0,1-.879-2.7c-.226-.921-.42-1.838-.625-2.811-.237-1.137-.486-2.307-.781-3.477s-.695-2.313-1.073-3.4c-.323-.95-.636-1.849-.879-2.744-.189-.69-.372-1.374-.556-2.06-.378-1.392-.75-2.777-1.143-4.156-.372-1.3-.771-2.6-1.159-3.855-.237-.771-.468-1.541-.706-2.313-.356-1.174-.781-2.286-1.214-3.353-.367-.937-.712-1.823-.992-2.707s-.5-1.823-.739-2.8c-.27-1.117-.55-2.269-.928-3.423a22.425,22.425,0,0,1-.625-2.733,24.8,24.8,0,0,0-.857-3.569,17.746,17.746,0,0,0-1.752-3.456,13.325,13.325,0,0,1-1.229-2.329,24.1,24.1,0,0,1-.732-2.728,27.768,27.768,0,0,0-.965-3.5,30.314,30.314,0,0,0-1.509-3.289,28.392,28.392,0,0,1-1.2-2.577c-.323-.842-.572-1.757-.835-2.722-.092-.33-.183-.658-.28-.992a2.033,2.033,0,0,0,0-.253c-.07-1.093-.642-2.065-.119-3.149.664-1.374,2.03-2.343,3.019-3.558a39.459,39.459,0,0,1,5.272-3.316,2.691,2.691,0,0,0,1.337-1.735c.022-.037.048-.07.07-.112a4.906,4.906,0,0,0,.3-.653,3.621,3.621,0,0,0,.189-.9,3.32,3.32,0,0,0-.086-1.148l-.022-.086-.011-.044-.022-.081-.049-.156c-.064-.216-.134-.415-.2-.614-.141-.4-.3-.771-.453-1.126-.312-.7-.636-1.337-.917-1.919s-.517-1.11-.7-1.6a7.451,7.451,0,0,1-.345-1.445c-.156-1.078-.156-2.432-.35-4.006a12.455,12.455,0,0,0-.556-2.513,17.346,17.346,0,0,0-.937-2.21c-.448-.895-.84-1.671-1.106-2.343a2.694,2.694,0,0,0-.361-1.326,29.211,29.211,0,0,1-.172-3.008,17.692,17.692,0,0,0-.211-2.372c-.026-.211-.081-.437-.123-.653l-.119-.506-.237-.987-.954-3.929-.49-2.049c-.172-.7-.356-1.374-.534-2.03s-.35-1.293-.506-1.913l-.222-.917-.2-.965-.9-3.989c-.291-1.3-.523-2.522-.717-3.822l-.583-4.043-.668-4.006-.3-1.779a2.025,2.025,0,0,0,.011-.367c-.1-1.44-.253-2.975,1.467-3.353a6.6,6.6,0,0,1,1.794-.1c1.262.3,2,.409,2.718.517a28.012,28.012,0,0,1,2.811.561c1.466.367,2.179.561,2.927.772s1.531.426,3.078.809c1.451.361,2.151.565,2.889.781s1.548.447,3.1.836a21.594,21.594,0,0,0,3.436.593,16.31,16.31,0,0,1,2.7.469,18.8,18.8,0,0,1,2.641.831,23.594,23.594,0,0,0,3.289,1.04,14.507,14.507,0,0,0,3.436.4,19.134,19.134,0,0,0,4.393-.539,14.738,14.738,0,0,0,6.146-3.661l.383-.334a15.234,15.234,0,0,0,4.518-5.968,2.765,2.765,0,0,0,.1-.3c.884-3.124.9-3.175,1.667-6.339.4-1.666.545-2.529.684-3.364.123-.771.248-1.5.6-2.975a21.48,21.48,0,0,1,.851-2.811,27.307,27.307,0,0,0,1.025-3.391c.394-1.627.561-2.463.717-3.28s.3-1.531.668-3.045a19.164,19.164,0,0,1,.857-2.781,26.733,26.733,0,0,0,1.046-3.413c.372-1.542.576-2.307.781-3.078s.42-1.59.809-3.186l.123-.517a61.013,61.013,0,0,0,1.229-6c.141-.851.253-1.46.345-1.968a41.113,41.113,0,0,0,.6-4.426c.145-1.493.248-2.21.361-2.975.119-.8.238-1.618.394-3.245a11.753,11.753,0,0,0-.242-3.978,6.247,6.247,0,0,1-.145-2.343,28.611,28.611,0,0,1,.394-2.885c.145-.814.3-1.655.453-3.32a21.151,21.151,0,0,1,.431-2.782,24.174,24.174,0,0,0,.523-3.378c.178-1.874.231-2.647.3-3.623.044-.653.1-1.4.2-2.655a.41.41,0,0,1,0-.081,6.541,6.541,0,0,0-4.615-6.339,5.374,5.374,0,0,0-6.335,1.893,17.326,17.326,0,0,0-1.994,5.251c-.1.361-.2.728-.312,1.11a29.572,29.572,0,0,0-.609,2.9c-.167.917-.339,1.865-.583,2.83a20.739,20.739,0,0,1-.814,2.3c-.092.222-.178.453-.27.69a9.939,9.939,0,0,1-.8,1.31,9.181,9.181,0,0,1-1.746,1.735c-.167.086-.339.167-.5.259a11.836,11.836,0,0,0-3.315,2.819,12.015,12.015,0,0,0-2.065,3.854,13.473,13.473,0,0,0,.156,8.485,13.118,13.118,0,0,0,1.7,3.309,1.468,1.468,0,0,0,.242.469c.937,1.249,1.816,2.414,1.834,4.061a24.487,24.487,0,0,1-.653,4.415c-.055.178-.108.345-.172.517-.13.372-.28.75-.448,1.143l-.539,1.273-1.093,2.582c-.706,1.718-1.44,3.456-2.129,5.207s-1.4,3.436-2.076,5.229l-1.99,5.229-.345.95a4.509,4.509,0,0,1-.9,1.143,3.39,3.39,0,0,1-3.338.512c-.172-.1-.356-.2-.556-.33-.5-.312-1.014-.647-1.562-1.007-1.159-.75-2.469-1.607-3.973-2.447a35.3,35.3,0,0,0-3.267-1.537c-.873-.372-1.779-.761-2.647-1.2-.69-.35-1.406-.781-2.162-1.24a35.917,35.917,0,0,0-3.525-1.935l-.4-.189c-1.774-.809-3.6-1.649-5.552-2.454-1.249-.512-2.544-.954-3.8-1.374-.771-.259-1.562-.523-2.343-.814-1.3-.469-2.641-.868-3.94-1.249-.75-.226-1.515-.447-2.276-.69a18.835,18.835,0,0,1-2.355-1.025,21.759,21.759,0,0,0-3.7-1.5,20.437,20.437,0,0,0-3.854-.55,19.318,19.318,0,0,1-2.655-.312c-1.374-.312-2.76-.523-4.1-.723-.771-.119-1.548-.231-2.324-.372-1.488-.264-2.307-2.135-2.463-3.87a12,12,0,0,0-.587-2.685,11.262,11.262,0,0,1,1.968-6.027l.356-.415c.253-.312.49-.615.706-.917a36.808,36.808,0,0,0,2.161-3.547c.313-.594.587-1.007.992-1.823a17.358,17.358,0,0,0,.84-2.1c.334-.992.6-1.9.873-2.739a12.443,12.443,0,0,1,3.493-4.081c5.288-2.269,7.223-5.666,7.892-8.248.911-3.531-.048-7.375-2.63-10.761a9.5,9.5,0,0,1-.857-4.668,27.338,27.338,0,0,0,.873-2.711,16.431,16.431,0,0,0,.427-2.269c.044-.394.07-.82.075-1.192s.011-.723,0-1.093a21.1,21.1,0,0,0-.534-4.356,18.969,18.969,0,0,0-.642-2.179,13.616,13.616,0,0,0-1.046-2.161,25.888,25.888,0,0,0-2.555-3.456l-.582-.69-.55-.7c-.383-.5-.792-1.046-1.277-1.612a14.468,14.468,0,0,0-1.671-1.687,11.155,11.155,0,0,0-1.046-.771c-.183-.112-.389-.237-.565-.339s-.339-.189-.512-.27a23.974,23.974,0,0,0-4.048-1.548c-.664-.194-1.321-.372-1.968-.528-.312-.075-.684-.172-1.057-.242s-.744-.134-1.117-.189a24.362,24.362,0,0,0-4.308-.167,34.656,34.656,0,0,0-4.151.389c-.706.112-1.406.253-2.119.437-.356.092-.712.189-1.062.3s-.781.264-1.137.409a37.309,37.309,0,0,0-3.672,1.924c-.259.141-.512.28-.754.4l-.356.172-.431.189-1.746.765-3.5,1.526c-1.24.545-2.366,1.084-3.45,1.515-.539.216-1.062.409-1.579.561-.545.156-1.181.334-1.746.469a23.712,23.712,0,0,1-3.4.642,18.4,18.4,0,0,1-3.364.016c-1.159-.086-2.41-.248-3.592-.431a34.567,34.567,0,0,1-3.476-.743l-.847-.242-.211-.064c-.086-.027-.086-.033-.3-.092a5.011,5.011,0,0,0-1.035-.183,4.608,4.608,0,0,0-4.061,1.854,4.218,4.218,0,0,0-.8,2.474,4.742,4.742,0,0,0,.156,1.17l.156.545c.216.717.469,1.406.728,2.065.539,1.31,1.133,2.5,1.618,3.592.517,1.165,1.051,2.388,1.718,3.65a20.5,20.5,0,0,0,1.143,1.908,13.548,13.548,0,0,0,1.493,1.838,22.746,22.746,0,0,0,2.571,2.254,3.649,3.649,0,0,1,.593,1.31,3.545,3.545,0,0,1-.512,2.41,12.474,12.474,0,0,0-2.48,10.561c.673,2.63,2.669,6.1,8.177,8.366a6.821,6.821,0,0,1,1.562,1.456,17.757,17.757,0,0,1,1.37,2.318c.2.717.393,1.482.625,2.335a18.12,18.12,0,0,0,.732,2.146,11.148,11.148,0,0,0,.561,1.137c.2.35.415.7.642,1.014a25.589,25.589,0,0,0,2.8,3.234l.35.372a16.584,16.584,0,0,1,2.377,8.8l-.016.264-.016.679c-.011.178-.022.356-.037.539a1.655,1.655,0,0,0,.011.4c0,.264,0,.528-.011.781l-.016,1.11c-.011.345-.027.679-.055.873a1.792,1.792,0,0,1-.345.739.511.511,0,0,1-.07.075.017.017,0,0,1-.011,0h0c-.172.092-.469.216-.781.345-.647.253-1.406.523-2.187.836a24.872,24.872,0,0,0-2.366,1.084c-.394.2-.792.437-1.17.668l-1,.625c-1.332.831-2.674,1.693-4,2.61l-1.93,1.374-1.919,1.391c-.653.479-1.3.981-1.952,1.52-.329.27-.653.556-.97.846s-.615.565-.911.857a30.745,30.745,0,0,0-3.364,3.822c-.259.356-.512.717-.754,1.093-.108.167-.286.458-.394.668s-.231.442-.334.658c-.394.857-.679,1.634-.954,2.377-.534,1.509-1.04,2.792-1.585,4.345l-1.585,4.464c-.431,1.278-1.078,2.685-1.666,4.259-.145.394-.286.8-.42,1.218l-.1.312-.1.361c-.07.242-.123.479-.172.712-.189.937-.28,1.79-.367,2.561s-.156,1.46-.28,2.054c-.1.469-.356,1.337-.556,2.065l-1.249,4.507c-.178.653-.389,1.315-.625,2.005a2.655,2.655,0,0,0-.6,1.785c-.059.167-.112.33-.172.5-.248.781-.5,1.649-.684,2.518s-.312,1.7-.409,2.518-.178,1.612-.253,2.377l-.059.625-.044.664c-.022.437-.027.868-.027,1.293,0,.846.033,1.671.07,2.458l.059,1.159c.011.286.011.572,0,.906l-.156,2.313a11.546,11.546,0,0,0,.189,3.019c.1.442.2.857.312,1.278s.259.862.4,1.284.312.82.431,1.148.231.625.33.937c.2.625.356,1.288.528,2.049.172.732.313,1.445.469,2.186s.313,1.562.479,2.343l.27,1.17c.108.431.222.862.361,1.31a13.687,13.687,0,0,0,.658,1.7,6.35,6.35,0,0,1-.242,4.253c-.879,1.73-2.949,2.343-4.653,2.911a1.659,1.659,0,0,0-.625.356c-1.352.517-2.161.836-2.967,1.154-.965.378-1.93.754-3.859,1.493a24.268,24.268,0,0,0-4.167,2.005,18.558,18.558,0,0,1-3.358,1.618,4.784,4.784,0,0,0-3.1,5.811,25.476,25.476,0,0,1,.809,3.191,30.944,30.944,0,0,0,.95,3.748c.534,1.718.8,2.577,1.078,3.436s.545,1.687,1.067,3.375c.561,1.805.917,2.707,1.262,3.569.312.809.625,1.562,1.121,3.171a33.717,33.717,0,0,0,1.315,3.612,28.264,28.264,0,0,1,1.137,3.111,15.937,15.937,0,0,1,.668,3.063,20.642,20.642,0,0,0,.862,3.947,5.392,5.392,0,0,0,5.154,3.472,4.822,4.822,0,0,0,1.2-.145c1.968-.517,2.948-.781,3.929-1.051s1.93-.523,3.865-1.029l1.718-.448a7.2,7.2,0,0,1,5.4.825c.156.108.3.216.442.329.237.339.5.679.781,1.025a10.161,10.161,0,0,0,2.135,1.919,9.182,9.182,0,0,0,2.711,1.181c.183.048.372.092.556.13a6.117,6.117,0,0,1,2.641,3.386,1.717,1.717,0,0,0,.011.237,16.543,16.543,0,0,0,.323,2.388,18.375,18.375,0,0,0,.673,2.187,7.09,7.09,0,0,1,.323,1.451,11.126,11.126,0,0,1,.1,1.6,7.426,7.426,0,0,1-.211,1.537,11.588,11.588,0,0,0-.2,1.207,11.846,11.846,0,0,0-.075,1.3,19.34,19.34,0,0,0,.156,2.366,15.53,15.53,0,0,0,.49,2.361,13.709,13.709,0,0,1,.42,1.666c.086.528.134,1.078.183,1.741.044.636.075,1.249.086,1.865s0,1.348.038,2.076.075,1.429.141,2.14.145,1.456.27,2.205.27,1.4.356,1.957.156,1.174.2,1.805.1,1.284.13,1.908c.044,1.2.064,2.733.183,4.107.055.69.112,1.4.2,2.119s.211,1.466.3,2.076c.193,1.218.27,2.436.393,3.844l.383,4,.081.987c.022.28.033.55.037.809a7.077,7.077,0,0,1-.156,1.488,13.891,13.891,0,0,0-.3,2.421,19.435,19.435,0,0,0,.1,2.3L1059.5,683l.172,2.049a15.273,15.273,0,0,0,.415,2.394c.1.4.216.771.312,1.067s.156.55.216.792a11.23,11.23,0,0,1,.231,1.612,12.685,12.685,0,0,1,.044,1.671c-.016.506-.113,1.084-.178,1.924a16.8,16.8,0,0,0,0,2.388l.145,2c.037.642.059,1.273.092,1.968s.075,1.406.123,2.091c.055.664.112,1.434.231,2.216a18.568,18.568,0,0,0,.512,2.258,10.73,10.73,0,0,1,.334,1.612c.037.279.064.572.092.868l.064.95c.037.625.055,1.207.055,1.86s0,1.429.048,2.146.081,1.4.167,2.179a15.911,15.911,0,0,0,.447,2.366,14.775,14.775,0,0,1,.673,3.633A7.37,7.37,0,0,0,1064.75,726a5.476,5.476,0,0,0,1.2,1.359,12.03,12.03,0,0,1,1.834,3.575l-.016,6.959a14.386,14.386,0,0,1-1.59,4.485c-.259.291-.517.587-.781.906a14.686,14.686,0,0,0-1.677,2.507,25.778,25.778,0,0,0-1.117,2.529q-.259.7-.486,1.423a.018.018,0,0,1-.011.016c-.625,1.8-1.348,4.081-3.331,4.776a14.04,14.04,0,0,1-3.041.528,2.75,2.75,0,0,0-.3.011c-1.2.048-2.4.141-3.531.222s-2.232.13-3.364.156l-3.483.055c-1.214.033-2.463.112-3.7.27s-2.41.378-3.461.517a31.58,31.58,0,0,1-3.223.264c-1.093.033-2.216.055-3.28,0a23.312,23.312,0,0,1-3.124-.35l-1.671-.334c-.6-.112-1.224-.231-1.86-.312a28.8,28.8,0,0,0-3.748-.253c-1.224-.016-2.436.022-3.687.123a27.959,27.959,0,0,0-3.7.561,27.073,27.073,0,0,1-6.464.772h-.027a2.154,2.154,0,1,0,.027,4.307,35.788,35.788,0,0,0,3.7-.134,34.9,34.9,0,0,0,3.639-.561,24.446,24.446,0,0,1,3.175-.42c1.057-.07,2.168-.086,3.256-.048a24.183,24.183,0,0,1,3.175.264c.512.075,1.029.183,1.562.3l1.735.372a26.133,26.133,0,0,0,3.762.49c1.25.086,2.463.081,3.676.064a34.858,34.858,0,0,0,3.709-.259c1.235-.151,2.366-.361,3.417-.479s2.129-.178,3.23-.194l3.472-.016c1.192-.016,2.4-.059,3.592-.13s2.291-.145,3.413-.178,2.243-.048,3.38-.044,2.186.033,3.234.134a27.577,27.577,0,0,1,3.149.523,31.029,31.029,0,0,0,3.72.594c1.262.119,2.518.134,3.709.141s2.343-.011,3.536-.037,2.377-.081,3.516-.123,2.265-.07,3.4-.081h6.954l6.955.011c2.3,0,4.723,0,7.1-.141,1.192-.07,2.3-.145,3.424-.189s2.243-.059,3.375-.059c2.3,0,4.685,0,7-.064s4.578-.081,6.9-.081,4.706-.044,7.008-.1,4.587-.07,6.884-.07,4.5.086,6.872.172c1.181.037,2.366.059,3.542.064s2.355.011,3.564-.027c.84-.027,1.7-.075,2.551-.141a23.493,23.493,0,0,0,2.474.112,29.684,29.684,0,0,0,3.417-.172,24.2,24.2,0,0,1,2.874-.145,25.541,25.541,0,0,0,3.477-.211c.156-.022.313-.044.48-.059.609.026,1.224.055,1.854.092,1.148.064,2.361.13,3.553.156s2.388.033,3.547.033c1.115,0,2.21.022,3.28.1s2.119.226,3.3.383,2.463.28,3.687.33,2.458.048,3.592.044l3.445.011c2.28.027,4.646.086,6.981.07a65.483,65.483,0,0,0,7.184-.3c1.207-.13,2.318-.286,3.408-.372s2.187-.141,3.321-.156,2.254-.022,3.364.011,2.187.1,3.32.216,2.366.222,3.575.27,2.41.059,3.592.048a2.157,2.157,0,0,0,.011-4.312Zm-92.653-260.651a10.568,10.568,0,0,1,1.812-2.944,7.057,7.057,0,0,1,4.787-1.5c1.493.145,2.621,1.093,3.978,1.562q.72.469,1.406.906c.587.383,1.143.743,1.671,1.073a23.565,23.565,0,0,0,2.377,1.315,2.9,2.9,0,0,1,1.24,2.48l-.016.1-.016.1a1.523,1.523,0,0,0,.5,1.585,2.126,2.126,0,0,0,.7.55,2.158,2.158,0,0,0,2.889-.981l.026-.055c.189-.389.378-.771.583-1.121s.394-.679.625-1.029.523-.772.8-1.24.539-.948.765-1.406.431-.937.625-1.353l.572-1.31,1.078-2.582c.712-1.649,1.488-3.477,2.168-5.187l2.124-5.169,2.087-5.187,1.025-2.61.517-1.326c.183-.469.35-.976.512-1.493s.291-1.073.394-1.552.183-.862.28-1.24a23.216,23.216,0,0,1,.809-2.425l.937-2.669c.312-.879.6-1.752.9-2.636a2.16,2.16,0,0,0-1.106-2.625,2.125,2.125,0,0,0-1.381-.167,3.809,3.809,0,0,1-2.811-.851,8.178,8.178,0,0,1-1.093-1.946,8.474,8.474,0,0,1-.323-5.326,7.046,7.046,0,0,1,3.089-4.145,9.4,9.4,0,0,1,2.582-1.093,15.451,15.451,0,0,1,3-.4h.081a2.152,2.152,0,0,0,1.957-1.531,2.2,2.2,0,0,0,.092-.625,2.141,2.141,0,0,0-.732-1.6,5.43,5.43,0,0,1-.312-2.518c.123-.361.242-.732.339-1.106.29-1.159.49-2.254.664-3.219.156-.884.312-1.718.5-2.388.108-.394.216-.781.313-1.148a18.1,18.1,0,0,1,1.175-3.509,1.628,1.628,0,0,1,.814.4.949.949,0,0,1,.372.587c-.1,1.249-.156,2.005-.194,2.663-.064.937-.113,1.671-.286,3.477a20.105,20.105,0,0,1-.437,2.781,25.209,25.209,0,0,0-.528,3.412c-.141,1.451-.264,2.146-.4,2.885-.145.814-.291,1.656-.453,3.32a11.491,11.491,0,0,0,.242,3.984,6.459,6.459,0,0,1,.145,2.343c-.141,1.493-.248,2.216-.356,2.975-.119.8-.237,1.618-.394,3.245a36.644,36.644,0,0,1-.539,3.973c-.1.523-.211,1.154-.361,2.03a54.887,54.887,0,0,1-1.148,5.633l-.123.517c-.372,1.541-.576,2.313-.781,3.078-.211.8-.42,1.59-.8,3.186a20.21,20.21,0,0,1-.857,2.788,26.567,26.567,0,0,0-1.046,3.408c-.394,1.627-.561,2.463-.717,3.28s-.3,1.531-.668,3.045a21.233,21.233,0,0,1-.846,2.8,26.408,26.408,0,0,0-1.029,3.391c-.4,1.671-.545,2.533-.684,3.369-.124.771-.248,1.5-.609,3-.728,3.008-.743,3.063-1.562,5.957a10.07,10.07,0,0,1-2.967,3.784l-.4.345a10.4,10.4,0,0,1-3.881,2.507,11.462,11.462,0,0,1-5.288.156,18.628,18.628,0,0,1-2.641-.836,24.574,24.574,0,0,0-3.289-1.035,21.6,21.6,0,0,0-3.436-.593,16.612,16.612,0,0,1-2.291-.372c-2.4-.921-5.165-1.638-6.416-3.947a1.952,1.952,0,0,0-.189-.28,6.43,6.43,0,0,1-.231-.625,17.793,17.793,0,0,1-.814-4.685A11.825,11.825,0,0,1,1136.512,496.152Zm15.02,222.366a17.224,17.224,0,0,1,.653,2.733,1.566,1.566,0,0,1-1.035.695,24.983,24.983,0,0,0-3.494.836,19.84,19.84,0,0,1-2.841.684,17.647,17.647,0,0,1-2.874.3,23.344,23.344,0,0,0-3.606.383.708.708,0,0,1-.092.011,1.385,1.385,0,0,1-.156-.469,17.346,17.346,0,0,0-1.224-3.483l14.437-2.533c.07.28.151.567.231.842Zm-2.307,15.251a11.331,11.331,0,0,1,.814,1.429,1.653,1.653,0,0,0,.011.668,3.762,3.762,0,0,1-1.562,4.217,2.6,2.6,0,0,1-.76.275,3.2,3.2,0,0,1-1.084-.044,2.25,2.25,0,0,1-1.51-1.805,1.047,1.047,0,0,0-.033-.123l-.291-1.709c.156-1.429.653-2.975,2.129-3.369a2.825,2.825,0,0,1,2.285.461Zm-.409-5.7.059-.016v.037c-.019-.011-.039-.011-.064-.022ZM1099.157,434.5a6.057,6.057,0,0,1-2.187,2.187,6.177,6.177,0,0,1-2.992,1.018,6.41,6.41,0,0,1-3.1-.814,8.648,8.648,0,0,1-2.949-4.938,2.065,2.065,0,0,0,.048-.448,2.422,2.422,0,0,0-.044-.448,6.044,6.044,0,0,1,.8-2.582,6.147,6.147,0,0,1,2.205-2.254,6.291,6.291,0,0,1,3.045-.992,6.452,6.452,0,0,1,3.1.89,6.789,6.789,0,0,1,1.973,2.458,5.8,5.8,0,0,1,.906,2.927A5.922,5.922,0,0,1,1099.157,434.5Zm-16.836-14.173a23.29,23.29,0,0,1,8.776-.921c.479.13,1.192.339,1.293.587.222.545-.658,1.093-1.359,1.456a12.646,12.646,0,0,0-2.269,1.046,10.408,10.408,0,0,0-3.779,3.822,10.814,10.814,0,0,0-.717,1.52,2.877,2.877,0,0,1-1.509,1.2c-1.406.378-2.021-1.214-2.529-2.232a1.511,1.511,0,0,0-.378-.5.027.027,0,0,0-.011-.022,7.656,7.656,0,0,0-2.053-2.254c-.92-1.309,2.347-2.828,4.537-3.708Zm25.159,9.413c.033-.156.064-.33.092-.49.312-.576.813-1.137,1.4-.836.3.156.394.6.528.9a5.745,5.745,0,0,1,.07,2.938,5.154,5.154,0,0,1-1.04,2.012,2.13,2.13,0,0,1-.825.415c-1.046.226-.84-.8-.706-1.509a1.8,1.8,0,0,0,0-.615c0-.07.022-.134.027-.2.033-.259.064-.517.112-.8.094-.556.217-1.165.347-1.812Zm-50.393,5.708a5.956,5.956,0,0,1-2.269-3.2,6.358,6.358,0,0,1,.517-4.178,1.418,1.418,0,0,1,.922-.587,1.044,1.044,0,0,1,.721.287c.086.469.178.917.264,1.337.13.625.253,1.214.334,1.741.016.13.037.264.048.389l.049.437.108,1.014c.064.523.145,1.046.222,1.562C1057.886,434.917,1057.622,435.472,1057.088,435.45Zm8.313-7.062a6.589,6.589,0,0,1,2.276-2.313,4.968,4.968,0,0,1,2.236-.323h.906a5.524,5.524,0,0,1,2.879.754,6.464,6.464,0,0,1,2.421,1.935,6.192,6.192,0,0,1,.6,3.063,5.716,5.716,0,0,1-.82,2.927,6.5,6.5,0,0,1-1.99,2.432,6.387,6.387,0,0,1-3.089.82,6.272,6.272,0,0,1-3.078-.846,6.473,6.473,0,0,1-2.329-2.216,10.247,10.247,0,0,1-.011-6.23Zm2.313,20.906a5.689,5.689,0,0,1-.383-.609,4.868,4.868,0,0,1-.29-.583,13.054,13.054,0,0,1-.506-1.5c-.312-1.121-.625-2.491-1.106-3.844-.026-.075-.044-.156-.07-.237.011-.594.189-1.093.928-1.159.3-.027.6-.037.9-.044a10.349,10.349,0,0,0,3.628.679,10.6,10.6,0,0,0,5.251-1.406,10.27,10.27,0,0,0,3.564-4c.1-.183.2-.372.3-.556.937-1.359,2.421-3.124,3.892-1.562a8.48,8.48,0,0,1,.55.653,13.671,13.671,0,0,0,.744,1.488,10.427,10.427,0,0,0,3.592,4,10.681,10.681,0,0,0,5.266,1.4,8.574,8.574,0,0,0,2.933-.545c.781-.189,1.59-.312,1.768-.016.226.367.044,1.11.016,1.488a.718.718,0,0,1-.011.156.847.847,0,0,0-.037.108c-.486,1.321-.84,2.621-1.214,3.714a12.12,12.12,0,0,1-.583,1.471c-.156.334-.565,1.018-.857,1.552a33.5,33.5,0,0,1-1.827,3.03,26.582,26.582,0,0,1-2.269,2.566,19.911,19.911,0,0,1-2.522,2.221,8.816,8.816,0,0,1-2.689,1.185c-.556.156-1.165.312-1.9.534-.189.059-.383.119-.594.2l-.42.156c-.248.086-.5.172-.739.237a5.076,5.076,0,0,1-2.469.172c-.081-.022-.167-.044-.248-.07s-.134-.044-.312-.112l-.873-.334c-.565-.222-1.093-.442-1.607-.684a15.836,15.836,0,0,1-1.471-.781c-.231-.134-.458-.28-.684-.431-.112-.07-.215-.156-.329-.227s-.156-.13-.253-.194a6.116,6.116,0,0,1-.646-.615,2.761,2.761,0,0,0-.636-.732,49.231,49.231,0,0,0-3.531-4.217,20.207,20.207,0,0,1-2.252-2.55Zm.82,26.706c.044-.027.086-.059.13-.086.253-.1.506-.194.781-.3a13.626,13.626,0,0,0,1.332-.6c.124-.064.35-.2.5-.3a5.366,5.366,0,0,0,.458-.35,6.4,6.4,0,0,0,.739-.743,7.079,7.079,0,0,0,.992-1.6,6.856,6.856,0,0,0,.545-1.849,12.9,12.9,0,0,0,.1-1.451l.015-.82c.248-1.137.625-2.4,1.752-2.811a4.145,4.145,0,0,1,1.785-.134l.415.156c.112.048.367.141.587.211s.453.134.679.189a10.167,10.167,0,0,0,4.76-.134,1.813,1.813,0,0,0,.394-.064c1.731-.479,4.976-1.406,5.822.921.409,1.132.334,2.168.906,3a8.647,8.647,0,0,0,5.105,5.779c.781.431,1.687.625,1.865,1.59a3.838,3.838,0,0,1-.6,2.425,24.308,24.308,0,0,1-2.087,2.146l-.528.5a12.952,12.952,0,0,1-3.23,1.957c-.356.172-.706.345-1.051.523-.636.323-1.225.684-1.795,1.035a9.171,9.171,0,0,1-2.7,1.315,9.959,9.959,0,0,1-2.968-.156c-.673-.1-1.37-.2-2.1-.253a18.016,18.016,0,0,1-4.787-1.093c-.248-.086-.5-.172-.754-.264a15.443,15.443,0,0,1-3.806-1.718,20.851,20.851,0,0,1-3.748-3.412c-.226-.253-.442-.528-.664-.814a3.744,3.744,0,0,1-.167-1.051c0-1.048.539-1.27,1.32-1.749Zm-26.269,36.405c.189-.928.28-1.779.361-2.55a19.254,19.254,0,0,1,.286-2.043c.033-.145.064-.286.1-.415l.055-.2.075-.237c.1-.323.211-.647.339-.981.486-1.332,1.148-2.744,1.718-4.4l1.526-4.3c.469-1.381,1.106-2.975,1.607-4.393.253-.706.512-1.385.772-1.941.064-.134.13-.264.189-.378a3.6,3.6,0,0,1,.2-.334c.167-.27.361-.545.56-.814a26,26,0,0,1,2.777-3.149c.253-.248.517-.5.781-.739s.512-.453.781-.679c.545-.453,1.121-.895,1.718-1.337l1.849-1.337,1.682-1.2a2.587,2.587,0,0,1,2.518.264q.372.251.728.517c.361.49.728.937,1.093,1.374a26.222,26.222,0,0,0,4.728,4.286,19.9,19.9,0,0,0,5.121,2.388c.237.086.469.167.712.253a23.191,23.191,0,0,0,6.216,1.4c.528.037,1.093.123,1.693.211a19.823,19.823,0,0,0,2.993.291,9.368,9.368,0,0,0,1.833-.172,13.618,13.618,0,0,0,4.453-2.012c.5-.312.981-.6,1.429-.831.312-.156.642-.312.965-.479a17.2,17.2,0,0,0,4.587-2.9l.5-.469a18.739,18.739,0,0,0,3.876-4.582,12.964,12.964,0,0,0,.765-1.718,3.889,3.889,0,0,1,1.249-1.634,2.912,2.912,0,0,1,1.121-.4c.339.033.679.059,1.007.081a16.255,16.255,0,0,1,2.841.378,16.5,16.5,0,0,1,2.766,1.154,22.982,22.982,0,0,0,3.074,1.3c.8.259,1.6.49,2.388.728,1.273.372,2.474.728,3.617,1.148.825.3,1.649.576,2.469.857,1.224.409,2.383.8,3.466,1.249,1.854.761,3.633,1.579,5.359,2.366l.4.189c.189.081.372.178.556.27a2.13,2.13,0,0,1,.917,1.718,4.121,4.121,0,0,1-.123.706,16.122,16.122,0,0,0-3.477,5.31,17.08,17.08,0,0,0-1.284,6.427,21.509,21.509,0,0,0,.576,4.4,2.635,2.635,0,0,1-.108.506,1.533,1.533,0,0,1-1.218.928c-.792-.167-1.359-.259-1.9-.339a27.126,27.126,0,0,1-2.811-.561l-.469-.119c-.8-.4-1.66-.69-2.507-1.084-1.838-.846-1.795-2.582-2.636-4.136a2.154,2.154,0,0,0-4.248.556c.059,2.852.426,5.585.517,8.151.048,1.315.086,2.7.2,4.145.026.356.059.723.1,1.093l.134,1.014.275,2.03.55,4.048.49,4.033c.178,1.385.42,2.836.7,4.189l.809,3.973.2,1.035c.075.361.156.717.242,1.062.167.7.345,1.374.517,2.03.124.469.238.921.35,1.374a14.678,14.678,0,0,1,.075,2.06c-.092,2.157-1.682,1.834-3.289,1.332a1.739,1.739,0,0,0-.389-.07l-.222-.081c-.4-.123-.8-.226-1.2-.339s-.809-.189-1.218-.264-.82-.145-1.24-.189c-.2-.027-.42-.044-.636-.064-.1-.011-.216-.016-.33-.022l-.378-.016a1.877,1.877,0,1,0-.361,3.736l.222.037.178.027c.07.011.145.022.226.037.156.027.312.055.469.092.312.064.642.156.959.237s.636.194.948.3.625.231.937.361a15.2,15.2,0,0,1,3.4,1.962,13.982,13.982,0,0,1,2.733,2.707,13.282,13.282,0,0,1,1.084,1.585,6.17,6.17,0,0,1,.442.809c.022.1.037.2.059.3a20.1,20.1,0,0,0,1.805,4.318,12.142,12.142,0,0,1,.669,1.526,7.117,7.117,0,0,1,.312,1.46c.156,1.117.156,2.491.383,4.1a12.759,12.759,0,0,0,.625,2.5,21.689,21.689,0,0,0,.928,2.129c.123.259.242.5.361.732a19.157,19.157,0,0,0-3.142-.717c-.389-.055-.765-.1-1.148-.13l-1.035-.086-2.065-.172a19.512,19.512,0,0,0-4.717.156c-1.406.259-2.8.561-4.184.928-.695.178-1.381.372-2.069.583-.647.2-1.456.469-2.14.754-1.406.565-2.63,1.192-3.79,1.709-.583.253-1.165.5-1.618.642-.5.156-1.084.3-1.718.431a25.407,25.407,0,0,0-4.382,1.159,27.6,27.6,0,0,0-3.947,2.186,14.959,14.959,0,0,1-1.5.825,4.179,4.179,0,0,1-.4.156c-8.481,1.359-12.259-6.13-14.853-13.369a1.686,1.686,0,0,0-.339-.576c-.156-.545-.35-1.2-.6-2.087a35.5,35.5,0,0,0-1.25-3.72,29.8,29.8,0,0,1-1.078-3.224,4.432,4.432,0,0,0-2.216-2.933,4.087,4.087,0,0,0-2.9-.253,21,21,0,0,1-2.1.172,8.884,8.884,0,0,1-1.612-.156c-2.269-.673-4.156-1.994-4.738-4.6a53.152,53.152,0,0,1-1.018-7.537c.011-.081.022-.156.037-.253.075-.506.112-.97.145-1.4q.761-3.056,1.8-6.016c.048-.108.1-.216.156-.33.356-.781.706-1.585,1.046-2.372a.027.027,0,0,1,.011-.022,2.68,2.68,0,0,0,.625-1.488c.453-1.093.895-2.2,1.3-3.219l.469-1.148c.167-.4.312-.75.469-1.073s.312-.636.469-.937a8.879,8.879,0,0,1,.582-.906c.233-.341.523-.754.781-1.192a14.367,14.367,0,0,0,.706-1.321c.431-.91.695-1.645,1.029-2.4s.658-1.488,1.018-2.291.684-1.607,1-2.4a2.157,2.157,0,0,0-3.94-1.746h0q-.55,1.125-1.11,2.205c-.378.723-.792,1.5-1.181,2.286s-.765,1.607-1.093,2.21a11.554,11.554,0,0,1-1.181,1.8c-.259.345-.561.765-.836,1.2-.2.312-.378.642-.55.965-.3.172-.545.075-1.04-.07a5,5,0,0,1-.895-.378,12.469,12.469,0,0,0-3.28-3.316,13.126,13.126,0,0,0-9.674-2.371c-.134-.027-.27-.055-.409-.075-.431-.064-.91-.059-1.185-.4a1.267,1.267,0,0,1-.227-.642,5.954,5.954,0,0,0,.247-.9Zm17.18,63.747-.044-.684-.055-.636-.108-1.288-.123-1.418c.027-1.983.07-3.973.167-5.957.108-2.372.075-5.154,2.031-6.7.1-.038.194-.075.3-.112.253-.1.469-.172.673-.242,1.5-.28,3.142-.394,4.217.486a9.044,9.044,0,0,1,.981.954c.044.119.092.237.134.35a29.8,29.8,0,0,1,1.073,3.216c.5,1.779.765,2.663,1.035,3.553.259.862.517,1.718,1.007,3.466s.728,2.625.965,3.5.486,1.774.981,3.536a38.9,38.9,0,0,0,1.218,3.7c.248.653.486,1.284.8,2.335a2.8,2.8,0,0,0,.016.561,2.655,2.655,0,0,0,.469,1.17,10.678,10.678,0,0,1,.237,1.682,16.1,16.1,0,0,0,.625,3.52c.312,1.093.5,1.779.673,2.361a5.422,5.422,0,0,1-.194,1.79c-.646,2.03-3.2,2.1-4.965,2.21-.022,0-.044.011-.064.011a11,11,0,0,1-2.4-1.04,10.375,10.375,0,0,1-2.324-2.043,18.987,18.987,0,0,0-1.288-2.049c-.242-.334-.512-.668-.781-.992-.141-.156-.279-.312-.426-.469a1.5,1.5,0,0,0-.442-.6,13.79,13.79,0,0,1-4.976-9.272,11.331,11.331,0,0,1,.334-1.634,12,12,0,0,0,.253-1.666,13.368,13.368,0,0,0,0-1.607Zm-16.183,17.37a27.747,27.747,0,0,0-.825,2.689,54.07,54.07,0,0,0-1.5,6.016c-.869,3.294-3.28,4.017-5.693,5.488l-.528.141a1.543,1.543,0,0,0-.334.07c-.194.055-.394.119-.6.183l-.9.248c-.108.027-.216.055-.33.086a4,4,0,0,1-2.425-.075,3.418,3.418,0,0,1-1.676-2.124,21.374,21.374,0,0,0-.814-3.569,35.46,35.46,0,0,0-1.315-3.612,28.2,28.2,0,0,1-1.137-3.111c-.561-1.805-.917-2.7-1.262-3.569-.323-.8-.625-1.562-1.121-3.17-.534-1.718-.8-2.571-1.078-3.423-.259-.809-.517-1.623-1-3.17a1.638,1.638,0,0,0-.07-.539c-.576-1.908-1.364-4.217.145-5.886.6-.673,1.289-1.192,1.913-1.779.081-.044.156-.092.231-.134a18.928,18.928,0,0,1,3.358-1.618c1.952-.75,2.927-1.126,3.9-1.51l1.165-.458a1.128,1.128,0,0,0,.189-.026c3.124-.732,6.625-1.332,8.248,2.108a33.035,33.035,0,0,1,1.406,3.655l.4,1.623.264,1.106c.075.33.141.657.189.959a13.528,13.528,0,0,1,.145,2.005,15.77,15.77,0,0,0,.35,2.744c.086.42.194.884.339,1.363.1.732.264,1.46.409,2.258a13.369,13.369,0,0,1-.047,5.027Zm14.237,18.3a14.03,14.03,0,0,1-1.693.378,9.782,9.782,0,0,1-1.645.123,6.009,6.009,0,0,1-1.44-.183,3.906,3.906,0,0,1-1.132-.479,7.483,7.483,0,0,1-1.968-2.3c-.167-.264-.334-.545-.5-.831l-.49-.851a13.915,13.915,0,0,1-.771-1.6,9.973,9.973,0,0,1-.5-1.585c-.059-.27-.112-.534-.145-.8s-.059-.539-.075-.851a16.6,16.6,0,0,1,.172-3.617,23.731,23.731,0,0,1,2.443-7.1v-.016a2.639,2.639,0,0,0,.3-1.348,9.747,9.747,0,0,0-.609-3.148,10.077,10.077,0,0,0-.679-1.37,8.883,8.883,0,0,1-.426-.82,7.813,7.813,0,0,1-.506-1.66,10.7,10.7,0,0,1-.237-1.86,19.1,19.1,0,0,0-.2-2.63c-.075-.458-.167-.895-.264-1.321l-.27-1.159-1.117-4.507c-.172-.728-.361-1.531-.565-2.313s-.437-1.579-.625-2.28-.372-1.418-.545-2.151c-.027-.123-.048-.231-.07-.345a2.663,2.663,0,0,0-.178-1.014c0-.016-.016-.026-.022-.044-.027-.183-.059-.367-.075-.545-.033-.312-.048-.647-.075-1.062s-.07-.89-.134-1.342-.141-.9-.226-1.332-.189-.84-.3-1.273a15.693,15.693,0,0,0-.954-2.641,12.517,12.517,0,0,1-.771-1.812c-.092-.29-.172-.609-.253-.937l-.253-1.093c-.156-.732-.3-1.429-.448-2.205s-.323-1.585-.5-2.361-.372-1.607-.636-2.454c-.134-.426-.286-.862-.437-1.249s-.28-.723-.389-1.029-.2-.609-.291-.937-.172-.664-.248-.976a6.581,6.581,0,0,1-.07-1.612c.027-.664.113-1.44.156-2.329a13.868,13.868,0,0,0,0-1.418l-.059-1.159c-.037-.765-.064-1.493-.064-2.187,0-.35,0-.695.022-1.029l.033-.5.048-.528c.081-.781.156-1.526.242-2.247.026-.242.064-.479.1-.717a11.752,11.752,0,0,1,3.951-6.6c.059-.033.124-.07.183-.1a8.422,8.422,0,0,1,4.259-.754,8.979,8.979,0,0,1,4.048,1.607,10.974,10.974,0,0,1,2.641,3.111l.237.35a5.832,5.832,0,0,1,.8,4.685c-.134.517-.237,1.029-.33,1.542-.237.5-.479,1-.712,1.5l-.545,1.185a8.012,8.012,0,0,0-.323.825,8.549,8.549,0,0,0-.242.873,19.9,19.9,0,0,0-.345,2.9c-.033.394-.064.743-.112,1.046-.064.409-.141.917-.193,1.381a23.281,23.281,0,0,0-.134,2.885c0,.469.037.987.07,1.406l.086,1.249.145,2.518c.055.862.112,1.718.183,2.577s.156,1.774.27,2.655.215,1.612.29,2.421c.033.389.07.831.092,1.185,0,.075.011.141.011.211a2.7,2.7,0,0,0-.182,2.286c.016.033.037.064.054.1-.033.237-.064.5-.092.765a15.438,15.438,0,0,0-.059,1.562c.016.506.037.981.086,1.466s.1.976.189,1.488a14.241,14.241,0,0,0,.356,1.52,12.284,12.284,0,0,1,.523,2.091c.049.345.081.668.112,1.093l.108,1.284.231,2.539.113,1.249.048.625.044.583a7.712,7.712,0,0,1,.011.928,5.938,5.938,0,0,1-.13.84c-.07.312-.194.781-.3,1.332a11.27,11.27,0,0,0-.172,1.693c-.015.528.022,1.106.048,1.526.026.361.044.717.044,1.073s-.016.706-.037,1.137a14.944,14.944,0,0,0,0,1.562,12.261,12.261,0,0,0,.679,3.153,2.617,2.617,0,0,0,1.117,1.429l.011.011c1.262.781,2.447,1.456,3.472,2.162a13.434,13.434,0,0,1,1.353,1.057c.194.183.356.356.517.534.178.211.35.426.517.658a16.136,16.136,0,0,1,1.735,3.159c.13.291.253.594.378.9s.264.657.339.873a7.906,7.906,0,0,1,.378,1.537,11.486,11.486,0,0,1-.07,3.4,5.771,5.771,0,0,1-1.979,3.87c-.189.172-.4.345-.657.539s-.479.356-.723.523a10.794,10.794,0,0,1-3.038,1.445Zm10.256,99.489c-.011-.248-.016-.49-.033-.728l-.075-1.062c-.033-.372-.064-.75-.119-1.137a16.512,16.512,0,0,0-.469-2.329,13.281,13.281,0,0,1-.389-1.666c-.081-.545-.13-1.11-.178-1.79-.048-.653-.092-1.289-.119-1.935s-.055-1.352-.1-2.054l-.145-2.016a11.912,11.912,0,0,1,0-1.638c.033-.5.156-1.249.189-2.087a18.617,18.617,0,0,0-.055-2.343,17.166,17.166,0,0,0-.35-2.372c-.092-.409-.211-.814-.312-1.154s-.189-.615-.253-.862a9.491,9.491,0,0,1-.259-1.574l-.167-1.962-.334-4.011a14.023,14.023,0,0,1-.086-1.718,8.355,8.355,0,0,1,.211-1.574,12.82,12.82,0,0,0,.242-2.507c0-.415-.027-.814-.055-1.207l-.086-1.018-.382-4.022c-.113-1.267-.2-2.728-.431-4.167-.112-.717-.211-1.3-.28-1.908s-.123-1.249-.178-1.893c-.108-1.3-.119-2.463-.172-3.947-.033-.717-.086-1.406-.141-2.1s-.134-1.451-.253-2.205-.275-1.44-.367-2-.156-1.17-.215-1.79-.1-1.278-.124-1.887-.026-1.218-.037-1.946-.044-1.46-.1-2.161c-.044-.673-.112-1.467-.242-2.258a18.9,18.9,0,0,0-.55-2.247,9.622,9.622,0,0,1-.33-1.574,13.075,13.075,0,0,1-.119-1.649,7,7,0,0,1,.172-1.482,13.076,13.076,0,0,0,.312-2.453,16.736,16.736,0,0,0-.141-2.421,12.844,12.844,0,0,0-.556-2.469,13.662,13.662,0,0,1-.528-1.656c-.016-.07-.027-.145-.044-.222a1.551,1.551,0,0,0,.049-.583,7.32,7.32,0,0,1,1.8-5.73,17.63,17.63,0,0,0,1.612-.954c.339-.231.668-.469.981-.712s.636-.5.97-.8a11.634,11.634,0,0,0,1.816-2.03,11.039,11.039,0,0,0,1.656-3.769,8.279,8.279,0,0,1,1.735-2.717,8.518,8.518,0,0,1,2.276-1.5l.743-.194c1.526-.4,2.291-.6,3.056-.8l3.068-.8a4.3,4.3,0,0,0,2.68-2.021,5.082,5.082,0,0,0,.378-3.94c-.156-.576-.3-1.04-.4-1.434-.231-2.68-.226-5.655,1.718-7.6a8.894,8.894,0,0,1,3.7-1.887c.625-.1,1.278-.211,1.968-.372a12.65,12.65,0,0,0,2.415-.82,17.844,17.844,0,0,0,2.069-1.126,23.755,23.755,0,0,1,3.153-1.79,22.052,22.052,0,0,1,3.483-.884c.625-.13,1.278-.28,1.973-.49,2.485-.415,4.912-1.493,7.423-1.214a8.444,8.444,0,0,1,5.677,3.138c.615,1.493,1.225,2.986,1.823,4.5a27.552,27.552,0,0,1,.895,2.863c.291,1.051.587,2.14,1.009,3.235a32.484,32.484,0,0,0,1.429,3.078,27.861,27.861,0,0,1,1.249,2.718,23.245,23.245,0,0,1,.765,2.841,30.24,30.24,0,0,0,.906,3.331,19.048,19.048,0,0,0,1.7,3.327,13.34,13.34,0,0,1,1.262,2.394,21.357,21.357,0,0,1,.658,2.825,26.579,26.579,0,0,0,.809,3.413c.312.954.55,1.952.809,3.014.248,1.025.5,2.08.836,3.149s.733,2.08,1.121,3.063c.4,1.014.781,1.973,1.062,2.933.238.781.469,1.562.717,2.343.378,1.229.771,2.5,1.126,3.748.389,1.353.754,2.711,1.121,4.07.183.695.372,1.385.561,2.08.29,1.067.647,2.091.987,3.083.356,1.04.7,2.021.95,3,.275,1.046.5,2.1.732,3.23.2.976.415,1.983.668,2.992a31.739,31.739,0,0,0,1.035,3.241,26,26,0,0,1,.917,2.857c.253,1.067.453,2.146.673,3.289.183.97.372,1.968.593,2.967.211.937.33,1.946.458,3s.264,2.187.5,3.316c.2.959.312,1.968.442,3.041s.253,2.162.469,3.28a22.355,22.355,0,0,0,1.036,3.413,18.38,18.38,0,0,1,.831,2.722c.189,1.007.4,2.005.609,2.967.248,1.132.479,2.205.668,3.289a13.24,13.24,0,0,1,.044,2.685,18.6,18.6,0,0,0,.1,3.762c.172,1.062.394,2.1.609,3.111.231,1.093.447,2.119.6,3.153a20.211,20.211,0,0,0,.937,3.509,15.785,15.785,0,0,1,.732,2.7,19.019,19.019,0,0,1,.064,2.825c-.016.647-.033,1.31-.016,1.99l-15.031,2.636c-.075-.426-.145-.862-.216-1.3-.178-1.117-.367-2.269-.636-3.423-.216-.928-.372-1.874-.545-2.867-.183-1.117-.383-2.269-.664-3.417-.216-.873-.416-1.741-.615-2.61-.275-1.185-.556-2.414-.868-3.617s-.673-2.361-1.025-3.477c-.286-.921-.556-1.79-.792-2.663s-.469-1.752-.69-2.625c-.3-1.17-.609-2.377-.948-3.564-.253-.879-.49-1.757-.728-2.63-.312-1.165-.636-2.366-.992-3.536-.367-1.2-.8-2.329-1.218-3.423-.35-.906-.679-1.763-.954-2.61-.431-1.342-.884-2.655-1.326-3.925-.253-.717-.5-1.429-.739-2.14-.409-1.2-.873-2.324-1.321-3.417-.367-.884-.712-1.718-1.009-2.55-.426-1.2-.911-2.343-1.374-3.436-.361-.868-.706-1.682-1.014-2.5a23.007,23.007,0,0,1-.781-2.733,25.633,25.633,0,0,0-1.018-3.445c-.486-1.207-1.051-2.3-1.6-3.364-.442-.846-.851-1.645-1.185-2.425-.367-.879-.706-1.794-1.029-2.685-.4-1.084-.814-2.21-1.3-3.294-.389-.862-.743-1.757-1.093-2.621-.442-1.093-.9-2.221-1.406-3.3-.771-1.623-1.548-3.142-2.3-4.615l-.583-1.143a30.807,30.807,0,0,0-2.049-3.338c-.506-.75-.992-1.46-1.359-2.14-.409-.754-.8-1.493-1.174-2.216-.625-1.214-1.229-2.355-1.874-3.456-1.067-1.827-2.108-3.445-3.019-4.873l-.389-.6a19.993,19.993,0,0,1-1.445-2.911c-.215-.506-.431-1-.664-1.477-.739-2.291-1.392-4.6-1.93-6.959a1.473,1.473,0,0,0-.189-.469,15.105,15.105,0,0,1-.112-1.682v-.033a1.89,1.89,0,0,0-3.773-.086,19.122,19.122,0,0,0-.037,2.237c.016.389.055.781.1,1.137l.108.959a12.221,12.221,0,0,1,.033,1.73c-.026.594-.081,1.262-.145,1.865s-.156,1.192-.264,1.865-.2,1.434-.264,2.151-.1,1.406-.119,2.172a16.28,16.28,0,0,0,.124,2.343c.1.781.183,1.284.2,1.827a15.992,15.992,0,0,1-.027,1.746c-.044.647-.081,1.273-.145,1.893l-.222,1.983c-.075.723-.123,1.44-.156,2.14l-.1,2.016-.194,4.026c-.059,1.337-.112,2.739-.123,4.118l-.022,1.968-.026.981-.022.49-.022.442a10.246,10.246,0,0,1-.2,1.59c-.1.479-.323,1.192-.468,2.03a17.239,17.239,0,0,0-.253,2.377c-.026.739-.037,1.46-.016,2.232s.113,1.552.156,2.129a17.26,17.26,0,0,1,.055,1.757c-.011.593-.037,1.273-.064,1.93l-.1,1.972c-.081,1.337-.134,2.782-.183,4.048-.033.642-.07,1.249-.13,1.874s-.141,1.337-.194,2.065-.081,1.429-.1,2.135-.027,1.46.016,2.232.119,1.5.156,2.06.048,1.154.037,1.774l-.022,1c-.011.361-.011.723-.011,1.093,0,.732.055,1.52.1,2.157a33.444,33.444,0,0,1,0,3.748c-.022.658-.055,1.3-.092,1.957l-.108,2.049c-.059,1.4-.081,2.711-.156,4.006s-.156,2.729-.189,4.076c-.022.673-.044,1.3-.081,1.93s-.1,1.229-.156,1.941-.1,1.434-.134,2.129l-.037,1.018c-.011.3-.027.6-.048.884a14.732,14.732,0,0,1-.242,1.7,20.865,20.865,0,0,0-.339,2.247c-.07.781-.1,1.477-.1,2.286a13.026,13.026,0,0,0,.237,2.5c.075.4.167.781.231,1.067s.113.523.145.761a9.635,9.635,0,0,1,.064,1.562c-.016.642-.044,1.3-.075,1.946l-.07,1.165a3.312,3.312,0,0,1-.706,1.273,3.977,3.977,0,0,1-2.426,1h-9.283a4.2,4.2,0,0,1-2.83-1.093A4.088,4.088,0,0,1,1067.755,711.314Zm8.9,11.548c-1.277,0-2.841.011-4.232.145-.119,0-.238.016-.35.027-.178-.022-.356-.037-.545-.044-1.262-.064-2.069-.156-2.517-1.249l-.038-.33c-.044-.389-.1-.781-.167-1.181-.026-.134-.055-.27-.086-.4a.983.983,0,0,1,.7-.809c.409-.167.825-.312,1.249-.448h10.134a2.234,2.234,0,0,1,1.671.636,2.721,2.721,0,0,1,.426,1.656c-.022.259-.044.512-.055.761a2,2,0,0,1-.512.728,2.153,2.153,0,0,1-.917.431l-.76.011C1079.234,722.809,1077.967,722.862,1076.657,722.862Zm2.005,14.086v2.087a5.144,5.144,0,0,1-.825,1.126,4.6,4.6,0,0,1-2.187.717,3.5,3.5,0,0,1-1.159-.216,4.176,4.176,0,0,1-1.289-1.3l.011-3.241c.372-1.456,1.11-3.03,2.733-3.067,1.249-.027,1.957,1.035,2.425,2.179.016.123.027.242.044.356a11.159,11.159,0,0,0,.239,1.36Zm18.727,17.159c-.264.545-1.007.636-1.666.642-.27-.055-.545-.1-.814-.13-.512-.07-1-.1-1.477-.119s-.917-.016-1.364,0-.917.022-1.385.059-.937.086-1.352.141-.754.092-1.093.119c-.69.055-1.4.059-2.187.055s-1.562-.022-2.355-.055-1.671-.075-2.518-.086l-1.262-.011c-.468,0-.937,0-1.434.044a17.7,17.7,0,0,0-2.766.442,8.975,8.975,0,0,1-.937.145c-.312.033-.636.048-.987.055a16.122,16.122,0,0,1-2.076-.081c-.323-.033-.647-.086-1.057-.156-.086-.011-.178-.026-.275-.044a9.948,9.948,0,0,0-1.348-.378c-.625-.134-1.31-.231-1.612-.879a3.14,3.14,0,0,1-.156-1.423,20.678,20.678,0,0,1,.642-2.135,19.783,19.783,0,0,1,.825-1.968,5.812,5.812,0,0,1,.458-.781c.026-.037.059-.07.086-.108.706-1.036,1.7-2.069,3.057-1.735a11.472,11.472,0,0,0,2.1.479,9.051,9.051,0,0,0,1.159.081h.156a9.635,9.635,0,0,0,4.151-1.084,4.6,4.6,0,0,1,2.517.075c.469.167,1.277.5,1.406,1.057.112.512-.642,1.645-.847,2.119a.174.174,0,0,0-.016.048c-.075.07-.156.141-.227.216a1.887,1.887,0,0,0,2.485,2.83l.044-.033a10.933,10.933,0,0,1,3.628-1.834c.044-.016.092-.022.134-.038a2.647,2.647,0,0,0,.356.033,2.687,2.687,0,0,0,1.249-.312l.183-.016a5.885,5.885,0,0,1,1.718.183,8.277,8.277,0,0,1,3.289,1.768,9.344,9.344,0,0,1,1.562,1.7,1.53,1.53,0,0,1,0,1.11Zm39.661-9.941c-.211.345-.453.75-.76,1.218a27.7,27.7,0,0,0-2.448,4.814c-.016.033-.037.064-.055.1a8.22,8.22,0,0,1-2.275,3.748,9.7,9.7,0,0,1-4.114,1.352c-.8,0-1.6.011-2.4.011-2.318,0-4.685.011-7.008.059s-4.571.064-6.906.07c-.625,0-1.25.011-1.874.026a14.828,14.828,0,0,1-3.4-.814,6.456,6.456,0,0,1-3.208-3.316,1.62,1.62,0,0,0-.361-.5,14.132,14.132,0,0,0-3.32-3.592,13.152,13.152,0,0,0-4.49-2.236,9.936,9.936,0,0,0-2.432-.75,9.422,9.422,0,0,1-3.241-1.284l-2.867-2.216a10.535,10.535,0,0,1-1.845-4.448l.016-6.082a4.652,4.652,0,0,1,.313-.895,11.414,11.414,0,0,1,2.14-2.711,1.608,1.608,0,0,0,.389-.658,6.292,6.292,0,0,0,1.17-2.621,6.78,6.78,0,0,0,.108-.8l.037-.594c.011-.29.033-.572.059-.836a10.441,10.441,0,0,1,.312-1.585,15.73,15.73,0,0,0,.469-2.343c.1-.8.119-1.618.141-2.227.026-.658.059-1.3.1-1.946l.13-2.03c.037-.7.064-1.381.092-2.08a14.838,14.838,0,0,0-.112-2.454c-.055-.431-.141-.846-.216-1.218s-.156-.647-.2-.9a7.866,7.866,0,0,1-.13-1.5c0-.539.033-1.185.086-1.741a14.609,14.609,0,0,1,.27-1.718,20.832,20.832,0,0,0,.334-2.286c.033-.383.055-.761.064-1.126l.044-.992c.026-.647.064-1.249.123-1.893s.134-1.353.178-2.069.075-1.423.1-2.1c.044-1.332.119-2.577.2-3.967s.108-2.76.172-4.048l.108-1.972c.044-.684.075-1.381.1-2.065s.055-1.37.059-2.108-.022-1.5-.064-2.2a31.753,31.753,0,0,1-.048-3.806c.016-.723,0-1.488-.048-2.247s-.13-1.392-.156-1.957-.027-1.17,0-1.794.048-1.277.092-1.893.112-1.224.183-1.946.119-1.445.145-2.151c.044-1.406.075-2.655.145-4l.086-2.049c.022-.684.048-1.348.055-2.1a22.462,22.462,0,0,0-.092-2.269c-.07-.75-.134-1.31-.156-1.887s-.022-1.192,0-1.794a11.425,11.425,0,0,1,.156-1.623c.075-.479.253-1.062.431-1.893a15.962,15.962,0,0,0,.29-2.4l.027-.565.011-.512.022-1.036c.011-.69.011-1.4,0-2.06-.016-1.31.011-2.593.044-3.94l.119-4.022.044-2.005c.011-.647.037-1.267.081-1.887l.156-1.823a2.813,2.813,0,0,1,.378-.523c.84-.895,1.482-.469,2.113.156.506.89,1.014,1.854,1.548,2.874.389.743.781,1.509,1.214,2.291.5.917,1.078,1.768,1.638,2.6a25.106,25.106,0,0,1,1.7,2.744l.587,1.154c.732,1.44,1.493,2.927,2.227,4.479.448.937.851,1.941,1.284,3,.367.911.743,1.849,1.17,2.8.409.917.781,1.909,1.159,2.955.345.95.706,1.924,1.126,2.922s.895,1.909,1.359,2.811a31.729,31.729,0,0,1,1.381,2.885,20.766,20.766,0,0,1,.792,2.722,27.867,27.867,0,0,0,.97,3.358c.345.911.728,1.816,1.093,2.685.437,1.035.884,2.1,1.267,3.164.339.95.723,1.874,1.093,2.788.437,1.062.851,2.06,1.2,3.1.242.717.5,1.445.75,2.179.431,1.24.879,2.518,1.288,3.8.323.992.695,1.957,1.051,2.9.4,1.051.781,2.043,1.093,3.056.329,1.093.625,2.186.937,3.364.242.906.486,1.816.75,2.733.312,1.093.6,2.221.906,3.4.231.9.469,1.805.712,2.711.264.965.561,1.919.851,2.847.329,1.057.673,2.151.949,3.223.3,1.126.556,2.269.836,3.472.2.89.409,1.79.625,2.685.231.959.4,1.968.587,3.034.172,1.029.35,2.1.6,3.186.227.976.394,1.99.565,3.063.156,1.029.334,2.091.572,3.17a17.968,17.968,0,0,0,1.24,3.445,13.315,13.315,0,0,1,.937,2.566,5.917,5.917,0,0,0,2.863,4.114,15.377,15.377,0,0,1,1.849,1.488,6.171,6.171,0,0,1,.992,1.381l.981,5.757a20.6,20.6,0,0,1-2.3,6.28,1.38,1.38,0,0,0-.114.351Zm40.383,10.389h-.657c-1.634,0-2.463.037-3.261.07s-1.515.07-3.03.07a25.454,25.454,0,0,0-3.477.211l-.389.048c-1.148-.033-2.276-.048-3.423-.037-1.2,0-2.41.037-3.633.119-1.148.07-2.276.2-3.316.3-.415-.033-.754-.081-1.121-.13a22.351,22.351,0,0,0-3.509-.242c-1.5,0-2.237-.037-3.014-.075-.8-.038-1.638-.081-3.28-.081-1.353,0-2.113-.011-2.8-.022a5.574,5.574,0,0,1-3.436-1.207c-.431-.409-.264-.469-.13-1.121a6.621,6.621,0,0,0,.124-.873,22.146,22.146,0,0,1,1.73-3.28c.442-.69.771-1.24,1.04-1.7a3.339,3.339,0,0,1,2.4-1.117h.911a8.832,8.832,0,0,0,2.172.28,8.206,8.206,0,0,0,1.585-.156,8.8,8.8,0,0,0,2.313-.792,1.632,1.632,0,0,0,.431-.156c2.243-1.249,3.925-1.874,6.339-.657a1.7,1.7,0,0,0,.684.189,21.919,21.919,0,0,0,3.386.75,16.17,16.17,0,0,1,2.647.576,17.414,17.414,0,0,1,2.63,1.321,19.416,19.416,0,0,0,3.063,1.52c1.332.486,2.577.97,3.672,1.4.82.323,1.562.615,2.227.857a5.755,5.755,0,0,1,2.9,1.957,1.035,1.035,0,0,1,.081.576c-.137.879-.989,1.251-1.862,1.4Z" transform="translate(-907.895 -363.341)"/><path class="i" d="M1471.264,777.275a7.5,7.5,0,0,0,2.555.831,8.9,8.9,0,0,0,2.729-.027,8.764,8.764,0,0,0,2.582-.825c.2-.1.394-.222.594-.329a5.5,5.5,0,0,0,.561-.378,5.753,5.753,0,0,0,.534-.437c.173-.158.312-.312.534-.545a1.407,1.407,0,0,0,.367-.743,1.426,1.426,0,0,0-1.176-1.634l-1.157-.187a1.55,1.55,0,0,0-.409.081l-.458.119-.906.242c-.594.156-1.185.28-1.779.389a15,15,0,0,1-1.79.226c-.609.064-1.229.048-1.909.1l-.248.022a1.646,1.646,0,0,0-.625,3.094Z" transform="translate(-1300.628 -686.545)"/><path class="i" d="M1483.9,729.608a3.217,3.217,0,0,0,.937.4,4.75,4.75,0,0,0,.937.141,3.117,3.117,0,0,0,.937-.086,2.369,2.369,0,0,0,.937-.453,2.178,2.178,0,0,0,.312-.312,2.08,2.08,0,0,0-.312-2.922,2.429,2.429,0,0,0-.937-.448,3.114,3.114,0,0,0-.937-.086,4.754,4.754,0,0,0-.937.141,3.348,3.348,0,0,0-.937.394,1.946,1.946,0,0,0-.569.579A1.919,1.919,0,0,0,1483.9,729.608Z" transform="translate(-1311.292 -646.745)"/><path class="i" d="M600.7,482.7c.172.717.334,1.4.453,2.054.1.556.189,1.11.28,1.671a30.758,30.758,0,0,0,1.185,5.326l.312.917a38.413,38.413,0,0,0,2.343,5.768,47.109,47.109,0,0,0,3.973,6A23.82,23.82,0,0,0,612.753,508c.565.5,1.106.97,1.6,1.451a36.7,36.7,0,0,0,4.668,3.714q.452.323.91.647a44.766,44.766,0,0,0,6.005,3.72,16.889,16.889,0,0,1,2.016,1.31,15.671,15.671,0,0,0,4.2,2.355,16.645,16.645,0,0,0,4.738.636,19.579,19.579,0,0,1,2.432.172,21.953,21.953,0,0,1,2.269.539,18.026,18.026,0,0,0,4.793.84h.13a47.6,47.6,0,0,0,6.9-.6,46.174,46.174,0,0,0,6.872-1.548,33.373,33.373,0,0,0,5.143-2.205c.431-.215.857-.431,1.289-.635l.3-.145a43.677,43.677,0,0,0,5.866-3.2,47.466,47.466,0,0,0,5.466-4.4,28.171,28.171,0,0,0,3.337-3.936c.367-.5.732-.992,1.117-1.471.264-.334.534-.664.8-.992.728-.9,1.467-1.823,2.157-2.8a18,18,0,0,1,3.9-2.63c.69-.211,1.192-.389,1.682-.561a26.492,26.492,0,0,1,2.867-.884,20.674,20.674,0,0,0,3.472-1.181,17.973,17.973,0,0,1,5.482-1.406,20.236,20.236,0,0,0,3.623-.625,4.257,4.257,0,0,0,3.2-3.358,4.733,4.733,0,0,0-2.043-4.664c-1.17-.814-1.718-1.234-2.307-1.677s-1.224-.937-2.491-1.812a7.227,7.227,0,0,1-1.682-1.541,12.338,12.338,0,0,0-2.728-2.491c-.222-.156-.426-.29-.625-.42a1.73,1.73,0,0,0-.183-.156c-1.627-1.093-4.637-2.443-4.7-4.717a1.64,1.64,0,0,0-.1-.528,25.471,25.471,0,0,0-.836-3.181,21.872,21.872,0,0,1-.625-2.216,44.154,44.154,0,0,0-1.757-6.792l-.033-.086a45.55,45.55,0,0,0-2.739-6.383,39.509,39.509,0,0,0-3.542-5.1l-.506-.653a47.581,47.581,0,0,0-9.958-9.9,45.954,45.954,0,0,0-6.053-3.634,24.118,24.118,0,0,0-4.7-1.59c-.706-.183-1.37-.356-2.016-.556a18.387,18.387,0,0,1-2.168-.928,15.984,15.984,0,0,0-4.5-1.6,48.361,48.361,0,0,0-7.111-.442,17.882,17.882,0,0,0-4.5.733,20.612,20.612,0,0,1-2.157.479,17.921,17.921,0,0,1-2.3.123,16.3,16.3,0,0,0-4.459.506,30.62,30.62,0,0,0-4.754,2.005c-.49.242-.976.486-1.46.712a46.17,46.17,0,0,0-5.816,3.412L620.7,438a42.069,42.069,0,0,0-5.024,3.661A46.6,46.6,0,0,0,611,446.526a23.875,23.875,0,0,0-2.561,3.958c-.339.615-.664,1.2-1,1.752s-.765,1.137-1.2,1.735a21.122,21.122,0,0,0-2.421,3.951,25.255,25.255,0,0,0-1.359,4.587c-.145.664-.291,1.293-.458,1.909-.172.647-.42,1.326-.679,2.043a19.879,19.879,0,0,0-1.218,4.453,48.316,48.316,0,0,0-.222,6.77A24.923,24.923,0,0,0,600.7,482.7Zm4.771-11.143a15.368,15.368,0,0,1,.937-3.256c.286-.792.582-1.607.814-2.469.2-.728.361-1.445.517-2.135a20.494,20.494,0,0,1,1.04-3.617,16.71,16.71,0,0,1,1.849-2.949c.469-.653.954-1.326,1.406-2.049.415-.668.781-1.337,1.143-1.99A19.849,19.849,0,0,1,615.137,450a42.513,42.513,0,0,1,4.129-4.312,37.824,37.824,0,0,1,4.4-3.181l.442-.29a41.123,41.123,0,0,1,5.132-3.035c.523-.242,1.046-.5,1.562-.761a26.136,26.136,0,0,1,3.914-1.676,11.634,11.634,0,0,1,3-.28,22.213,22.213,0,0,0,3-.178,26.59,26.59,0,0,0,2.722-.594,13.443,13.443,0,0,1,3.159-.565,43.587,43.587,0,0,1,6.3.378,11.639,11.639,0,0,1,2.981,1.132,22.264,22.264,0,0,0,2.885,1.207c.772.242,1.531.437,2.265.625a19.935,19.935,0,0,1,3.683,1.207,40.517,40.517,0,0,1,5.352,3.217,41.792,41.792,0,0,1,4.723,4.061,40.943,40.943,0,0,1,4.061,4.706l.517.664a34.9,34.9,0,0,1,3.083,4.4,39.994,39.994,0,0,1,2.394,5.633l.033.092a39.97,39.97,0,0,1,1.537,5.994,25.413,25.413,0,0,0,.761,2.76,13.983,13.983,0,0,1,.771,3.338,6.494,6.494,0,0,0,2.7,5.348,27.779,27.779,0,0,0,2.76,1.718,21.07,21.07,0,0,1,2.28,1.406,7.392,7.392,0,0,1,1.687,1.548,12.411,12.411,0,0,0,2.722,2.491l.6.42a1.332,1.332,0,0,0,.1.141c.442.587.917.809.378,1.4a4.421,4.421,0,0,1-1.117.781c-.312.064-.625.141-1,.237a20.976,20.976,0,0,0-3.477,1.181,15.361,15.361,0,0,1-2.689.921,31.835,31.835,0,0,0-3.342,1.025,26.742,26.742,0,0,1-2.867.879,6.4,6.4,0,0,0-4.382,2.878,30.8,30.8,0,0,1-2.857,3.925c-.28.345-.556.684-.831,1.035-.415.523-.82,1.062-1.218,1.6a23.437,23.437,0,0,1-2.685,3.208,41.326,41.326,0,0,1-4.842,3.892,39.077,39.077,0,0,1-5.154,2.8l-.3.145c-.453.216-.9.442-1.352.668a28.629,28.629,0,0,1-4.312,1.874,41.475,41.475,0,0,1-6.075,1.37,39.491,39.491,0,0,1-6.25.561,13.536,13.536,0,0,1-3.4-.647,25.57,25.57,0,0,0-2.83-.664,24.168,24.168,0,0,0-3.111-.242,12.178,12.178,0,0,1-3.245-.372,11.41,11.41,0,0,1-2.744-1.618,21.3,21.3,0,0,0-2.707-1.718,40.558,40.558,0,0,1-5.31-3.294c-.312-.226-.625-.448-.937-.668a32.919,32.919,0,0,1-4.017-3.164c-.6-.587-1.218-1.132-1.816-1.655a19.242,19.242,0,0,1-2.749-2.744,43.165,43.165,0,0,1-3.531-5.3,33.893,33.893,0,0,1-1.994-4.981l-.323-.937a25.863,25.863,0,0,1-.959-4.4c-.092-.593-.189-1.192-.3-1.785-.145-.8-.33-1.585-.512-2.343a20.17,20.17,0,0,1-.664-3.892,45.131,45.131,0,0,1,.2-6.005Z" transform="translate(-566.052 -396.895)"/><path class="i" d="M731.881,719.276a19.745,19.745,0,0,0,3.417-.086c1.185-.13,2.291-.4,3.138-.512a16.159,16.159,0,0,1,2.685-.172c.937.011,1.952.044,2.868.123s1.812.222,2.9.378a30.2,30.2,0,0,0,3.342.3c.275.016.55.022.82.027h.781c.49,0,.976.016,1.451.037.965.044,1.844.13,2.857.264s2.2.248,3.3.28,2.179.037,3.245.011,2.179-.086,3.245-.183,2.005-.189,2.981-.248c.49-.026.981-.048,1.477-.064l1.562-.048a24.105,24.105,0,0,0,3.408-.372c1.159-.226,2.069-.49,2.955-.625a25.11,25.11,0,0,1,2.8-.3h.033a2.157,2.157,0,0,0-.033-4.307,22.8,22.8,0,0,0-3.369.044c-1.165.1-2.265.323-3.138.415a19.134,19.134,0,0,1-2.749.134l-1.526-.022h-1.618c-1.084.016-2.2.092-3.181.156s-1.941.092-2.938.092-1.99,0-2.938-.038-1.838-.134-2.852-.27-2.21-.242-3.3-.275c-.556-.022-1.093-.033-1.645-.033h-1.482a27.2,27.2,0,0,1-2.811-.183c-.959-.123-2.124-.27-3.25-.312-.561-.026-1.11-.033-1.66-.037s-1.084.011-1.649.037a21.031,21.031,0,0,0-3.466.437c-1.174.264-2.06.561-2.916.723a22.529,22.529,0,0,1-2.744.312h-.037a2.16,2.16,0,0,0,.037,4.312Z" transform="translate(-675.725 -636.299)"/><path class="i" d="M771.429,634.5l2.254.172c.739.064,1.46.145,2.232.237s1.6.156,2.4.216,1.607.075,2.4.1,1.645.027,2.491-.016,1.718-.134,2.491-.227,1.423-.156,2.129-.194,1.429-.048,2.157-.044,1.406.022,2.06.086a19.073,19.073,0,0,1,2.03.312,23.941,23.941,0,0,0,2.577.361,24.46,24.46,0,0,0,2.577.055,21.388,21.388,0,0,0,2.63-.222,19.1,19.1,0,0,0,2.566-.614,16.426,16.426,0,0,1,1.952-.528c.642-.112,1.326-.189,2.03-.253h.064a2.16,2.16,0,0,0-.064-4.307,17.485,17.485,0,0,0-2.6,0,19.934,19.934,0,0,0-2.6.4,13.725,13.725,0,0,1-1.99.312,18.711,18.711,0,0,1-2.005.055c-.712-.026-1.406-.064-2.069-.134a19.447,19.447,0,0,1-2.008-.351,23.253,23.253,0,0,0-2.55-.426,25.117,25.117,0,0,0-2.588-.13c-.82,0-1.645.022-2.491.075s-1.718.156-2.5.275-1.434.2-2.135.259-1.423.1-2.162.119c-1.52.037-2.955.055-4.479,0-1.574-.027-3.241-.022-4.809.1a2.163,2.163,0,0,0,0,4.312Z" transform="translate(-709.151 -565.338)"/><path class="i" d="M808.366,796.47c-.8-.059-1.612-.092-2.443-.086s-1.677.048-2.454.1-1.456.1-2.168.108-1.44,0-2.179-.016-1.456-.055-2.151-.108-1.363-.145-2.119-.259-1.638-.216-2.48-.275-1.671-.075-2.485-.081c-1.562,0-3.181.037-4.738.123-1.526.1-2.992.134-4.529.183s-2.982.064-4.507.048c-1.562,0-3.191.022-4.749.145h-.011a2.163,2.163,0,0,0,.011,4.312l2.265.167c.743.059,1.477.13,2.247.2,1.562.156,3.186.237,4.745.275s3.181.033,4.745-.011c1.52-.048,2.986-.07,4.518-.059.728,0,1.451,0,2.146.048s1.359.112,2.124.2,1.645.178,2.485.216,1.666.038,2.48.016,1.623-.055,2.454-.13,1.677-.183,2.443-.312,1.44-.237,2.157-.312,1.445-.134,2.187-.194h.027a2.16,2.16,0,0,0-.027-4.307Z" transform="translate(-709.095 -705.826)"/></g></g></g></svg>