<svg xmlns="http://www.w3.org/2000/svg" width="353.621" height="326.441" viewBox="0 0 353.621 326.441"><defs><style>.a{fill:#087bef;}.b{fill:#003472;}</style></defs><g transform="translate(-7.031 -115.264)"><g transform="translate(14.18 0.145)"><path class="a" d="M962.649,1839.538l-.031-.081a26.409,26.409,0,0,1-1.123-2.63c-.354-1.048-.6-2.019-.827-2.954a22.4,22.4,0,0,0-.9-3,13.863,13.863,0,0,0-1.43-2.48l-.213-.318a19.006,19.006,0,0,1-1.506-2.514,1.1,1.1,0,0,1,1.944-1.03,23.308,23.308,0,0,0,1.746,2.315l.041.051a14.3,14.3,0,0,1,1.921,2.829,18.567,18.567,0,0,1,.827,2.014l.063.124a1.262,1.262,0,0,1,.185.382l.111.4a6.877,6.877,0,0,0,1.531,3.221,2.255,2.255,0,0,0,1.833.751,3.546,3.546,0,0,0,2.386-1.818c.131-.192.253-.379.375-.564l.193-.294.031-.055c.137-.269.27-.536.4-.8l.119-.236v-.116a1.041,1.041,0,0,1,.152-.486,21.117,21.117,0,0,0,1.045-2.057l.045-.106a19.475,19.475,0,0,0,1.147-12.105l-.038-.111c-.227-.486-.508-1.008-.8-1.561-.149-.278-.306-.569-.465-.871-.235-.46-.483-.961-.706-1.523s-.41-1.119-.541-1.533a15.848,15.848,0,0,0-.871-2.369,2.6,2.6,0,0,0-.206-.355l-.03-.05c-.084-.121-.182-.248-.311-.4-.233-.266-.523-.567-.9-.947-.341-.347-.729-.741-1.132-1.235a8.815,8.815,0,0,1-.58-.8c-.165-.273-.321-.544-.455-.792-.3-.578-.542-1.121-.757-1.6-.126-.279-.24-.537-.352-.769v-.276l-.156-.051-.04-.063a4.9,4.9,0,0,0-.248-.43,1.618,1.618,0,0,0-.1-.154l-2.8-3.523a3.1,3.1,0,0,0-.258-.321c-.021-.02-.04-.043-.059-.064s-.073-.083-.142-.154c-.124-.122-.251-.251-.382-.37-.3-.289-.661-.583-.992-.868l-.384-.318c-.25-.2-.511-.42-.784-.661-.2-.174-.408-.354-.623-.564l-.7-.673c-.661-.651-1.286-1.268-1.9-1.819l-.5-.433-.511-.407c-.369-.293-.718-.585-1.048-.865l-.144-.121a19.222,19.222,0,0,0-2.035-1.607,6.647,6.647,0,0,0-2.015-.816c-.316-.081-.661-.156-1.046-.237l-1.066-.235c-.274-.063-.585-.147-.843-.225-.319-.1-.613-.2-.885-.289a11.931,11.931,0,0,0-1.653-.476,3.009,3.009,0,0,0-.8-.045,10.079,10.079,0,0,0-1.157.193c-.685.156-1.433.374-2.225.605l-1.119.331a3.32,3.32,0,0,0-.407.155c-.289.129-.661.344-1.055.572l-.265.156c-.331.2-.694.413-1.106.631-.281.146-.536.276-.843.4-.255.112-.61.24-.863.322-.732.246-1.432.45-2.106.645l-.774.228c-.458.134-.891.268-1.323.41l-.741.251c-.273.081-.529.149-.827.225-.562.146-1.091.261-1.585.369-.455.1-.881.193-1.265.294-.218.053-.432.113-.605.165l-.853.23c-.608.144-1.174.235-1.643.3l-.661.093a20.284,20.284,0,0,0-2.022.33l-2.822.718-.369.081-.1.033a3.588,3.588,0,0,0-2.088,1.807,2.352,2.352,0,0,0,.114,1.855l.438.617c.289.392.6.805.9,1.252s.552.837.8,1.253c.127.223.25.453.372.693l.273.536c.165.331.346.661.532,1.012a19.506,19.506,0,0,1,1.818,4.208,23.781,23.781,0,0,1,.479,2.645l.058.41c.05.352.1.686.147,1l.1.562c.053.26.094.524.132.775a21.06,21.06,0,0,1,.165,2.9v1.289l.033,1.06.021.129c.407,1.389,1.167,2.019,2.26,1.863l.6-.079.093-.051c.228-.129.466-.248.7-.355a25.791,25.791,0,0,1,2.468-.909c.44-.144.853-.279,1.247-.428l.5-.2c.141-.055.286-.111.44-.165.314-.114.661-.22,1.053-.33.683-.175,1.311-.308,1.952-.44l.876-.188c.294-.068.522-.125.873-.225.636-.174,1.285-.331,1.926-.5,1.2-.268,2.519-.5,3.918-.673a31.676,31.676,0,0,1,3.968-.319,1.372,1.372,0,0,1,1.392,1.359,1.323,1.323,0,0,1-.258.8l-.063.114a6.5,6.5,0,0,0-.093,4.682l.038.086c.387.694.722,1.4,1.047,2.078l.134.282c.2.428.405.859.622,1.275a8.207,8.207,0,0,0,1.005,1.375l.079.1a10.922,10.922,0,0,1,1.819,2.711c.425,1.018.741,2.014,1.083,3.12l.1.306c.139.442.278.883.43,1.323a15.161,15.161,0,0,1,.607,2.872l.012.081a13.165,13.165,0,0,0,.349,1.929,15.957,15.957,0,0,0,.746,1.843,17.173,17.173,0,0,1,1.051,2.751,21.168,21.168,0,0,1,.461,2.682l.01.071c.094.736.185,1.432.331,2.083.177.716.359,1.437.537,2.149.025.1.048.2.079.309l.036.093c.871,1.723,1.962,3.495,3.454,3.576h.165c1.323,0,2.44-.937,3.306-2.791l.038-.109c.231-1.01.547-1.967.881-2.976a28.374,28.374,0,0,0,1.086-3.928A14.375,14.375,0,0,0,962.649,1839.538Z" transform="translate(-844.161 -1519.533)"/><path class="a" d="M1261.506,1655.367c-.045-1.194-.114-2.13-.218-2.948a11.6,11.6,0,0,0-.612-2.568,8.986,8.986,0,0,0-1.25-2.237,19.154,19.154,0,0,0-1.862-2.128c-.345-.346-.714-.7-1.081-1.038s-.736-.661-1.118-.992c-.585-.5-1.2-1-1.819-1.516-1.012-.827-2.058-1.677-3.1-2.645a38.981,38.981,0,0,1-4.335-5.008l-.05-.063c-.643-.827-1.273-1.635-1.9-2.33l-1.09-1.23c-.364-.423-.718-.853-1.058-1.281-.648-.812-1.265-1.627-1.86-2.416l-1.055-1.379c-.322-.4-.6-.749-.958-1.157-.624-.739-1.252-1.462-1.892-2.194l-.04-.041q-.5-.464-1.023-.906a4.236,4.236,0,0,0-4.87-.727c-.688.331-1.253.618-1.774.9-.447.24-.891.484-1.323.741l-2.055,1.2a35.4,35.4,0,0,0-4.41,2.811,13.614,13.614,0,0,0-1.972,1.9,17.26,17.26,0,0,0-1.638,2.293,40.177,40.177,0,0,0-1.911,3.655c-.289.6-.587,1.217-.909,1.855l-.149.319-.042.117c-.076.346-.2.762-.321,1.2-.436,1.518-.931,3.239-.44,4.487a5.619,5.619,0,0,0,1.053,1.614l.122.106c1.876,1.182,3.412,2.209,4.834,3.229,1.534,1.109,3.092,2.361,5.049,4.057l1.247,1.1c.428.4.845.817,1.237,1.248.848.931,1.581,1.857,2.123,2.558l.4.522c.519.683,1.01,1.323,1.513,1.951.648.805,1.352,1.585,2.017,2.315.59.645,1.367,1.508,2.149,2.48.354.44.7.908,1.017,1.384a14.286,14.286,0,0,1,.879,1.551,1.374,1.374,0,0,1-2.285,1.488l-.059-.07-.079-.048a2.352,2.352,0,0,0-2.627-.246,4.326,4.326,0,0,0-1.341,2.082l-.114.287c-.038.076-.069.156-.1.236l-.243,1.05c-.486,2.315-.992,4.714-1.668,7-.284.956-.514,1.911-.759,2.921l-.058.238a41.715,41.715,0,0,1-1.364,4.808c-.628,1.7-1.362,3.323-2.08,4.906l-.114.253c-.359.8-.716,1.592-1.052,2.386-.623,1.47-1.322,2.835-2.015,4.155-.532,1.028-1.083,2.091-1.564,3.163s-.967,2.129-1.475,3.216l-.111.236c-.623,1.339-1.212,2.6-1.761,3.878l-.134.318c-.079.187-.166.374-.238.559l-.039.132a1.671,1.671,0,0,1-.293.719l-.064.116c-.683,1.675-1.377,3.5-2.125,5.578-.256.711-.532,1.412-.8,2.093l-.139.354a33.772,33.772,0,0,0-1.678,4.96,16.725,16.725,0,0,0-.117,4.71v.1c.058.929.117,1.89.1,2.858-.01.622-.033,1.248-.061,1.926a29.763,29.763,0,0,0,0,3.821l.016.136c.045.193.089.385.129.534.165.97.367,1.939.605,2.88l.036.139a38.065,38.065,0,0,0,2.681,7.4,32.214,32.214,0,0,0,6.863,9.329,5.192,5.192,0,0,0,2.447,3.022,44.857,44.857,0,0,0,8.528,3.69c.681.232,1.25.41,1.8.562a5.565,5.565,0,0,0,.661.129c1.273.331,2.6.607,3.946.835l.179.035q.6.1,1.2.187c.458.245.914.5,1.377.727l.124.061h.059c.331.089.627.155.9.2a26.447,26.447,0,0,0,2.822.309h.07l.068-.013a3.282,3.282,0,0,0,1.916-.992c.734-.853.633-2.267.546-3.515a10.7,10.7,0,0,1-.045-1.119l-.033-.484c-.042-.5-.083-1.03-.123-1.6l-.021-.283a41.9,41.9,0,0,1,0-8.184,30.556,30.556,0,0,1,1.385-5.593l.032-.1c.258-.817.507-1.617.734-2.425.2-.7.377-1.44.561-2.224l.013-.058a32.158,32.158,0,0,1,1.743-5.744q.3-.687.605-1.336l.033-.089c.011-.043.02-.088.028-.131l-.541-.1h0l.557.027a2.3,2.3,0,0,0-.2-2.078,1.275,1.275,0,0,0-1.157-.341H1251l-.109.051a5.507,5.507,0,0,0-2.222,1.895l-.078.137c-.069.124-.139.248-.212.37a1.379,1.379,0,0,1-1.885.471,1.394,1.394,0,0,1-.527-1.791,34.867,34.867,0,0,0,1.488-4.007c.192-.585.39-1.185.6-1.8q.279-.791.605-1.582l2.811-7.288c.294-.835.583-1.762.911-2.918l.862-3.032.465-1.565c.165-.524.352-1.057.577-1.63.275-.711.557-1.384.827-2.027a24.922,24.922,0,0,0,1.334-3.657c.29-1.131.614-2.224.926-3.279.29-.975.562-1.9.8-2.811.122-.486.24-.977.331-1.436s.147-.9.2-1.344c.074-.774.1-1.61.132-2.5l.018-.536a25.5,25.5,0,0,1,.29-3.452,32.7,32.7,0,0,1,.79-3.33l.135-.483c.241-.863.471-1.677.643-2.453.1-.481.166-.918.222-1.339.053-.448.093-.924.124-1.456.05-.862.066-1.744.083-2.678.021-1.184.044-2.409.135-3.687a36.947,36.947,0,0,0-.045-4.361c-.028-.569-.054-1.157-.076-1.757a47.238,47.238,0,0,1,.189-5.09c.036-.5.073-.992.1-1.463A25.878,25.878,0,0,0,1261.506,1655.367ZM1211.859,1739.871Z" transform="translate(-1091.976 -1380.245)"/><path class="b" d="M2420.263,876.7c0,1.589-.055,3.183-.175,4.775a36.482,36.482,0,0,1-.648,4.775,1.968,1.968,0,0,1-3.847,0,35.577,35.577,0,0,1-.648-4.775q-.182-2.391-.175-4.775c0-1.594.054-3.187.175-4.775a36.614,36.614,0,0,1,.648-4.781,1.969,1.969,0,0,1,3.847,0,37.57,37.57,0,0,1,.643,4.781Q2420.266,874.3,2420.263,876.7Z" transform="translate(-2097.228 -750.475)"/><path class="b" d="M2113.468,938.407a16.16,16.16,0,0,1,.166,2.467,18.541,18.541,0,0,1-.182,2.462,11.048,11.048,0,0,1-.644,2.467,2.078,2.078,0,0,1-3.847,0,11.074,11.074,0,0,1-.644-2.467,17.674,17.674,0,0,1-.182-2.462,16.037,16.037,0,0,1,.166-2.467,9.958,9.958,0,0,1,.661-2.462,2.092,2.092,0,0,1,3.848,0A10.211,10.211,0,0,1,2113.468,938.407Z" transform="translate(-1841.29 -808.135)"/><path class="b" d="M1891.758,1030.909a26.269,26.269,0,0,1,.165,3.141,28.768,28.768,0,0,1-.182,3.141,17.322,17.322,0,0,1-.643,3.141,2.022,2.022,0,0,1-3.847,0,17.312,17.312,0,0,1-.643-3.141,28.861,28.861,0,0,1-.182-3.141,26.4,26.4,0,0,1,.165-3.141,16.087,16.087,0,0,1,.662-3.141,2.026,2.026,0,0,1,3.847,0A16.061,16.061,0,0,1,1891.758,1030.909Z" transform="translate(-1656.235 -884.677)"/><path class="b" d="M1889.375,1222.582a18.141,18.141,0,0,1,.208,2.885c-.011.992-.071,1.759-.094,2.577s-.021,1.605-.045,2.516-.078,1.8-.165,2.67a1.933,1.933,0,0,1-3.847,0h0c-.083-.835-.175-1.653-.275-2.45s-.225-1.7-.307-2.6-.1-1.819-.175-2.539c-.033-.379-.078-.731-.132-1.083s-.126-.693-.215-1.109-.187-.918-.253-1.418-.116-.992-.137-1.467c-.05-.979-.054-1.818-.05-2.731s.067-1.819.094-2.606.038-1.605.033-2.429-.016-1.561-.083-2.315c-.061-.719-.192-1.7-.225-2.654s-.022-1.819.038-2.824a14.765,14.765,0,0,1,.166-1.516c.082-.516.208-1.022.312-1.435s.187-.731.248-1.066.1-.671.142-1.038c.078-.7.109-1.572.125-2.353s0-1.561,0-2.495a27.083,27.083,0,0,1,.149-2.71,1.931,1.931,0,0,1,3.84-.017v.017c.088.827.182,1.622.3,2.4s.275,1.686.369,2.61.142,1.769.149,2.764a13.048,13.048,0,0,1-.078,1.511c-.055.516-.142,1.033-.22,1.451s-.121.752-.154,1.083-.054.671-.061,1.033c0,.7.022,1.549.078,2.292s.154,1.462.258,2.44a26.263,26.263,0,0,1,.132,2.811c0,.9-.028,1.781-.078,2.687l-.154,2.506c-.038.792-.066,1.665-.061,2.391,0,.379.021.731.038,1.083S1889.316,1222.152,1889.375,1222.582Z" transform="translate(-1653.951 -1021.797)"/><path class="b" d="M1736.08,1444.823a37.171,37.171,0,0,1,.165,3.835q0,1.92-.182,3.836a25.084,25.084,0,0,1-.643,3.835,1.984,1.984,0,0,1-3.847,0,25.048,25.048,0,0,1-.638-3.835q-.181-1.919-.187-3.836c-.005-1.28.049-2.561.165-3.835a23.387,23.387,0,0,1,.661-3.841,1.994,1.994,0,0,1,3.847,0A22.838,22.838,0,0,1,1736.08,1444.823Z" transform="translate(-1526.296 -1229.509)"/><path class="b" d="M1532.78,1499.456a19.257,19.257,0,0,1,0,2.029l-.071,1.714c-.021.566-.021,1.109-.021,1.715s0,1.275-.045,1.918-.1,1.275-.192,1.9a1.944,1.944,0,0,1-3.847.016v-.016l-.258-1.726c-.088-.565-.175-1.109-.286-1.7s-.192-1.265-.258-1.906-.1-1.286-.137-1.913c-.038-.555-.088-1.088-.142-1.594s-.149-.972-.27-1.561a16.739,16.739,0,0,1-.3-2.028c-.066-.7-.088-1.379-.1-2.039s.022-1.291.055-1.963.125-1.362.208-1.967.165-1.1.208-1.643.083-1.1.121-1.665c.038-.638.071-1.286.149-1.946s.192-1.336.3-1.934.231-1.109.331-1.665l.27-1.7v-.028a1.943,1.943,0,0,1,3.84.028c.094.626.154,1.27.187,1.922s.016,1.341.011,1.951-.028,1.132-.011,1.682.033,1.116.066,1.686c.033.638.05,1.286.028,1.956s-.066,1.362-.121,1.972-.1,1.1-.116,1.654-.028,1.092-.033,1.653,0,1.088.038,1.589.1.972.182,1.566S1532.747,1498.766,1532.78,1499.456Z" transform="translate(-1356.112 -1261.733)"/><path class="b" d="M1418.856,1408.6c.126,1.6.165,3.2.165,4.808s-.061,3.2-.192,4.808a40.168,40.168,0,0,1-.627,4.808,1.964,1.964,0,0,1-3.847,0,37.995,37.995,0,0,1-.626-4.808c-.137-1.605-.187-3.209-.2-4.808s.033-3.209.165-4.808a32.747,32.747,0,0,1,.661-4.808,1.969,1.969,0,0,1,3.847,0A34.269,34.269,0,0,1,1418.856,1408.6Z" transform="translate(-1261.522 -1198.402)"/><path class="b" d="M1082.005,1069.821c.132,1.743.182,3.49.182,5.231s-.05,3.484-.182,5.231a41.566,41.566,0,0,1-.643,5.231,1.961,1.961,0,0,1-3.847,0,42.626,42.626,0,0,1-.643-5.231c-.132-1.748-.182-3.49-.182-5.231s.055-3.49.187-5.231a42.62,42.62,0,0,1,.638-5.231,1.961,1.961,0,0,1,3.847,0A42.648,42.648,0,0,1,1082.005,1069.821Z" transform="translate(-980.371 -915.252)"/><path class="b" d="M965.511,1045.033c.011,1.72-.045,3.188-.1,4.753s-.149,3.133-.22,4.611c-.078,1.44-.094,3.126-.286,4.694v.033a1.933,1.933,0,0,1-3.841-.033c-.165-1.539-.357-2.946-.506-4.6-.121-1.622-.192-3.133-.258-4.687s-.078-3.166-.165-4.55l-.187-2.247c-.061-.851-.083-1.693-.088-2.5s.022-1.643.078-2.48.121-1.544.149-2.258.066-1.462.078-2.2,0-1.435,0-2.2-.021-1.643.011-2.445c.038-.835.094-1.528.1-2.225s-.016-1.362-.033-2.247a18.858,18.858,0,0,1,.132-2.516,1.934,1.934,0,0,1,3.841-.021v.021c.088.742.187,1.445.312,2.126s.3,1.523.4,2.386.132,1.709.182,2.424c.05.747.1,1.44.187,2.2s.142,1.638.165,2.44.045,1.605.038,2.445-.083,1.693-.116,2.386-.033,1.423-.038,2.171,0,1.445.038,2.149S965.5,1044.182,965.511,1045.033Z" transform="translate(-882.854 -879.53)"/><path class="b" d="M898.527,1627.438a37.451,37.451,0,0,1,.165,3.84c0,1.275-.061,2.556-.182,3.836a24.506,24.506,0,0,1-.643,3.836,1.984,1.984,0,0,1-2.429,1.419,2.009,2.009,0,0,1-1.418-1.419,25.168,25.168,0,0,1-.638-3.836q-.182-1.921-.182-3.836c0-1.28.045-2.561.165-3.84a24.015,24.015,0,0,1,.661-3.836,1.994,1.994,0,0,1,3.847,0A22.882,22.882,0,0,1,898.527,1627.438Z" transform="translate(-827.217 -1381.937)"/><path class="b" d="M617.462,1552.91c.055.627.071,1.232.066,1.819,0,1.093-.033,2.263-.1,3.358-.066,1.055-.088,2.028-.109,3.088-.012.577-.033,1.176-.083,1.792s-.142,1.253-.231,1.785-.142.946-.192,1.407-.071.939-.088,1.435c-.012.468-.012.917.017,1.336a12.779,12.779,0,0,0,.182,1.313,16.812,16.812,0,0,1,.269,1.863,17.892,17.892,0,0,1,.028,1.868c-.055,1.1-.137,2.28-.286,3.37-.142,1.045-.248,2.017-.331,3.072v.016a1.929,1.929,0,0,1-3.847-.016c-.038-.549-.071-1.1-.094-1.676s-.016-1.149-.012-1.686c0-1.05-.012-2.022-.071-3.072-.033-.473-.066-.929-.137-1.346a10.8,10.8,0,0,0-.3-1.3,14.139,14.139,0,0,1-.385-1.857c-.088-.648-.121-1.275-.142-1.88s-.017-1.17,0-1.785.1-1.258.165-1.8.109-.951.132-1.412.021-.934.016-1.428c-.028-1.088,0-2.258.05-3.353.055-1.055.066-2.034.061-3.083-.012-.484-.016-.956-.05-1.4s-.083-.846-.165-1.379-.182-1.2-.22-1.818-.055-1.232-.055-1.819a17.79,17.79,0,0,1,.1-1.835c.066-.636.175-1.3.281-1.83s.165-.913.22-1.352.083-.906.1-1.39.017-.946,0-1.385a12.3,12.3,0,0,0-.149-1.369c-.078-.527-.165-1.2-.192-1.819s-.028-1.237,0-1.819c.061-1.067.094-2.067.109-3.127.012-1.088.071-2.232.165-3.307a1.929,1.929,0,0,1,3.847,0c.088,1.061.187,2.072.3,3.127.121,1.083.192,2.225.253,3.307a13.453,13.453,0,0,0,.126,1.4c.061.445.149.842.269,1.362a17.329,17.329,0,0,1,.313,1.819c.071.632.1,1.237.121,1.83s.021,1.2-.021,1.83-.137,1.3-.22,1.835a12.738,12.738,0,0,0-.165,1.362c-.028.435-.028.9-.021,1.385s.021.956.061,1.4.094.847.182,1.374S617.411,1552.284,617.462,1552.91Z" transform="translate(-592.132 -1302.793)"/><path class="b" d="M499.678,1613.768c.045.719.071,1.39.066,2.126s-.083,1.506-.132,2.088-.061,1.109-.061,1.7,0,1.22.012,1.852l.033,1.906.012,1.973c0,.661-.017,1.323-.028,1.9a16.38,16.38,0,0,0,.05,1.726c.05.594.094,1.346.1,2.067,0,.357,0,.71-.012,1.062s-.033.7-.055.992c-.038.61-.055,1.192-.061,1.78s.022,1.265,0,1.984-.083,1.4-.165,2.072a1.936,1.936,0,0,1-3.841.028v-.028c-.083-.622-.165-1.232-.265-1.809s-.22-1.175-.331-1.89-.165-1.407-.215-2.088l-.066-.955c-.021-.3-.045-.589-.078-.875-.05-.572-.154-1.1-.241-1.8s-.165-1.445-.187-2.149-.038-1.346-.05-1.984l-.045-1.906c-.028-.648-.028-1.322-.022-1.972s0-1.3.028-2.029a21.785,21.785,0,0,1,.2-2.171c.1-.7.187-1.208.253-1.769s.109-1.176.137-1.753a14.047,14.047,0,0,0,.021-1.654c0-.522-.1-1.241-.109-2.005a15.318,15.318,0,0,1,.137-2.166,1.938,1.938,0,0,1,3.836-.05l.012.05c.094.605.187,1.182.319,1.71s.291,1.076.451,1.835A18.683,18.683,0,0,1,499.678,1613.768Z" transform="translate(-494.098 -1368.751)"/></g><path class="b" d="M804.456,1101.6a34.361,34.361,0,0,1-.352,5.786c-.1.889-.2,1.736-.269,2.578-.066.813-.094,1.643-.132,2.523a36.864,36.864,0,0,1-.539,5.808,27.585,27.585,0,0,1-1.7,5.105c-.4.962-.769,1.868-1.061,2.776-.2.627-.39,1.265-.582,1.9a49.428,49.428,0,0,1-2.083,5.952,76.4,76.4,0,0,1-3.852,7.352,74.431,74.431,0,0,1-4.6,6.9q-.98,1.323-1.939,2.577c-1.066,1.4-2.072,2.72-2.976,4.022a46.808,46.808,0,0,0-2.445,4.061c-.556.992-1.126,2.012-1.743,2.976-1.488,2.358-2.863,4.71-4.072,6.979-.341.648-.693,1.286-1.033,1.913a45.607,45.607,0,0,0-2.583,5.209,21.891,21.891,0,0,0-1.045,4.781c-.137.95-.281,1.934-.5,2.923l-.1.461c-.083.407-.165.813-.253,1.22a.686.686,0,0,0,.231.428c.428.286.775-.215,1.149-.544a20.837,20.837,0,0,0,1.572-1.549c.731-1.225,1.511-2.424,2.346-3.573a45.322,45.322,0,0,1,4.034-4.836q1.1-1.137,2.27-2.2.593-.528,1.209-1.038c.412-.341.813-.661,1.323-1.017a1.921,1.921,0,1,1,2.292,3.084l-.071.054c-.3.231-.686.549-1.028.858s-.7.627-1.045.955c-.681.661-1.346,1.346-1.984,2.06a41.956,41.956,0,0,0-8.551,14.744c-.312.9-.549,1.819-.808,2.726-.2.929-.451,1.842-.594,2.781a41.468,41.468,0,0,0-.648,5.644,48.387,48.387,0,0,0,.605,9.875c.121.39.241.78.352,1.187a49.207,49.207,0,0,1,1.466,8.068l.066.661a38.483,38.483,0,0,1,.258,7.661,18.9,18.9,0,0,1-1.809,5.786c-.331.759-.648,1.473-.88,2.149-.165.473-.319.946-.468,1.412a26.5,26.5,0,0,1-2.7,6.282c-.281.435-.555.88-.827,1.323a26.669,26.669,0,0,1-4.133,5.512,37,37,0,0,1-6.853,4.781l-.066.033a33.012,33.012,0,0,1-7.056,2.84l-.7.225c-.582.182-1.157.385-1.748.588a25.68,25.68,0,0,1-6.347,1.594,24.167,24.167,0,0,1-6.55-.615c-.605-.116-1.215-.231-1.819-.33-.39-.066-.78-.121-1.171-.182a26.777,26.777,0,0,1-7.051-1.748,32.239,32.239,0,0,1-7.347-4.341,16.964,16.964,0,0,1-2.589-2.71,12.488,12.488,0,0,1-.992-.792c-1.341-1.187-2.187-1.8-4.089-1.357-.752.175-1.506.379-2.253.582a25.651,25.651,0,0,0-4.566,2.71l-.884.661a18.517,18.517,0,0,0-5.919,8.688,34.477,34.477,0,0,1-.7,3.44,25.98,25.98,0,0,0-.582,2.88c-.088.808-.165,1.605-.241,2.386a44.792,44.792,0,0,1-.851,6.089c-.248,1.055-.44,2.126-.627,3.166a30.561,30.561,0,0,1-1.258,5.264,25.853,25.853,0,0,1-3.237,5.815c-.461.661-.858,1.237-1.116,1.71s-.5.945-.731,1.428a16,16,0,0,1-3.847,5.524,75.82,75.82,0,0,1-6.539,4.649,31.739,31.739,0,0,1-3.89,2.071c-1.071.506-2.083.984-3.034,1.549-1.28.759-2.611,1.39-3.9,2-1.055.5-2.05.972-3,1.5a30.6,30.6,0,0,0-2.9,1.934,30.4,30.4,0,0,1-3.561,2.33c-1.121.594-2.209,1.275-3.254,1.929-1.157.726-2.254,1.407-3.4,1.984a43.477,43.477,0,0,1-5.077,2.149c-.846.312-1.577.582-2.06.827a3.928,3.928,0,0,0-1.868,2.976c-.109.626-.258,1.253-.4,1.852a10.853,10.853,0,0,0-.478,3.32,27.82,27.82,0,0,0,.661,3.5c.187.8.362,1.544.468,2.242.556,3.726-.984,6.754-4.11,8.1a11.919,11.919,0,0,1-4.682.868,16.1,16.1,0,0,1-3.183-.312,12.984,12.984,0,0,1-8.189-5.067c-2.315-3.22-1.967-6.944-1.506-9.48.094-.5.165-1.012.253-1.539a21.908,21.908,0,0,1,1.89-6.891,26.335,26.335,0,0,1,3.637-5.034c.516-.6.992-1.157,1.391-1.676a23.3,23.3,0,0,1,4.649-3.857c.8-.582,1.686-1.22,2.622-1.918.813-.605,1.653-1.379,2.561-2.2a41.45,41.45,0,0,1,4.1-3.412c1.681-1.175,3.44-2.363,5.15-3.511q1.005-.676,2.005-1.352c1.429-.972,2.863-1.786,4.254-2.577,1.132-.643,2.209-1.253,3.154-1.88,1.533-1.017,2.923-2,4.15-2.864,1.142-.8,2.126-1.5,2.968-2.039.875-.56,1.407-1.819,2.022-3.275l.078-.182c.083-.2.165-.373.236-.555a2.889,2.889,0,0,0-.088-1.929,1.555,1.555,0,0,0-1.157-.661,28.762,28.762,0,0,1-3.594.44,21.919,21.919,0,0,0-3.221.4c-1.055.248-2.1.532-3.2.835-1.452.4-2.951.8-4.5,1.121-1.242.253-2.48.588-3.776.946-1.248.34-2.539.693-3.857.972-1.786.379-3.528.842-5.375,1.323q-1.079.287-2.159.565c-1.232.312-2.45.5-3.637.681a23.042,23.042,0,0,0-3.94.827,50.639,50.639,0,0,0-5.342,2.275c-.549.258-1.1.516-1.653.769a2.76,2.76,0,0,1-1.142.253c-.071,0-.142-.011-.215-.017a3.967,3.967,0,0,1-1.83.473c-.236,0-.5,0-.764.016-.555.011-1.192.028-1.9.028a34.081,34.081,0,0,1-5.583-.423,25.857,25.857,0,0,1-5.363-1.731c-.792-.319-1.61-.648-2.429-.934-.468-.165-.939-.33-1.423-.5a31.762,31.762,0,0,1-6.21-2.61,23.131,23.131,0,0,1-4.464-3.71c-.572-.565-1.171-1.149-1.769-1.681-.532-.478-1.149-.951-1.8-1.445a22.132,22.132,0,0,1-4.353-4.044c-.565-.742-1.208-1.605-1.868-2.561-.671-.929-1.336-1.917-2-2.956-1.071-1.7-1.89-3.1-2.566-4.4a17.024,17.024,0,0,1-1.142-3.044,16.944,16.944,0,0,0-.589-1.719,9.716,9.716,0,0,0-.918-1.506,12.7,12.7,0,0,1-1.6-2.9,9.714,9.714,0,0,1-.428-3.507,6.647,6.647,0,0,0-.094-1.561c-.478-1.566-.922-3.11-1.352-4.727-.165-.627-.4-1.275-.638-1.956-.3-.858-.615-1.748-.851-2.71-.165-.638-.39-1.308-.638-2.012a24.065,24.065,0,0,1-.827-2.645c-.192-.827-.4-1.638-.61-2.457-.187-.743-.379-1.488-.556-2.232a22.591,22.591,0,0,1-.435-2.606,18.249,18.249,0,0,0-.352-2.138,13.025,13.025,0,0,0-.769-1.946,19.331,19.331,0,0,1-.984-2.495,18.04,18.04,0,0,1-.506-2.645,11.227,11.227,0,0,0-.39-2.012c-.2-.589-.39-1.182-.572-1.776-.3-.951-.577-1.852-.923-2.67a6.921,6.921,0,0,0-1.061-1.473,12.835,12.835,0,0,1-1.67-2.358c-.269-.516-.516-1.05-.769-1.577a21.819,21.819,0,0,0-1.3-2.48,17.094,17.094,0,0,1-1.038-1.929,4.278,4.278,0,0,0-2.022-1.358c-1.137-.253-2.48.248-3.715.451l-.109.028c-.638.182-1.232.331-1.748.5-.258.083-.5.165-.714.258l-.827.362c-1.323.572-2.561.962-3.424,1.391a5.718,5.718,0,0,0-1.109.719c-.369.3-.752.676-1.2,1.126a15.937,15.937,0,0,1-1.7,1.511,2.807,2.807,0,0,0-.681.719,6.712,6.712,0,0,0-.331.588,8.126,8.126,0,0,1-.747,1.215,4.118,4.118,0,0,1-.992.918,3.263,3.263,0,0,1-.686.357c-.116.05-.241.094-.357.132l-.331.078a4.425,4.425,0,0,1-1.149.094,3.193,3.193,0,0,1-.428-.033,11.6,11.6,0,0,1-8.255-3.254l-.686-.379a5.471,5.471,0,0,0-4.034-.346c-.643.2-1.066.352-1.488.5-.615.208-1.232.411-2.467.8a21.515,21.515,0,0,1-2.764.7,16.493,16.493,0,0,0-2.166.549,13.739,13.739,0,0,0-2.034.792,18.834,18.834,0,0,1-2.71,1.055c-1.157.362-1.7.565-2.291.78s-1.248.456-2.516.851a10.686,10.686,0,0,1-3.27.549,5.368,5.368,0,0,0-1.792.3,6.417,6.417,0,0,0-1.435.643c-.154.094-.307.175-.468.258a16.7,16.7,0,0,0-1.913,1.488c-4.824,6.55-10.66,8.227-13.8,8.633a6.428,6.428,0,0,1-.852.055,6.663,6.663,0,0,1-5.424-2.811c-7.309-10.265-14.384-24.312-17.943-31.77a6.358,6.358,0,0,1,6.458-9.057l1.67.192a12.9,12.9,0,0,1,8.1,4.166,97.566,97.566,0,0,0,14.8,13.3,6,6,0,0,0,3.472.126,15.467,15.467,0,0,0,1.39-.709,10.393,10.393,0,0,1,2.906-1.17,5.216,5.216,0,0,0,1.561-.631c1.116-.632,1.7-.918,2.263-1.2.511-.253.992-.5,1.962-1.038,1.055-.605,1.589-.9,2.121-1.192s1.028-.565,2.05-1.149c.972-.555,1.435-.851,1.923-1.157.522-.331,1.066-.681,2.166-1.308s1.653-.912,2.215-1.2c.516-.265,1.005-.516,1.984-1.076.555-.312.979-.544,1.323-.731a4.5,4.5,0,0,0,1.248-1.956,4.029,4.029,0,0,0,.136-1.04c-.071-.577-.121-1.149-.154-1.715a7.941,7.941,0,0,1-.094-2.067,1.92,1.92,0,0,1,.088-.379,11.692,11.692,0,0,1,5.034-9.243,2.864,2.864,0,0,1,2.138-.632h.038c1.038.121,2,.275,2.857.362.435.045.841.071,1.225.078a4.725,4.725,0,0,0,.956-.055c.661-.1,1.516-.369,2.627-.638.274-.071.572-.132.884-.187l.747-.121c.39-.066.8-.149,1.225-.253l2.84-.742c1.176-.286,2.263-.4,3.141-.527.44-.061.842-.132,1.187-.208l.248-.066.286-.083c.286-.088.56-.165.827-.231,1.071-.269,2.038-.445,2.847-.661.2-.055.4-.1.577-.165l.265-.088.357-.121c.511-.165,1.012-.33,1.5-.468.972-.291,1.89-.539,2.71-.813.241-.083.308-.1.461-.165a4.693,4.693,0,0,0,.445-.215c.331-.165.7-.4,1.149-.661a14.927,14.927,0,0,1,1.577-.842,8.178,8.178,0,0,1,1.045-.4l.736-.208c.906-.265,1.885-.566,3-.827a15.807,15.807,0,0,1,1.8-.3,8.351,8.351,0,0,1,2.253.109,25.7,25.7,0,0,1,3.141.906c.627.208,1.589.346,2.726.638a12.066,12.066,0,0,1,3.533,1.473,23.13,23.13,0,0,1,2.632,2.05c.369.312.714.6,1.05.868l.632.516.627.544c.808.726,1.523,1.445,2.209,2.116l.5.484c.132.126.281.265.44.4.312.281.681.577,1.071.906s.808.681,1.237,1.088c.208.2.423.418.638.643.1.109.208.231.313.345s.165.208.248.313l1.9,2.412.939,1.208.121.149.149.215c.1.149.192.291.286.435q.263.436.468.842c.544,1.083.875,1.984,1.215,2.645.088.165.165.312.253.451.061.094.126.192.225.319.2.241.468.532.809.88s.726.747,1.132,1.232a10.192,10.192,0,0,1,.615.813c.1.154.2.3.3.468s.192.341.258.484a18.052,18.052,0,0,1,1.076,2.864,1.247,1.247,0,0,0,.846.532c.726.061.979-.686,1.258-1.291.2-.423.39-.846.582-1.27l.071-.357c.192-.913.418-1.818.638-2.709.094-.385.187-.764.274-1.143.275-2.962-.142-5.864-2.611-8a1.752,1.752,0,0,1-.319-.369c-.331-.331-.661-.622-.992-.9l-.565-.452-.61-.473c-1.627-1.253-3.307-2.44-4.99-3.649s-3.363-2.419-5.077-3.583c-.863-.572-1.731-1.137-2.6-1.67l-.331-.2-.165-.094-.045-.028a.137.137,0,0,0-.033-.022l-.012-.012h-.012c-.078-.061-.237-.182-.516-.4-1.275-1.923-.544-1.132-.813-1.726a2.856,2.856,0,0,1-.017-.3,4.5,4.5,0,0,1,.028-.511l.045-.319c.028-.187.055-.352.088-.516.132-.638.286-1.208.451-1.776.269-.913.589-1.8.922-2.665a9.3,9.3,0,0,0-.05-1.835,4.337,4.337,0,0,0-2.447-3.606,11.2,11.2,0,0,1-2.462-1.809c-.946-.889-1.412-1.407-1.819-1.863-.385-.428-.719-.8-1.5-1.532a9.8,9.8,0,0,0-1.511-1.209,15.2,15.2,0,0,1-2.209-1.764,9.522,9.522,0,0,1-1.984-2.54,4.343,4.343,0,0,0-.972-1.248,13.728,13.728,0,0,0-1.566-1.3,19.167,19.167,0,0,1-2.093-1.743,15.472,15.472,0,0,0-1.582-1.323,20.546,20.546,0,0,1-2.067-1.731c-.385-.362-.686-.632-.946-.863-.071-.061-.142-.126-.208-.187-.109-.071-.22-.142-.331-.22a6.059,6.059,0,0,0-4.044-.714,1.684,1.684,0,0,1-.565-.066c-.236,0-.473.022-.7.016a25.347,25.347,0,0,1-6.117-.826l-.742-.2a9.754,9.754,0,0,1-.984-.362A8.092,8.092,0,0,1,532.58,1128a8.424,8.424,0,0,1,.215-1.033l.2-.7.39-1.341a193.787,193.787,0,0,1,7.451-21.036c.39-.875.8-1.752,1.279-2.66.248-.456.5-.912.835-1.418.094-.132.165-.253.269-.39l.341-.435a9.819,9.819,0,0,1,.7-.726,14.227,14.227,0,0,1,2.811-1.956,27.713,27.713,0,0,1,2.759-1.3,49.005,49.005,0,0,1,5.5-1.852c.918-.253,1.835-.5,2.759-.714l.385-.088c.2-.038.407-.083.615-.1a5.862,5.862,0,0,1,6.413,4.644c.033.2.071.423.088.594l.021.407c.017.269.038.539.045.813a14.286,14.286,0,0,1-.088,1.67,11.959,11.959,0,0,1-2.539,6.283l-.011.011a12.1,12.1,0,0,1-.863,1.3,10.788,10.788,0,0,0-2.263,5.094,75,75,0,0,0,.121,10.746,3.851,3.851,0,0,0,2.076,2.325,8.63,8.63,0,0,1,3.457,2.645,2.444,2.444,0,0,1,.187.352c.385.2.846.445,1.435.8a5.6,5.6,0,0,0,1.589.693,11.053,11.053,0,0,1,2.857,1.253,14.643,14.643,0,0,1,2.336,1.686,9.473,9.473,0,0,0,1.592,1.156,15.159,15.159,0,0,1,2.325,1.67,9.921,9.921,0,0,0,1.6,1.142c1.028.615,1.539.918,2.055,1.225s1.045.61,2.076,1.232,1.516.9,2.029,1.187c.539.307,1.071.61,2.133,1.242.313.187.565.331.785.445a11.019,11.019,0,0,0,4.446.033c.736-.379,1.488-.752,2.242-1.1,1.028-.461,2.055-.9,3.187-1.286.291-.1.572-.2.956-.3l.165-.038.2-.045.132-.028.225-.028a4.3,4.3,0,0,1,.572,0c.5-.3,2.847,1.759,2.017,1.157l.192.253c.27.357.582.736.906,1.121,1.323,1.544,2.776,3.141,4.166,4.795.341.4.731.863,1.076,1.3l.992,1.291c.661.851,1.275,1.67,1.906,2.457.319.4.632.781.956,1.157l.484.549.523.577c.808.884,1.5,1.776,2.149,2.616a34.567,34.567,0,0,0,3.864,4.45c1.39,1.291,3.083,2.556,4.781,4,.423.362.846.731,1.27,1.121s.827.764,1.232,1.17a23.89,23.89,0,0,1,2.369,2.7,14.182,14.182,0,0,1,1.918,3.429,16.259,16.259,0,0,1,.913,3.7c.165,1.2.232,2.346.274,3.434a32.664,32.664,0,0,1-.066,3.472,60.048,60.048,0,0,0-.274,6.084,64.39,64.39,0,0,1,.109,6.628c-.142,1.929-.078,4.039-.232,6.325-.038.572-.088,1.149-.165,1.736a17.24,17.24,0,0,1-.331,1.842c-.265,1.17-.589,2.237-.88,3.231a28.028,28.028,0,0,0-.686,2.786,21.449,21.449,0,0,0-.253,2.8c-.045,1.029-.071,2.149-.2,3.346a17.757,17.757,0,0,1-.286,1.847c-.126.589-.258,1.133-.407,1.681-.577,2.182-1.28,4.183-1.819,6.106a25.109,25.109,0,0,1-1.215,3.33l-1.27,2.864c-.192.451-.369.89-.516,1.313l-.484,1.457c-.319.992-.627,2.012-.984,3.044s-.726,2.076-1.157,3.126l-.868,1.939c-.4,1.248-.638,2.589.265,3.627a1.529,1.529,0,0,1,.2.071c2.645,1.209,4.985,0,7.617-.142a9.307,9.307,0,0,1,1.116-.038,13.136,13.136,0,0,1,4.1.671,8.037,8.037,0,0,0,1.786.4c.269-.078.532-.154.792-.225a31.95,31.95,0,0,0,5.138-1.747c.906-.435,1.792-.809,2.645-1.171a24.793,24.793,0,0,0,3.8-1.847c1.157-.752,2.253-1.528,3.32-2.275.967-.676,1.88-1.312,2.811-1.929a29.692,29.692,0,0,1,7.127-3.748l.319-.1c.572-.187,1.157-.385,1.781-.56a2.293,2.293,0,0,0,.813-.61c.842-1.033.4-2.045-.109-3.121-.1-.22-.2-.44-.307-.661l-2-3.1-1.1-1.714-.137-.215-.116-.165c-.071-.109-.165-.215-.248-.33-.165-.22-.357-.44-.555-.661-.8-.9-1.819-1.83-2.847-3.044-.253-.3-.511-.627-.759-.972s-.516-.759-.7-1.071c-.39-.671-.747-1.346-1.071-2.017-.648-1.352-1.187-2.693-1.686-3.968l-.374-.939-.2-.532c-.078-.192-.142-.385-.208-.582a18.2,18.2,0,0,1-.622-2.341,29.462,29.462,0,0,1-.468-4.512l-.071-2.1c-.017-.726-.017-1.488.028-2.28a14.672,14.672,0,0,1,1.066-4.923,12.033,12.033,0,0,1,1.3-2.325c.473-.671.951-1.258,1.407-1.809a33.684,33.684,0,0,0,2.363-3.006q1.179-1.764,2.435-3.472c.835-1.137,1.7-2.275,2.582-3.353l2.627-3.247,1.313-1.622,1.265-1.539c.8-.992,1.6-2.088,2.462-3.214.435-.561.884-1.133,1.362-1.71s.992-1.132,1.488-1.653c.992-1.061,2-2.022,2.9-2.956a24.8,24.8,0,0,0,2.386-2.847c.742-1.022,1.445-2.121,2.2-3.292l.582-.89.589-.879q.544-.8,1.022-1.6a16.746,16.746,0,0,0,1.523-3.141,8.983,8.983,0,0,0,.5-3.072,22.279,22.279,0,0,0-.4-3.611c-.109-.661-.232-1.407-.331-2.138s-.175-1.461-.232-2.2a35.972,35.972,0,0,1-.078-4.495l.033-.582c.022-.236.038-.461.083-.719a7.307,7.307,0,0,1,.423-1.67,6.358,6.358,0,0,1,1.017-1.719A6.989,6.989,0,0,1,686,1133.42a10.477,10.477,0,0,1,2.566-1.248c.4-.137.785-.265,1.157-.369l.565-.154.605-.142a13.428,13.428,0,0,1,5.29-.142,11.357,11.357,0,0,1,2.677.863,12.945,12.945,0,0,1,1.22.661c.2.121.379.253.565.379s.331.241.5.362a17.5,17.5,0,0,1,3.523,3.49,14.664,14.664,0,0,1,2.336,4.6,15.362,15.362,0,0,1,.532,5.077,37,37,0,0,1-.522,4.441c-.225,1.323-.412,2.71-.747,4.226a18.764,18.764,0,0,1-1.61,4.6,20.721,20.721,0,0,1-1.237,2.067c-.428.638-.88,1.253-1.346,1.847a34.309,34.309,0,0,1-3.012,3.346c-.269.258-.539.516-.808.769l-.362.33-.331.313c-.428.423-.858.875-1.28,1.346-.852.951-1.693,1.984-2.556,3.05l-.676.826c-.27.331-.544.627-.827.913-.549.577-1.088,1.083-1.6,1.561a24.341,24.341,0,0,0-2.561,2.605,11.493,11.493,0,0,0-.9,1.362c-.291.511-.577,1.066-.863,1.653-.572,1.17-1.142,2.48-1.918,3.847l-.539.922-.478.842c-.319.566-.627,1.149-.934,1.742-.622,1.187-1.232,2.419-1.906,3.693l-2,3.637c-.661,1.2-1.322,2.379-1.863,3.5a10.075,10.075,0,0,0-1.071,2.956,2.437,2.437,0,0,0-.016.478c0,.078.021.126.021.192a.507.507,0,0,0,.021.083v.045l.033.116q.248.889.56,1.78c.418,1.182.913,2.358,1.466,3.55l.875,1.819.412.826c.137.253.275.506.428.759a21.7,21.7,0,0,0,2.166,2.951l1.336,1.539c.473.549.929,1.1,1.369,1.643l2.556,3.237c.841,1.055,1.653,2.022,2.556,3.006.461.511.946,1.045,1.435,1.6.021.028.049.045.071.071,1.984,2.28,4.067,4.557,6.778,5.342a11.451,11.451,0,0,0,3.611-.549,2.564,2.564,0,0,0,.39-.423,2.711,2.711,0,0,0,.241-2.3c-.061-.148-.126-.3-.187-.445a38.427,38.427,0,0,1-1.83-5.978c-.116-.506-.225-1.017-.331-1.523-.045-.2-.1-.643-.142-1.017a7.507,7.507,0,0,1,.012-1.157,7.291,7.291,0,0,1,5.82-6.512c.182-.038.4-.078.56-.1l.385-.05.769-.094c.511-.066,1.028-.116,1.539-.154,2.05-.165,4.089-.258,6.117-.225s4.051.109,6.068.265l.208.016a3.81,3.81,0,0,0,1.528-.484c1.109-.719.346-1.407-.187-2.28-.286-.462-.532-.934-.769-1.407-.253-.341-.5-.676-.752-1.012-.979-1.3-1.984-2.632-2.93-4.084a34.3,34.3,0,0,1-3.6-7.084l-.232-.622a24.1,24.1,0,0,1-1.819-7.274,33.386,33.386,0,0,1,.643-8.035,37.322,37.322,0,0,1,2.346-7.771l.418-1.028a36.973,36.973,0,0,1,3.044-6.282c.3-.461.6-.929.9-1.39.527-.827,1.066-1.653,1.627-2.49a43.267,43.267,0,0,0,2.748-6.583c.27-.752.44-1.528.661-2.292.165-.776.374-1.549.5-2.329a33.321,33.321,0,0,0,.522-4.732,32.394,32.394,0,0,0-1.012-9.442,32.009,32.009,0,0,0-1.539-4.523c-.319-.731-.661-1.445-1.028-2.149-.187-.352-.374-.693-.577-1.028l-.3-.5-.281-.423-.078-.116a1.921,1.921,0,0,1,3.121-2.237c.187.241.307.412.451.61l.39.582c.253.385.5.776.719,1.157.461.785.88,1.589,1.275,2.4a36.645,36.645,0,0,1,3.434,13.172,4.8,4.8,0,0,0,.643,1.323c.544.686.923.286,1.488-.286a8.006,8.006,0,0,0,1.187-1.561c.192-.61.362-1.232.516-1.873.182-.775.418-1.539.648-2.28a15.124,15.124,0,0,0,.918-4.512,16.7,16.7,0,0,0-.726-3.841c-.265-1.005-.532-2.045-.742-3.176a54.621,54.621,0,0,0-1.764-7.274c-.248-.747-.478-1.488-.7-2.209a31.276,31.276,0,0,0-1.781-4.869,21.08,21.08,0,0,0-2.61-3.7c-.627-.764-1.275-1.556-1.857-2.4l-.435-.631c-1.4-2.029-2.72-3.947-4.056-5.666a39.917,39.917,0,0,1-3.247-5.125c-.357-.648-.714-1.28-1.076-1.885a18.826,18.826,0,0,1-2.134-17.044,20.062,20.062,0,0,1,4.055-7.9,32.414,32.414,0,0,1,6.578-5.429,45.119,45.119,0,0,1,7.264-4.061c.643-.281,1.3-.631,1.984-1.005a2.446,2.446,0,0,1,.939-.511,22.053,22.053,0,0,1,4.644-2,55.815,55.815,0,0,1,7.666-1.362l.539-.066a58.848,58.848,0,0,1,8.3-.511,26.5,26.5,0,0,1,2.835.2,2.553,2.553,0,0,1,.759.094c1.033.149,2.05.331,3.05.506.539.094,1.076.192,1.622.281.681.115,1.369.208,2.055.3a31.18,31.18,0,0,1,6.193,1.3,23.356,23.356,0,0,1,5.281,2.913c.7.478,1.362.922,2.039,1.323l.5.291a35.053,35.053,0,0,1,6.43,4.507,49.778,49.778,0,0,1,5.534,6.335l.428.56a46.472,46.472,0,0,1,4.37,6.369,38.365,38.365,0,0,1,2.467,6.188c.182.549.369,1.1.555,1.653a55.764,55.764,0,0,1,2.325,8.035c.165.827.369,1.676.589,2.566A25.292,25.292,0,0,1,804.456,1101.6Zm-5.808,5.138a29.656,29.656,0,0,0,.319-4.864,25.005,25.005,0,0,0-.851-4.654c-.225-.929-.461-1.885-.643-2.864a52.244,52.244,0,0,0-2.116-7.248c-.2-.577-.4-1.157-.582-1.731a33.6,33.6,0,0,0-2.1-5.32,41.425,41.425,0,0,0-3.869-5.6l-.435-.565a45.978,45.978,0,0,0-4.93-5.671,27.34,27.34,0,0,0-4.748-3.358,1.936,1.936,0,0,0-1.137-.033c-.726.3-.522,1.868-.165,3.363.671,1.407,1.133,2.748,1.653,3.852a45.951,45.951,0,0,1,2.715,6.182,49.833,49.833,0,0,1,1.412,6.567,43.042,43.042,0,0,1,.236,6.666c.021.5.045.992.1,1.462a13.039,13.039,0,0,0,.241,1.407,8.433,8.433,0,0,1,.248,1.972,14.449,14.449,0,0,1-.137,1.835,1.731,1.731,0,1,1-3.446-.331v-.038a11.889,11.889,0,0,0,.033-1.374,4.918,4.918,0,0,0-.236-1.2,17.779,17.779,0,0,1-.385-1.747c-.1-.6-.165-1.17-.22-1.743-.094-1.192-.1-2.27-.149-3.292a18.652,18.652,0,0,0-.331-2.873,46.172,46.172,0,0,0-1.539-5.952,48.234,48.234,0,0,0-2.67-5.491c-.549-1.076-.967-2.088-1.4-3a13.378,13.378,0,0,0-1.357-2.369,9.161,9.161,0,0,0-1.863-1.632,24.78,24.78,0,0,1-2.769-2.187c-.9-.868-1.615-1.7-2.3-2.424a13.076,13.076,0,0,0-1.984-1.786q-.684-.479-1.323-.939A20.5,20.5,0,0,0,755.7,1058a52.616,52.616,0,0,0-6.555.423l-.4.132c-.565.187-2.2.5-2.566,1.1a1.252,1.252,0,0,0,.269,1.451c.109.071.215.149.331.22.5.369.967.781,1.452,1.171.241.2.484.39.719.594l.671.643a31,31,0,0,1,4.715,5.677c.331.516.643,1.045.962,1.572.291.539.594,1.071.868,1.622s.532,1.1.769,1.681c.126.281.241.577.352.868.061.142.116.3.165.451s.109.3.165.5a1.924,1.924,0,1,1-3.637,1.258l-.038-.1c-.149-.39-.369-.922-.593-1.385s-.473-.956-.726-1.428-.539-.923-.813-1.386c-.3-.445-.589-.9-.9-1.341a26.453,26.453,0,0,0-4.264-4.755l-.594-.532c-.2-.165-.418-.319-.627-.478s-.374-.281-.555-.423a15.661,15.661,0,0,0-7.737-2.292,18.166,18.166,0,0,0-6.671,1.869c-.764.451-1.523.922-2.27,1.435a27.261,27.261,0,0,0-5.5,4.464,14.549,14.549,0,0,0-2.946,5.808c-.842,3.017-1.076,4.841-.842,6.524a16.14,16.14,0,0,0,2.386,6.21c.4.661.775,1.336,1.157,2.029a36.2,36.2,0,0,0,2.8,4.445c1.428,1.842,2.8,3.819,4.242,5.919l.428.626c.456.662,1.005,1.336,1.589,2.045a25.994,25.994,0,0,1,3.254,4.682,36.047,36.047,0,0,1,2.138,5.748c.208.686.428,1.39.661,2.1a58.291,58.291,0,0,1,1.956,8.018c.165.922.412,1.863.661,2.769a21.386,21.386,0,0,1,.9,5.193,20.208,20.208,0,0,1-1.157,6.172c-.208.681-.407,1.323-.549,1.929a32.367,32.367,0,0,1-2.873,7.645c-.286.544-.56,1.093-.827,1.638a34.271,34.271,0,0,1-3.1,5.347,31.147,31.147,0,0,1-2.923,3.253,31.3,31.3,0,0,0-2.247,2.44c-.643.813-1.253,1.681-1.852,2.582-.241.5-.5.979-.747,1.461a2.728,2.728,0,0,1-.8.913c-.241.379-.484.759-.731,1.137a32.294,32.294,0,0,0-2.561,5.353c-.142.346-.286.7-.428,1.05a31.8,31.8,0,0,0-2.017,6.649,28.235,28.235,0,0,0-.565,6.732,19.132,19.132,0,0,0,1.478,5.671l.236.643a29.357,29.357,0,0,0,3.05,5.99c.835,1.286,1.747,2.49,2.71,3.765.539.709,1.071,1.418,1.589,2.133a47.227,47.227,0,0,1,4.06,6.874,23.105,23.105,0,0,1,1.818,8.116v.1c.055.532.116,1.055.175,1.577a35.219,35.219,0,0,1,.331,4.76c.116,1.209.484,2.824,1.934,1.835a5.774,5.774,0,0,0,1.71-2.1c.088-.253.175-.5.265-.764a10.644,10.644,0,0,0,.61-2.176,24.022,24.022,0,0,0,.248-2.4l.088-1.357c.033-.473.083-.962.126-1.4.094-.9.2-1.752.265-2.572a19,19,0,0,0,.049-2.357,14.185,14.185,0,0,0-.307-2.258c-.312-1.533-.923-3.2-1.362-5.125a48.882,48.882,0,0,0-1.149-4.94c-.488-1.374-1.362-2.811-2.2-4.629a14.356,14.356,0,0,1-.572-1.445,11.118,11.118,0,0,1-.407-1.61,20.718,20.718,0,0,1-.232-2.963c-.021-.912-.021-1.764-.078-2.561s-.187-1.622-.291-2.544a20.876,20.876,0,0,1-.182-2.935,14.919,14.919,0,0,1,.121-1.549,12.827,12.827,0,0,1,.312-1.533c.544-1.934,1.27-3.516,1.748-5.105a1.731,1.731,0,0,1,3.336.918v.011c-.468,1.842-1.133,3.55-1.467,5.068a11.385,11.385,0,0,0,.071,4.573c.137.835.312,1.743.418,2.736s.132,1.9.182,2.764a16.451,16.451,0,0,0,.258,2.341,6.136,6.136,0,0,0,.281.967c.126.331.269.661.445,1.017a50.583,50.583,0,0,1,2.516,4.93,53.778,53.778,0,0,1,1.419,5.408c.374,1.539,1.038,3.209,1.488,5.15a18.4,18.4,0,0,1,.478,3.012,24.42,24.42,0,0,1,.012,2.976c-.055.95-.137,1.868-.22,2.736-.038.451-.078.842-.1,1.258l-.071,1.308a29.158,29.158,0,0,1-.274,2.906,14.3,14.3,0,0,1-.331,1.582c-.165.594-.3.939-.44,1.379a27.156,27.156,0,0,1-2.253,5.413l-.208.345-.248.374a8.258,8.258,0,0,1-.527.7,13.056,13.056,0,0,1-1.109,1.192c-.742.719-1.461,1.3-2.1,1.852a19.8,19.8,0,0,0-1.731,1.665c-.582.615-1.2,1.3-1.89,1.984a17.826,17.826,0,0,1-2.353,2.012l-2.209,1.544c-.726.506-1.5,1.005-2.315,1.478a1.732,1.732,0,0,1-.473.374c-1.466.775-3.434,1.653-3.885,3.412a3.1,3.1,0,0,0,.875,2.852,27.991,27.991,0,0,0,5.687,3.254,15.009,15.009,0,0,0,3.33.956,38.039,38.039,0,0,0,10.343-.236,31.529,31.529,0,0,0,3.034-1.549,32.247,32.247,0,0,0,2.687-2.419l.736-.719.78-.709c.506-.451.984-.868,1.412-1.275a12,12,0,0,0,1.116-1.175,6.2,6.2,0,0,0,.418-.577q.223-.347.44-.726a29.836,29.836,0,0,0,1.577-3.254l.369-.88.165-.411.142-.379c.182-.522.341-1.076.5-1.653s.281-1.2.412-1.83l.39-1.847a22.854,22.854,0,0,0,.231-3.523c.017-.661.038-1.39.094-2.11s.126-1.369.192-2.012a25.475,25.475,0,0,0,.165-3.557c-.083-1.478.033-2.9.038-4.067a10.672,10.672,0,0,0-.082-1.582c-.078-.539-.2-1.187-.319-1.78-.253-1.209-.56-2.435-.889-3.687a32.089,32.089,0,0,0-1.182-3.472c-.231-.615-.473-1.248-.709-1.918l-.154-.435c-.038-.121-.094-.241-.137-.369-.1-.248-.215-.5-.341-.769-.5-1.066-1.2-2.27-1.764-3.743l-.681-1.923c-.215-.631-.435-1.269-.643-1.929s-.412-1.323-.594-2.022c-.088-.345-.175-.693-.253-1.055a11.489,11.489,0,0,1-.192-1.248,28.352,28.352,0,0,1,.028-4.264c.012-.3.017-.582.012-.851s-.012-.456-.038-.863c-.05-.709-.071-1.412-.078-2.11-.012-1.4.061-2.769.142-4.1l.028-.461.017-.428v-.906l-.033-1.984a20.057,20.057,0,0,1,.1-2.242c.045-.39.109-.813.192-1.192s.165-.735.269-1.088a41.384,41.384,0,0,1,1.362-3.93l.693-1.842c.265-.676.556-1.323.858-1.962.605-1.258,1.258-2.428,1.842-3.556s1.157-2.315,1.809-3.533a26.99,26.99,0,0,1,2.258-3.578c.827-1.109,1.709-2.149,2.582-3.159.435-.5.9-1.012,1.242-1.435.362-.451.719-.951,1.093-1.488a18.945,18.945,0,0,1,2.743-3.363,1.729,1.729,0,0,1,2.4,2.495l-.038.033a17.831,17.831,0,0,0-2.034,2.873c-.357.56-.736,1.149-1.157,1.736-.461.622-.863,1.1-1.265,1.61-.8,1.017-1.572,2.022-2.263,3.044a23.264,23.264,0,0,0-1.835,3.141c-.555,1.121-1.083,2.315-1.665,3.533s-1.176,2.374-1.67,3.495q-.372.848-.661,1.67l-.3.906-.331.956a36.743,36.743,0,0,0-1.157,3.533c-.071.281-.132.556-.187.827a6.808,6.808,0,0,0-.1.747,15.226,15.226,0,0,0-.045,1.693l.066,1.951c.012.345.017.7.017,1.066l-.012.556-.021.522c-.055,1.291-.094,2.545-.061,3.776.016.61.045,1.22.1,1.819.021.248.066.736.071,1.1s.012.759,0,1.116a29.294,29.294,0,0,0-.017,3.6c.028.248.066.473.109.693.066.281.137.572.215.858.154.577.331,1.157.527,1.752s.407,1.192.622,1.8l.648,1.786c.374.984.992,2.067,1.627,3.363.165.331.312.671.461,1.022.078.187.149.362.22.556l.175.5c.2.572.435,1.157.671,1.776a37.319,37.319,0,0,1,1.374,3.968c.352,1.286.693,2.606.984,3.956.149.693.274,1.336.4,2.093a17.135,17.135,0,0,1,.149,2.346c-.012,1.456-.088,2.665-.028,3.8a29.118,29.118,0,0,1-.192,4.309l-.182,1.906c-.05.588-.071,1.175-.083,1.818a27.313,27.313,0,0,1-.319,4.325l-.116.582-.1.468-.2.956c-.137.648-.286,1.322-.456,2.005s-.379,1.4-.632,2.121c-.066.182-.126.357-.2.539l-.2.506-.4.934c-.312.736-.648,1.478-1.017,2.232a1.83,1.83,0,0,1-.1.253c-.331.693-1.209,2.133-.281,2.786.473.331,1.556-.109,2.022-.274.2-.071.39-.154.582-.236a17.986,17.986,0,0,0,1.511-1.258,22.619,22.619,0,0,0,3.247-4.424c.291-.473.582-.939.88-1.4a22.264,22.264,0,0,0,2.088-5.023c.165-.5.331-.984.5-1.488.307-.9.686-1.752,1.05-2.582a14.3,14.3,0,0,0,1.369-4.133,33.784,33.784,0,0,0-.258-6.55l-.066-.661a43.572,43.572,0,0,0-1.083-6.282,2.786,2.786,0,0,1-.407-.992.625.625,0,0,0-.016-.094c-.045-.291-.083-.589-.126-.885-.258-.8-.549-1.582-.835-2.353a32.285,32.285,0,0,1-1.461-4.637c-.56-2.693-.992-5.474-1.323-8.49a31.172,31.172,0,0,1,.1-6.165c.078-.89.149-1.736.175-2.549a46.4,46.4,0,0,1,1.2-8.149l.094-.456c.165-.827.3-1.676.428-2.582a26.558,26.558,0,0,1,1.357-5.978,50.5,50.5,0,0,1,2.89-5.864c.331-.61.661-1.225.992-1.852,1.275-2.4,2.715-4.864,4.28-7.342.532-.846,1.045-1.759,1.589-2.726a49.764,49.764,0,0,1,2.743-4.528c.972-1.391,2.012-2.76,3.11-4.2.622-.827,1.258-1.653,1.9-2.523a69.19,69.19,0,0,0,4.275-6.392,71.46,71.46,0,0,0,3.578-6.82,44.923,44.923,0,0,0,1.847-5.314c.2-.661.4-1.323.605-1.972.357-1.121.792-2.176,1.215-3.2a22.738,22.738,0,0,0,1.4-4.077,32.247,32.247,0,0,0,.44-4.96c.033-.89.071-1.809.142-2.731.048-.926.159-1.873.268-2.779ZM726.274,1231.3a9.483,9.483,0,0,0,.215-8.506,9.951,9.951,0,0,0-5.276-4.556l-3.067-.714q-1.756-.091-3.507-.109c-1.9-.011-3.781.011-5.644.149-.468.021-.934.055-1.4.1l-.693.066-.346.033-.165.022a1.983,1.983,0,0,0-1.05.532,1.961,1.961,0,0,0-.549,1.066,2.814,2.814,0,0,0-.028.308,4.363,4.363,0,0,0,.05.44c.066.461.137.918.22,1.374a43.53,43.53,0,0,0,1.323,5.358,25.232,25.232,0,0,0,2.133,4.94,16.78,16.78,0,0,0,3.176,4.1l.038.038a1.921,1.921,0,0,1-2.329,3.034,1.694,1.694,0,0,1-.627-.319c-2.989-2.353-6.215-1.523-9.364-.346a5.007,5.007,0,0,0-1.857,2.824,1.914,1.914,0,0,1-1.539,1.764,1.939,1.939,0,0,1-2.215-1.323,35.971,35.971,0,0,0-3.188-7.078l-.248-.44-.225-.378c-.165-.253-.319-.506-.5-.747-.346-.485-.714-.962-1.109-1.429-.792-.939-1.71-1.835-2.7-2.819s-2.005-2.088-2.918-3.141l-2.682-3.126c-.44-.506-.875-.992-1.313-1.488l-1.407-1.533a27.867,27.867,0,0,1-2.792-3.611q-.321-.5-.61-1.022c-.187-.341-.385-.726-.528-1.005l-.934-1.885c-.622-1.291-1.22-2.645-1.731-4.039-.258-.7-.5-1.412-.709-2.133l-.038-.137-.054-.2-.094-.418a7.405,7.405,0,0,1-.109-.835,8.257,8.257,0,0,1,.033-1.572,15.529,15.529,0,0,1,1.582-4.8c.661-1.352,1.323-2.572,1.984-3.786l1.946-3.589c.121-.225.241-.468.362-.7a5.723,5.723,0,0,0,.473-2.022,3.128,3.128,0,0,0-.61-1.9,16.061,16.061,0,0,0-4.38-2.7h-.165a4.664,4.664,0,0,0-2.566,1.369l-2.166,2.645c-.863,1.045-1.665,2.088-2.462,3.159s-1.572,2.149-2.315,3.254c-.192.286-.445.661-.676.951s-.468.61-.7.9c-.468.572-.929,1.1-1.352,1.61a10.927,10.927,0,0,0-1.857,2.687,9.243,9.243,0,0,0-.661,3.083c-.033.577-.038,1.187-.028,1.835l.055,2.017a24.425,24.425,0,0,0,.345,3.67,12.747,12.747,0,0,0,.423,1.638c.045.132.083.265.137.39l.165.428.385.979c.5,1.28.962,2.506,1.488,3.637.265.565.539,1.109.835,1.627a6.37,6.37,0,0,0,.412.661c.149.215.319.435.5.661.731.9,1.709,1.868,2.7,3.044.248.3.5.605.742.934.121.165.241.331.362.511l.175.258.132.225,1.066,1.786,2.116,3.589.527.9.544.956c.357.648.686,1.3.992,1.946.622,1.3,1.187,2.573,1.714,3.824.258.6.572,1.313.827,1.984s.5,1.374.719,2.067a36.9,36.9,0,0,1,1.061,4.193,1.926,1.926,0,0,1-3.731.934v-.016c-.137-.445-.286-.885-.435-1.323a8.6,8.6,0,0,0-2.5-3.055,4.535,4.535,0,0,0-3.346-.331c-.423.126-.842.265-1.27.4l-.331.109a25.111,25.111,0,0,0-5.815,3.11c-.868.572-1.747,1.187-2.682,1.842-1.1.775-2.242,1.572-3.472,2.379a29.534,29.534,0,0,1-4.661,2.3c-.8.341-1.627.686-2.419,1.066a27.892,27.892,0,0,1-4.034,1.506,8.635,8.635,0,0,0-3.611,3.687c-.208.435-.418.868-.61,1.313-.253.572-.5,1.192-.709,1.736l-.033.088a1.926,1.926,0,0,1-3.7-.984c.116-.752.236-1.419.385-2.116.083-.412.187-.827.286-1.237a2.19,2.19,0,0,0-1.2-2.428c-.078-.028-.149-.05-.225-.071-.258-.021-.555-.038-.906-.049a5.626,5.626,0,0,0-2.253.544,19.991,19.991,0,0,0-3.578,3.242c-.56,1.061-1.071,2.109-1.572,3.247a28.842,28.842,0,0,0-1.462,4.9c-.192.827-.39,1.67-.622,2.5-.253.89-.522,1.743-.78,2.566a27.835,27.835,0,0,0-1.225,4.781,37.349,37.349,0,0,0,.028,7.255l.017.286c.038.506.078,1.028.121,1.561.357,1.192.851,2.4,1.736,2.857a3.819,3.819,0,0,0,1.972.352c.622-.253,1.248-.5,1.885-.709a28.259,28.259,0,0,1,4.869-1.045,31.2,31.2,0,0,0,3.093-.572c.709-.182,1.419-.369,2.121-.555,1.83-.484,3.72-.984,5.633-1.391,1.171-.253,2.336-.565,3.561-.9,1.323-.362,2.7-.736,4.117-1.028,1.374-.281,2.726-.648,4.16-1.038,1.1-.3,2.247-.615,3.407-.885a27.128,27.128,0,0,1,4.027-.527,18.041,18.041,0,0,0,3.67-.527,24.081,24.081,0,0,0,3.874-1.7c.984-.5,2-1.017,3.083-1.457a56.61,56.61,0,0,0,6.732-3.253c.759-.435,1.528-.835,2.275-1.22a25.026,25.026,0,0,0,4.193-2.516,40.19,40.19,0,0,0,5.9-5.507,18.352,18.352,0,0,0,2.149-3.715,24.025,24.025,0,0,1,2.067-3.677,29.226,29.226,0,0,1,6.9-6.463,27.379,27.379,0,0,1,8.414-4.337,36.335,36.335,0,0,0,6.572-2.743c.582-.312,1.17-.605,1.759-.9a18.831,18.831,0,0,0,4.325-2.627,14.073,14.073,0,0,0,2.654-4.056c.3-.577.605-1.17.934-1.764s.671-1.143,1.005-1.687c.268-.42.531-.859.784-1.294Zm-25.17-81.011c.435-2.606.686-5.084.154-6.815a9.863,9.863,0,0,0-3.7-4.978c-.236-.175-.428-.307-.622-.428a5.171,5.171,0,0,0-.589-.319,5.242,5.242,0,0,0-1.237-.4,7.3,7.3,0,0,0-2.88.116,9.456,9.456,0,0,0-2.764.984,1.082,1.082,0,0,0-.165.132c0,.021-.012,0-.028.045a1.239,1.239,0,0,0-.071.319c-.016.078-.028.2-.038.3l-.028.445a29.337,29.337,0,0,0,.045,3.737c.045.627.1,1.258.182,1.89s.175,1.248.286,1.934a27.9,27.9,0,0,1,.451,4.573,15,15,0,0,1-.841,5.018,22.586,22.586,0,0,1-2.072,4.247c-.39.648-.8,1.265-1.208,1.868l-.56.827-.549.827c-.742,1.132-1.523,2.346-2.4,3.545a30.8,30.8,0,0,1-2.918,3.44c-1.012,1.038-2,1.984-2.89,2.906-.445.468-.863.922-1.265,1.4-.121.142-.241.291-.362.44-.627,1.088-1.149,2.4-.208,3.325a4.636,4.636,0,0,0,.407.346,1.5,1.5,0,0,1,.835.281c1.681,1.157,2.976,1.726,4.474-.05.142-.165.281-.346.412-.523.038-.078.071-.149.1-.22a22.737,22.737,0,0,1,2.4-4.077,29.606,29.606,0,0,1,3.171-3.307c.5-.461.946-.9,1.341-1.323.2-.208.385-.418.549-.621l.627-.776c.863-1.066,1.748-2.171,2.72-3.275.5-.549.992-1.1,1.549-1.643l1.488-1.424a29.544,29.544,0,0,0,2.48-2.781c.379-.484.742-.979,1.076-1.478a14.64,14.64,0,0,0,.884-1.466c.985-1.842,1.316-4.247,1.771-7.052ZM687.8,1280.947c0-1.544.435-3.968-1.605-4.464-1.291-.319-3.6.752-4.781,1.2a28.8,28.8,0,0,0-3.292,1.511,25.191,25.191,0,0,0-7.622,8.6c-.362.827-.8,1.835-1.412,3.292l-.078.175c-.8,1.906-1.809,4.28-4.117,5.765-.736.473-1.676,1.137-2.769,1.9-1.121.8-2.391,1.686-3.793,2.627a4.522,4.522,0,0,0-1.533,2.913,7.445,7.445,0,0,0,1.061,2.769c.868.78,1.419,1.556,2.764,1.275.44-.088.868-.208,1.3-.307q.709-.346,1.4-.676c1.232-.582,2.386-1.132,3.445-1.759,1.176-.7,2.353-1.253,3.5-1.792a27.845,27.845,0,0,0,3.221-1.693,72.246,72.246,0,0,0,6.034-4.276,11.746,11.746,0,0,0,2.45-3.753c.27-.549.539-1.088.827-1.61a25.163,25.163,0,0,1,1.419-2.209,20.765,20.765,0,0,0,2.606-4.6,26.42,26.42,0,0,0,.984-4.2Zm-33.562,32.1a1.991,1.991,0,0,0,.7-1.44,3.677,3.677,0,0,0-.5-1.61,11.949,11.949,0,0,1-1.4-2.66,2.7,2.7,0,0,0-1.258-.8c-1.346-.352-2.81.835-3.824,1.533a1.781,1.781,0,0,1-.423.208c-1.4.934-2.81,1.89-4.143,2.831a36.715,36.715,0,0,0-3.556,2.976c-.956.875-1.946,1.769-2.968,2.539-.962.719-1.868,1.374-2.693,1.972a30.1,30.1,0,0,0-3.49,2.72c-.5.648-1.033,1.275-1.605,1.939a21.374,21.374,0,0,0-2.923,3.968,17.71,17.71,0,0,0-1.346,5.226c-.088.572-.175,1.137-.275,1.676-.456,2.523-.291,4.1.561,5.29a7.477,7.477,0,0,0,4.857,2.9,8.753,8.753,0,0,0,4.561-.225c.357-.154,1.109-.478.847-2.247-.071-.473-.22-1.116-.379-1.8a32.487,32.487,0,0,1-.78-4.2,15.339,15.339,0,0,1,.6-5.15c.132-.544.253-1.061.331-1.523a9.181,9.181,0,0,1,4.864-6.968c.742-.362,1.594-.676,2.582-1.045a38.442,38.442,0,0,0,4.464-1.873c.934-.478,1.929-1.1,2.989-1.759,1.126-.7,2.292-1.435,3.583-2.121C653.832,1313.3,654.03,1313.178,654.235,1313.051Zm-27.314-128.574a25.778,25.778,0,0,0,.066-2.885c-.038-1.022-.1-1.984-.215-2.9a11.053,11.053,0,0,0-.582-2.45,8.495,8.495,0,0,0-1.175-2.1,18.571,18.571,0,0,0-1.809-2.067c-.34-.341-.7-.686-1.066-1.022s-.726-.661-1.1-.984c-1.523-1.313-3.231-2.589-4.947-4.176a39.807,39.807,0,0,1-4.446-5.138c-.643-.827-1.258-1.615-1.873-2.3l-.544-.6-.555-.643c-.369-.428-.726-.863-1.071-1.3-.693-.868-1.346-1.736-1.984-2.572l-.934-1.22c-.319-.395-.6-.742-.951-1.157-.622-.736-1.248-1.457-1.885-2.187-.331-.3-.661-.6-.992-.885a3.683,3.683,0,0,0-4.28-.661c-.594.286-1.176.577-1.753.89-.44.236-.88.478-1.308.731l-1.362.8a40.793,40.793,0,0,0-5.039,3.171,13,13,0,0,0-1.9,1.819,16.682,16.682,0,0,0-1.589,2.226c-.984,1.594-1.792,3.472-2.792,5.455-.05.1-.1.215-.149.319-.331,1.488-1.346,3.946-.785,5.375a5.233,5.233,0,0,0,.956,1.452c1.653,1.038,3.27,2.1,4.864,3.247,1.764,1.275,3.44,2.66,5.089,4.089l.615.539.643.577c.451.418.875.847,1.27,1.28.792.868,1.488,1.743,2.149,2.594s1.275,1.686,1.9,2.462,1.28,1.506,2,2.291,1.445,1.605,2.166,2.506c.362.451.714.929,1.05,1.429a14.726,14.726,0,0,1,.913,1.61,1.923,1.923,0,0,1-3.2,2.083c-.648-.385-1.341-.731-2.038-.265a4.757,4.757,0,0,0-1.27,2.159c-.045.088-.078.182-.116.274l-.182.868c-.5,2.33-.992,4.743-1.682,7.056-.3.992-.539,2.012-.8,3.077a42.837,42.837,0,0,1-1.4,4.923c-.638,1.726-1.379,3.363-2.093,4.94-.4.88-.792,1.752-1.157,2.627-.627,1.478-1.341,2.857-2.034,4.193-.56,1.083-1.088,2.1-1.549,3.133-.484,1.093-.984,2.166-1.478,3.226-.661,1.419-1.286,2.759-1.863,4.1-.126.3-.248.589-.374.88a2.221,2.221,0,0,1-.39.956c-.835,2.05-1.556,3.994-2.116,5.555-.3.841-.632,1.665-.946,2.462a33.947,33.947,0,0,0-1.653,4.874,16.629,16.629,0,0,0-.1,4.557c.061.972.126,1.984.109,3.006-.012.627-.033,1.258-.061,1.89a19.474,19.474,0,0,0,.264,5.446,31.177,31.177,0,0,0,2.457,7.061,35.782,35.782,0,0,0,2.315,3.776c.248.345.5.681.747.992a3.178,3.178,0,0,1,.175.291c.269.362.532.714.78,1.033a16.953,16.953,0,0,0,3.32,3.017c.7.539,1.435,1.093,2.121,1.709s1.346,1.258,1.967,1.869a18.851,18.851,0,0,0,3.4,2.885,27.8,27.8,0,0,0,5.176,2.149c.511.165,1.017.34,1.511.516.922.331,1.8.681,2.645,1.022a22.032,22.032,0,0,0,4.214,1.4,25.867,25.867,0,0,0,2.764.3,2.753,2.753,0,0,0,1.605-.813c.813-.946.319-3.116.369-4.276V1287c-.05-.615-.1-1.27-.154-1.984l-.022-.286a42.718,42.718,0,0,1,0-8.286,32.216,32.216,0,0,1,1.44-5.8c.248-.785.5-1.594.731-2.412.2-.7.379-1.457.565-2.253a32.263,32.263,0,0,1,1.776-5.841c.2-.461.407-.913.61-1.346.016-.061.021-.121.038-.175.165-.792.369-1.923-.78-1.753h-.012a4.939,4.939,0,0,0-1.972,1.665c-.1.175-.192.346-.3.522a1.924,1.924,0,0,1-3.4-1.8l.017-.033c.8-1.693,1.341-3.654,2.072-5.754.187-.527.39-1.061.61-1.594l.556-1.461,1.126-2.913,1.121-2.9c.331-.934.622-1.9.9-2.885l.863-3.039.468-1.573c.182-.582.379-1.132.589-1.665a53.569,53.569,0,0,0,2.149-5.621c.555-2.171,1.232-4.183,1.726-6.094.121-.478.236-.962.331-1.412.083-.4.137-.835.187-1.286.088-.906.109-1.906.149-3a26.023,26.023,0,0,1,.3-3.528,33.07,33.07,0,0,1,.8-3.386c.291-1.045.572-2.005.769-2.9.094-.451.165-.875.215-1.291.055-.461.094-.939.121-1.423.109-1.946.055-4.077.22-6.375.132-1.818-.045-3.814-.121-6.061A61.563,61.563,0,0,1,626.921,1184.476Zm-41.993,32.313a19.032,19.032,0,0,0,1.116-11.767c-.331-.709-.775-1.488-1.258-2.412-.241-.473-.5-.984-.726-1.566-.225-.555-.4-1.083-.556-1.572a15.666,15.666,0,0,0-.851-2.315.982.982,0,0,0-.088-.165c-.021-.05-.066-.1-.094-.149-.078-.109-.165-.225-.275-.357-.225-.258-.516-.561-.863-.913s-.752-.764-1.175-1.28a9.592,9.592,0,0,1-.627-.868c-.165-.281-.331-.561-.473-.827-.56-1.076-.913-2.017-1.258-2.67a4.447,4.447,0,0,0-.248-.44c-.038-.061-.078-.126-.116-.175l-.061-.088-.109-.132-.875-1.093-1.736-2.187c-.066-.088-.149-.2-.208-.265s-.109-.125-.175-.192c-.126-.126-.258-.258-.4-.39-.281-.27-.61-.544-.967-.842s-.752-.615-1.176-.979c-.208-.182-.423-.369-.643-.582l-.556-.532c-.709-.7-1.379-1.362-2.022-1.939l-.478-.418-.511-.407c-.428-.341-.827-.681-1.209-.992a19.009,19.009,0,0,0-1.972-1.561,6.176,6.176,0,0,0-1.857-.747c-.385-.1-.827-.187-1.308-.291l-.792-.175c-.286-.066-.61-.154-.885-.237a21.848,21.848,0,0,0-2.48-.747,2.431,2.431,0,0,0-.661-.038,9.73,9.73,0,0,0-1.088.182c-.8.182-1.686.451-2.653.731l-.671.191a2.722,2.722,0,0,0-.331.126,10.6,10.6,0,0,0-.992.544c-.387.231-.858.516-1.4.8-.274.142-.555.286-.875.418s-.693.27-.913.341c-1.033.345-2,.61-2.9.88-.451.132-.879.264-1.3.4l-.331.116-.435.142c-.291.088-.565.165-.841.231-1.076.281-2.039.451-2.857.661-.2.05-.4.1-.582.165l-.418.121-.461.116c-.605.142-1.17.237-1.693.312-1.05.149-1.906.241-2.632.418l-2.835.719-.374.083c-1.313.577-2.358,1.44-1.693,2.935.4.544.841,1.126,1.291,1.781.274.4.549.827.827,1.291.132.232.258.468.385.714l.274.539a18.012,18.012,0,0,1,2.9,8.227c.061.428.116.835.175,1.2l.1.549c.055.269.1.544.137.808a21.494,21.494,0,0,1,.175,2.976v1.279l.012.577.021.468c.248.847.671,1.61,1.653,1.473l.5-.066c.253-.142.506-.269.752-.379,1.462-.643,2.693-.951,3.736-1.346l.379-.149c.187-.071.39-.154.577-.215.379-.137.752-.248,1.1-.341.709-.182,1.362-.319,1.972-.445l.868-.187c.286-.066.506-.12.851-.219.643-.175,1.3-.341,1.951-.5,1.308-.291,2.677-.516,3.968-.681a32.365,32.365,0,0,1,4.034-.331,1.923,1.923,0,0,1,1.951,1.9,1.883,1.883,0,0,1-.362,1.132,5.964,5.964,0,0,0-.083,4.3c.423.759.78,1.516,1.132,2.254.22.468.44.939.681,1.4a8.715,8.715,0,0,0,.992,1.341,11.359,11.359,0,0,1,1.918,2.88c.445,1.066.78,2.133,1.1,3.166.165.539.331,1.076.522,1.61a15.974,15.974,0,0,1,.643,3.06,12.768,12.768,0,0,0,.331,1.842,15.425,15.425,0,0,0,.719,1.776,17.554,17.554,0,0,1,1.083,2.84,22.1,22.1,0,0,1,.484,2.819,19.521,19.521,0,0,0,.331,2.022c.175.714.357,1.435.539,2.149.021.094.045.187.071.281.764,1.511,1.769,3.209,3,3.275,1.412.083,2.324-1.142,2.939-2.467.532-2.33,1.533-4.464,1.962-6.886a13.741,13.741,0,0,0-.709-6.231,26.62,26.62,0,0,1-1.149-2.693c-.775-2.3-1.038-4.264-1.719-5.935a13.12,13.12,0,0,0-1.374-2.363,22.329,22.329,0,0,1-1.759-2.9,1.653,1.653,0,0,1,2.89-1.582l.017.028a23.537,23.537,0,0,0,1.747,2.315,14.817,14.817,0,0,1,1.984,2.934,19.217,19.217,0,0,1,.858,2.072,1.818,1.818,0,0,1,.258.539,7.532,7.532,0,0,0,1.5,3.379c1.352,1.323,2.573.215,3.379-.984.2-.291.379-.572.565-.851.165-.313.313-.622.468-.929a1.579,1.579,0,0,1,.225-.736,20.763,20.763,0,0,0,1.017-2,1.2,1.2,0,0,1,.048-.124Zm-2.645-68.753c.05-1.852-1.419-2.976-2.726-4.039l-.017-.016c-.312-.187-.56-.331-.813-.484-.527-.308-1.05-.615-2.1-1.242a15.213,15.213,0,0,1-2.325-1.67,9.94,9.94,0,0,0-1.6-1.142,14.921,14.921,0,0,1-2.336-1.693,9.478,9.478,0,0,0-1.577-1.142,5.594,5.594,0,0,0-1.589-.693,10.98,10.98,0,0,1-2.852-1.248,13.478,13.478,0,0,0-1.835-.946,20.135,20.135,0,0,1-2.45-1.265,11.619,11.619,0,0,1-1.109-.769,3.4,3.4,0,0,0-2.149-.742,2.254,2.254,0,0,0-1.418.7.245.245,0,0,0-.033.038,3.562,3.562,0,0,0-.423,3.589c.248.22.532.473.868.792a15.448,15.448,0,0,0,1.582,1.323,21.041,21.041,0,0,1,2.06,1.736,13.708,13.708,0,0,0,1.572,1.3,18.3,18.3,0,0,1,2.093,1.736,9.61,9.61,0,0,1,1.984,2.533,4.432,4.432,0,0,0,.972,1.253,10.429,10.429,0,0,0,1.511,1.209,15.188,15.188,0,0,1,2.209,1.764c.946.89,1.412,1.407,1.819,1.863.385.428.719.8,1.5,1.539a5.977,5.977,0,0,0,1.39,1.017c.149.082.308.165.473.274a4.276,4.276,0,0,0,3.353,0,7.038,7.038,0,0,0,1.176-.764,1.831,1.831,0,0,1,.253-.307c.078-.078.154-.166.231-.236.021-.033.033-.061.055-.094.331-.406.769-.89,1.22-1.412a5.064,5.064,0,0,0,1.03-2.767Zm-21.7-48.068a3.08,3.08,0,0,0,0-.39,2.045,2.045,0,0,0-.676-1.488c-.445-.35-.851-.154-1.379-.055a4.844,4.844,0,0,1-.875.1c-.264.078-.532.149-.8.231a51.794,51.794,0,0,0-4.88,1.748,21.936,21.936,0,0,0-2.192,1.066,8.94,8.94,0,0,0-1.686,1.182c-.1.1-.182.187-.253.265a.526.526,0,0,1-.083.109l-.116.182c-.165.258-.357.605-.544.956-.369.714-.726,1.5-1.071,2.3-1.379,3.231-2.594,6.661-3.76,10.085s-2.3,6.881-3.336,10.343l-.385,1.291-.175.622a3.175,3.175,0,0,0-.066.313,2.4,2.4,0,0,0,.142,1.241,2.52,2.52,0,0,0,.731,1.005,2.66,2.66,0,0,0,.516.33c.1.05.187.066.308.121l.582.165a18.962,18.962,0,0,0,6.105.686,7.391,7.391,0,0,0,2.353-1.362,12.877,12.877,0,0,1,2.126-2.9,14.65,14.65,0,0,0,1.088-1.374,8.559,8.559,0,0,1,1.175-1.379,11.063,11.063,0,0,0,.934-3.517c-.1-1.913-.149-4.214-.066-6.753a4.742,4.742,0,0,0-.632-2.022,2.4,2.4,0,0,0-1.577-.792l-.1.016a1.921,1.921,0,0,1-.686-3.77l.165-.045.532-.137c.2-.049.39-.109.589-.165.39-.126.78-.258,1.157-.4a15.361,15.361,0,0,0,2.187-1.033,10.418,10.418,0,0,0,3.358-2.918,7.109,7.109,0,0,0,1.294-3.869Zm-33.033,103.763a6.337,6.337,0,0,0,.827-4.176c-.066-.39-.121-.769-.165-1.116a18.659,18.659,0,0,0-.407-2.237,5.4,5.4,0,0,0-.258-.78,4.166,4.166,0,0,0-2.622-2c-1.488-.331-3.336.3-4.96.956-.175.094-.374.2-.6.331a7.369,7.369,0,0,0-1.478,1.071,12.778,12.778,0,0,1-1.253,1.017,2.742,2.742,0,0,1-1.2.752c-1.076.615-1.653.9-2.209,1.175-.516.258-1.005.5-1.972,1.055-1.093.622-1.665.912-2.215,1.2-.516.265-1.005.516-2,1.076s-1.435.851-1.923,1.157c-.527.331-1.066.681-2.166,1.308-1.055.6-1.589.9-2.116,1.187s-1.033.566-2.055,1.149c-1.109.638-1.693.922-2.258,1.2-.516.248-.992.5-1.963,1.038a10.76,10.76,0,0,1-2.906,1.176,5.137,5.137,0,0,0-1.566.627,20.673,20.673,0,0,1-1.9.962c-.208.1-.374.175-.532.258a4.909,4.909,0,0,0-.622,1.868,14.119,14.119,0,0,1,.661,1.639c.066.2.126.39.187.566a2.905,2.905,0,0,0,1.248.544A4.693,4.693,0,0,0,491,1216.6c.208-.078.435-.153.681-.236a10.634,10.634,0,0,1,3.27-.544,5.676,5.676,0,0,0,1.792-.3c1.149-.362,1.7-.566,2.286-.78.615-.225,1.253-.456,2.523-.851a13.832,13.832,0,0,0,2.029-.8,20.426,20.426,0,0,1,2.715-1.055,21.337,21.337,0,0,1,2.759-.7,16.918,16.918,0,0,0,2.171-.556c1.182-.369,1.764-.565,2.353-.769.615-.2,1.232-.412,2.467-.8,1.126-.357,1.665-.561,2.232-.78.622-.241,1.27-.5,2.566-.9.764-.241,1.225-.418,1.632-.582.078-.044.149-.088.232-.125,1.691-.7,3.758-1.518,4.846-3.1Zm-45.113,19.909a4,4,0,0,0,1.126-2.7,25.046,25.046,0,0,0-1.045-3.413c-.021-.066-.045-.132-.061-.192a12.245,12.245,0,0,0-.742-1.709,7.252,7.252,0,0,1-.863-2.561,3.986,3.986,0,0,0-.412-.808,4.423,4.423,0,0,0-1.038-.992,103,103,0,0,1-15.777-14.167,7.366,7.366,0,0,0-4.641-2.389l-1.67-.192a.827.827,0,0,0-.8.352.843.843,0,0,0-.078.875c3.49,7.3,10.4,21.02,17.464,30.949a1.171,1.171,0,0,0,1.088.5A13.963,13.963,0,0,0,482.436,1223.641Z" transform="translate(-443.827 -906.297)"/><path class="b" d="M2404,1478.5a1.734,1.734,0,0,1,1.157,1.653,16.8,16.8,0,0,1-.2,2.232l-.187,1.071-.241,1.066a25.665,25.665,0,0,1-1.418,4.117,24.021,24.021,0,0,1-2.077,3.864,19.884,19.884,0,0,1-2.811,3.418,1.718,1.718,0,0,1-2.7-2.067l.054-.1c.638-1.133,1.308-2.2,1.873-3.358a8.878,8.878,0,0,0,.428-.858c.132-.292.291-.572.423-.863.253-.594.539-1.157.776-1.764.5-1.187.972-2.391,1.412-3.616l1.28-3.637.038-.1a1.718,1.718,0,0,1,2.2-1.055Z" transform="translate(-2066.794 -1261.82)"/><path class="b" d="M2223.169,1284.949c.021,1.076-.022,2.116-.066,3.11l-.083,1.488a14.553,14.553,0,0,1-.208,1.743,28.521,28.521,0,0,1-.753,3.083l-.39,1.385-.166.661c-.061.264-.132.522-.2.775a45.5,45.5,0,0,1-2.138,5.786,1.862,1.862,0,0,1-3.49-1.275h0a56.356,56.356,0,0,0,1.445-5.49l.121-.671.149-.775.319-1.488c.2-.962.407-1.863.516-2.7a9.226,9.226,0,0,0,.083-1.2l.021-1.466c.022-.979.028-1.913-.011-2.811-.022-.445-.055-.88-.1-1.3a8.58,8.58,0,0,0-.175-1.116,10.03,10.03,0,0,0-.946-2.149,28.757,28.757,0,0,1-1.436-2.857,18.083,18.083,0,0,1-.922-3.264,19.733,19.733,0,0,0-.622-2.523,6.017,6.017,0,0,0-1.062-1.835c-.511-.632-1.187-1.308-1.9-2.06-.352-.379-.714-.785-1.072-1.225s-.7-.913-.992-1.353c-.582-.9-1.071-1.759-1.572-2.549a21.021,21.021,0,0,0-1.516-2.159l-.033-.038a1.857,1.857,0,0,1,2.682-2.556,37.243,37.243,0,0,1,3.968,4.775,11.593,11.593,0,0,0,.827.972c.286.308.6.615.946.934.676.648,1.445,1.323,2.225,2.192a10.947,10.947,0,0,1,1.126,1.466,10.127,10.127,0,0,1,.868,1.726,22.492,22.492,0,0,1,.913,3.188,14.018,14.018,0,0,0,.686,2.423c.3.714.753,1.5,1.237,2.419a14,14,0,0,1,1.352,3.287,13.049,13.049,0,0,1,.286,1.809C2223.141,1283.861,2223.157,1284.41,2223.169,1284.949Z" transform="translate(-1908.41 -1077.556)"/><path class="b" d="M1368.221,2008.194a12.124,12.124,0,0,1-.083,2.369,20.193,20.193,0,0,1-.407,2.314,23.2,23.2,0,0,1-.638,2.254,13.748,13.748,0,0,1-.918,2.187,1.7,1.7,0,0,1-3.2-.714v-.071a13.756,13.756,0,0,1,.1-2.341c.088-.769.215-1.522.374-2.275a21.122,21.122,0,0,1,.61-2.22,11.576,11.576,0,0,1,.934-2.149l.033-.061a1.716,1.716,0,0,1,2.336-.638A1.74,1.74,0,0,1,1368.221,2008.194Z" transform="translate(-1205.136 -1702.716)"/><path class="b" d="M1302.97,2106.72a1.654,1.654,0,0,1,.923,1.972,38.656,38.656,0,0,1-2.753,5.9c-.1.214-.182.406-.27.615l-.286.7-.549,1.428c-.369.963-.731,1.956-1.157,2.976-.215.511-.451,1.045-.714,1.549s-.5.967-.747,1.435c-.506.939-.992,1.835-1.423,2.7a11.6,11.6,0,0,0-.972,2.456,15.6,15.6,0,0,0-.3,2.7c-.05,1.005-.078,2.1-.175,3.214s-.215,2.093-.253,3.017a9.481,9.481,0,0,0,.182,2.549,9.273,9.273,0,0,0,.956,2.358,28.546,28.546,0,0,0,1.561,2.445c.577.8,1.22,1.715,1.759,2.358a49.165,49.165,0,0,0,4.38,4.122h0a1.653,1.653,0,0,1-2.077,2.561c-.842-.6-1.7-1.215-2.556-1.879a25.4,25.4,0,0,1-2.556-2.221c-.411-.412-.827-.917-1.142-1.3l-1.012-1.259a26.264,26.264,0,0,1-1.939-2.764,13.124,13.124,0,0,1-1.5-3.407,13.786,13.786,0,0,1-.374-3.694c.017-1.157.142-2.259.22-3.242s.094-1.972.137-3.06a17.572,17.572,0,0,1,.423-3.529,9.063,9.063,0,0,1,.286-.956c.109-.319.208-.572.331-.851.225-.544.473-1.067.726-1.565.511-1.005,1.061-1.929,1.566-2.824l.742-1.323c.225-.423.434-.835.648-1.279.418-.89.813-1.847,1.237-2.819l.671-1.467.346-.742c.132-.264.274-.539.418-.792.577-1.016,1.182-1.873,1.7-2.719a20.359,20.359,0,0,0,1.357-2.5v-.021a1.654,1.654,0,0,1,2.181-.848Z" transform="translate(-1144.211 -1786.146)"/></g></svg>