<svg xmlns="http://www.w3.org/2000/svg" width="421.314" height="339.465" viewBox="0 0 421.314 339.465"><defs><style>.a{fill:#087bef;}.b{fill:#fefefe;}</style></defs><g transform="translate(0 -0.677)"><g transform="translate(70.928 -22)"><path class="a" d="M727.426,1309.937l-.062-.049-.073-.028a5.571,5.571,0,0,0-.857-.252h-.049a10.275,10.275,0,0,0-2.507.076l-.106.016-.09.059c-.221.145-.446.293-.673.445l-.316.21a30.781,30.781,0,0,1-3.948,2.347c-1.451.684-2.989,1.287-4.475,1.87-.855.334-1.714.673-2.578,1.031-.578.243-1.217.477-1.955.722l-.1.047c-.21.129-.417.259-.626.391a3.162,3.162,0,0,0-.744.046l-.054.008a2.932,2.932,0,0,0-1.689.994l-.041.047-.4.471h-.036l-.2-.01-.15.127a14.077,14.077,0,0,0-4,6.472,1.2,1.2,0,0,1-.5.652l-.116.073-.062.124a17.3,17.3,0,0,1-10.216,8.8,18.214,18.214,0,0,1-5.636.876c-4.255,0-10.575-1.394-16.53-8.037l-.054-.06-.07-.039a3.98,3.98,0,0,0-2.948-.4c-.415.091-.814.194-1.214.295l-.393.1-.179.065-.524.233c-.6.295-1.228.6-1.859.875l-1.124.5c-1.875.831-3.647,1.616-5.339,2.505-.663.35-1.326.688-1.99,1.025l-.21.108c-1.453.748-2.826,1.453-4.11,2.232-2.062,1.241-3.67,2.248-5.061,3.167l-.075.049-.052.072a1.753,1.753,0,0,0-.422,1.344,2.964,2.964,0,0,0,.915,1.349,12.368,12.368,0,0,1,4.036,7.141l.023.082a1.848,1.848,0,0,0,1.876,1.3,1.931,1.931,0,0,0,.24-.028l.081-.01.073-.037c.5-.251,1.007-.511,1.512-.77,1.559-.8,3.17-1.629,4.911-2.329.8-.326,1.673-.634,2.753-.987l.135-.068a5.9,5.9,0,0,0,1.872-2.231l.08-.163-.052-.179a1.223,1.223,0,0,1,.547-1.391,1.238,1.238,0,0,1,1.582.283,25.4,25.4,0,0,1,3.714,5.924c.119.275.233.551.337.834l.306.844c.189.547.371,1.081.533,1.618.275.9.626,2.1.894,3.4.018.1.037.205.06.3l.044.119a1.208,1.208,0,0,1,.122.7v.062l.037.238c.016.1.031.192.046.3.08.536.15,1.186.187,1.745.029.4.064.8.1,1.2.059.705.119,1.416.163,2.134.057,1.109.117,2.258.083,3.47,0,.3-.02.6-.039.911l-.018.34a2.377,2.377,0,0,0,0,.269v.067a4.858,4.858,0,0,0,.142,1.192,2.667,2.667,0,0,0,1.041,1.629.963.963,0,0,1,.111.067l.085.046a.68.68,0,0,1,.07.034l.093.046c.234.1.471.2.7.285.454.178.933.345,1.466.513,1.005.326,2.078.6,3.095.865l1.6.406c.515.129,1.034.248,1.551.357,1.08.223,2.118.393,3.106.507.551.063,1.044.106,1.551.134.547.034,1.09.065,1.629.085.578.021,1.1.032,1.588.032.559,0,1.065-.015,1.541-.042.508-.029,1.007-.082,1.486-.152.446-.065.961-.163,1.492-.282a25.182,25.182,0,0,0,2.96-.881c.5-.177.994-.368,1.466-.567.241-.1.516-.217.715-.308s.435-.2.652-.311a17.666,17.666,0,0,0,2.517-1.614c.336-.256.676-.526,1.029-.815l1.2-.951c.1-.075.181-.148.267-.225a5.8,5.8,0,0,0,1.5-1.955,3.664,3.664,0,0,0,.288-1.064c.016-.163.021-.34.021-.521v-.261c0-.21-.011-.441-.008-.652.008-.52.039-1.062.091-1.658v-.085l-.021-.081a3.218,3.218,0,0,0-.147-.446c-.489-1.222-2.162-.771-3.158-.5-.143.039-.279.075-.417.109-.4.113-.814.213-1.267.311a.957.957,0,0,1-.731-.134.977.977,0,0,1,.234-1.754l.06-.021c.6-.2,1.3-.474,1.974-.772.35-.163.712-.335,1.119-.547a10.692,10.692,0,0,0,4.43-4.662c.011-.029.02-.059.039-.119.184-.489.378-.987.58-1.476l.029-.093a1.276,1.276,0,0,1,.106-.245l.028-.055c.189-.455.4-.929.588-1.337.437-1,.85-1.942,1.188-2.893a16.134,16.134,0,0,0,.746-2.846,8.181,8.181,0,0,0-.046-2.725,12.472,12.472,0,0,0-.886-2.8,20.114,20.114,0,0,0-1.466-2.689c-.588-.912-1.246-1.779-1.844-2.544l-.036-.052a1.226,1.226,0,0,1,1.828-1.627c.026.024.049.051.073.075l.15.153.1.037a1.324,1.324,0,0,1,.4.228,7.4,7.4,0,0,0,6.436,1.642c.218-.047.432-.109.64-.171l.05-.018c.64-.271,1.474-.635,2.264-1.043a18.917,18.917,0,0,0,2.813-1.93l.072-.055a23.8,23.8,0,0,1,2.9-2.039c1.059-.608,2.117-1.091,3.142-1.561l.049-.023a28.834,28.834,0,0,0,3.095-1.577c.047-.031.094-.057.142-.083l.091-.052.1-.083a6.212,6.212,0,0,0,1.466-2.443l.023-.135A13.126,13.126,0,0,0,727.426,1309.937Z" transform="translate(-642.998 -1160.096)"/><path class="a" d="M1804.186,1814.468h0a6.4,6.4,0,0,1-.539-2.671v-.091l-.026-.088c-.106-.355-.205-.718-.3-1.093-.3-1.215-.513-2.533-.686-3.592-.192-1.179-.371-2.241-.617-3.3-.226-.994-.528-2-.814-2.978-.4-1.321-.748-2.52-1.023-3.8-.326-1.466-.611-3.007-.868-4.365-.163-.834-.326-1.676-.489-2.52-.241-1.205-.4-2.43-.559-3.615l-.028-.217c-.15-1.163-.277-2.131-.454-3.114s-.437-1.929-.718-2.95l-.13-.479q-.066-.246-.134-.489l-.024-.091-.057-.076a6.236,6.236,0,0,0-3.816-2.619,12.692,12.692,0,0,0-3.934-.09l-.1.021c-.381.125-.764.246-1.14.358-.717.215-1.427.41-2.117.6l-.466.129a27.322,27.322,0,0,1-2.8.6c-.941.153-1.868.27-2.725.373l-2.606.295c-.5.065-1.016.143-1.551.226a36.744,36.744,0,0,1-3.885.451c-.544.021-1.039.023-1.51,0l-1.357-.063c-.977-.054-1.873-.122-2.736-.214-1-.1-1.9-.223-2.769-.376l-.691-.124-.1-.023c-.215-.047-.459-.1-.679-.163-.567-.145-1.083-.326-1.466-.464-1-.376-1.88-.785-2.737-1.181-.751-.349-1.466-.676-2.149-.933a50.1,50.1,0,0,1-5.068-2.171q-.625-.313-1.233-.651l-1.2-.678c-.764-.438-1.552-.891-2.341-1.373-.339-.207-.671-.42-1.01-.643l-.114-.055a14.326,14.326,0,0,0-6.858-.865l-.124.037c-.437.2-.941.422-1.565.684-.705.3-1.453.578-2.243.873l-.171.064c-1.357.5-2.769,1.026-4.235,1.725a28.969,28.969,0,0,0-2.95,1.746l-.063.041c-1.06.691-2.028,1.3-3.136,1.9a28.676,28.676,0,0,1-2.987,1.326l-.112.046a27.536,27.536,0,0,0-3.018,1.341l-.054.034a8.47,8.47,0,0,0-2.585,2.733,11.425,11.425,0,0,0-.881,2.508c-.088.326-.174.652-.275.977l-.021.14a22.2,22.2,0,0,0,7.8,16.777l.076.055a8.837,8.837,0,0,0,3.689,1.231c.541.049,1.07.054,1.582.057.37,0,.738,0,1.108.026h.052l.052-.008c.094-.015.192-.028.285-.039l.316-.047c.256-.041.508-.081.753-.125l1.124-.208c1.323-.217,2.606-.34,3.859-.461l1.723-.173,1-.119c.681-.1,1.389-.257,1.991-.392.267-.059.539-.124.814-.191a21.893,21.893,0,0,1,3.826-.652c1.067-.057,2.117-.151,3.24-.251,1.813-.163,3.688-.326,5.649-.326h1.2c1.087,0,2.11.01,3.095-.054l1.039-.08c.311-.029.616-.049.915-.065l2.466-.1a16.113,16.113,0,0,0,3.874-.489,22.661,22.661,0,0,0,3.232-1.388l.77-.37c.277-.127.555-.256.854-.383s.66-.275,1.08-.43l2.041-.764a26.689,26.689,0,0,0,3.782-1.74l.039-.024a1.228,1.228,0,0,1,1.653.476,1.215,1.215,0,0,1-.326,1.577,18.694,18.694,0,0,1-1.955,1.292l-.111.088a1.312,1.312,0,0,1-.184.163l-.205.133c-1.538.994-3.45,2.232-4.025,4.243a12.938,12.938,0,0,0,.13,5.4l.112.406v.129l.067.073.049.119.041.1c0,.078.01.163.016.231l.011.067c.155.622.29,1.23.42,1.818s.259,1.161.4,1.71c.163.674.326,1.218.489,1.705s.36,1,.652,1.692c.337.814.705,1.614,1.093,2.468.153.336.308.676.464,1.025.462,1.016.945,2.183,1.516,3.673l.1.27c.438,1.131.854,2.2,1.319,3.206.209.454.451.945.766,1.546l.054.1.093.067a2.827,2.827,0,0,0,1.671.536,3.181,3.181,0,0,0,1.689-.5l.086-.054.057-.085c5.663-8.332,13.922-10.285,19.854-10.456h.081l.077-.029A2.429,2.429,0,0,0,1804.186,1814.468Z" transform="translate(-1538.825 -1544.849)"/></g><g transform="translate(0 -19.982)"><path class="b" d="M1693.107,996.023a16.409,16.409,0,0,1,.078,3.095,9.291,9.291,0,0,1-.326,1.766,5.391,5.391,0,0,1-.915,1.834,1.275,1.275,0,0,1-.029.132,2.444,2.444,0,0,1-2.31,1.644,2.547,2.547,0,0,1-.6-.083,8.769,8.769,0,0,1-1.466.147,12.285,12.285,0,0,1-3.209-.44,18.783,18.783,0,0,1-2.818-.994c-.862-.376-1.687-.788-2.491-1.209s-1.59-.862-2.363-1.3l-2.241-1.326c-1.424-.815-3.013-1.629-4.6-2.642a26.586,26.586,0,0,1-2.329-1.668c-.735-.591-1.419-1.194-2.075-1.792l-1.911-1.722c-.616-.538-1.253-1.057-1.922-1.595l-.44-.352a18.316,18.316,0,0,0-9.3-.651c-2.28.679-4.4,1.3-6.5,2.134-1.179.454-2.388.945-3.636,1.414-.63.24-1.238.445-1.844.66l-1.815.635-3.616,1.277c-1.077.42-2.2.969-3.385,1.526-.6.279-1.214.562-1.849.832s-1.331.537-1.986.759c-1.316.44-2.564.779-3.689,1.165-.284.1-.557.2-.828.3s-.537.21-.744.308a11.921,11.921,0,0,0-1.429.793c-1.008.621-2.109,1.419-3.484,2.118a21.559,21.559,0,0,1-2,.876c-.64.249-1.267.474-1.873.7s-1.184.43-1.741.652c-.279.112-.547.22-.814.337l-.891.406a13.613,13.613,0,0,1-9.272.674,12.135,12.135,0,0,1-4.212-2.354,19.428,19.428,0,0,1-2.994-3.243c-.837-1.106-1.57-2.2-2.3-3.272l-1.086-1.585c-.326-.469-.669-.925-1.062-1.409-.774-.969-1.653-2.005-2.476-3.185q-.308-.44-.6-.91l-.5-.795-1.042-1.585c-.715-1.077-1.466-2.212-2.153-3.438l-.94-1.668-.969-1.688c-.651-1.14-1.3-2.334-1.9-3.616s-1.062-2.525-1.526-3.729-.91-2.32-1.433-3.465-1.077-2.339-1.6-3.6c-.264-.635-.513-1.267-.749-1.966s-.43-1.385-.6-2.054c-.146-.586-.274-1.165-.4-1.722-.94-1.907-1.565-4.012-3.155-5.4-2.231-1.955-5.924-1.209-8.938-1.678-1.277.068-2.491.073-3.636.108-2.711.078-5.621.5-8.664.71a27.451,27.451,0,0,0-3.934.72c-.744.163-1.531.326-2.373.44l-.626.078-.576.054-1.13.088c-1.482.1-2.891.191-4.217.376l-1.038.163c-.415.068-.814.117-1.209.163-.778.083-1.526.142-2.231.205s-1.37.137-2,.244a12.072,12.072,0,0,0-1.8.42c-.788.259-1.619.6-2.486.969a10.6,10.6,0,0,0-1.355,1.008,7.172,7.172,0,0,0-2.212,5.213c.02.552.044,1.106.078,1.648a19.878,19.878,0,0,0,.523,3.023,22.593,22.593,0,0,1,.64,3.968c.078,1.629.127,3.258.176,4.83.02.745.044,1.477.068,2.212.044,1.365.034,2.7.02,3.983-.01,1.067-.024,2.07,0,3.053.034,1.433.02,2.8,0,4.129-.01,1.018-.02,1.976,0,2.9.015,1.277.117,2.5.22,3.689s.191,2.271.2,3.336a14.533,14.533,0,0,1-.264,2.932,6.351,6.351,0,0,0,.684,3.365,10.912,10.912,0,0,1,.8,2.064,27.868,27.868,0,0,1,2.324,6.2,12.993,12.993,0,0,1,.326,6.8,10.2,10.2,0,0,1-3.474,4.642c-.24.215-.479.425-.715.64a69.123,69.123,0,0,1-5.46,4.588,23.644,23.644,0,0,0-2.08,1.849,20.43,20.43,0,0,1-3.409,2.818,70.615,70.615,0,0,1-6.353,3.4,47.126,47.126,0,0,1-5.6,2.153c-.4.137-.793.264-1.179.4a43.587,43.587,0,0,1-7.1,2.005,22.175,22.175,0,0,1-3.287.269c-2.085,0-4.33-.376-5.69-1.741-1.859-1.854-1.6-5.2.705-9.418a48.639,48.639,0,0,1,3.621-5.3l.4-.537c.44-.591.876-1.243,1.336-1.927a37.721,37.721,0,0,1,2.715-3.7c.93-1.077,1.955-2.064,2.96-3.023.665-.635,1.292-1.238,1.893-1.863.537-.557,1.062-1.13,1.585-1.7,1.008-1.1,2.049-2.232,3.165-3.277.283-.269.577-.523.867-.769,1.478-1.5,2.8-3.009,2.676-5.274-.029-.5-.083-.977-.137-1.453-.108-.357-.205-.74-.3-1.174-.205-.945-.352-1.937-.508-2.989-.186-1.228-.376-2.5-.67-3.811-.191-.847-.376-1.732-.572-2.637-.283-1.326-.572-2.7-.906-4.1-.23-.977-.577-2.005-.945-3.095-.386-1.116-.779-2.28-1.087-3.513-.293-1.179-.63-2.349-.989-3.584-.283-.989-.582-2.01-.852-3.043a32.447,32.447,0,0,1-.665-3.567,25.529,25.529,0,0,0-.6-3.214c-.391-1.389-.847-2.784-1.282-4.139-.264-.815-.523-1.619-.769-2.417-.381-1.233-.881-2.461-1.36-3.65-.362-.9-.74-1.819-1.062-2.745a15.477,15.477,0,0,1-.665-8.517c.72-3.038,2.862-5.387,4.652-7.1.679-.652,1.326-1.37,2.01-2.134a30.237,30.237,0,0,1,3.16-3.194,24.394,24.394,0,0,1,3.746-2.461,24.17,24.17,0,0,0,2.5-1.546c1.59-1.184,3.2-2.241,4.76-3.258.44-.293.881-.582,1.316-.871a22.463,22.463,0,0,0,2.443-1.986,21.751,21.751,0,0,1,3.356-2.618,28.023,28.023,0,0,1,4.072-1.893,27.243,27.243,0,0,0,2.647-1.155c.969-.523,1.912-1.13,2.828-1.722a32.776,32.776,0,0,1,3.5-2.054c1.639-.788,3.209-1.37,4.6-1.883.674-.254,1.316-.489,1.9-.73a7.258,7.258,0,0,0,2.606-2.618,5.388,5.388,0,0,0,.572-2.823,33.281,33.281,0,0,1-1.316-3.8,15.067,15.067,0,0,1-.326-1.526c-.044-.249-.083-.542-.112-.815s-.044-.547-.059-.814c-.044-1.047,0-1.981.024-2.842a22.523,22.523,0,0,0-.015-2.383c-.02-.326-.083-.814-.132-1.238l-.163-1.3-1.272-10.425-.078-.652c-.015-.122-.029-.191-.039-.264a1.917,1.917,0,0,0-.044-.235,9.46,9.46,0,0,0-.279-1.033c-.23-.735-.552-1.541-.862-2.443-.163-.45-.313-.915-.45-1.414-.068-.249-.132-.5-.2-.764l-.083-.4-.063-.342c-.171-.91-.326-1.792-.469-2.652s-.3-1.692-.469-2.505c-.088-.415-.176-.784-.278-1.218l-.313-1.331q-.366-1.637-.74-3.17a7.6,7.6,0,0,0-1.986-2.569,11.941,11.941,0,0,0-1.712-1.14c-.852-.259-1.727-.533-2.618-.862-.3-.112-.6-.23-.906-.357l-.793-.326-1.6-.625c-1.086-.411-2.2-.842-3.341-1.321-.577-.249-1.126-.489-1.741-.793a19.67,19.67,0,0,1-1.741-.977c-1.091-.684-2.059-1.389-2.974-1.986-.454-.3-.9-.567-1.321-.8l-1.546-.814-3.155-1.658-3.095-1.629c-.989-.508-2.03-.989-3.116-1.5-.542-.259-1.1-.528-1.668-.828s-1.165-.64-1.7-.977a21.46,21.46,0,0,1-3.179-2.412,15.755,15.755,0,0,1-1.443-1.516,14.527,14.527,0,0,1-1.233-1.751,18.116,18.116,0,0,1-1.683-3.738,19.478,19.478,0,0,1-.832-3.953,19.206,19.206,0,0,1-.122-2.034c0-.7.059-1.4.1-1.932a11.233,11.233,0,0,0,.01-1.466c-.03-.489-.083-1.013-.163-1.541s-.163-1.023-.274-1.492-.264-.93-.454-1.551a17.283,17.283,0,0,1-.489-1.986c-.127-.66-.215-1.3-.283-1.932s-.132-1.277-.163-1.942-.015-1.336-.015-1.868-.019-1.033-.064-1.56-.107-1.086-.181-1.6a14.865,14.865,0,0,0-.279-1.5c-.112-.474-.259-.94-.449-1.58a19.033,19.033,0,0,1-.469-1.976c-.117-.66-.205-1.3-.274-1.922s-.132-1.272-.163-1.927-.029-1.3-.039-1.849a25.66,25.66,0,0,0-.269-3.214c-.073-.557-.163-1.1-.254-1.629s-.21-1.072-.326-1.687-.234-1.248-.326-1.863c-.093-.582-.171-1.345-.23-1.6a8.23,8.23,0,0,0-1.067-2.443l-.215-.357-.269-.469c-.171-.313-.326-.625-.474-.945-.293-.625-.538-1.253-.759-1.863-.435-1.228-.759-2.4-1.087-3.494-.151-.508-.352-1.13-.518-1.727s-.326-1.214-.479-1.829a32.814,32.814,0,0,1-.669-3.782c-.068-.635-.122-1.3-.147-1.976s-.01-1.321.02-1.971c.064-1.3.21-2.559.391-3.772l.264-1.736.254-1.775a18.53,18.53,0,0,1,.977-3.992,10.263,10.263,0,0,1,2.686-3.851,12.93,12.93,0,0,1,3.746-2.32q.489-.2.977-.367l.489-.163.552-.163a10.179,10.179,0,0,1,2.344-.337,10.326,10.326,0,0,1,4.569.993c.163.078.326.163.489.24l.445.23.828.454c.562.326,1.14.664,1.722,1.072a11.88,11.88,0,0,1,3.16,3.2,15.808,15.808,0,0,1,1.731,3.865c.391,1.267.665,2.5.911,3.685s.474,2.427.611,3.728c.073.652.117,1.321.132,2,0,.342,0,.684-.015,1.033s-.034.684-.083,1.1a15.863,15.863,0,0,1-1.165,4.041l-.691,1.644-.3.754-.337.867A25.983,25.983,0,0,1,1502,785.03c-.1.163-.2.326-.3.489a10,10,0,0,0-.616,3.875c.02.068.034.132.054.2a16.93,16.93,0,0,1,.381,2.039c.083.705.112,1.243.181,1.7a13.1,13.1,0,0,0,.3,1.443c.132.489.3,1.042.464,1.536s.337.955.552,1.466.489,1.14.72,1.756.42,1.243.6,1.844l.489,1.648c.171.538.342,1.062.533,1.629s.381,1.16.557,1.741c.71,2.315,1.3,4.633,1.942,6.841.313,1.1.669,2.32.954,3.523s.5,2.212.827,3.326c.039.142.083.274.122.415.71,2.1,1.321,4.427,2.662,6.19a10.671,10.671,0,0,0,3.557,2.53c.537.205,1.072.411,1.6.606.93.342,1.873.679,2.759.955.911.279,1.878.528,2.867.793s2,.533,3.028.857c1.087.326,2.118.754,3.062,1.14s1.854.764,2.725,1.077c.215.078.43.147.652.215s.41.132.669.2l1.466.381,5.792,1.531c.911.205,1.868.376,2.867.542.906.163,1.849.326,2.808.528,1.047-.21,1.966-.652,1.863-1.648-.171-1.643-2.29-2.168-3.6-2.461a1.5,1.5,0,0,1-.489-.205,8.308,8.308,0,0,1-2.359-1.35,8.816,8.816,0,0,1-2.364-3,7.959,7.959,0,0,1-.371-.837l-.163-.425-.127-.391c-.163-.518-.3-1.038-.415-1.556a29.115,29.115,0,0,1-.489-3.023l-.151-1.438-.068-.7-.064-.759a26.671,26.671,0,0,1,.4-6.027,8.013,8.013,0,0,0-.163-2.569c-.416-1.614-1.717-2.833-2.857-3.968a1.626,1.626,0,0,1-.244-.326,13.259,13.259,0,0,1-3.856-8.815,11.781,11.781,0,0,1,4.613-9.408c3.987-2.852,11.1-2.754,17.745,2.192a50.3,50.3,0,0,0,6.516,2.916c.474.078.935.171,1.389.283a22.243,22.243,0,0,1,2.989.977c.479.191.945.391,1.4.606s.989.489,1.466.764a16.468,16.468,0,0,1,2.652,1.955,20.449,20.449,0,0,1,2.188,2.339,17.822,17.822,0,0,1,1.792,2.711,16.933,16.933,0,0,1,1.248,3.028,17.662,17.662,0,0,1,.652,3.18c.083.749.122,1.477.142,2.2a2.466,2.466,0,0,1,0,1.492c0,.3-.01.591-.02.881-.01.259-.015.415-.015.635v.652c.015.881.063,1.854.02,2.945a13.272,13.272,0,0,1-.181,1.722,10.186,10.186,0,0,1-.5,1.792,34.8,34.8,0,0,1-2.945,5.157,8.88,8.88,0,0,0-1.023,4.235,11.787,11.787,0,0,0,.2,2.334c.039.2.068.391.117.581l.068.288a.145.145,0,0,0,.01.034c.029.054.108.171.205.347a4.54,4.54,0,0,1,.3.7c.034.107.068.215.093.308l.049.181a3.314,3.314,0,0,0,.759,1.4,2.38,2.38,0,0,0,1.189.715,3.122,3.122,0,0,0,.347.068l.625.054c.415.034.852.054,1.3.068.891.029,1.834.034,2.833.083a20.791,20.791,0,0,1,3.145.342,26.491,26.491,0,0,1,2.989.8c.925.3,1.792.6,2.618.847.41.122.814.225,1.189.313s.754.142,1.155.2c.814.1,1.717.152,2.7.23a18.826,18.826,0,0,1,3.184.489l.416.117.367.107.715.235q.711.244,1.4.489c.916.337,1.8.7,2.667,1.033l1.277.489.65.221c.249.1.5.191.744.293.977.406,1.878.867,2.73,1.316s1.653.891,2.422,1.262c.71.347,1.619.73,2.476,1.111s1.732.779,2.606,1.189l1.3.63,1.272.64c1.428.74,3.16,1.262,5.089,2.129a14.287,14.287,0,0,1,2.859,1.691,25.826,25.826,0,0,1,2.319,2.03c.7.66,1.321,1.277,1.907,1.746.274.215.616.459.977.7s.72.469,1.1.705l2.417,1.466c.425.269.866.547,1.316.881a13.58,13.58,0,0,1,1.341,1.13,13.9,13.9,0,0,1,3.4,5.841,15.893,15.893,0,0,1,.4,1.565c.059.264.1.523.151.788l.112.754c.122.842.293,1.761.454,2.7s.313,1.907.435,2.891c.059.489.112.989.151,1.487l.059.679.068.66c.191,1.792.474,3.719.557,5.739l.024.774c0,.293,0,.577-.02.857-.029.552-.083,1.086-.147,1.595-.137,1.013-.308,1.942-.44,2.818-.063.435-.122.862-.163,1.267-.02.205-.039.406-.049.606l-.039.652-.186,2.857-.191,2.857-.1,1.429-.137,1.389c-.176,1.863-.362,3.782-.679,5.729l-.108.679-.093.635c-.059.43-.107.881-.163,1.336-.1.915-.191,1.873-.326,2.872a20.886,20.886,0,0,1-.651,3.106,26.323,26.323,0,0,1-1.111,2.9c-.4.886-.784,1.712-1.1,2.5l-.23.586-.151.44a1.716,1.716,0,0,0-.034.562,2.709,2.709,0,0,0,.163.73,1.822,1.822,0,0,0,.137.308c.059.1.152.264.24.386a7.087,7.087,0,0,0,1.438,1.5,23.742,23.742,0,0,0,2.1,1.466c.391.259.8.523,1.223.814l1.179.847a21,21,0,0,1,4.618,4.315,12.941,12.941,0,0,1,.95,1.477,11.842,11.842,0,0,1,.725,1.639,14.073,14.073,0,0,1,.684,3.331,22.674,22.674,0,0,1,.044,3.145,14.358,14.358,0,0,1-.523,3.321,9.8,9.8,0,0,1-1.653,3.312,9.935,9.935,0,0,1-2.769,2.432,14.076,14.076,0,0,1-3.095,1.365c-.518.163-1.033.293-1.546.411-.254.059-.508.117-.764.163l-.381.073-.44.064a14.273,14.273,0,0,1-6.659-.814c-1.042-.376-1.854-.735-2.8-1.16a17.872,17.872,0,0,1-2.823-1.59,11.727,11.727,0,0,1-2.569-2.417,13.718,13.718,0,0,1-1.7-2.955c-.425-.977-.749-1.927-1.052-2.842l-.22-.679-.225-.715c-.163-.518-.283-1.038-.4-1.556a30.867,30.867,0,0,1-.562-6.056,35.93,35.93,0,0,1,.347-6c.039-.254.078-.508.127-.764l.137-.705.24-1.331c.151-.891.283-1.792.406-2.691s.23-1.82.326-2.706a20.857,20.857,0,0,0,.073-2.51c-.02-.876-.068-1.8-.1-2.769l-.073-2.867-.163-5.5c-.108-2.148.117-4.036.073-5.7-.01-.41-.025-.814-.064-1.2l-.186-1.36-.376-2.73-.381-2.73c-.132-.871-.293-1.746-.479-2.637l-.586-2.711-.3-1.389c-.108-.5-.2-.994-.279-1.477a1.151,1.151,0,0,1-.02-.137,1.389,1.389,0,0,1-.044-.151,13.188,13.188,0,0,0-1.541-4.962,9.686,9.686,0,0,0-3.272-2.813l-1.707-.906c-.6-.313-1.209-.621-1.815-.92s-1.213-.586-1.824-.862l-1.9-.837c-1.3-.582-2.525-1.16-3.724-1.629-.611-.235-1.179-.43-1.81-.625-.239-.073-.489-.132-.725-.2-.1.01-.2.015-.3.024-1.262.191-1.526,1.194-1.5,2.261.147.6.3,1.184.464,1.741a18.137,18.137,0,0,0,.8,2.207c.625,1.466,1.546,3,2.256,4.932l1.756,5.05c.283.842.586,1.663.847,2.525l.793,2.569.788,2.574.4,1.287c.132.464.254.93.366,1.389.445,1.854.72,3.694.977,5.431l.1.669c.039.249.068.5.093.749.054.5.093,1,.107,1.507a21.066,21.066,0,0,1-.117,3,26.412,26.412,0,0,1-.489,2.9,15.468,15.468,0,0,1-1,3.013c-.049.1-.108.205-.163.308a27.706,27.706,0,0,0-1.37,8.62,31.767,31.767,0,0,0,.769,3.219c.3,1.1.621,2.241.832,3.429.205,1.126.347,2.246.489,3.331.163,1.238.313,2.4.538,3.538q.249,1.284.489,2.559c.278,1.477.542,2.872.842,4.256.249,1.16.6,2.334.94,3.474.326,1.052.64,2.139.9,3.238.283,1.228.479,2.427.67,3.583s.366,2.246.616,3.258a35.15,35.15,0,0,0,1.106,3.46c.371,1.033.759,2.1,1.033,3.17.347,1.331.783,2.559,1.2,3.747.352.994.684,1.932.945,2.862.163.582.283,1.082.381,1.526.935,1.487,1.824,3.062,3.584,3.583,2.525.759,5.186-.313,7.534-1.184a1.487,1.487,0,0,1,.386-.083c.577-.186,1.165-.357,1.8-.518a31.213,31.213,0,0,1,3.095-.562c.977-.142,1.9-.269,2.745-.445l1.429-.308c.489-.1.989-.191,1.477-.283,1.966-.362,3.895-.63,5.646-1.038l2.842-.669a20.211,20.211,0,0,1,3.282-.528c.147-.015.3-.01.45-.015a7.572,7.572,0,0,0,2.979-1.859,7.339,7.339,0,0,0,.857-1.116,10.959,10.959,0,0,1,.469-1.052,9.95,9.95,0,0,1,.788-1.3,9.013,9.013,0,0,1,1.038-1.209,10.884,10.884,0,0,1,2.417-1.751,22.074,22.074,0,0,1,2.383-1.082l.542-.21.435-.186c.288-.132.567-.269.862-.43l1-.572a6.708,6.708,0,0,1,1.678-.684,5.611,5.611,0,0,1,1.986-.112,9.942,9.942,0,0,1,1.526.3,2.294,2.294,0,0,1,.591.249l.039.024a33.291,33.291,0,0,1,4.447,3.421c.67.606,1.257,1.077,2.039,1.829a26.168,26.168,0,0,1,1.917,2.144l1.619,2.02.386.464c.127.147.24.279.371.415.249.279.528.557.814.847.582.577,1.238,1.179,1.9,1.873a13.928,13.928,0,0,1,1.942,2.456,29.022,29.022,0,0,1,2.143,5.225,27.929,27.929,0,0,0,2.251,4.235,19.232,19.232,0,0,1,1.321,2.676l.137.381.117.342c.073.23.142.455.21.684.137.455.259.911.371,1.37.225.911.406,1.819.557,2.715l.215,1.331.1.651Zm-21.012-4.608a.772.772,0,0,0,.244-.425,58.073,58.073,0,0,1-6.41-10.612,38.848,38.848,0,0,1-2.994-9.122,6.719,6.719,0,0,1-.814-2.461c-.073-.391-.112-.945-.464-1.174a1.071,1.071,0,0,0-.754-.083,5.4,5.4,0,0,0-.814.64,4.719,4.719,0,0,0-.891,1.238,11.079,11.079,0,0,0-.94,3.106,2.369,2.369,0,0,1,.034.326,20.709,20.709,0,0,0,3.028,9.917,2.479,2.479,0,0,1,.326.814c.9.828,1.912,1.629,2.979,2.481.684.547,1.394,1.126,2.08,1.727l1.966,1.756c.63.567,1.248,1.111,1.868,1.609.235.186.469.362.705.533a1.251,1.251,0,0,0,.855-.269Zm-19.242-8.39c1.927-1.863.2-4.32-1.639-5.519a16.093,16.093,0,0,0-4.051-.567.061.061,0,0,0-.029,0,18.919,18.919,0,0,0-2.1.44,1.452,1.452,0,0,1-.64.039c-.779.163-1.575.313-2.31.44l-2.862.5-1.4.264-1.433.288c-1.072.205-2.085.326-3.038.454s-1.844.254-2.671.43-1.717.435-2.606.715l-2.779.9c-.489.163-.95.3-1.466.45s-1.052.274-1.556.376c-1.008.21-1.954.376-2.847.567-.44.1-.867.2-1.267.326s-.788.249-1.189.41c-1.619.621-3.3,1.609-5.269,2.427a1.958,1.958,0,0,1-1.649-3.553l.025-.01c.163-.083.326-.171.489-.259a8.338,8.338,0,0,0,1.389-4.305,13.507,13.507,0,0,1-.146-1.466c-.015-.249-.029-.5-.064-.814-.586-1.888-1.375-3.553-3.346-4.354a11.8,11.8,0,0,0-5.05-.562,20.077,20.077,0,0,0-14.393,9.54,11.114,11.114,0,0,0,.147,6.5l.24.366.528.837q.22.352.469.705c.651.945,1.448,1.883,2.29,2.932.415.518.857,1.086,1.262,1.683l1.106,1.614c.725,1.067,1.433,2.118,2.158,3.072a14.563,14.563,0,0,0,2.241,2.443,7.241,7.241,0,0,0,2.5,1.419,7.626,7.626,0,0,0,1.414.269,8.548,8.548,0,0,0,1.5,0,9.326,9.326,0,0,0,2.969-.759l.872-.4c.326-.142.651-.279.977-.406.651-.259,1.282-.489,1.888-.71s1.2-.43,1.766-.652a16.578,16.578,0,0,0,1.546-.669c.935-.474,1.942-1.184,3.126-1.927a18.331,18.331,0,0,1,1.955-1.077c.381-.176.71-.308,1.047-.435s.665-.249,1-.362c1.316-.445,2.569-.788,3.7-1.17.572-.191,1.077-.386,1.639-.625s1.111-.489,1.683-.759c1.15-.533,2.349-1.125,3.68-1.648,1.267-.464,2.466-.871,3.7-1.3l1.839-.652c.616-.215,1.228-.425,1.8-.652,1.175-.44,2.364-.92,3.584-1.394s2.476-.911,3.719-1.3c.283-.1.572-.2.871-.288.181-.054.371-.1.567-.151.814-.244,1.609-.489,2.378-.715.21-.063.411-.127.606-.191a4.365,4.365,0,0,0,1.142-.757Zm-8.184-37.966a18.63,18.63,0,0,0-.034-2.461,9.063,9.063,0,0,0-.435-2.158,6.634,6.634,0,0,0-.977-1.8,16.391,16.391,0,0,0-3.583-3.287l-1.1-.788c-.337-.239-.715-.489-1.106-.74-.779-.513-1.629-1.072-2.486-1.756a11.961,11.961,0,0,1-2.412-2.554,7.909,7.909,0,0,1-.489-.814,6.476,6.476,0,0,1-.435-.969,7.784,7.784,0,0,1-.44-2.005,6.611,6.611,0,0,1,.181-2.217c.132-.469.205-.616.3-.891l.283-.72c.381-.95.793-1.815,1.155-2.637a20.8,20.8,0,0,0,.906-2.339,16.428,16.428,0,0,0,.489-2.383c.122-.852.21-1.756.313-2.7.054-.474.1-.955.171-1.453l.107-.749.112-.705c.283-1.751.464-3.557.64-5.421l.137-1.4.088-1.37.186-2.745.181-2.74.044-.749c.015-.269.039-.533.064-.793.049-.523.122-1.028.2-1.516.147-.977.313-1.883.42-2.725.059-.42.093-.814.112-1.2.015-.191.015-.371.015-.547l-.02-.63c-.068-1.717-.326-3.494-.537-5.426l-.073-.74-.059-.715c-.034-.435-.083-.872-.137-1.3-.1-.871-.244-1.751-.4-2.657s-.326-1.824-.479-2.833l-.093-.635c-.039-.2-.068-.4-.112-.591q-.125-.586-.293-1.14a8.945,8.945,0,0,0-2.158-3.777,26.136,26.136,0,0,0-4.207-2.793c-.415-.259-.842-.528-1.262-.815s-.842-.577-1.3-.94c-.876-.705-1.575-1.409-2.241-2.034-.2-.2-.4-.376-.591-.557a6.8,6.8,0,0,0-6.532-.371,11.9,11.9,0,0,0-1.4,1.2,10.02,10.02,0,0,0-2.932,7.187,1.435,1.435,0,0,1,.029.254,7.369,7.369,0,0,0,2.064,5.167,13.9,13.9,0,0,0,1.639,1.336c.891.489,1.81.989,2.75,1.541.313.186.635.381.955.591.163.1.326.21.479.326l.43.3c.562.4,1.121.779,1.688,1.16l.891.6c.313.22.64.459.935.7.6.489,1.121.955,1.644,1.424a1.707,1.707,0,0,1,.142,2.417,1.726,1.726,0,0,1-.425.337,1.123,1.123,0,0,1-.842.259,1.4,1.4,0,0,0-1.771,1.2c.034.191.068.386.108.572l.293,1.355.6,2.769c.191.94.376,1.9.523,2.886l.391,2.828.391,2.823.191,1.428c.054.542.078,1.072.088,1.59.034,2.08-.171,3.929-.078,5.523l.163,5.714.068,2.745c.029.906.083,1.849.1,2.842a25.7,25.7,0,0,1-.093,3.095c-.1.977-.215,1.907-.342,2.867s-.269,1.907-.435,2.857l-.254,1.433-.132.669c-.039.205-.068.415-.1.621a30.937,30.937,0,0,0-.288,5.2,25.782,25.782,0,0,0,.459,5.1q.125.594.293,1.165l.406,1.272c.283.862.572,1.683.891,2.422a7,7,0,0,0,2.588,3.316,13.222,13.222,0,0,0,2.064,1.15c.754.342,1.663.73,2.383.989a9.323,9.323,0,0,0,4.364.586l.259-.034.3-.059c.21-.039.406-.083.611-.127.4-.093.788-.2,1.165-.308a9.514,9.514,0,0,0,2.03-.886,4.721,4.721,0,0,0,2.256-2.921,9.948,9.948,0,0,0,.357-2.187ZM1617.2,978.822l.044-.015a.511.511,0,0,0-.054-.039.214.214,0,0,1,.008.052Zm-4.09-121.469c.44-.784.945-1.487.293-2.32a1.552,1.552,0,0,0-.122-.132l-.93-.445c-.814-.391-1.658-.769-2.505-1.14s-1.668-.715-2.642-1.184c-.911-.45-1.751-.911-2.554-1.336s-1.57-.814-2.324-1.121c-.186-.083-.371-.151-.557-.22l-.674-.254-1.34-.518c-.881-.342-1.732-.684-2.569-.994-.42-.151-.837-.3-1.248-.44l-.621-.2-.308-.093-.259-.073a46.487,46.487,0,0,0-5.25-.6c-.523-.068-1.062-.151-1.614-.274-.528-.117-1.033-.254-1.521-.4-.969-.288-1.868-.6-2.72-.876-.586-.191-1.15-.357-1.7-.489-2.143.039-3.655,1.57-5.375,2.989a22.443,22.443,0,0,1-12.28,5.45,25.607,25.607,0,0,1-21.485-7.268,21.626,21.626,0,0,0-4.139-2.945c-1.556-.837-3.258-1.3-4.813-2.139a1.532,1.532,0,0,1-.272-.2l-.088-.024-1.5-.406c-.24-.063-.523-.151-.8-.239s-.542-.181-.8-.279c-1.057-.381-2.035-.814-2.955-1.228h-.01a11.7,11.7,0,0,0-6.178.513,12.012,12.012,0,0,0-1.648,1.453,10.931,10.931,0,0,0-2.932,7.892,7.688,7.688,0,0,0,4.344,5.864,1.338,1.338,0,0,1,.543.474c.234.107.469.215.705.326,1.018.454,2.1.876,3.2,1.35.552.23,1.111.469,1.668.725l.827.376c.24.112.479.22.73.326,1.981.862,4.286,1.507,6.649,2.652,2.354,1.189,4.168,2.606,6.046,3.489l.034.015a1.705,1.705,0,0,1,.063,3.062,1.38,1.38,0,0,1-1.16.186c-.989-.249-1.3.744-1.36,1.9l.21.857c.108.42.23.911.326,1.36.21.915.376,1.819.538,2.7s.308,1.741.469,2.569l.059.308.059.254c.039.171.083.342.137.518.1.352.225.73.362,1.111.274.774.611,1.6.92,2.559a14.641,14.641,0,0,1,.42,1.526c.029.132.058.274.083.415s.049.288.063.386l.083.665.577,4.5A23.945,23.945,0,0,0,1548,898.6a23.032,23.032,0,0,0,2.984,2.456c.557.376,1.13.744,1.717,1.077.288.163.586.326.881.474s.621.3.842.406l.112.049a1.955,1.955,0,0,1-1.466,3.621c-.459-.163-.8-.308-1.179-.474s-.725-.326-1.082-.508c-.71-.352-1.4-.744-2.08-1.15-.489-.3-.964-.616-1.438-.95-.108-.034-.21-.068-.326-.1-1.6-.43-1.955.72-1.971,1.955.386,1.179.93,2.422,1.466,3.909a11.285,11.285,0,0,0,1.927,3.8,5.9,5.9,0,0,0,.64.616c.308.244.621.489.945.72.651.469,1.331.915,2.044,1.35s1.453.862,2.217,1.3l1.111.625c.362.2.725.386,1.1.572a45.493,45.493,0,0,0,4.628,1.976c1.883.72,3.445,1.58,4.849,2.095.352.127.691.24,1.013.326.171.044.308.068.489.112l.6.108c.8.142,1.614.244,2.443.326s1.673.147,2.53.2l1.287.068c.357.015.725.015,1.1,0,1.511-.059,3.174-.371,5.049-.611l.715-.083.66-.068,1.3-.142c.861-.093,1.692-.2,2.505-.326a22.632,22.632,0,0,0,2.334-.489c.857-.23,1.692-.454,2.505-.691a23.293,23.293,0,0,0,4.457-1.7,21.48,21.48,0,0,0,3.87-2.73l.942-.842a9.793,9.793,0,0,0,.71-.72,6.994,6.994,0,0,0,1.062-1.629,10.217,10.217,0,0,0,.675-2.01,20.78,20.78,0,0,0,.4-2.324,15.74,15.74,0,0,0,.1-2.3c-.01-.381-.034-.759-.073-1.14-.015-.186-.039-.376-.068-.562l-.088-.652c-.254-1.761-.489-3.421-.871-5.01-.093-.4-.2-.788-.3-1.174l-.376-1.253-.754-2.5-.754-2.5c-.244-.837-.552-1.678-.814-2.515l-1.653-4.986c-.489-1.4-1.3-2.969-2.02-4.769a19.117,19.117,0,0,1-.881-2.818c-.22-.93-.391-1.829-.557-2.7s-.308-1.727-.479-2.549-.371-1.614-.586-2.461a51.1,51.1,0,0,1-1.243-5.318,1.712,1.712,0,0,1,3.106-1.228,1.134,1.134,0,0,1,.1.117,9.241,9.241,0,0,0,4,3.346c.651.288,1.253.538,1.8.842.586.181,1.174.367,1.756.577.691.24,1.429.533,2.1.832.847.371,1.648.769,2.432,1.165.828.191,1.736.244,2.139-.489a14.166,14.166,0,0,1,4.095-11.042c.142-.248.3-.5.44-.762ZM1606.473,966.5a1.94,1.94,0,0,0,1.267-2.852,6.733,6.733,0,0,1-.567-2.881c-.108-.362-.21-.735-.3-1.116-.293-1.194-.5-2.432-.7-3.631-.176-1.082-.362-2.2-.611-3.272-.215-.95-.5-1.917-.814-2.945-.367-1.223-.745-2.5-1.033-3.836-.313-1.443-.6-2.932-.872-4.378-.163-.832-.326-1.673-.489-2.515-.259-1.3-.425-2.606-.591-3.865-.137-1.072-.269-2.085-.45-3.095-.171-.969-.445-1.955-.735-3-.078-.293-.163-.586-.239-.886a5.835,5.835,0,0,0-3.523-2.432,12.329,12.329,0,0,0-3.782-.083c-.386.127-.774.249-1.155.362-.881.264-1.751.5-2.606.735a28.1,28.1,0,0,1-2.852.616c-.935.152-1.854.269-2.75.376l-1.336.147-.66.073-.6.073c-1.629.21-3.455.581-5.479.679-.5.019-1.023.024-1.551,0l-1.36-.064c-.911-.049-1.829-.117-2.759-.215s-1.868-.215-2.808-.381l-.71-.127c-.244-.054-.542-.117-.8-.186a15.724,15.724,0,0,1-1.516-.479c-1.907-.72-3.455-1.58-4.887-2.117a50.576,50.576,0,0,1-5.118-2.192c-.42-.21-.837-.43-1.253-.652l-.621-.347-.582-.326c-.769-.44-1.56-.9-2.354-1.38-.342-.21-.679-.425-1.023-.651a14.078,14.078,0,0,0-6.625-.847c-.44.2-.949.425-1.575.691-.769.326-1.58.625-2.443.945-1.355.5-2.75,1.023-4.188,1.707a29.356,29.356,0,0,0-2.96,1.756c-.994.652-2.02,1.3-3.17,1.922a30.163,30.163,0,0,1-3.15,1.394,27.111,27.111,0,0,0-2.964,1.316,7.892,7.892,0,0,0-2.443,2.569,18.57,18.57,0,0,0-1.121,3.4,21.8,21.8,0,0,0,7.638,16.4,8.406,8.406,0,0,0,3.484,1.165c.911.083,1.792.034,2.671.083.122-.02.249-.034.366-.049.326-.054.66-.1.977-.163l.542-.1.591-.107c1.575-.259,3.095-.386,4.544-.528l1.062-.108.518-.059.464-.059c.616-.093,1.267-.23,1.955-.386a28.807,28.807,0,0,1,4.724-.862c2.823-.151,5.744-.577,8.913-.582,1.521,0,2.945.034,4.261-.049l.489-.034.542-.044c.406-.039.8-.059,1.189-.083l2.222-.083a15.442,15.442,0,0,0,3.746-.469,27.151,27.151,0,0,0,3.724-1.629c.352-.163.705-.326,1.077-.489s.774-.326,1.106-.44l2.039-.764a26.323,26.323,0,0,0,3.714-1.707l.02-.015a1.717,1.717,0,0,1,1.888,2.857,19.26,19.26,0,0,1-2.01,1.326,1.855,1.855,0,0,1-.274.23c-1.561,1.013-3.479,2.183-4.027,4.1a12.8,12.8,0,0,0,.142,5.186c.078.274.163.547.23.832.342,1.345.586,2.618.881,3.787.146.586.3,1.14.489,1.668s.4,1.1.631,1.658c.469,1.121,1.008,2.271,1.551,3.479s1.067,2.5,1.526,3.7.916,2.373,1.414,3.45c.23.5.489,1.008.754,1.521a2.511,2.511,0,0,0,2.813.02c5.886-8.632,14.507-10.5,20.265-10.671ZM1571.532,846.08c.955-.906,1.4-1.466.391-2.6a5.513,5.513,0,0,0-.625-.6,7.4,7.4,0,0,1-2.163-1.6,8.2,8.2,0,0,1-1.907-3.474l-.044-.163c-.019-.034-.058-.1-.117-.2a4.38,4.38,0,0,1-.326-.679,4.71,4.71,0,0,1-.19-.621l-.093-.391c-.063-.264-.112-.528-.163-.793a17.128,17.128,0,0,1-.279-3.258,14.986,14.986,0,0,1,.147-1.966,1.737,1.737,0,0,0-.163-.6,2.337,2.337,0,0,0-1.209-.977,14.041,14.041,0,0,1-1.5-.326c-.078-.024-.142-.054-.215-.078-3.8-.406-7.5-2.412-9.057-5.592-.234-.326-.464-.674-.7-1.038-.142-.225-.3-.445-.454-.652-1.057-.9-2.143-1.766-3.243-2.606a21.654,21.654,0,0,1-3.434-2.005,3.174,3.174,0,0,0-1.981-.313c-1.023.283-1.4,1.746-1.854,2.932a11.968,11.968,0,0,0,.02,1.394l.059.64.064.7.142,1.35a25.363,25.363,0,0,0,.406,2.52q.132.594.308,1.15l.088.274.093.235a4,4,0,0,0,.191.44,4.15,4.15,0,0,0,.852,1.184,3.78,3.78,0,0,0,4.618-.6,1.666,1.666,0,0,1,.815-.715.48.48,0,0,1,.073-.034c.034-.015.064-.02.1-.034a1.2,1.2,0,0,1,.181-.039,1.534,1.534,0,0,1,.425-.034,1.717,1.717,0,0,1,1.6,1.565c.063.754.132,1.512.171,2.28s.073,1.541.083,2.3c.024,1.5.049,2.932.108,4.422v.161a5.568,5.568,0,0,1-.679,2.4,5.483,5.483,0,0,1-1.771,1.912,5.657,5.657,0,0,1-1.179.591c-.769.538-1.756,1.1-1.257,2.02A21.6,21.6,0,0,0,1563.8,848.8a20.091,20.091,0,0,0,7.426-2.443C1571.321,846.266,1571.428,846.167,1571.532,846.08Zm-1.208-36.894c-.064-.288-.137-.577-.23-.867a11.7,11.7,0,0,0-.886-2.153,12.747,12.747,0,0,0-1.3-1.955,15.185,15.185,0,0,0-1.639-1.756,11,11,0,0,0-2.886-1.907c-.386-.181-.779-.352-1.17-.508a17.861,17.861,0,0,0-2.339-.769c-.391-.093-.774-.171-1.155-.23s-.745-.088-1.189-.117a15.155,15.155,0,0,0-4.745.326,9.231,9.231,0,0,0-3.7,2.368c-.611.577-1.214,1.223-1.873,1.912-.049.049-.1.1-.146.151-.279.391-.552.793-.814,1.218-1.057,1.732-.326,2.867.137,4.437a16.05,16.05,0,0,0,9.325,5.484,19.087,19.087,0,0,0,12.573-1.14,7.116,7.116,0,0,0,2.038-4.491Zm-23.694-12.529c.847-1.888-.386-3.292-1.932-4.134-2.793-.72-5.157-.342-6.458.586a6.86,6.86,0,0,0-2.564,5.357,6.641,6.641,0,0,0,.352,1.99c.749,1.3,1.829,2.491,3.439,2.515a4.294,4.294,0,0,0,2.443-.862c.586-.705,1.189-1.35,1.766-1.955.2-.205.406-.425.611-.64a1.6,1.6,0,0,1,.259-.293l.108-.088c.342-.352.7-.715,1.077-1.072.049-.049.108-.1.163-.147a8,8,0,0,0,.736-1.259ZM1520.646,955.5a2.432,2.432,0,0,0,.567-2.373,8.7,8.7,0,0,0-.547-1.38,25.709,25.709,0,0,1-6.727-13.924c-.058-.163-.117-.326-.181-.479-.754-1.873-2.481-1.277-3.89-.5-.181.132-.362.259-.542.4a28.624,28.624,0,0,1-3,1.873,20.187,20.187,0,0,0-3.023,1.955,27.627,27.627,0,0,0-2.662,2.715c-.715.793-1.453,1.619-2.271,2.4-1.3,1.243-2.852,2.9-3.272,4.691a10.571,10.571,0,0,0,.523,5.773c.283.814.621,1.644.977,2.525.518,1.282,1.057,2.606,1.5,4.041.24.779.489,1.565.754,2.359.45,1.394.916,2.837,1.331,4.31a30.191,30.191,0,0,1,.74,3.836,27.739,27.739,0,0,0,.552,3.033c.259.977.542,1.966.814,2.932.352,1.228.72,2.5,1.038,3.773.254,1.028.6,2.039.964,3.106.391,1.14.793,2.329,1.082,3.548.337,1.443.635,2.842.925,4.2.191.886.376,1.751.562,2.588.326,1.477.543,2.9.735,4.154.044.293.083.577.127.862a1.323,1.323,0,0,1,.137.362c.518,2.28,2.422,4.574,4.7,4.647.445-.078.876-.147,1.3-.2a4.722,4.722,0,0,0,1.028-.518,6.3,6.3,0,0,0,2.466-3.816c0-.176.01-.362.01-.567,0-.867-.088-1.873-.181-2.945-.1-1.209-.215-2.583-.234-4.032-.015-.977,0-1.966,0-3.013.015-1.287.029-2.618,0-3.968-.024-1.067-.01-2.158,0-3.214.015-1.233.025-2.51-.015-3.772-.029-.735-.049-1.477-.073-2.227-.044-1.551-.093-3.155-.171-4.745a18.526,18.526,0,0,0-.528-3.126,24.191,24.191,0,0,1-.63-3.792c-.029-.459-.049-.925-.068-1.385a3.967,3.967,0,0,0-1.585-2.847,1.714,1.714,0,0,1-1.091-3.165c1.277-.779,2.606-1.5,3.944-2.193.674-.352,1.36-.674,2.049-.994.366-.163.651-.3.969-.45Zm-2.769,62.109a3.039,3.039,0,0,0,1.981-3.095v-.059a4.139,4.139,0,0,0-1.277-1.771,5.817,5.817,0,0,0-3.38-1.214,30.333,30.333,0,0,0-3.552.626q-2.106.814-4.144,1.8l-.945.7a31.409,31.409,0,0,0-3.043,2.4c-.977.925-1.917,1.942-2.906,3.018-.547.6-1.1,1.2-1.658,1.78-.674.705-1.37,1.37-2.044,2.015-.954.915-1.859,1.78-2.632,2.676h0c-.2.489-.326.906-.205,1.018.308.293,1.385-.215,1.712-.326.163-.054.337-.088.5-.132a65.416,65.416,0,0,1,21.584-9.43Zm-.717-180.774a2.05,2.05,0,0,0,.293-1.792,2.681,2.681,0,0,0-.749-.871c-.244-.108-.489-.21-.74-.326-1.937-.837-3.746-1.731-5.562-2.5-.455-.2-.906-.371-1.35-.552s-.891-.326-1.4-.518-1.062-.41-1.556-.64-.964-.474-1.433-.72a1.715,1.715,0,0,1-.925-1.58,1.192,1.192,0,0,1,.725-1.389,1.955,1.955,0,0,0,1.213-2.044c-.269-.827-.528-1.653-.769-2.476-.342-1.15-.652-2.443-.906-3.528s-.572-2.118-.915-3.292l-.969-3.421c-.326-1.111-.651-2.251-.989-3.326-.163-.547-.342-1.072-.528-1.619s-.391-1.14-.572-1.727l-.533-1.732c-.163-.528-.326-1.038-.5-1.521s-.376-.935-.625-1.507-.5-1.223-.715-1.834-.386-1.2-.562-1.844a17.652,17.652,0,0,1-.435-2.015c-.108-.705-.147-1.345-.21-1.815a11.936,11.936,0,0,0-.279-1.424c-.059-.244-.132-.489-.21-.759-.088-.3-.181-.625-.264-.989a7.384,7.384,0,0,1-.2-2.681,4.92,4.92,0,0,1,.562-1.741c.43-.71.5-.715.66-.969.293-.42.572-.852.832-1.3a20.182,20.182,0,0,0,1.365-2.833l.3-.784c.112-.308.23-.6.347-.886l.674-1.619a10.864,10.864,0,0,0,.814-2.72c.02-.171.039-.42.049-.665s.015-.489.01-.735q-.014-.749-.1-1.526c-.113-1.042-.308-2.117-.538-3.243a32.171,32.171,0,0,0-.784-3.175,10.649,10.649,0,0,0-1.13-2.574,6.66,6.66,0,0,0-1.792-1.78q-.58-.4-1.277-.793l-.725-.4-.337-.176c-.1-.054-.205-.1-.3-.147a4.758,4.758,0,0,0-3.421-.352l-.3.088-.342.117c-.234.078-.459.163-.679.254a6.074,6.074,0,0,0-3.572,3.258,14.061,14.061,0,0,0-.664,2.867l-.249,1.727-.264,1.756a23.715,23.715,0,0,0-.234,6.366,27.153,27.153,0,0,0,.562,3.17c.127.528.269,1.062.42,1.59s.308,1.038.5,1.653c.352,1.17.652,2.266,1,3.258.176.5.362.969.562,1.409.1.22.21.43.326.635l.406.7a13.253,13.253,0,0,1,1.658,4.036c.083.386.137.842.163,1.067l.108.832c.078.547.163,1.072.274,1.614s.235,1.155.347,1.78.2,1.253.278,1.863a30.89,30.89,0,0,1,.3,3.821c.01.652,0,1.169.029,1.688s.063,1.047.122,1.595.132,1.072.22,1.575a14.216,14.216,0,0,0,.337,1.466c.147.489.352,1.15.508,1.824s.274,1.336.362,1.976.151,1.253.205,1.907.078,1.331.073,1.971-.015,1.15,0,1.663.063,1.038.122,1.575.132,1.067.225,1.565a11.545,11.545,0,0,0,.352,1.448c.151.5.367,1.165.523,1.839a19.212,19.212,0,0,1,.357,1.981,19.014,19.014,0,0,1,.191,1.976,17.045,17.045,0,0,1-.02,2.064c-.049.652-.093,1.126-.093,1.6A15.9,15.9,0,0,0,1495.5,836a12.87,12.87,0,0,0,1.2,2.7,9.181,9.181,0,0,0,.8,1.14,10.845,10.845,0,0,0,.977,1.042,16.342,16.342,0,0,0,2.443,1.859c.454.293.876.533,1.355.788s.977.5,1.492.749c1.043.5,2.139,1.013,3.243,1.58l2.828,1.5c1.111.191,2.153.078,2.72-1.14.112-.244.21-.489.3-.74a14.479,14.479,0,0,1,4.276-8.669Z" transform="translate(-1271.91 -695.877)"/><path class="b" d="M2191.134,1890.141a1.572,1.572,0,0,1-3.095.459l-.01-.029c-.381-1.482-.7-2.964-1.052-4.442l-1.042-4.447-1.052-4.452c-.347-1.482-.7-2.989-1-4.457l-.01-.039a1.572,1.572,0,0,1,2.979-.95,42.814,42.814,0,0,1,1.644,4.452c.474,1.5.881,3.018,1.248,4.545s.67,3.077.911,4.637A41.065,41.065,0,0,1,2191.134,1890.141Z" transform="translate(-1861.925 -1631.968)"/><path class="b" d="M2081.552,1480.372a1.562,1.562,0,0,1-2.57,1.681c-.249-.254-.43-.449-.621-.679s-.362-.454-.533-.684-.325-.474-.489-.715-.288-.489-.435-.744a14.816,14.816,0,0,1-1.3-3.219,13.09,13.09,0,0,1-.513-3.5,10.944,10.944,0,0,1,.513-3.533,1.567,1.567,0,0,1,3.067.415v.186a19.962,19.962,0,0,0,.132,2.71,15.883,15.883,0,0,0,.552,2.661,24.693,24.693,0,0,0,.93,2.627c.186.43.372.871.572,1.3.1.215.2.43.3.64s.215.44.279.6Z" transform="translate(-1770.89 -1294.625)"/><path class="b" d="M1929.8,1907.448a1.614,1.614,0,0,1,.74,2.932,5.923,5.923,0,0,1-1.36.705,8.067,8.067,0,0,1-1.433.391,7.557,7.557,0,0,1-1.492.122,5.363,5.363,0,0,1-1.536-.21,1.629,1.629,0,0,1-1.1-2.03,1.611,1.611,0,0,1,.906-1.028l.163-.073a7.772,7.772,0,0,1,1.174-.376c.4-.1.793-.181,1.194-.259s.814-.132,1.228-.171a6.355,6.355,0,0,1,1.253-.034Z" transform="translate(-1644.037 -1662.57)"/><path class="b" d="M1795.578,1925.536a1.578,1.578,0,0,1-.814,1.595,15.249,15.249,0,0,1-2.578,1.1,21.965,21.965,0,0,1-2.676.71,19.947,19.947,0,0,1-2.769.362,14,14,0,0,1-2.823-.078,1.585,1.585,0,0,1-.163-3.111l.078-.02c.815-.2,1.629-.326,2.443-.5s1.639-.313,2.461-.489l2.476-.489c.814-.163,1.683-.326,2.486-.43l.1-.01a1.574,1.574,0,0,1,1.782,1.357Z" transform="translate(-1525.997 -1676.603)"/><path class="b" d="M1527.873,590.913a1.736,1.736,0,0,1,.67,1.792,14.565,14.565,0,0,1-.779,2.383c-.352.8-.652,1.409-.906,2.039s-.533,1.331-.759,1.955c-.117.326-.215.616-.3.915s-.163.6-.254.977-.21.815-.352,1.253a12.69,12.69,0,0,1-.479,1.253c-.366.814-.7,1.448-1.052,2.118a33.874,33.874,0,0,1-2.349,4.036l-.01.015a1.745,1.745,0,0,1-3.121-1.4,40.845,40.845,0,0,1,1.282-4.452c.244-.739.567-1.512.779-2.118.117-.313.215-.611.3-.915s.163-.6.254-.977.21-.814.352-1.258a10.787,10.787,0,0,1,.489-1.248,18.985,18.985,0,0,1,1.16-2.241,12.51,12.51,0,0,1,.691-1.072l.665-.915c.425-.547.814-1.14,1.262-1.751l.02-.024A1.748,1.748,0,0,1,1527.873,590.913Z" transform="translate(-1304.658 -560.236)"/><path class="b" d="M1432.413,555.951a14.893,14.893,0,0,1,.025,2.28c-.044.669-.088,1.345-.152,2.025l-.445,3.89a1.722,1.722,0,0,1-3.421.024v-.024c-.163-1.316-.22-2.74-.274-4.012-.025-.635-.054-1.272-.093-1.917l-.059-.891a7.334,7.334,0,0,0-.108-.783c-.088-.489-.235-.911-.435-1.653a12.306,12.306,0,0,1-.411-2.388c-.015-.2-.029-.386-.029-.577l-.01-.538-.01-.977-.024-1.966.005-1.992v-.994l.01-.538c0-.186.015-.376.029-.572a12.852,12.852,0,0,1,.386-2.368c.2-.744.337-1.165.425-1.673.044-.249.078-.513.1-.788l.059-.9c.039-.652.068-1.282.088-1.917s.044-1.3.088-1.99.1-1.355.176-2.025a1.724,1.724,0,0,1,3.424,0l.454,3.885c.063.679.107,1.36.151,2.03a15.193,15.193,0,0,1-.01,2.261c-.034.4-.1.814-.163,1.2l-.21.994a8.167,8.167,0,0,0-.163,1.541v.86l.01.977.025,1.955-.01,1.986-.01.994v.867a7.471,7.471,0,0,0,.176,1.512l.22.994a9.68,9.68,0,0,1,.181,1.209Z" transform="translate(-1228.343 -510.508)"/><path class="b" d="M404.248,685.247a29.582,29.582,0,0,1,.049,8.249,25.386,25.386,0,0,1-2.559,7.016l-.326.691a17.983,17.983,0,0,0-1.6,4.874,11.99,11.99,0,0,0-.151,3.062,17.035,17.035,0,0,1-.21,4.1c-.283,1.792-.454,2.7-.621,3.584s-.326,1.717-.6,3.445-.406,2.606-.533,3.489-.259,1.776-.538,3.548a23.221,23.221,0,0,1-.906,3.826,17.884,17.884,0,0,0-.74,3.121c-.279,1.756-.41,2.627-.542,3.509s-.269,1.766-.547,3.528a19.233,19.233,0,0,0-.283,3.219,24.685,24.685,0,0,1-.347,3.89,18.648,18.648,0,0,1-2.779,6.527l-.376.64a20.409,20.409,0,0,1-5.225,5.607,22.451,22.451,0,0,0-1.849,1.751,27.855,27.855,0,0,1-3.46,3.116c-.625.455-1.267.945-1.922,1.443-1.214.925-2.471,1.878-3.86,2.823-1.126.759-2.334,1.424-3.5,2.07-.9.489-1.829,1.008-2.71,1.56a31.232,31.232,0,0,1-3.626,1.854c-.977.454-1.912.881-2.8,1.385a21.171,21.171,0,0,0-2.373,1.692,23.33,23.33,0,0,1-3.572,2.427c-.977.5-1.99.945-2.989,1.365a8.718,8.718,0,0,0-1.536,1.3,5.06,5.06,0,0,0-1.042,3.47,11.646,11.646,0,0,1,.02,1.3v.029c-.01.2-.01.391-.029.582a18.589,18.589,0,0,1-.754,3.724,33.415,33.415,0,0,1-1.214,3.336c-.23.552-.415.989-.606,1.487s-.366.977-.533,1.466c-.347.989-.669,1.986-.959,3.008a22.985,22.985,0,0,0-1.086,5.895v.735c0,.259,0,.523-.024.784a16.9,16.9,0,0,0,.735,2.344c1,1.492,1.922,2.916,2.789,4.315a37.88,37.88,0,0,1,1.955,3.724c.4.837.779,1.629,1.194,2.383l.876,1.565c.814,1.443,1.653,2.94,2.393,4.457.371.749.769,1.512,1.155,2.246.66,1.253,1.341,2.549,1.912,3.89.881,2.044,1.741,4.188,2.554,6.375.547,1.466.969,2.911,1.375,4.31q.322,1.139.665,2.241c.72,2.251,1.3,4.4,1.873,6.6a18.6,18.6,0,0,0,1.052,2.74,18.844,18.844,0,0,1,1.345,3.746,19.3,19.3,0,0,1,.308,4.339,17.763,17.763,0,0,0,.1,2.578c.163,1,.4,2.005.635,2.974a28.441,28.441,0,0,1,.735,3.777c.083.764.163,1.5.244,2.207.191,1.678.367,3.258.425,4.672a21.872,21.872,0,0,1-.759,7.064,13.622,13.622,0,0,1-2.745,4.613c-.367.459-.715.9-1.018,1.326a18.37,18.37,0,0,0-1.394,2.554,19.257,19.257,0,0,1-2.044,3.572c-1.057,1.365-2.158,2.652-3.224,3.9q-.63.733-1.248,1.466a24.683,24.683,0,0,1-2.994,2.886,24.324,24.324,0,0,0-2.07,1.922c-.66.725-1.262,1.512-1.9,2.339a30.326,30.326,0,0,1-2.535,3.038c-1.165,1.184-2.349,2.271-3.489,3.316-.533.489-1.062.977-1.57,1.453-.674.635-1.336,1.287-1.976,1.917-1.033,1.023-2.01,1.986-3.048,2.891a31.452,31.452,0,0,1-3.479,2.549c-.793.528-1.541,1.023-2.173,1.531-1.736,1.4-3.484,2.754-5.494,4.246-1.13.837-2.153,1.531-3.043,2.109a3.649,3.649,0,0,0-.814,1.3,6.022,6.022,0,0,0-.064,2.52c.132.367.279.8.469,1.35l.352,1.018c.205.581.464,1.223.744,1.9a31.813,31.813,0,0,1,1.639,4.724,67.6,67.6,0,0,1,1.262,6.947,52.687,52.687,0,0,1,.3,6.566v.528a6.1,6.1,0,0,1-3.685,5.577,6.028,6.028,0,0,1-2.422.518,5.573,5.573,0,0,1-3.8-1.484,78.172,78.172,0,0,1-5.548-5.763,50.891,50.891,0,0,1-3.292-4.383c-.459-.66-.93-1.336-1.424-2.02-.269-.366-.538-.74-.814-1.116-1.228-1.678-2.5-3.409-3.694-5.406a31.074,31.074,0,0,1-2.039-4.32c-.4-.959-.8-1.955-1.262-2.877a9.5,9.5,0,0,1,2.74-12.1,20.279,20.279,0,0,1,6.19-2.906,21.681,21.681,0,0,0,5.778-4.1c.725-.774,1.414-1.526,2.044-2.227a32.091,32.091,0,0,0,2.564-3.439c.572-.842,1.165-1.712,1.8-2.539.684-.886,1.389-1.707,2.075-2.505a35.419,35.419,0,0,0,2.583-3.248c.326-.489.66-.977.989-1.466,1.126-1.663,2.183-3.228,3.057-4.755,1.15-2,2.28-4.144,3.47-6.571l.1-.205c1.258-2.569,2.344-4.789,3.033-6.516.754-1.873.625-4.354-.376-7.362-.366-1.111-.925-2.393-1.565-3.875-.381-.881-.793-1.82-1.2-2.823-.342-.814-.652-1.663-.977-2.549-.508-1.385-1.038-2.818-1.7-4.251-.454-.969-.852-1.99-1.233-2.979-.034-.088-.068-.171-.1-.254-.127-.122-.254-.249-.381-.367-.464-.435-.959-1.1-1.673-.744a1.244,1.244,0,0,0-.406.347c-.078.415-.151.837-.235,1.258l-.181.852-.044.215-.064.254c-.044.176-.088.342-.137.5a16.835,16.835,0,0,1-.679,1.829c-.489,1.126-1.008,2.109-1.4,3.033a12.424,12.424,0,0,0-.847,2.706c-.215,1.008-.4,2.163-.74,3.409a13.357,13.357,0,0,1-.684,1.922c-.279.621-.557,1.15-.862,1.692-.6,1.067-1.238,2.039-1.849,2.979l-.891,1.375c-.259.406-.635,1.013-.989,1.5-.725,1.018-1.487,1.922-2.217,2.784l-1.067,1.262-.508.616c-.163.191-.3.381-.454.582-.611.814-1.228,1.741-1.942,2.706a18.9,18.9,0,0,1-2.559,2.877,24.724,24.724,0,0,1-2.974,2.207c-.959.63-1.849,1.2-2.662,1.792-.886.652-1.824,1.355-2.882,2.02-.528.326-1.086.652-1.678.955a14.659,14.659,0,0,1-1.863.769,22.068,22.068,0,0,1-3.675.871,35.867,35.867,0,0,1-3.584.352c-1.2.059-2.329.059-3.434.073s-2.158.029-3.277.078c-1.174.044-2.315.044-3.429.044s-2.212,0-3.292.02l-3.37.068-3.365.068c-1.155.015-2.324-.034-3.439-.078l-3.312-.132-.406-.01h-.326q-.326,0-.674.029c-.469.034-.977.1-1.512.171a32.637,32.637,0,0,1-3.629.368,13.882,13.882,0,0,1-2.02-.1c-.652-.073-1.257-.186-1.839-.3-1.16-.23-2.2-.479-3.15-.616a14.137,14.137,0,0,0-1.438-.132c-.513-.029-1.047-.044-1.59-.054-1.086-.024-2.227-.029-3.421-.088l-.9-.054-.857-.078c-.523-.044-1.052-.078-1.595-.112-1.086-.063-2.217-.112-3.385-.2a.943.943,0,0,0-.117-.01c-.381.034-.769.073-1.155.122a5.181,5.181,0,0,0-2.344,1.614,4.588,4.588,0,0,0-.64,1.116c-.044.23-.088.464-.137.7a65.605,65.605,0,0,1-1.815,6.556c-.171.508-.326,1.008-.489,1.5a41.859,41.859,0,0,1-1.824,4.962,26.059,26.059,0,0,1-2.769,4.413c-.362.489-.7.95-.977,1.38a6.788,6.788,0,0,1-5.621,3.17,5.932,5.932,0,0,1-.779-.054,6.729,6.729,0,0,1-5.44-4.637c-.137-.4-.279-.793-.415-1.189a37.334,37.334,0,0,1-1.7-5.812,54,54,0,0,1-.705-7.255,46.5,46.5,0,0,1,.308-6.371l.083-.886c.078-.828.078-1.687.073-2.606a19.967,19.967,0,0,1,.386-4.75,30.1,30.1,0,0,1,2.246-5.792c.181-.386.362-.769.538-1.14a9.913,9.913,0,0,1,7.981-5.548,11.99,11.99,0,0,1,8.959,1.746c.616.122,1.233.288,1.859.454a14.822,14.822,0,0,0,1.888.35c.391-.039.779-.078,1.17-.127.652-.083,1.292-.117,1.883-.137,1.189-.039,2.28-.029,3.3-.083.513-.024,1.008-.064,1.492-.122.225-.024.523-.078.793-.117l.814-.127,3.292-.5,1.644-.249.73-.117c.22-.044.44-.093.669-.147,1.854-.445,4.115-1.492,6.918-1.673,1.316-.078,2.476,0,3.5,0,.518,0,1-.01,1.443-.049.225-.02.435-.049.64-.083s.435-.078.66-.132c.911-.21,1.907-.557,3-.92.547-.176,1.121-.357,1.732-.518a18.466,18.466,0,0,1,1.873-.391c2.443-.376,4.6-.42,6.483-.857.994-.22,2.02-.5,3.095-.814l1.648-.454.852-.22.842-.2c.814-.191,1.663-.44,2.535-.71a6.479,6.479,0,0,0,2.759-2.842c.9-2.064.832-4.422,1.047-6.7-.034-1.038-.088-2.085-.163-3.155-.044-.774-.108-1.526-.142-2.354s-.049-1.6-.064-2.378c-.034-1.546-.064-3.043-.22-4.417-.163-1.419-.445-2.955-.611-4.642-.044-.425-.073-.857-.093-1.3l-.059-1.13-.137-2.334c-.039-.8-.068-1.629-.064-2.476,0-.435.015-.837.049-1.316a11.349,11.349,0,0,1,.2-1.466c.366-1.854.977-3.336,1.326-4.633.039-.163.083-.326.117-.474s.068-.308.1-.489l.2-1.086c.132-.744.264-1.541.435-2.363a21.182,21.182,0,0,1,.691-2.569,21.975,21.975,0,0,1,1.047-2.443c.759-1.526,1.614-2.916,2.443-4.246.827-1.287,1.644-2.632,2.618-4.007.489-.679,1.008-1.36,1.575-2.015a21.937,21.937,0,0,1,1.819-1.863c.122-.112.244-.22.362-.326.6-.8,1.2-1.59,1.792-2.388a19.484,19.484,0,0,0,1.233-4.724c-.015-.567-.044-1.14-.078-1.722l-.163-3.307c-.029-.591-.039-1.028-.083-1.536s-.1-1-.176-1.5c-.151-.989-.342-2-.577-3.009a4.626,4.626,0,0,0-1.595-1.976,3.326,3.326,0,0,0-2.515-.308c-.74.244-1.466.5-2.183.788-1.551.625-3.077,1.409-4.561,2.168-.547.283-1.1.562-1.639.832a28.961,28.961,0,0,1-3.509,1.4,17.992,17.992,0,0,0-2.965,1.218c-1.507.871-2.833,1.815-4.007,2.652-.625.445-1.218.871-1.78,1.238a10.18,10.18,0,0,0-3.826,4.271c-.21.489-.445,1.038-.7,1.629-.652,1.477-1.375,3.15-2.134,5.03a18.627,18.627,0,0,0-.8,3.013,26.509,26.509,0,0,1-1.072,4.007c-.313.827-.652,1.653-.977,2.491-.552,1.385-1.126,2.818-1.609,4.217-.352,1.023-.739,2.01-1.116,2.965-.513,1.3-1,2.554-1.345,3.746-.151.523-.293,1.047-.435,1.556a30.649,30.649,0,0,1-2.163,6.125,28.882,28.882,0,0,1-5.05,6.615,22.89,22.89,0,0,1-6.908,4.981,19.044,19.044,0,0,1-7.6,1.722c-.357,0-.71-.01-1.057-.039-4.159-.326-7.656-2.466-8.688-5.343-1.223-3.38.562-6.933,2.256-9.648a18.814,18.814,0,0,1,6.243-6.38,20.755,20.755,0,0,1,8.434-2.637c.44-.059.964-.95,1.218-2.08a16.67,16.67,0,0,1,1.17-3.155,21.068,21.068,0,0,0,1.331-3.557,18.5,18.5,0,0,0,.366-2.73,23.842,23.842,0,0,1,.66-4.339,38.375,38.375,0,0,1,1.292-3.724c.381-.977.774-2.005,1.077-3,.425-1.414.945-2.8,1.443-4.149.313-.847.635-1.722.93-2.574.533-1.565,1.165-3.062,1.766-4.51q.454-1.072.881-2.134a18.85,18.85,0,0,1,5.2-7.716c1-.852,2.207-1.741,3.611-2.769q1.073-.784,2.28-1.687a19.917,19.917,0,0,0,1.986-1.834,24.508,24.508,0,0,1,3.553-3.095c1.688-1.14,3.675-2.4,6.253-3.958,1.477-.9,3.062-1.707,4.593-2.491q.969-.489,1.942-1c1.839-.969,3.782-1.829,5.665-2.657l1.062-.474c.764-.337,1.516-.71,2.319-1.106a39.429,39.429,0,0,1,4.476-1.991c.068-.024.137-.044.205-.068a1.72,1.72,0,0,1,.288-.127c3.351-1.111,7.7-2.667,7.553-6.918a8.972,8.972,0,0,0-.386-2.256c-1.116-1.776-2.28-3.826-4.408-3.953a6.9,6.9,0,0,0-1.6.112,13.807,13.807,0,0,1-1.732.572,24.348,24.348,0,0,1-5.919.674q-1.087,0-2.227-.073a28.669,28.669,0,0,1-7.884-1.648,28.368,28.368,0,0,1-7.133-3.841,24.677,24.677,0,0,1-5.147-5.826l-.191-.269a25.861,25.861,0,0,0-2.606-2.965c-.611-.625-1.243-1.272-1.819-1.955a28.636,28.636,0,0,1-2.03-2.8,15.3,15.3,0,0,0-1.9-2.5,45.888,45.888,0,0,0-5.133-4.046,57.889,57.889,0,0,0-5.548-3.533,19.1,19.1,0,0,0-2.906-1.179,22.957,22.957,0,0,1-3.434-1.409,55.63,55.63,0,0,1-6.072-3.838,20.448,20.448,0,0,1-3.489-3.47c-.5-.586-1.028-1.194-1.57-1.761-.4-.415-.814-.814-1.209-1.228a27.151,27.151,0,0,1-4.115-4.849,42.536,42.536,0,0,1-3.584-7.221,45.828,45.828,0,0,1-2-7.758,34.861,34.861,0,0,1-.474-6.312c0-.542-.015-1.086-.029-1.629-.024-.876-.127-1.776-.239-2.73a20.26,20.26,0,0,1-.147-5.313,18.917,18.917,0,0,1,1.971-5.568c.352-.725.684-1.414.93-2.054.225-.591.435-1.174.64-1.751a31.855,31.855,0,0,1,1.966-4.7,30.769,30.769,0,0,1,3.45-4.8c.244-.293.489-.582.72-.871.459-.567.876-1.174,1.321-1.819a15.718,15.718,0,0,1,3.277-3.792,22.149,22.149,0,0,1,6.727-3.346,16.973,16.973,0,0,1,7.656-.425,16.2,16.2,0,0,1,7.016,2.847,20.712,20.712,0,0,1,5.162,5.2,18.74,18.74,0,0,0,1.228,1.443,15.433,15.433,0,0,1,3.077,4.4,28.4,28.4,0,0,1,1.414,5.03c.132.6.264,1.214.41,1.824a32.318,32.318,0,0,0,2.09,6.341l.142.3a22.719,22.719,0,0,0,3.121,5.375,19.75,19.75,0,0,0,5.26,3.709l.1.059a22.006,22.006,0,0,0,5.864,2.569,30.631,30.631,0,0,0,6.693.352h.44a39.4,39.4,0,0,0,6.385-.469,47.392,47.392,0,0,0,5.665-1.58l1.6-.513a35.726,35.726,0,0,1,6.5-1.629c.606-.073,1.214-.163,1.829-.264a26.219,26.219,0,0,1,5.528-.45,38.333,38.333,0,0,1,7.353,1.326A26.9,26.9,0,0,1,336.8,687.5l.557.313a24.622,24.622,0,0,1,6.061,4.608,23.174,23.174,0,0,1,3.919,6.527c.22.479.489.977.764,1.512A17.452,17.452,0,0,1,350.177,706a26.048,26.048,0,0,1-.181,7.255l-.078.635a25.231,25.231,0,0,1-1.907,7.775,24.12,24.12,0,0,1-4.74,6.532c-.152.151-.3.293-.454.44a12.712,12.712,0,0,0-1.927,3.533,8.446,8.446,0,0,0-.367,3.2c.068.22.137.445.2.665a26.266,26.266,0,0,1,.945,5.841,28.271,28.271,0,0,1-.288,5.885,25.384,25.384,0,0,1-.64,2.911c-.132.479-.283.959-.45,1.438l-.132.352-.064.181-.088.21a8,8,0,0,1-.391.827,9.387,9.387,0,0,1-5.457,4.569c-.088.029-.176.044-.264.068a2.158,2.158,0,0,0-1.38,2.5c.326,1.414,1.272,1.3,2.339.9a6.872,6.872,0,0,1,1.6-.376c.652-.283,1.3-.562,2-.814,1.072-.381,2.144-.7,3.185-1a37.385,37.385,0,0,0,3.851-1.282c.891-.371,1.78-.72,2.662-1.067,1.487-.582,2.886-1.13,4.2-1.751a27.659,27.659,0,0,0,3.385-2.03,32.394,32.394,0,0,1,2.971-1.82,29.853,29.853,0,0,1,3.948-1.644,18.032,18.032,0,0,0,2.932-1.228,25.507,25.507,0,0,0,3.987-3.013,21.281,21.281,0,0,1,1.834-1.5,7.21,7.21,0,0,0,3.095-3.583,35.124,35.124,0,0,1,1.2-3.355,30.759,30.759,0,0,0,1.052-2.945,14.359,14.359,0,0,0,.625-2.877,19.707,19.707,0,0,1,.8-3.685,23.942,23.942,0,0,1,1.316-3.429,19.2,19.2,0,0,0,1.082-2.823c.469-1.526.652-2.28.847-3.077.2-.837.41-1.7.925-3.37.469-1.516.652-2.266.827-3.062.2-.842.4-1.712.92-3.39.1-.337.191-.635.264-.906a1.466,1.466,0,0,1,.054-.684,8.756,8.756,0,0,0-.547-7.24,34.833,34.833,0,0,1-2.266-3.557l-.342-.581a28.758,28.758,0,0,1-3.121-6.869,21.289,21.289,0,0,1-.376-7.118l.034-.518c.163-2.691.474-5.514,2.148-7.828a11.8,11.8,0,0,1,7.2-4.913,12.761,12.761,0,0,1,9.369,1.8c2.095,1.36,3.851,3.584,5.528,7A25,25,0,0,1,404.248,685.247Zm-4.779,7.475a24.969,24.969,0,0,0-.073-6.879,20.354,20.354,0,0,0-1.727-6.507c-1.253-2.559-2.5-4.212-3.8-5.059a7.967,7.967,0,0,0-5.748-1.111,6.976,6.976,0,0,0-4.2,2.984c-.911,1.258-1.1,3.209-1.228,5.269l-.034.528a17.245,17.245,0,0,0,.22,5.528,23.855,23.855,0,0,0,2.618,5.665l.347.6a18.284,18.284,0,0,0,3.184,4.461,4.794,4.794,0,0,1,1.394,5.338,24.712,24.712,0,0,0-.754,3,30.991,30.991,0,0,1-.881,3.489c-.469,1.516-.652,2.266-.832,3.062-.2.842-.4,1.712-.915,3.395-.469,1.521-.652,2.28-.847,3.077-.2.837-.41,1.7-.925,3.37a24.567,24.567,0,0,1-1.316,3.429,18.854,18.854,0,0,0-1.082,2.823,14.359,14.359,0,0,0-.625,2.877,19.6,19.6,0,0,1-.8,3.68,33.791,33.791,0,0,1-1.2,3.355,30.452,30.452,0,0,0-1.052,2.95,12.108,12.108,0,0,1-4.976,6.139,17.941,17.941,0,0,0-1.414,1.174,31.7,31.7,0,0,1-4.286,3.272A7.967,7.967,0,0,0,367,754.036c-.572.764-.049,1.057.269,1.792a2.691,2.691,0,0,1,.147.435,16.352,16.352,0,0,1,3.36,7.574,1.68,1.68,0,0,0,1.614,1.14,3.544,3.544,0,0,0,1.385-.326c.489-.362.964-.725,1.433-1.086.684-.518,1.355-1.028,2.005-1.5a23.455,23.455,0,0,0,2.857-2.6,24.977,24.977,0,0,1,2.31-2.163,15.673,15.673,0,0,0,4.027-4.235l.391-.66a14.594,14.594,0,0,0,2.158-4.8,20.348,20.348,0,0,0,.3-3.207,24.566,24.566,0,0,1,.342-3.895c.279-1.746.411-2.618.542-3.494s.269-1.771.547-3.543a23.233,23.233,0,0,1,.906-3.826,17.761,17.761,0,0,0,.74-3.121c.279-1.741.406-2.606.533-3.489s.259-1.775.542-3.548c.283-1.792.455-2.7.616-3.583s.326-1.712.6-3.439a12.271,12.271,0,0,0,.163-3.062,16.775,16.775,0,0,1,.21-4.095A22.8,22.8,0,0,1,397,699.1l.337-.705a21.971,21.971,0,0,0,2.127-5.67Zm-32.354,74.646a12.566,12.566,0,0,0-4.505-10.387,5.049,5.049,0,0,0-3.116-.191c-.342.22-.684.45-1.038.684a30.93,30.93,0,0,1-4.012,2.383c-1.466.691-3.009,1.3-4.505,1.883q-1.278.489-2.569,1.028a34.16,34.16,0,0,1-3.509,1.209,15.235,15.235,0,0,0-1.556.935,13.082,13.082,0,0,0-4.652,6.879,1.688,1.688,0,0,1-.7.9,17.776,17.776,0,0,1-10.5,9.037,18.786,18.786,0,0,1-5.787.9c-5.362,0-11.516-2.2-16.893-8.2a3.484,3.484,0,0,0-2.606-.352c-.6.132-1.17.288-1.736.43-.764.371-1.541.759-2.339,1.111l-1.072.474c-1.888.837-3.67,1.629-5.362,2.515-.665.352-1.331.691-2,1.028-1.521.783-2.96,1.516-4.29,2.324-2.015,1.214-3.645,2.232-5.049,3.155a1.374,1.374,0,0,0-.337.964,2.653,2.653,0,0,0,.754,1.072,12.739,12.739,0,0,1,4.2,7.421,1.376,1.376,0,0,0,1.385.994,1.622,1.622,0,0,0,.21-.024c.5-.249,1-.508,1.507-.769,1.575-.814,3.2-1.639,4.952-2.349.925-.371,1.854-.7,2.784-1a5.375,5.375,0,0,0,1.717-2.044,1.714,1.714,0,0,1,2.979-1.551,26.327,26.327,0,0,1,3.782,6.037c.122.283.239.567.347.862l.308.852c.186.537.371,1.082.538,1.629.337,1.106.652,2.236.9,3.409.02.107.039.22.064.326a1.686,1.686,0,0,1,.176.977c.024.163.054.326.073.479.088.591.163,1.267.191,1.78.083,1.1.191,2.207.259,3.341s.117,2.29.083,3.5c0,.308-.02.611-.039.93l-.02.362a2.831,2.831,0,0,0,0,.288,4.346,4.346,0,0,0,.127,1.072,2.134,2.134,0,0,0,.8,1.316q.081.044.147.088c.059.024.108.054.163.083q.345.147.691.279c.464.181.945.347,1.433.5.977.313,2,.581,3.062.857l1.608.414c.508.127,1.023.244,1.531.352,1.023.21,2.044.381,3.062.5.513.059,1.008.1,1.526.132.542.034,1.082.064,1.614.083,1.057.039,2.095.049,3.082-.01.489-.029.977-.078,1.443-.147s.969-.163,1.453-.274a24.88,24.88,0,0,0,2.906-.867c.479-.171.964-.357,1.443-.557.235-.1.5-.21.705-.3s.42-.2.625-.3a17.149,17.149,0,0,0,2.443-1.57c.406-.308.814-.64,1.253-.989l.679-.538.288-.23c.088-.068.163-.137.244-.205a5.322,5.322,0,0,0,1.37-1.775,3.15,3.15,0,0,0,.249-.915c.015-.151.02-.308.02-.464,0-.269-.02-.621-.015-.93.01-.567.044-1.14.093-1.692a2.75,2.75,0,0,0-.127-.386c-.381-.95-2.095-.326-2.989-.1-.415.117-.837.22-1.3.326a1.466,1.466,0,0,1-.764-2.828l.068-.024c.6-.2,1.3-.474,1.927-.754.366-.163.725-.342,1.082-.528a10.147,10.147,0,0,0,4.212-4.408c.015-.039.024-.078.039-.117.186-.5.381-1,.586-1.492a.222.222,0,0,1,.015-.054,1.755,1.755,0,0,1,.147-.337c.191-.459.406-.94.586-1.336.43-.977.847-1.932,1.179-2.872a15.572,15.572,0,0,0,.725-2.759,7.655,7.655,0,0,0-.044-2.564,12.115,12.115,0,0,0-.852-2.691,19.729,19.729,0,0,0-1.433-2.622c-.557-.867-1.189-1.7-1.844-2.544l-.01-.015a1.715,1.715,0,0,1,2.544-2.29c.059.054.107.112.163.163a1.811,1.811,0,0,1,.542.313,6.934,6.934,0,0,0,6.017,1.536c.205-.044.406-.1.6-.163.774-.326,1.521-.66,2.232-1.028A19.071,19.071,0,0,0,356.284,775a24.3,24.3,0,0,1,2.96-2.08c1.067-.611,2.144-1.106,3.18-1.58a29.058,29.058,0,0,0,3.077-1.565c.083-.054.163-.1.249-.147a5.758,5.758,0,0,0,1.365-2.259Zm-3.258,119.581a17.079,17.079,0,0,0,.562-5.479c-.054-1.238-.215-2.666-.4-4.32-.078-.725-.163-1.477-.244-2.256a25.532,25.532,0,0,0-.626-3.136c-.254-1.062-.523-2.158-.71-3.355a19.918,19.918,0,0,1-.163-3.375,16.194,16.194,0,0,0-.2-3.292,15.223,15.223,0,0,0-1.038-2.789,23.78,23.78,0,0,1-1.3-3.469c-.562-2.129-1.121-4.212-1.8-6.353-.244-.774-.474-1.565-.705-2.363-.381-1.3-.774-2.667-1.258-3.963-.783-2.109-1.614-4.178-2.461-6.149-.5-1.165-1.111-2.324-1.751-3.553-.4-.764-.814-1.551-1.214-2.364-.684-1.394-1.453-2.769-2.271-4.212q-.44-.792-.891-1.6c-.489-.876-.915-1.771-1.331-2.642-.454-.959-.9-1.873-1.4-2.745a4.3,4.3,0,0,0-2.583-1.653,6.441,6.441,0,0,0-4.325,1.14,20.533,20.533,0,0,1-1.942,1.16c-.288.147-.577.288-.876.42s-.542.234-.827.352c-.542.225-1.1.44-1.653.64a30.065,30.065,0,0,1-3.479,1.033c-.6.132-1.184.249-1.819.342a18.729,18.729,0,0,1-1.868.191c-1.223.073-2.412.059-3.567.015-.582-.024-1.15-.054-1.717-.088s-1.194-.088-1.792-.151q-1.784-.205-3.509-.572c-.577-.122-1.14-.254-1.712-.391l-1.629-.415c-1.082-.274-2.212-.572-3.346-.935-.572-.186-1.14-.381-1.712-.6a.106.106,0,0,0-.024-.015,7.061,7.061,0,0,0-5.934,1.536c-.176.186-.347.376-.508.567-.435.523-.852,1.082-1.257,1.668-.814,1.165-1.575,2.486-2.408,3.821a42.551,42.551,0,0,0-2.193,3.807,13.744,13.744,0,0,0-1.3,3.758c-.142.691-.264,1.424-.4,2.207l-.22,1.2c-.039.2-.083.415-.137.652s-.108.44-.163.652c-.464,1.692-1.023,3.095-1.267,4.29a7.12,7.12,0,0,0-.122.842c-.024.293-.039.669-.049,1.008-.015.7,0,1.424.029,2.173l.108,2.31.044,1.2c.01.326.029.669.059,1.018.117,1.4.381,2.916.552,4.584.163,1.712.171,3.316.186,4.874s.049,2.965.112,4.561c.054,1.565.1,3.165.029,4.8-.015.4-.034.837-.073,1.262s-.078.852-.137,1.267c-.117.828-.264,1.629-.415,2.407l-.469,2.28c-.147.744-.326,1.56-.538,2.32a2.419,2.419,0,0,1-.313,1.052,38.054,38.054,0,0,1-1.3,3.6,1.714,1.714,0,0,1-3.243-.254,2.813,2.813,0,0,0-2.07-.669c-.445.122-.9.244-1.37.357l-.788.186-.764.2-1.575.435c-1.077.3-2.192.621-3.375.881-2.471.547-4.8.586-6.762.911a13.8,13.8,0,0,0-1.394.288c-.469.122-.959.274-1.466.44-1.023.326-2.134.73-3.395,1.028-.313.078-.64.142-.977.2s-.684.1-1.018.127c-.665.059-1.3.068-1.9.068-1.194-.01-2.266-.068-3.175-.01a8.73,8.73,0,0,0-1.3.181c-.454.093-.925.22-1.424.367-.635.186-1.3.411-2.034.63a8.444,8.444,0,0,0-2.049,2.2,15.9,15.9,0,0,0-.406,7.3,8.47,8.47,0,0,0,2.236,1.878c.66.132,1.292.269,1.878.381.513.1,1,.186,1.466.24a9.215,9.215,0,0,0,1.316.059,29.526,29.526,0,0,0,3.048-.326c.567-.078,1.17-.163,1.81-.205.326-.024.652-.039.994-.044h.5l.43.015,3.365.122c1.111.039,2.173.078,3.243.064l3.316-.078,3.311-.078c1.14-.024,2.28-.029,3.39-.029s2.2-.01,3.258-.049c1.106-.049,2.3-.073,3.4-.088s2.222-.015,3.243-.068,2.085-.151,3.062-.3a16.8,16.8,0,0,0,2.828-.665,11.1,11.1,0,0,0,2.443-1.2c.832-.523,1.678-1.155,2.583-1.824.989-.725,1.976-1.35,2.877-1.942a22.463,22.463,0,0,0,2.407-1.756,13.887,13.887,0,0,0,1.878-2.109c.616-.814,1.238-1.741,1.971-2.71.186-.24.381-.489.577-.73l.557-.67,1.1-1.282c.72-.837,1.394-1.629,1.966-2.432.3-.41.513-.754.857-1.287l.935-1.419c.611-.93,1.2-1.815,1.7-2.691.244-.425.489-.886.665-1.277a8.673,8.673,0,0,0,.435-1.223c.259-.9.435-1.955.691-3.116a18.647,18.647,0,0,1,.489-1.849,18.44,18.44,0,0,1,.71-1.792c.5-1.121,1.042-2.1,1.453-3.013a12.926,12.926,0,0,0,.518-1.292c.034-.1.068-.2.093-.3l.044-.147.049-.2.186-.774c.249-1.042.464-2.095.66-3.16l.288-1.609.137-.814c.044-.274.083-.489.112-.749a30.906,30.906,0,0,0,.225-3.106l.049-1.673.039-.881c.015-.3.044-.616.068-.886l.326-3.292a13.234,13.234,0,0,0,.029-1.477l-.054-1.643v-.024a1.714,1.714,0,0,1,3.409-.293l.239,1.693c.049.386.088.814.107,1.238a60.649,60.649,0,0,0,2.209,7.367c.779,1.3,1.575,2.657,2.271,4a41.509,41.509,0,0,1,1.839,4.261c.371.959.725,1.859,1.106,2.686.754,1.614,1.341,3.214,1.859,4.628.313.847.606,1.639.911,2.383.4.969.788,1.878,1.16,2.73.66,1.521,1.287,2.96,1.722,4.281,1.375,4.134,1.466,7.745.274,10.725-.759,1.893-1.878,4.188-3.175,6.841l-.1.205c-1.233,2.525-2.417,4.769-3.616,6.859-.969,1.678-2.075,3.321-3.248,5.059q-.489.711-.977,1.443a27.876,27.876,0,0,1-1.687,2.236,5.807,5.807,0,0,0-.342,4.422,10.422,10.422,0,0,0,1.878,2.691,1.3,1.3,0,0,1,.691.45c1.336,1.58,3.155,1.375,4.869.7.867-.769,1.736-1.629,2.652-2.53.66-.652,1.341-1.321,2.054-2,.528-.489,1.072-.994,1.619-1.5,1.1-1.008,2.232-2.049,3.311-3.145a26.848,26.848,0,0,0,2.134-2.574c.669-.876,1.365-1.792,2.168-2.666a28.417,28.417,0,0,1,2.5-2.334,20.829,20.829,0,0,0,2.443-2.329L354.4,901.1c1.028-1.2,2.095-2.443,3.072-3.709a15.518,15.518,0,0,0,1.507-2.691,21.5,21.5,0,0,1,1.8-3.258c.391-.552.8-1.067,1.2-1.56a9.868,9.868,0,0,0,1.881-2.943ZM336.3,746.978a25.421,25.421,0,0,0,.235-4.844,24.514,24.514,0,0,0-.713-4.769.364.364,0,0,0-.02-.068,3.3,3.3,0,0,0-2.054-1.971,11.821,11.821,0,0,0-3.7-.2c-.288.054-.577.1-.876.152a19.672,19.672,0,0,1-6.248-.288c-.528-.083-1.057-.163-1.595-.24a3.879,3.879,0,0,0-3.851,3.126,20.53,20.53,0,0,1-2.681,6.654,36.364,36.364,0,0,1-2.178,4.549c-.964,2.139-.235,4.154.832,6.027l.186.293c.127.2.244.41.357.616.186.293.371.586.557.876a1.587,1.587,0,0,1,.257.7,8.49,8.49,0,0,1,1,4.072,8.213,8.213,0,0,1-.137,1.556,2.4,2.4,0,0,1,.132.73,6.916,6.916,0,0,1-5.48,6.841c-.425.107-.852.21-1.277.313a.272.272,0,0,0-.059.02c-1.345.625-.827,1.912,0,2.94,5.655,4.849,11.816,5.375,16.243,3.934a13.922,13.922,0,0,0,8.581-7.9,2.226,2.226,0,0,0-.132-.73c-.288-.764-1.082-.977-1.888-1.2a4.4,4.4,0,0,1-4.193-3.685c-.034-.264-.068-.489-.1-.705a10.7,10.7,0,0,0-3.228-5.768c-1.028-.93-2.168-1.629-3.095-2.578a20.22,20.22,0,0,1-3.792-2.96,1.717,1.717,0,0,1,2.217-2.606l.024.015a20.01,20.01,0,0,0,2.512,1.518,1.215,1.215,0,0,1,.41.21,23.223,23.223,0,0,0,6.027,1.955c.4.078.814.142,1.214.2a10.993,10.993,0,0,0,1.111.112,4.216,4.216,0,0,0,1.707-.269,4.735,4.735,0,0,0,1.492-.881,4.6,4.6,0,0,0,1.033-1.365,4.038,4.038,0,0,0,.171-.4l.039-.1.044-.137.1-.279c.122-.371.235-.749.337-1.14A21.828,21.828,0,0,0,336.3,746.978Zm-9.884,179.885c.759-2.03-.464-3.583-1.792-5a1.567,1.567,0,0,1-.337-.537,2.748,2.748,0,0,0-1.756-.735,2.96,2.96,0,0,0-1.541.876c-.489.669-1.013,1.336-1.595,1.986-1.341,1.487-2.916,3.2-4.642,4.887a6.7,6.7,0,0,0-1.082,3.709c.034.132.068.264.112.386a1.442,1.442,0,0,1,.373.261c1.14,1.091,1.966,1.077,3.409.606a9.847,9.847,0,0,1,.964-.264c.059-.034.1-.063.163-.1,1.13-.7,2.676-1.648,4.54-3.033.915-.679,1.771-1.326,2.6-1.966a4.618,4.618,0,0,0,.585-1.077Zm-.024-66.219a.58.58,0,0,1-.039-.078.433.433,0,0,1-.015.078ZM321.335,963.9a1.228,1.228,0,0,0,.764-1.077v-.538a48.072,48.072,0,0,0-.259-5.939,62,62,0,0,0-1.165-6.439,27.735,27.735,0,0,0-1.409-4.012c-.3-.74-.591-1.438-.837-2.153l-.357-1.018c-.049-.151-.1-.288-.142-.42-.4-.652-.814-1.3-1.248-1.927a6.35,6.35,0,0,0-2.932-2.192,8.256,8.256,0,0,1-1.487-.533l-.044-.015a1.537,1.537,0,0,1-.557-.313,5.3,5.3,0,0,1-1.36-1.189,7.211,7.211,0,0,1-1.243-2.378,2.826,2.826,0,0,0-1.482-1.248,3.783,3.783,0,0,0-1.981.244,10.812,10.812,0,0,0-.964.616,4.575,4.575,0,0,0-1.238,5.983c.533,1.082.977,2.148,1.4,3.18a27.771,27.771,0,0,0,1.712,3.67c1.082,1.8,2.28,3.439,3.45,5.03l.832,1.14c.508.705,1,1.4,1.466,2.09a47.647,47.647,0,0,0,2.96,3.958,72.991,72.991,0,0,0,5.186,5.392.836.836,0,0,0,.937.088Zm-41.31-169.068a8.727,8.727,0,0,0-1.746-3.626,1.628,1.628,0,0,1-.454-.41,2.852,2.852,0,0,0-3.469-.911c-.572.249-1.013.542-1.466.739-.774.582-1.521,1.13-2.217,1.644-1.326.977-2.471,1.815-3.331,2.544a14.191,14.191,0,0,0-3.831,5.807c-.293.739-.6,1.466-.911,2.217-.577,1.37-1.17,2.789-1.653,4.2-.313.911-.652,1.815-.969,2.691-.5,1.336-.964,2.593-1.35,3.865-.357,1.174-.783,2.28-1.2,3.351-.435,1.14-.852,2.207-1.13,3.238a19.613,19.613,0,0,0-.508,3.484,22.925,22.925,0,0,1-.489,3.479,25.474,25.474,0,0,1-1.614,4.378,14.085,14.085,0,0,0-.862,2.217c-.744,3.356-2.759,5.553-5.4,5.875a16.07,16.07,0,0,0-6.5,1.971,14.1,14.1,0,0,0-4.628,4.774c-.586.945-2.373,3.821-1.8,5.406.279.769,1.981,1.932,4.462,2.118a13.687,13.687,0,0,0,6.3-1.277,18.024,18.024,0,0,0,5.392-3.924,24.054,24.054,0,0,0,4.235-5.484,26.8,26.8,0,0,0,1.775-5.147c.147-.528.293-1.067.45-1.6.406-1.409.959-2.818,1.492-4.178.357-.906.73-1.844,1.047-2.769.523-1.5,1.111-2.989,1.683-4.427.326-.814.652-1.614.95-2.422a21.845,21.845,0,0,0,.862-3.272,22.086,22.086,0,0,1,1.047-3.846c.783-1.932,1.526-3.636,2.183-5.142.249-.577.479-1.111.691-1.595a15.136,15.136,0,0,1,5.636-6.434c.489-.326,1.038-.715,1.629-1.14.925-.66,1.942-1.385,3.095-2.109A6.729,6.729,0,0,0,280.025,794.836ZM243.595,896.11c0-.163-.015-.308-.02-.459a4.959,4.959,0,0,0-.814-1.453c-1.17-1.4-3.072-1.243-4.724-1.15a1.546,1.546,0,0,1-.538-.068c-.832.02-1.629.024-2.373.049a14.36,14.36,0,0,0-1.448.1c-.577.068-1.155.132-1.732.186-.489.049-.977.088-1.466.122a6,6,0,0,0-3.421,1.771c-.464,1.389-.705,2.9.552,3.9,1.3,1.042,3.514,1.5,5.1,2.085.22.044.43.078.64.1.489.064,1.018.112,1.541.152,1.052.078,2.148.122,3.287.186.567.029,1.15.068,1.741.117l.538.044a3.8,3.8,0,0,0,1.955-.9,3.91,3.91,0,0,0,1.126-2.443A19.944,19.944,0,0,1,243.595,896.11Zm-18.234,12.645a6.73,6.73,0,0,0-.474-3.126,8.6,8.6,0,0,0-1.394-1.8,2.787,2.787,0,0,1-.6-.552,2.517,2.517,0,0,1-.264-.362c-.073-.117-.163-.288-.163-.288l-.225-.489a9.313,9.313,0,0,1-.386-1.018,9.83,9.83,0,0,1-.435-2.173,10.489,10.489,0,0,1,.5-4.085,12.391,12.391,0,0,0,.313-2.7,1.677,1.677,0,0,0-1.595-1.58c-.264.029-.533.068-.8.1a5.219,5.219,0,0,0-4.188,2.735c-.181.4-.371.8-.562,1.209a25.7,25.7,0,0,0-1.917,4.854,16.022,16.022,0,0,0-.244,3.583c0,.989,0,2.005-.093,3.062l-.083.906a41.828,41.828,0,0,0-.293,5.7,49.71,49.71,0,0,0,.63,6.59,33.1,33.1,0,0,0,1.5,5.05c.142.41.283.814.425,1.228a1.838,1.838,0,0,0,1.433,1.375,1.811,1.811,0,0,0,1.7-.964c.352-.528.73-1.042,1.13-1.58a21.93,21.93,0,0,0,2.29-3.6,38.1,38.1,0,0,0,1.59-4.374c.163-.5.326-1.018.5-1.541a61.57,61.57,0,0,0,1.683-6.071A.841.841,0,0,0,225.361,908.755Z" transform="translate(-207.559 -608.771)"/><path class="b" d="M1315.794,608.671a1.746,1.746,0,0,1-3.095,1.438l-.034-.044a18.212,18.212,0,0,0-1.253-1.58l-.74-.827a10.842,10.842,0,0,1-.814-1.106,16.021,16.021,0,0,1-1.243-2.32c-.176-.386-.326-.814-.489-1.233a12.675,12.675,0,0,1-.371-1.243c-.1-.371-.176-.674-.274-.977s-.2-.611-.313-.935c-.234-.64-.5-1.321-.759-1.932-.127-.308-.269-.591-.425-.915l-.528-1.077a12.882,12.882,0,0,1-.837-2.427,1.746,1.746,0,0,1,3.106-1.424l.025.029c.445.606.832,1.174,1.262,1.7l.7.881a12.866,12.866,0,0,1,.734,1.091,17.928,17.928,0,0,1,1.189,2.266c.176.391.337.814.489,1.238s.269.867.366,1.238.181.674.274.977.2.616.326.94c.24.652.489,1.3.745,1.854.127.288.269.538.435.842s.386.66.6,1.062A10.36,10.36,0,0,1,1315.794,608.671Z" transform="translate(-1125.886 -560.899)"/><path class="b" d="M1091.528,1906.629a4.256,4.256,0,0,1-.039,1.165,1.64,1.64,0,0,1-1.927,1.287,1.665,1.665,0,0,1-.847-.454l-.063-.068a4.206,4.206,0,0,1-.665-.935,6.351,6.351,0,0,1-.42-1,4.781,4.781,0,0,1-.22-1.057,3.336,3.336,0,0,1,.073-1.15l.015-.059a1.686,1.686,0,0,1,2.044-1.228,1.736,1.736,0,0,1,.74.406,3.557,3.557,0,0,1,.7.95,5.1,5.1,0,0,1,.4,1.042A6.372,6.372,0,0,1,1091.528,1906.629Z" transform="translate(-944.023 -1658.953)"/><path class="b" d="M1040.339,1771.7a1.479,1.479,0,0,1-2.769.989h0c-.71-1.429-1.35-2.877-1.986-4.325s-1.243-2.906-1.849-4.364-1.2-2.921-1.771-4.4-1.121-2.955-1.6-4.476h0a1.481,1.481,0,0,1,2.657-1.248,42.124,42.124,0,0,1,2.364,4.235q1.064,2.173,1.966,4.417c.6,1.492,1.17,3,1.668,4.53S1039.981,1770.126,1040.339,1771.7Z" transform="translate(-896.283 -1533.488)"/><path class="b" d="M827.2,1893.194a19.71,19.71,0,0,1-.137,4.4,28.044,28.044,0,0,1-.935,4.246,34.222,34.222,0,0,1-1.512,4.041,24.984,24.984,0,0,1-2.095,3.8,1.477,1.477,0,0,1-2.622-1.3l.02-.058,1.267-3.792c.411-1.272.815-2.539,1.194-3.811.083-.326.186-.631.283-.95l.254-.959c.186-.63.326-1.272.489-1.907.326-1.272.567-2.544.852-3.836l.02-.073a1.477,1.477,0,0,1,2.916.2Z" transform="translate(-720.087 -1649.535)"/></g></g></svg>