<svg xmlns="http://www.w3.org/2000/svg" xmlns:xlink="http://www.w3.org/1999/xlink" width="438.536" height="89.136" viewBox="0 0 438.536 89.136"><defs><style>.a,.d,.f{fill:#fff;}.a{stroke:#707070;}.b{clip-path:url(#a);}.c{fill:none;stroke:#051f3e;stroke-width:3px;}.c,.e,.f{fill-rule:evenodd;}.e{fill:#051f3e;}</style><clipPath id="a"><rect class="a" width="438.536" height="89.136" transform="translate(44 20)"/></clipPath></defs><g class="b" transform="translate(-44 -20)"><g transform="translate(48.626 29.937)"><g transform="translate(0 0)"><path class="c" d="M191.8,53.887c-7.674-3.237-13.632.248-17.313,2.491-5.643,3.439-13.4,14.579-4.733,22.668,5.361,5,15.286,3.649,20.8-.623C198.646,72.156,201.622,58.03,191.8,53.887ZM173,45.418c5.042-7.573,16.284-10.271,23.416-4.733,5.817,4.518,6.682,13.249,3.861,19.305-4.285,9.2-18.676,11.686-25.907,5.356C167.849,59.64,168.469,52.216,173,45.418Zm7.473-27.152c-5.418-6.227-16.03-7.316-22.045-1.246-6.264,6.32-4.288,17.113,1.868,22.419,4.39,3.784,14.361,2.538,16.939,1.121C184.79,36.405,186.607,25.321,180.468,18.266Zm13.327,5.356c-10.238-1.751-19.736,3.558-18.06,16.83.658,5.2,3.865,10.971,10.587,11.692,9.719,1.043,17.473-5.421,17.188-13.95C203.285,31.448,201.861,25,193.795,23.622ZM139.242,39.938c-4.611,4.756-5.977,16.425,2.74,20.551,11.305,5.351,21.353,2.029,25.657-3.612,4.545-5.956.472-11.783-4.733-15.2C157.07,37.855,145.307,33.681,139.242,39.938Zm9.84-18.932c-6.022,1.276-11.271,6.46-10.96,13.078.521,11.128,23.164,21.459,32.259,13.95a14.984,14.984,0,0,0-1.495-23.54C164.158,21.138,156.11,19.517,149.081,21.006ZM145.22,55.382c-7.254,7.591-4.662,20.213,3.861,24.038,6.29,2.823,14.863,2.795,20.177-2.74,5.217-5.435,2.765-18.675-3.986-23.665C158.949,48.342,149.9,50.482,145.22,55.382Z" transform="translate(-137.6 -12.99)"/><rect class="d" width="22.295" height="30.141" transform="translate(21.079 18.354)"/><g transform="translate(12.635 9.073)"><path class="e" d="M170.259,63.86a12.543,12.543,0,0,0,4.11-.685,9.036,9.036,0,0,0,3.55-2.273,11.435,11.435,0,0,0,2.491-4.141,18.2,18.2,0,0,0,.934-6.228,25.927,25.927,0,0,0-.654-6.072,12.113,12.113,0,0,0-2.149-4.64,9.54,9.54,0,0,0-3.954-2.958,15.762,15.762,0,0,0-6.072-1.028h-6.975V63.86Zm.685-36.244a22.9,22.9,0,0,1,8,1.37,17.382,17.382,0,0,1,6.414,4.11,18.986,18.986,0,0,1,4.235,6.85,27.7,27.7,0,0,1,1.526,9.653,30.8,30.8,0,0,1-1.246,8.968,19.732,19.732,0,0,1-3.768,7.1,17.648,17.648,0,0,1-6.29,4.7,21.266,21.266,0,0,1-8.874,1.713H151.764V27.616Zm29.668,0V72.081h-9.777V27.616Zm11.421,44.465L197.648,27.616h10.026l9.9,31.262h.125l10.026-31.262h10.089L223.056,72.081ZM268.05,27.616v8.22H244.573v9.528H266.12v7.6H244.573v10.9h23.976v8.22H234.8V27.616ZM289,47.731a7.4,7.4,0,0,0,5.044-1.495q1.681-1.495,1.681-4.857,0-3.237-1.681-4.7A7.51,7.51,0,0,0,289,35.214H278.287V47.731Zm3.487-20.115a14.313,14.313,0,0,1,5.387.965,12.417,12.417,0,0,1,4.11,2.647A11.485,11.485,0,0,1,304.6,35.12a12.488,12.488,0,0,1,.9,4.764,13.369,13.369,0,0,1-1.65,6.788,10.369,10.369,0,0,1-5.387,4.359v.125a7.559,7.559,0,0,1,2.989,1.526,8.469,8.469,0,0,1,1.931,2.429,11.289,11.289,0,0,1,1.09,3.083,26.887,26.887,0,0,1,.467,3.363q.062,1.06.125,2.491t.218,2.927a19.618,19.618,0,0,0,.5,2.834,6.523,6.523,0,0,0,1.027,2.273h-9.777a17.233,17.233,0,0,1-1-5.044q-.187-2.928-.56-5.6a8.837,8.837,0,0,0-2.117-5.107q-1.619-1.619-5.293-1.619h-9.777V72.081H268.51V27.616Zm23.565,0,18.558,29.83h.125V27.616h9.154V72.081h-9.777l-18.5-29.768h-.125V72.081h-9.154V27.616Zm37.825,27.868a14.7,14.7,0,0,0,2.086,4.764,10.691,10.691,0,0,0,3.737,3.394,12.942,12.942,0,0,0,11.21,0,10.691,10.691,0,0,0,3.736-3.394,14.7,14.7,0,0,0,2.086-4.764,22.636,22.636,0,0,0,.654-5.449,24.341,24.341,0,0,0-.654-5.667,15,15,0,0,0-2.086-4.889,10.594,10.594,0,0,0-3.736-3.425,12.942,12.942,0,0,0-11.21,0,10.593,10.593,0,0,0-3.737,3.425,15,15,0,0,0-2.086,4.889,24.331,24.331,0,0,0-.654,5.667A22.625,22.625,0,0,0,353.876,55.484Zm-8.937-14.7a22.228,22.228,0,0,1,4.3-7.442,19.659,19.659,0,0,1,6.881-4.982,24.342,24.342,0,0,1,18.4,0,19.722,19.722,0,0,1,6.85,4.982,22.215,22.215,0,0,1,4.3,7.442,27.783,27.783,0,0,1,1.495,9.248,26.856,26.856,0,0,1-1.495,9.061,21.639,21.639,0,0,1-4.3,7.317,19.739,19.739,0,0,1-6.85,4.889,24.738,24.738,0,0,1-18.4,0,19.675,19.675,0,0,1-6.881-4.889,21.637,21.637,0,0,1-4.3-7.317,26.853,26.853,0,0,1-1.495-9.061,27.785,27.785,0,0,1,1.495-9.248Zm51.527-13.171V63.86h21.672v8.22H386.689V27.616Zm27.258,27.868a14.7,14.7,0,0,0,2.086,4.764,10.669,10.669,0,0,0,3.737,3.394,12.941,12.941,0,0,0,11.21,0,10.689,10.689,0,0,0,3.736-3.394,14.733,14.733,0,0,0,2.086-4.764,22.634,22.634,0,0,0,.654-5.449,24.344,24.344,0,0,0-.654-5.667,15.03,15.03,0,0,0-2.086-4.889,10.593,10.593,0,0,0-3.736-3.425,12.941,12.941,0,0,0-11.21,0,10.571,10.571,0,0,0-3.737,3.425,15,15,0,0,0-2.086,4.889,24.34,24.34,0,0,0-.654,5.667,22.633,22.633,0,0,0,.654,5.449Zm-8.937-14.7a22.226,22.226,0,0,1,4.3-7.442,19.648,19.648,0,0,1,6.881-4.982,24.342,24.342,0,0,1,18.4,0,19.734,19.734,0,0,1,6.85,4.982,22.216,22.216,0,0,1,4.3,7.442,27.783,27.783,0,0,1,1.495,9.248,26.855,26.855,0,0,1-1.495,9.061,21.638,21.638,0,0,1-4.3,7.317,19.751,19.751,0,0,1-6.85,4.889,24.738,24.738,0,0,1-18.4,0,19.668,19.668,0,0,1-6.881-4.889,21.636,21.636,0,0,1-4.3-7.317,26.856,26.856,0,0,1-1.495-9.061,27.785,27.785,0,0,1,1.495-9.248ZM482.68,71.738a16.39,16.39,0,0,1-6.414,1.339A22.8,22.8,0,0,1,467.08,71.3a19.668,19.668,0,0,1-6.881-4.889,21.638,21.638,0,0,1-4.3-7.317,26.854,26.854,0,0,1-1.495-9.061,27.782,27.782,0,0,1,1.495-9.248,22.213,22.213,0,0,1,4.3-7.442,19.648,19.648,0,0,1,6.881-4.982,22.456,22.456,0,0,1,9.186-1.806,21.608,21.608,0,0,1,6.632,1.028,18.819,18.819,0,0,1,5.792,3.02,16.328,16.328,0,0,1,6.321,11.646h-9.341a9.359,9.359,0,0,0-3.363-5.6,9.783,9.783,0,0,0-6.041-1.868,11.412,11.412,0,0,0-5.6,1.277,10.572,10.572,0,0,0-3.736,3.425,15,15,0,0,0-2.086,4.889,24.338,24.338,0,0,0-.654,5.667,22.634,22.634,0,0,0,.654,5.449,14.705,14.705,0,0,0,2.086,4.764,10.669,10.669,0,0,0,3.736,3.394,11.4,11.4,0,0,0,5.6,1.277q4.857,0,7.5-2.46a10.691,10.691,0,0,0,3.083-7.131h-9.84V48.042H495.7V72.081h-6.227l-1-5.044a14.653,14.653,0,0,1-5.792,4.7Zm46.4-3.051q-5.044,4.39-13.95,4.39-9.029,0-13.981-4.359T496.2,55.266V27.616h9.777v27.65a20.092,20.092,0,0,0,.311,3.55,6.905,6.905,0,0,0,4.079,5.262,11.286,11.286,0,0,0,4.764.841q5.231,0,7.224-2.335t1.993-7.317V27.616h9.777v27.65Q534.125,64.3,529.08,68.687Zm39.726-41.071v8.22H545.328v9.528h21.547v7.6H545.328v10.9H569.3v8.22H535.551V27.616Z" transform="translate(-147.027 -21.888)"/><path class="f" d="M166.57,60.237a12.543,12.543,0,0,0,4.11-.685,9.037,9.037,0,0,0,3.55-2.273,11.435,11.435,0,0,0,2.491-4.141,18.2,18.2,0,0,0,.934-6.228A25.927,25.927,0,0,0,177,40.839a12.114,12.114,0,0,0-2.149-4.64,9.54,9.54,0,0,0-3.954-2.958,15.762,15.762,0,0,0-6.072-1.028h-6.975V60.237Zm.685-36.244a22.9,22.9,0,0,1,8,1.37,17.382,17.382,0,0,1,6.414,4.11,18.986,18.986,0,0,1,4.235,6.85,27.705,27.705,0,0,1,1.526,9.653,30.8,30.8,0,0,1-1.245,8.968,19.733,19.733,0,0,1-3.768,7.1,17.648,17.648,0,0,1-6.29,4.7,21.266,21.266,0,0,1-8.874,1.713H148.075V23.993Zm29.668,0V68.458h-9.777V23.993Zm11.421,44.465L193.959,23.993h10.026l9.9,31.262h.125l10.026-31.262h10.089L219.367,68.458Zm56.017-44.465v8.22H240.884v9.528h21.547v7.6H240.884v10.9H264.86v8.22H231.106V23.993ZM285.31,44.108a7.4,7.4,0,0,0,5.044-1.495q1.681-1.495,1.681-4.857,0-3.237-1.681-4.7a7.51,7.51,0,0,0-5.044-1.463H274.6V44.108ZM288.8,23.993a14.313,14.313,0,0,1,5.387.965,12.417,12.417,0,0,1,4.11,2.647A11.482,11.482,0,0,1,300.91,31.5a12.486,12.486,0,0,1,.9,4.764,13.368,13.368,0,0,1-1.65,6.788,10.368,10.368,0,0,1-5.387,4.359v.125a7.559,7.559,0,0,1,2.989,1.526,8.468,8.468,0,0,1,1.931,2.429,11.292,11.292,0,0,1,1.09,3.083,26.9,26.9,0,0,1,.467,3.363q.062,1.06.125,2.491t.218,2.927a19.631,19.631,0,0,0,.5,2.834,6.524,6.524,0,0,0,1.028,2.273h-9.777a17.228,17.228,0,0,1-1-5.044q-.187-2.928-.56-5.6a8.836,8.836,0,0,0-2.117-5.107q-1.619-1.619-5.293-1.619H274.6V68.458h-9.777V23.993Zm23.565,0,18.558,29.83h.125V23.993H340.2V68.458h-9.777l-18.5-29.768H311.8V68.458h-9.154V23.993Zm37.825,27.868a14.7,14.7,0,0,0,2.086,4.764,10.69,10.69,0,0,0,3.736,3.394,12.942,12.942,0,0,0,11.21,0,10.692,10.692,0,0,0,3.737-3.394,14.706,14.706,0,0,0,2.086-4.764,22.63,22.63,0,0,0,.654-5.449,24.336,24.336,0,0,0-.654-5.667,15,15,0,0,0-2.086-4.889,10.594,10.594,0,0,0-3.737-3.425,12.942,12.942,0,0,0-11.21,0,10.593,10.593,0,0,0-3.737,3.425,15,15,0,0,0-2.086,4.889,24.335,24.335,0,0,0-.654,5.667A22.633,22.633,0,0,0,350.187,51.861Zm-8.937-14.7a22.228,22.228,0,0,1,4.3-7.442,19.658,19.658,0,0,1,6.881-4.982,24.342,24.342,0,0,1,18.4,0,19.722,19.722,0,0,1,6.85,4.982,22.212,22.212,0,0,1,4.3,7.442,27.782,27.782,0,0,1,1.495,9.248,26.854,26.854,0,0,1-1.495,9.061,21.636,21.636,0,0,1-4.3,7.317,19.74,19.74,0,0,1-6.85,4.889,24.738,24.738,0,0,1-18.4,0,19.676,19.676,0,0,1-6.881-4.889,21.638,21.638,0,0,1-4.3-7.317,26.855,26.855,0,0,1-1.495-9.061,27.785,27.785,0,0,1,1.495-9.248Zm51.527-13.171V60.237h21.672v8.22H383V23.993Zm27.258,27.868a14.706,14.706,0,0,0,2.086,4.764,10.67,10.67,0,0,0,3.737,3.394,12.942,12.942,0,0,0,11.21,0,10.691,10.691,0,0,0,3.736-3.394,14.732,14.732,0,0,0,2.086-4.764,22.635,22.635,0,0,0,.654-5.449,24.338,24.338,0,0,0-.654-5.667,15.029,15.029,0,0,0-2.086-4.889,10.593,10.593,0,0,0-3.737-3.425,12.941,12.941,0,0,0-11.21,0,10.572,10.572,0,0,0-3.737,3.425,15,15,0,0,0-2.086,4.889,24.338,24.338,0,0,0-.654,5.667,22.631,22.631,0,0,0,.654,5.449Zm-8.937-14.7a22.227,22.227,0,0,1,4.3-7.442,19.648,19.648,0,0,1,6.881-4.982,24.342,24.342,0,0,1,18.4,0,19.735,19.735,0,0,1,6.85,4.982,22.215,22.215,0,0,1,4.3,7.442,27.783,27.783,0,0,1,1.495,9.248,26.855,26.855,0,0,1-1.495,9.061,21.636,21.636,0,0,1-4.3,7.317,19.751,19.751,0,0,1-6.85,4.889,24.738,24.738,0,0,1-18.4,0,19.666,19.666,0,0,1-6.881-4.889,21.636,21.636,0,0,1-4.3-7.317,26.856,26.856,0,0,1-1.495-9.061,27.787,27.787,0,0,1,1.495-9.248Zm67.893,30.951a16.391,16.391,0,0,1-6.414,1.339,22.794,22.794,0,0,1-9.186-1.775,19.667,19.667,0,0,1-6.881-4.889,21.636,21.636,0,0,1-4.3-7.317,26.855,26.855,0,0,1-1.495-9.061,27.783,27.783,0,0,1,1.495-9.248,22.215,22.215,0,0,1,4.3-7.442,19.649,19.649,0,0,1,6.882-4.982,22.456,22.456,0,0,1,9.186-1.806,21.609,21.609,0,0,1,6.632,1.028A18.819,18.819,0,0,1,485,26.982a16.328,16.328,0,0,1,6.321,11.646H481.98a9.36,9.36,0,0,0-3.363-5.6,9.784,9.784,0,0,0-6.041-1.868,11.412,11.412,0,0,0-5.6,1.277,10.572,10.572,0,0,0-3.737,3.425,15,15,0,0,0-2.086,4.889,24.335,24.335,0,0,0-.654,5.667,22.633,22.633,0,0,0,.654,5.449,14.708,14.708,0,0,0,2.086,4.764,10.67,10.67,0,0,0,3.737,3.394,11.4,11.4,0,0,0,5.6,1.277q4.858,0,7.5-2.46a10.691,10.691,0,0,0,3.083-7.131h-9.84V44.419h18.683V68.458h-6.228l-1-5.044a14.654,14.654,0,0,1-5.792,4.7Zm46.4-3.051q-5.044,4.39-13.95,4.39-9.029,0-13.981-4.359T492.51,51.643V23.993h9.777v27.65a20.094,20.094,0,0,0,.311,3.55,6.9,6.9,0,0,0,4.079,5.262,11.287,11.287,0,0,0,4.764.841q5.231,0,7.224-2.335t1.993-7.317V23.993h9.777v27.65Q530.436,60.674,525.391,65.064Zm39.725-41.071v8.22H541.639v9.528h21.547v7.6H541.639v10.9h23.976v8.22H531.862V23.993Z" transform="translate(-148.075 -22.934)"/></g></g></g></g></svg>